<?xml version="1.0" encoding="utf-8"?>
<!-- Generator: Adobe Illustrator 16.0.0, SVG Export Plug-In . SVG Version: 6.00 Build 0)  -->
<!DOCTYPE svg PUBLIC "-//W3C//DTD SVG 1.1//EN" "http://www.w3.org/Graphics/SVG/1.1/DTD/svg11.dtd">
<svg version="1.1" id="Layer_1" xmlns="http://www.w3.org/2000/svg" xmlns:xlink="http://www.w3.org/1999/xlink" x="0px" y="0px"
	 width="576.631px" height="789.395px" viewBox="16.816 0.868 576.631 789.395"
	 enable-background="new 16.816 0.868 576.631 789.395" xml:space="preserve">
<g>
	<path fill="#222222" d="M583.895,76.421c-5.21-3.474-125.921-75.553-289.184-75.553C198.316,0.868,108,26.053,25.5,76.421
		l-8.684,5.211l100.737,246.631l0,0l187.579,462L593.447,81.632L583.895,76.421z M108.868,239.684
		c9.553-9.552,22.579-14.763,36.474-14.763c29.526,0,53.842,24.316,53.842,53.842c0,29.526-23.447,52.974-52.974,53.842
		L108.868,239.684z M156.631,356.921c39.079-5.21,68.605-39.079,68.605-79.026c0-44.289-35.605-79.895-79.895-79.895
		c-17.369,0-33.869,5.21-46.895,15.632l-17.368-42.553c185.842-90.316,364.736-34.737,447.236,1.737L305.131,721.658
		L156.631,356.921z M537.868,148.5c-85.975-37.342-271.815-95.526-466.342-1.737l-22.579-54.71c75.553-43.421,158.053-66,245.763-66
		c130.263,0,234.474,49.5,265.737,66L537.868,148.5z"/>
	<path fill="#222222" d="M301.658,415.974c-33,0-59.052,26.921-59.052,59.054c0,32.132,26.921,59.053,59.052,59.053
		c33,0,59.053-26.921,59.053-59.053C360.711,442.895,334.658,415.974,301.658,415.974z M301.658,508.895c-18.237,0-33-14.763-33-33
		c0-18.235,14.763-33,33-33c18.236,0,33,14.765,33,33C334.658,494.132,320.763,508.895,301.658,508.895z"/>
	<path fill="#222222" d="M388.5,190.184c-40.815,0-73.815,33-73.815,73.816s33,73.816,73.815,73.816s73.815-33,73.815-73.816
		S429.315,190.184,388.5,190.184z M388.5,311.763c-26.053,0-47.763-21.71-47.763-47.763c0-26.053,21.71-47.763,47.763-47.763
		s47.764,21.71,47.764,47.763C436.264,290.053,415.421,311.763,388.5,311.763z"/>
</g>
</svg>
