<?xml version="1.0" encoding="utf-8"?>
<!-- Generator: Adobe Illustrator 16.0.0, SVG Export Plug-In . SVG Version: 6.00 Build 0)  -->
<!DOCTYPE svg PUBLIC "-//W3C//DTD SVG 1.1//EN" "http://www.w3.org/Graphics/SVG/1.1/DTD/svg11.dtd">
<svg version="1.1" id="Layer_1" xmlns="http://www.w3.org/2000/svg" xmlns:xlink="http://www.w3.org/1999/xlink" x="0px" y="0px"
	 width="612.163px" height="607.284px" viewBox="-0.203 92.202 612.163 607.284"
	 enable-background="new -0.203 92.202 612.163 607.284" xml:space="preserve">
<g>
	<path fill="#ACFFD3" d="M430.088,435.886c-0.633,0-1.055-0.422-1.055-1.056v-6.12c0-0.633,0.633-1.055,1.055-1.055h16.25
		c0.633,0,1.056,0.633,1.056,1.055v16.039c0,0.633-0.212,1.478-0.845,1.899c-4.221,3.799-10.13-3.377-8.652-4.854v-5.909H430.088z"
		/>
	<path fill="#ACFFD3" d="M321.827,108.36c0.634,0,1.056,0.422,1.056,1.055v6.12c0,0.633-0.633,1.055-1.056,1.055h-16.249
		c-0.633,0-1.055-0.633-1.055-1.055V99.497c0-0.633,0.211-1.477,0.844-1.899c4.221-3.798,10.129,3.376,8.653,4.854v5.909H321.827z"
		/>
	<path fill="#ACFFD3" d="M522.943,408.029c0.422-0.422,1.056-0.422,1.478,0l4.432,4.432c0.422,0.422,0.422,1.266,0,1.477
		l-11.396,11.396c-0.423,0.422-1.267,0.422-1.478,0l-11.396-11.396c-0.423-0.422-0.845-1.055-0.845-1.898
		c0.211-5.698,9.708-4.854,9.497-2.533l4.221,4.221L522.943,408.029z"/>
	<path fill="#ACFFD3" d="M257.462,600.703c0.633,0,1.055,0.423,1.055,1.056v6.12c0,0.633-0.633,1.055-1.055,1.055h-16.25
		c-0.633,0-1.055-0.633-1.055-1.055V591.84c0-0.633,0.211-1.478,0.844-1.899c4.221-3.798,10.129,3.377,8.652,4.854v5.908H257.462z"
		/>
	<path fill="#ACFFD3" d="M515.979,115.957c-0.422,0.422-1.056,0.422-1.478,0l-4.432-4.432c-0.422-0.422-0.422-1.266,0-1.477
		l11.396-11.396c0.423-0.422,1.267-0.422,1.478,0l11.396,11.396c0.423,0.422,0.845,1.055,0.845,1.899
		c-0.211,5.698-9.708,4.854-9.497,2.532l-4.221-4.221L515.979,115.957z"/>
	<path fill="#ACFFD3" d="M220.953,440.95c-0.422,0.422-1.055,0.422-1.477,0l-4.432-4.432c-0.422-0.422-0.422-1.267,0-1.478
		l11.396-11.396c0.422-0.422,1.266-0.422,1.478,0l11.396,11.396c0.422,0.423,0.844,1.056,0.844,1.899
		c-0.211,5.698-9.708,4.854-9.497,2.532l-4.221-4.221L220.953,440.95z"/>
	<path fill="#ACFFD3" d="M508.382,621.385c-0.422,0.422-1.055,0.422-1.477,0l-4.433-4.432c-0.422-0.422-0.422-1.267,0-1.478
		l11.396-11.396c0.422-0.422,1.266-0.422,1.477,0l11.396,11.396c0.422,0.423,0.844,1.056,0.844,1.899
		c-0.211,5.698-9.707,4.854-9.496,2.532l-4.221-4.221L508.382,621.385z"/>
	<path fill="#ACFFD3" d="M607.568,270.856c0,17.516-13.718,23.003-23.636,23.003c-9.708,0-23.636-5.276-23.636-23.003
		c0-6.964,8.652-3.587,8.652,0c0,11.818,10.974,13.506,14.772,13.506c3.798,0,15.405-1.688,15.405-13.506
		C598.916,268.324,607.568,264.104,607.568,270.856z"/>
	<path fill="#ACFFD3" d="M282.575,161.752c-12.451,12.451-25.957,6.331-32.921-0.633c-6.753-6.753-12.873-20.47-0.422-32.921
		c4.854-4.854,8.652,3.587,6.12,6.12c-8.23,8.23-1.688,17.305,1.055,20.048c2.744,2.743,12.029,9.708,20.259,1.266
		C278.354,153.943,287.218,156.898,282.575,161.752z"/>
	<path fill="#ACFFD3" d="M302.413,281.831c0,17.516-13.717,23.002-23.636,23.002c-9.708,0-23.636-5.276-23.636-23.002
		c0-6.964,8.652-3.588,8.652,0c0,11.818,10.974,13.506,14.772,13.506c3.799,0,15.406-1.688,15.406-13.506
		C293.971,279.298,302.413,275.077,302.413,281.831z"/>
	<path fill="#ACFFD3" d="M165.24,513.124c-3.377-6.753,5.275-9.496,7.386-5.275c3.377,6.542,8.441,14.562,1.267,21.736
		c-5.909,5.909-13.928,5.064-20.048-1.056c-1.688-1.688-5.698-6.331-8.441-13.717c-0.211-0.633,0-1.267,0.633-1.478l5.698-2.321
		c0.633-0.211,1.266,0,1.477,0.633c1.055,2.744,3.376,7.598,6.12,10.341c2.321,2.321,5.065,3.588,7.386,1.478
		C169.25,521.144,167.351,517.556,165.24,513.124"/>
	<path fill="#ACFFD3" d="M295.659,479.358c-3.376-6.753,5.276-9.496,7.386-5.275c3.376,6.542,8.442,14.562,1.266,21.736
		c-5.909,5.909-13.928,5.064-20.048-1.056c-1.688-1.688-5.698-6.33-8.441-13.717c-0.211-0.633,0-1.267,0.633-1.478l5.698-2.321
		c0.633-0.211,1.266,0,1.477,0.634c1.055,2.743,3.376,7.597,6.12,10.34c2.321,2.322,5.065,3.588,7.386,1.478
		C299.669,487.167,297.77,483.579,295.659,479.358"/>
	<path fill="#ACFFD3" d="M271.179,377.64c-3.376-6.753-7.808-15.406-0.422-21.948c5.698-5.065,14.35-4.221,21.314,2.532
		c4.643,4.643-2.744,9.286-5.698,6.331c-2.744-2.743-6.12-3.587-8.23-2.11c-2.744,1.899-1.478,5.698,0.633,9.708
		c3.377,6.542,8.441,14.561,1.267,21.736c-5.909,5.909-13.928,5.064-20.048-1.055c-1.688-1.688,2.743-9.497,5.698-6.542
		c2.321,2.321,5.065,3.587,7.386,1.477C275.189,385.448,273.29,382.072,271.179,377.64"/>
	<path fill="#ACFFD3" d="M580.767,677.942c2.533-7.176,5.276-16.25,15.194-15.828c7.598,0.423,13.296,7.176,13.296,16.883
		c0,6.542-8.652,4.643-8.652,0.422c0-4.009-1.688-6.964-4.432-7.386c-3.377-0.633-5.065,2.954-6.542,7.386
		c-2.111,6.965-4.433,16.25-14.351,16.25c-8.441,0-13.507-6.331-13.507-14.983c0-2.532,8.652-4.643,8.652-0.633
		c0,3.165,1.056,6.12,4.221,6.331C578.023,686.173,579.29,682.374,580.767,677.942"/>
	<path fill="#ACFFD3" d="M410.673,574.113c2.532-7.176,5.276-16.25,15.194-15.828c7.598,0.423,13.296,7.176,13.296,16.883
		c0,6.542-8.652,4.644-8.652,0.423c0-4.01-1.688-6.965-4.433-7.387c-3.376-0.633-5.064,2.954-6.542,7.387
		c-2.11,6.964-4.432,16.249-14.35,16.249c-8.441,0-13.507-6.331-13.507-14.983c0-2.532,8.652-4.643,8.652-0.633
		c0,3.165,1.056,6.12,4.221,6.331C407.93,582.555,409.196,578.756,410.673,574.113"/>
	<path fill="#ACFFD3" d="M482.847,670.979c3.377,6.753,7.809,15.405,0.422,21.947c-5.697,5.064-14.35,4.221-21.314-2.532
		c-4.643-4.644,2.744-9.286,5.698-6.331c2.743,2.743,6.12,3.587,8.23,2.11c2.743-1.899,1.478-5.698-0.633-9.708
		c-3.377-6.542-8.441-14.562-1.267-21.736c5.909-5.909,13.929-5.065,20.048,1.055c1.688,1.688-2.743,9.497-5.697,6.542
		c-2.321-2.321-5.065-3.587-7.387-1.477C479.048,663.17,480.736,666.546,482.847,670.979"/>
	<path fill="#ACFFD3" d="M362.135,160.697c-7.175-2.533-2.954-10.341,1.478-8.864c6.964,2.11,16.25,4.432,16.25,14.351
		c0,8.441-6.331,13.506-14.983,13.506c-2.532,0-8.441-0.422-15.828-3.798c-0.633-0.211-0.844-0.844-0.633-1.477l2.532-5.698
		c0.211-0.633,0.845-0.844,1.478-0.633c2.743,1.055,7.597,2.954,11.817,2.954c3.166,0,6.12-1.055,6.331-4.221
		C370.576,163.44,366.778,162.174,362.135,160.697"/>
	<path fill="#ACFFD3" d="M89.901,658.527c-0.633,0-1.055-0.423-1.055-1.056v-6.12c0-0.633,0.633-1.055,1.055-1.055h16.25
		c0.633,0,1.055,0.633,1.055,1.055v16.039c0,0.633-0.211,1.477-0.844,1.899c-4.221,3.798-10.129-3.377-8.652-4.854v-5.908H89.901
		L89.901,658.527z"/>
	<path fill="#ACFFD3" d="M30.6,612.943c0.422,0.422,0.422,1.056,0,1.478l-4.432,4.432c-0.422,0.422-1.267,0.422-1.478,0
		l-11.396-11.396c-0.422-0.423-0.422-1.267,0-1.478l11.396-11.396c0.422-0.423,1.055-0.845,1.899-0.845
		c5.698,0.211,4.854,9.708,2.532,9.497l-4.221,4.221L30.6,612.943z"/>
	<path fill="#ACFFD3" d="M126.832,577.912c0,17.516-13.717,23.002-23.636,23.002c-9.708,0-23.636-5.275-23.636-23.002
		c0-6.965,8.652-3.588,8.652,0c0,11.817,10.974,13.506,14.772,13.506c3.798,0,15.405-1.688,15.405-13.506
		C118.39,575.379,126.832,571.158,126.832,577.912z"/>
	<path fill="#ACFFD3" d="M352.006,639.534c0,17.516-13.718,23.002-23.636,23.002c-9.708,0-23.636-5.275-23.636-23.002
		c0-6.965,8.653-3.588,8.653,0c0,11.817,10.974,13.506,14.771,13.506c3.799,0,15.406-1.688,15.406-13.506
		C343.564,637.002,352.006,632.781,352.006,639.534z"/>
	<path fill="#ACFFD3" d="M42.207,684.484c7.175,2.532,2.955,10.341-1.478,8.863c-6.964-2.11-16.25-4.432-16.25-14.351
		c0-8.441,6.331-13.506,14.983-13.506c2.533,0,8.441,0.422,15.828,3.799c0.633,0.211,0.844,0.844,0.633,1.477l-2.533,5.698
		c-0.211,0.633-0.844,0.844-1.477,0.633c-2.744-1.055-7.597-2.954-11.818-2.954c-3.166,0-6.12,1.056-6.331,4.221
		C33.977,681.74,37.775,682.796,42.207,684.484"/>
	<path fill="#ACFFD3" d="M410.462,641.434c7.176,2.532,2.955,10.34-1.478,8.863c-6.964-2.11-16.249-4.432-16.249-14.351
		c0-8.441,6.331-13.506,14.983-13.506c2.532,0,8.441,0.422,15.827,3.798c0.423,0.212,0.845,0.845,0.423,1.478l-2.533,5.698
		c-0.211,0.633-0.844,0.844-1.477,0.633c-2.744-1.055-7.598-2.954-11.818-2.954c-3.165,0-6.12,1.055-6.331,4.221
		C402.231,638.479,406.03,639.745,410.462,641.434"/>
	<path fill="#ACFFD3" d="M169.25,661.481c-3.376-6.753,5.276-9.496,7.386-5.276c3.376,6.543,8.441,14.562,1.266,21.737
		c-5.909,5.909-13.928,5.064-20.048-1.056c-1.688-1.688-5.698-6.331-8.441-13.717c-0.211-0.633,0-1.267,0.633-1.478l5.698-2.321
		c0.633-0.211,1.266,0,1.477,0.633c1.055,2.744,3.376,7.598,6.12,10.341c2.321,2.321,5.064,3.588,7.386,1.478
		C173.259,669.501,171.36,665.913,169.25,661.481"/>
	<path fill="#ACFFD3" d="M189.931,606.401c6.753-3.377,9.497,5.276,5.276,7.387c-6.542,3.376-14.562,8.44-21.737,1.266
		c-5.909-5.909-5.065-13.928,1.055-20.048c1.688-1.688,6.331-5.698,13.717-8.441c0.633-0.211,1.266,0,1.478,0.633l2.321,5.698
		c0.211,0.633,0,1.266-0.633,1.477c-2.743,1.056-7.597,3.377-10.341,6.12c-2.321,2.321-3.587,5.065-1.477,7.387
		C182.123,610.411,185.71,608.512,189.931,606.401"/>
	<path fill="#ACFFD3" d="M249.443,670.979c7.175,2.532,16.25,5.275,15.828,15.194c-0.422,7.597-7.175,13.295-16.883,13.295
		c-6.542,0-4.643-8.652-0.422-8.652c4.01,0,6.964-1.688,7.386-4.432c0.633-3.377-2.954-5.065-7.386-6.542
		c-6.964-2.11-16.25-4.432-16.25-14.351c0-8.441,6.331-13.506,14.983-13.506c2.533,0,4.643,8.652,0.633,8.652
		c-3.166,0-6.12,1.055-6.331,4.221C241.001,668.234,244.8,669.501,249.443,670.979"/>
	<path fill="#ACFFD3" d="M417.849,310.953c-6.754,3.376-15.406,7.808-21.948,0.422c-5.064-5.698-4.221-14.35,2.533-21.314
		c4.643-4.643,9.285,2.744,6.33,5.698c-2.743,2.743-3.587,6.12-2.109,8.23c1.898,2.743,5.697,1.477,9.707-0.633
		c6.542-3.376,14.562-8.441,21.736-1.266c5.909,5.909,5.065,13.928-1.055,20.048c-1.688,1.688-9.497-2.743-6.542-5.698
		c2.321-2.321,3.587-5.065,1.477-7.386C425.656,307.154,422.069,309.054,417.849,310.953"/>
	<path fill="#ACFFD3" d="M306.844,570.736c2.533-7.175,5.276-16.249,15.195-15.827c7.597,0.422,13.295,7.175,13.295,16.883
		c0,6.542-8.652,4.643-8.652,0.422c0-4.01-1.688-6.964-4.432-7.387c-3.377-0.633-5.065,2.955-6.542,7.387
		c-2.11,6.964-4.433,16.25-14.351,16.25c-8.441,0-13.506-6.331-13.506-14.983c0-2.533,8.652-4.644,8.652-0.634
		c0,3.166,1.055,6.12,4.221,6.331C303.89,578.967,305.156,575.168,306.844,570.736"/>
	<path fill="#ACFFD3" d="M39.463,525.153c2.533-7.176,5.276-16.25,15.194-15.828c7.598,0.423,13.295,7.176,13.295,16.883
		c0,6.542-8.652,4.644-8.652,0.423c0-4.01-1.688-6.965-4.432-7.387c-3.377-0.633-5.065,2.954-6.542,7.387
		c-2.11,6.964-4.432,16.249-14.35,16.249c-8.441,0-13.506-6.331-13.506-14.983c0-2.532,8.652-4.643,8.652-0.633
		c0,3.165,1.055,6.12,4.221,6.331C36.509,533.595,37.775,529.796,39.463,525.153"/>
	<path fill="#ACFFD3" d="M228.55,523.887c-7.175-2.532-16.25-5.275-15.828-15.194c0.422-7.597,7.175-13.295,16.883-13.295
		c6.542,0,4.643,8.652,0.422,8.652c-4.009,0-6.964,1.688-7.386,4.432c-0.633,3.377,2.954,5.064,7.386,6.542
		c6.964,2.11,16.25,4.432,16.25,14.351c0,8.441-6.331,13.506-14.983,13.506c-2.533,0-4.643-8.652-0.633-8.652
		c3.166,0,6.12-1.055,6.331-4.221C236.781,526.631,232.982,525.364,228.55,523.887"/>
	<path fill="#ACFFD3" d="M361.502,398.11c0,0.633-0.633,1.056-1.266,0.844l-6.12-1.055c-0.634,0-1.056-0.633-0.845-1.267
		l2.532-16.038c0-0.633,0.634-1.056,1.267-0.844l15.828,2.532c0.633,0.211,1.266,0.422,1.688,1.055
		c3.166,4.854-5.064,9.497-6.12,7.597l-5.697-0.844L361.502,398.11z"/>
	<path fill="#ACFFD3" d="M352.006,533.173c-0.634,0-1.056-0.634-0.845-1.267l1.056-6.12c0-0.633,0.633-1.055,1.266-0.844
		l16.039,2.532c0.633,0,1.055,0.633,0.844,1.267l-2.532,15.827c-0.211,0.633-0.422,1.267-1.055,1.688
		c-4.854,3.165-9.497-5.065-7.598-6.12l0.844-5.698L352.006,533.173z"/>
	<path fill="#ACFFD3" d="M347.363,268.957c0,0.633-0.634,1.056-1.267,0.844l-6.12-1.055c-0.633,0-1.055-0.633-0.844-1.266
		l2.532-16.039c0-0.633,0.633-1.055,1.266-0.844l15.828,2.533c0.633,0.211,1.266,0.422,1.688,1.055
		c3.165,4.854-5.065,9.497-6.12,7.597l-5.698-0.844L347.363,268.957z"/>
	<path fill="#ACFFD3" d="M576.546,524.098c0-0.633,0.634-1.055,1.267-0.844l6.12,1.055c0.633,0,1.055,0.634,0.844,1.267
		l-2.532,16.039c0,0.633-0.633,1.055-1.267,0.844l-15.827-2.532c-0.633-0.211-1.267-0.422-1.688-1.056
		c-3.165-4.854,5.065-9.496,6.12-7.597l5.698,0.844L576.546,524.098z"/>
	<path fill="#ACFFD3" d="M494.665,236.88c-0.422-0.422-0.211-1.266,0.211-1.477l5.064-3.587c0.422-0.422,1.267-0.211,1.478,0.211
		l9.496,13.084c0.423,0.422,0.212,1.266-0.211,1.478l-13.084,9.496c-0.633,0.422-1.266,0.633-2.11,0.422
		c-5.486-1.266-3.165-10.341-1.055-9.708l4.854-3.377L494.665,236.88z"/>
	<path fill="#ACFFD3" d="M338.077,305.466c17.305,2.744,20.471,17.305,18.782,27.012c-1.478,9.497-9.074,22.37-26.379,19.626
		c-6.965-1.055-2.11-9.075,1.477-8.652c11.607,1.899,14.983-8.653,15.617-12.451c0.633-3.799,0.844-15.406-10.764-17.305
		C334.067,313.274,331.324,304.411,338.077,305.466z"/>
	<path fill="#ACFFD3" d="M581.189,576.646c17.305,2.743,20.47,17.305,18.781,27.013c-1.477,9.496-9.074,22.369-26.379,19.626
		c-6.964-1.056-2.11-9.074,1.478-8.652c11.606,1.899,14.983-8.652,15.616-12.451s0.844-15.405-10.763-17.305
		C577.18,584.665,574.436,575.591,581.189,576.646z"/>
	<path fill="#ACFFD3" d="M516.19,295.125c-2.743,17.305-17.305,20.47-27.013,18.782c-9.496-1.478-22.369-9.075-19.626-26.379
		c1.055-6.964,9.074-2.11,8.652,1.477c-1.899,11.607,8.652,14.984,12.451,15.617c3.799,0.633,15.405,0.844,17.305-10.763
		C508.171,291.327,517.245,288.583,516.19,295.125z"/>
	<path fill="#ACFFD3" d="M416.16,501.939c2.743-17.305,17.305-20.471,27.013-18.782c9.496,1.478,22.369,9.074,19.626,26.38
		c-1.056,6.964-9.074,2.109-8.652-1.478c1.899-11.607-8.652-14.983-12.451-15.617c-3.799-0.633-15.405-0.844-17.305,10.764
		C424.18,505.738,415.104,508.692,416.16,501.939z"/>
	<path fill="#ACFFD3" d="M536.661,175.047c2.743-17.305,17.305-20.47,27.012-18.782c9.497,1.478,22.37,9.075,19.626,26.379
		c-1.055,6.964-9.074,2.11-8.652-1.477c1.899-11.607-8.652-14.983-12.45-15.617c-3.799-0.633-15.406-0.844-17.306,10.763
		C544.469,178.846,535.395,181.8,536.661,175.047z"/>
	<path fill="#ACFFD3" d="M569.16,444.538c-10.341-14.351-2.11-26.591,5.909-32.499c7.808-5.698,22.369-9.497,32.499,4.854
		c4.01,5.698-5.064,8.02-6.964,5.064c-6.965-9.496-16.883-4.432-19.838-2.321c-2.954,2.11-11.396,10.341-4.643,19.837
		C577.602,441.584,573.17,450.024,569.16,444.538z"/>
	<path fill="#ACFFD3" d="M556.709,222.53c-6.753-3.587-1.267-10.763,2.954-8.652c6.542,3.166,15.406,6.964,13.718,16.883
		c-1.267,8.23-8.23,12.24-16.883,10.763c-2.532-0.422-8.23-1.899-14.983-6.331c-0.422-0.422-0.634-1.055-0.211-1.478l3.376-5.276
		c0.422-0.633,1.056-0.633,1.688-0.422c2.532,1.477,7.175,4.221,11.185,4.854c3.166,0.422,6.12,0,6.754-3.166
		C564.518,226.75,560.93,224.851,556.709,222.53"/>
	<path fill="#ACFFD3" d="M514.502,493.709c-3.588,6.753-10.763,1.267-8.652-2.954c3.166-6.542,6.964-15.406,16.883-13.718
		c8.23,1.267,12.24,8.23,10.763,16.883c-0.422,2.532-1.899,8.23-6.331,14.983c-0.422,0.422-1.055,0.634-1.478,0.211l-5.275-3.376
		c-0.633-0.422-0.633-1.056-0.422-1.688c1.477-2.532,4.221-7.175,4.854-11.185c0.422-3.166,0-6.12-3.165-6.965
		C518.723,485.9,516.823,489.488,514.502,493.709"/>
	<path fill="#ACFFD3" d="M427.345,366.666c3.588-6.753,10.763-1.266,8.652,2.955c-3.165,6.542-6.964,15.406-16.883,13.717
		c-8.23-1.266-12.239-8.23-10.763-16.883c0.422-2.532,1.899-8.23,6.331-14.983c0.422-0.422,1.056-0.633,1.478-0.211l5.275,3.376
		c0.634,0.422,0.634,1.055,0.423,1.688c-1.478,2.532-4.221,7.175-4.854,11.185c-0.422,3.166,0,6.12,3.166,6.964
		C423.124,374.475,425.023,370.887,427.345,366.666"/>
	<path fill="#ACFFD3" d="M602.926,478.937c3.588-6.753,10.763-1.267,8.652,2.954c-3.166,6.543-6.964,15.406-16.883,13.718
		c-8.23-1.267-12.24-8.23-10.763-16.883c0.422-2.532,1.899-8.23,6.331-14.983c0.422-0.422,1.055-0.633,1.478-0.211l5.275,3.376
		c0.633,0.423,0.633,1.056,0.422,1.688c-1.478,2.532-4.221,7.176-4.854,11.185c-0.422,3.166,0,6.12,3.165,6.754
		C598.916,486.534,600.815,483.157,602.926,478.937"/>
	<path fill="#ACFFD3" d="M169.461,434.83c3.587-6.753,10.763-1.266,8.652,2.955c-3.166,6.542-6.964,15.405-16.883,13.717
		c-8.23-1.266-12.24-8.23-10.763-16.883c0.422-2.532,1.899-8.23,6.331-14.983c0.422-0.422,1.055-0.633,1.477-0.211l5.276,3.377
		c0.633,0.422,0.633,1.055,0.422,1.688c-1.477,2.533-4.221,7.176-4.854,11.186c-0.422,3.165,0,6.12,3.166,6.753
		C165.24,442.639,167.139,439.051,169.461,434.83"/>
	<path fill="#ACFFD3" d="M469.13,132.418c3.587-6.753,10.763-1.266,8.652,2.955c-3.166,6.542-6.964,15.405-16.883,13.717
		c-8.23-1.267-12.24-8.441-10.763-16.883c0.422-2.533,1.899-8.23,6.331-14.983c0.422-0.422,1.055-0.633,1.478-0.211l5.275,3.376
		c0.633,0.422,0.633,1.055,0.422,1.688c-1.477,2.533-4.221,7.175-4.854,11.185c-0.422,3.166,0,6.12,3.165,6.964
		C465.12,140.226,466.809,136.639,469.13,132.418"/>
	<path fill="#ACFFD3" d="M504.583,360.335c-6.753-3.587-1.266-10.763,2.955-8.652c6.542,3.166,15.405,6.964,13.717,16.883
		c-1.266,8.23-8.23,12.24-16.883,10.763c-2.532-0.422-8.229-1.899-14.983-6.331c-0.422-0.422-0.633-1.055-0.211-1.477l3.377-5.276
		c0.422-0.633,1.055-0.633,1.688-0.422c2.532,1.477,7.175,4.221,11.185,4.854c3.165,0.422,6.12,0,6.964-3.166
		C512.181,364.345,508.804,362.657,504.583,360.335"/>
	<path fill="#ACFFD3" d="M581.822,119.545c-7.176,2.11-8.441-6.753-4.01-8.23c6.964-2.321,15.827-5.909,21.736,2.11
		c4.854,6.753,2.743,14.562-4.221,19.626c-2.11,1.477-7.175,4.432-14.983,6.12c-0.633,0-1.267-0.211-1.267-0.844l-1.266-6.12
		c-0.211-0.633,0.211-1.266,0.844-1.478c2.744-0.633,8.02-2.11,11.186-4.432c2.532-1.899,4.432-4.432,2.532-7.175
		C590.264,117.013,586.465,118.279,581.822,119.545"/>
	<path fill="#ACFFD3" d="M400.332,227.172c-2.11-7.175,6.754-8.441,8.23-4.01c2.321,6.964,5.909,15.828-2.11,21.737
		c-6.753,4.854-14.562,2.743-19.626-4.221c-1.478-2.11-4.432-7.175-6.12-14.983c0-0.633,0.211-1.266,0.845-1.266l6.119-1.266
		c0.634-0.211,1.267,0.211,1.478,0.844c0.633,2.744,2.11,8.02,4.432,11.185c1.899,2.532,4.432,4.432,7.176,2.532
		C403.076,235.614,401.81,231.815,400.332,227.172"/>
	<path fill="#ACFFD3" d="M459.844,186.232c3.588-6.753,7.809-15.195,17.517-13.084c7.386,1.688,11.817,9.286,10.341,18.782
		c-1.056,6.331-9.286,3.166-8.653-0.844c0.634-4.01-0.633-7.175-3.165-8.019c-3.166-1.055-5.487,2.11-7.598,6.331
		c-3.165,6.542-6.964,15.405-16.883,13.717c-8.229-1.266-12.239-8.23-10.763-16.882c0.423-2.533,9.286-3.166,8.652,0.844
		c-0.422,3.166,0,6.12,3.166,6.964C455.623,194.04,457.522,190.453,459.844,186.232"/>
	<path fill="#ACFFD3" d="M568.949,357.17c-6.753-3.588-15.194-7.809-13.084-17.516c1.688-7.386,9.285-11.818,18.781-10.341
		c6.331,1.055,3.166,9.286-0.844,8.652c-4.01-0.633-7.175,0.633-8.02,3.166c-1.055,3.166,2.11,5.487,6.331,7.598
		c6.542,3.166,15.405,6.964,13.718,16.883c-1.267,8.23-8.23,12.24-16.883,10.763c-2.532-0.422-3.166-9.286,0.844-8.653
		c3.166,0.422,6.12,0,6.964-3.166C576.757,361.179,573.17,359.491,568.949,357.17"/>
	<path fill="#ACFFD3" d="M397.378,124.188c-6.753-3.587-15.194-7.808-13.084-17.516c1.688-7.386,9.285-11.818,18.782-10.341
		c6.331,1.055,3.165,9.286-0.845,8.652c-4.01-0.633-7.175,0.633-8.019,3.166c-1.056,3.166,2.11,5.487,6.33,7.597
		c6.543,3.166,15.406,6.964,13.718,16.883c-1.267,8.23-8.23,12.24-16.883,10.763c-2.532-0.422-3.165-9.285,0.844-8.652
		c3.166,0.422,6.12,0,6.965-3.166C405.187,128.197,401.599,126.298,397.378,124.188"/>
	<path fill="#ACFFD3" d="M350.528,443.693c-7.175,2.322-16.461,5.276-21.736-3.165c-4.01-6.331-1.899-14.983,5.909-20.471
		c5.275-3.798,8.863,4.221,5.486,6.754c-3.165,2.321-4.643,5.486-3.376,7.808c1.477,2.955,5.275,2.321,9.707,0.845
		c6.964-2.321,15.828-5.909,21.736,2.11c4.854,6.753,2.744,14.561-4.221,19.626c-2.11,1.478-8.863-4.221-5.697-6.753
		c2.532-1.899,4.432-4.432,2.532-7.176C358.97,441.161,355.171,442.428,350.528,443.693"/>
	<path fill="#ACFFD3" d="M316.763,213.033c-3.588,6.753-7.809,15.194-17.516,13.084c-7.386-1.688-11.818-9.285-10.341-18.782
		c1.055-6.331,9.286-3.165,8.652,0.844c-0.633,4.01,0.633,7.175,3.166,8.02c3.166,1.055,5.487-2.11,7.597-6.331
		c3.166-6.542,6.964-15.406,16.883-13.717c8.23,1.266,12.24,8.23,10.763,16.883c-0.422,2.532-9.285,3.166-8.652-0.844
		c0.422-3.166,0-6.12-3.165-6.964C320.983,205.225,319.084,208.812,316.763,213.033"/>
	<path fill="#ACFFD3" d="M514.291,557.863c-3.588,6.753-7.809,15.194-17.516,13.084c-7.387-1.688-11.818-9.285-10.341-18.781
		c1.055-6.331,9.285-3.166,8.652,0.844s0.633,7.175,3.165,8.02c3.166,1.055,5.487-2.11,7.598-6.331
		c3.166-6.542,6.964-15.406,16.883-13.718c8.23,1.267,12.24,8.23,10.763,16.883c-0.422,2.532-9.285,3.166-8.652-0.844
		c0.422-3.166,0-6.12-3.165-6.964C518.512,550.056,516.612,553.643,514.291,557.863"/>
	<path fill="#ACFFD3" d="M219.898,360.968c0.422,0.422,0.211,1.266-0.211,1.477l-5.065,3.588c-0.422,0.422-1.266,0.211-1.477-0.211
		l-9.497-13.084c-0.422-0.422-0.211-1.266,0.211-1.477l13.084-9.497c0.633-0.422,1.266-0.633,2.11-0.422
		c5.487,1.266,3.166,10.34,1.055,9.708l-4.854,3.376L219.898,360.968z"/>
	<path fill="#ACFFD3" d="M29.123,374.475c0-0.633,0.633-1.055,1.267-0.844l6.12,1.055c0.633,0,1.055,0.633,0.844,1.266
		l-2.532,16.039c0,0.633-0.633,1.055-1.266,0.844l-15.828-2.532c-0.633-0.211-1.267-0.422-1.688-1.055
		c-3.166-4.854,5.065-9.497,6.12-7.597l5.698,0.844L29.123,374.475z"/>
	<path fill="#ACFFD3" d="M74.073,175.891c0.422,0.422,0.211,1.266-0.211,1.477l-5.065,3.588c-0.422,0.422-1.266,0.211-1.478-0.211
		l-9.497-13.084c-0.422-0.422-0.211-1.266,0.211-1.477l13.084-9.497c0.633-0.422,1.266-0.633,2.11-0.422
		c5.487,1.267,3.166,10.341,1.055,9.708l-4.854,3.376L74.073,175.891z"/>
	<path fill="#ACFFD3" d="M110.371,487.589c0.422,0.422,0.211,1.267-0.211,1.478l-5.065,3.588c-0.422,0.422-1.266,0.211-1.477-0.212
		l-9.497-13.084c-0.422-0.422-0.211-1.266,0.211-1.477l13.084-9.497c0.633-0.422,1.266-0.633,2.11-0.422
		c5.487,1.267,3.166,10.341,1.055,9.707l-4.854,3.377L110.371,487.589z"/>
	<path fill="#ACFFD3" d="M398.855,694.191c0.422,0.423,0.211,1.267-0.211,1.478l-5.065,3.588c-0.422,0.422-1.266,0.211-1.477-0.211
		l-9.497-13.084c-0.422-0.423-0.211-1.267,0.211-1.478l13.084-9.497c0.634-0.422,1.267-0.633,2.11-0.422
		c5.487,1.267,3.166,10.341,1.056,9.708l-4.854,3.376L398.855,694.191z"/>
	<path fill="#ACFFD3" d="M57.612,103.717c-2.743,17.305-17.305,20.47-27.012,18.782c-9.497-1.478-22.581-9.075-19.626-26.379
		c1.055-6.964,9.075-2.11,8.652,1.477c-2.11,11.607,8.653,14.983,12.24,15.617c3.799,0.633,15.405,0.844,17.305-10.763
		C49.593,99.918,58.667,96.964,57.612,103.717z"/>
	<path fill="#ACFFD3" d="M12.24,422.591c17.305,2.743,20.47,17.305,18.782,27.012c-1.477,9.497-9.074,22.37-26.379,19.627
		c-6.964-1.056-2.11-9.075,1.478-8.653c11.607,1.899,14.983-8.652,15.616-12.45c0.633-3.799,0.844-15.406-10.763-17.306
		C8.441,430.609,5.698,421.535,12.24,422.591z"/>
	<path fill="#ACFFD3" d="M4.643,314.33c-10.34-14.35-2.11-26.59,5.909-32.499c7.808-5.698,22.37-9.497,32.5,4.854
		c4.009,5.698-5.065,8.02-6.964,5.065c-6.964-9.497-16.883-4.432-19.837-2.321c-2.954,2.11-11.396,10.341-4.643,19.837
		C13.084,311.375,8.652,319.816,4.643,314.33z"/>
	<path fill="#ACFFD3" d="M130.841,398.743c-10.341-14.35-2.11-26.59,5.909-32.499c7.808-5.698,22.37-9.497,32.499,4.854
		c4.01,5.698-5.064,8.019-6.964,5.064c-6.964-9.497-16.883-4.432-19.837-2.321s-11.396,10.341-4.643,19.837
		C139.283,396,134.851,404.23,130.841,398.743z"/>
	<path fill="#ACFFD3" d="M154.477,203.958c-10.34-14.35-2.11-26.59,5.909-32.499c7.808-5.698,22.37-9.497,32.5,4.854
		c4.009,5.698-5.065,8.02-6.964,5.065c-6.964-9.497-16.883-4.432-19.837-2.321c-2.954,2.11-11.396,10.341-4.643,19.837
		C162.708,201.215,158.276,209.445,154.477,203.958z"/>
	<path fill="#ACFFD3" d="M124.088,116.379c3.587-6.753,10.763-1.266,8.652,2.955c-3.166,6.542-6.964,15.405-16.883,13.717
		c-8.23-1.267-12.24-8.23-10.763-16.883c0.422-2.533,1.899-8.23,6.331-14.983c0.422-0.422,1.055-0.633,1.477-0.211l5.276,3.377
		c0.633,0.422,0.633,1.055,0.422,1.688c-1.478,2.533-4.221,7.175-4.854,11.185c-0.422,3.166,0,6.12,3.166,6.964
		C119.868,124.188,121.767,120.6,124.088,116.379"/>
	<path fill="#ACFFD3" d="M86.735,413.938c3.587-6.753,10.763-1.266,8.652,2.955c-3.166,6.542-6.964,15.405-16.883,13.717
		c-8.23-1.266-12.24-8.23-10.763-16.883c0.422-2.532,1.899-8.23,6.331-14.983c0.422-0.422,1.055-0.633,1.477-0.211l5.276,3.377
		c0.633,0.422,0.633,1.055,0.422,1.688c-1.477,2.532-4.221,7.175-4.854,11.185c-0.422,3.165,0,6.12,3.166,6.753
		C82.726,421.746,84.414,418.158,86.735,413.938"/>
	<path fill="#ACFFD3" d="M102.141,237.724c-7.175,2.11-8.441-6.753-4.01-8.23c6.964-2.321,15.828-5.909,21.737,2.11
		c4.854,6.753,2.743,14.562-4.221,19.626c-2.11,1.477-7.175,4.432-14.983,6.12c-0.633,0-1.266-0.211-1.266-0.844l-1.688-5.909
		c-0.211-0.633,0.211-1.266,0.844-1.477c2.743-0.633,8.019-2.11,11.185-4.432c2.533-1.899,4.432-4.432,2.533-7.175
		C110.582,235.192,106.783,236.458,102.141,237.724"/>
	<path fill="#ACFFD3" d="M211.246,241.101c-7.175,2.11-8.441-6.753-4.01-8.23c6.964-2.321,15.828-5.909,21.737,2.11
		c4.854,6.753,2.743,14.562-4.221,19.626c-2.11,1.477-7.175,4.432-14.984,6.12c-0.633,0-1.266-0.211-1.266-0.844l-1.688-5.909
		c-0.211-0.633,0.211-1.266,0.844-1.477c2.744-0.633,8.02-2.11,11.185-4.432c2.532-1.899,4.432-4.432,2.532-7.175
		C219.687,238.568,215.888,239.834,211.246,241.101"/>
	<path fill="#ACFFD3" d="M188.876,105.617c3.587-6.753,7.808-15.195,17.516-13.084c7.386,1.688,11.818,9.286,10.341,18.782
		c-1.055,6.331-9.286,3.166-8.652-0.844c0.633-4.009-0.633-7.175-3.166-8.019c-3.166-1.055-5.487,2.11-7.597,6.331
		c-3.166,6.542-6.964,15.405-16.883,13.717c-8.23-1.266-12.24-8.23-10.763-16.883c0.422-2.533,9.285-3.166,8.652,0.844
		c-0.422,3.165,0,6.12,3.166,6.964C184.655,113.425,186.555,109.837,188.876,105.617"/>
	<path fill="#ACFFD3" d="M28.279,221.264c-6.753-3.588-15.195-7.809-13.084-17.516c1.688-7.386,9.286-11.818,18.782-10.341
		c6.331,1.055,3.166,9.286-0.844,8.653c-4.01-0.633-7.175,0.633-8.019,3.165c-1.055,3.166,2.11,5.487,6.331,7.598
		c6.542,3.166,15.405,6.964,13.717,16.883c-1.266,8.23-8.23,12.24-16.882,10.763c-2.533-0.422-3.166-9.286,0.844-8.652
		c3.166,0.422,6.12,0,6.964-3.166C36.087,225.484,32.5,223.585,28.279,221.264"/>
	<path fill="#ACFFD3" d="M169.039,301.246c-6.753-3.587-15.194-7.808-13.084-17.516c1.688-7.386,9.286-11.818,18.782-10.34
		c6.331,1.055,3.166,9.285-0.844,8.652c-4.01-0.633-7.175,0.633-8.02,3.166c-1.055,3.166,2.11,5.487,6.331,7.597
		c6.542,3.166,15.406,6.964,13.717,16.883c-1.266,8.23-8.23,12.24-16.883,10.763c-2.532-0.422-3.166-9.286,0.844-8.652
		c3.166,0.422,6.12,0,6.964-3.166C176.847,305.466,173.47,303.567,169.039,301.246"/>
	<path fill="#ACFFD3" d="M97.92,328.258c-3.587,6.753-7.808,15.195-17.516,13.084c-7.386-1.688-11.818-9.286-10.341-18.782
		c1.055-6.331,9.286-3.166,8.652,0.844c-0.633,4.01,0.633,7.175,3.166,8.019c3.166,1.055,5.487-2.11,7.597-6.331
		c3.166-6.542,6.964-15.405,16.883-13.717c8.23,1.267,12.24,8.23,10.763,16.883c-0.422,2.533-9.286,3.166-8.652-0.844
		c0.422-3.166,0-6.12-3.166-6.964C101.93,320.45,100.03,324.037,97.92,328.258"/>
</g>
</svg>
