<?xml version="1.0" encoding="utf-8"?>
<!-- Generator: Adobe Illustrator 18.0.0, SVG Export Plug-In . SVG Version: 6.00 Build 0)  -->
<!DOCTYPE svg PUBLIC "-//W3C//DTD SVG 1.1//EN" "http://www.w3.org/Graphics/SVG/1.1/DTD/svg11.dtd">
<svg version="1.1" id="Layer_1" xmlns="http://www.w3.org/2000/svg" xmlns:xlink="http://www.w3.org/1999/xlink" x="0px" y="0px"
	 viewBox="0 0 290 287.8" enable-background="new 0 0 290 287.8" xml:space="preserve">
<rect x="0" y="0" fill="#9FB328" width="290" height="287.8"/>
<g>
	<path fill="#ACFFD3" d="M203.8,162.8c-0.3,0-0.5-0.2-0.5-0.5v-2.9c0-0.3,0.3-0.5,0.5-0.5h7.7c0.3,0,0.5,0.3,0.5,0.5v7.6
		c0,0.3-0.1,0.7-0.4,0.9c-2,1.8-4.8-1.6-4.1-2.3v-2.8H203.8z"/>
	<path fill="#ACFFD3" d="M152.5,7.6c0.3,0,0.5,0.2,0.5,0.5V11c0,0.3-0.3,0.5-0.5,0.5l-7.7,0c-0.3,0-0.5-0.3-0.5-0.5V3.4
		c0-0.3,0.1-0.7,0.4-0.9c2-1.8,4.8,1.6,4.1,2.3v2.8L152.5,7.6z"/>
	<path fill="#ACFFD3" d="M247.8,149.6c0.2-0.2,0.5-0.2,0.7,0l2.1,2.1c0.2,0.2,0.2,0.6,0,0.7l-5.4,5.4c-0.2,0.2-0.6,0.2-0.7,0
		l-5.4-5.4c-0.2-0.2-0.4-0.5-0.4-0.9c0.1-2.7,4.6-2.3,4.5-1.2l2,2L247.8,149.6z"/>
	<path fill="#ACFFD3" d="M122,240.9c0.3,0,0.5,0.2,0.5,0.5v2.9c0,0.3-0.3,0.5-0.5,0.5h-7.7c-0.3,0-0.5-0.3-0.5-0.5v-7.6
		c0-0.3,0.1-0.7,0.4-0.9c2-1.8,4.8,1.6,4.1,2.3v2.8H122z"/>
	<path fill="#ACFFD3" d="M244.5,11.2c-0.2,0.2-0.5,0.2-0.7,0l-2.1-2.1c-0.2-0.2-0.2-0.6,0-0.7l5.4-5.4c0.2-0.2,0.6-0.2,0.7,0
		l5.4,5.4c0.2,0.2,0.4,0.5,0.4,0.9c-0.1,2.7-4.6,2.3-4.5,1.2l-2-2L244.5,11.2z"/>
	<path fill="#ACFFD3" d="M104.7,165.2c-0.2,0.2-0.5,0.2-0.7,0l-2.1-2.1c-0.2-0.2-0.2-0.6,0-0.7l5.4-5.4c0.2-0.2,0.6-0.2,0.7,0
		l5.4,5.4c0.2,0.2,0.4,0.5,0.4,0.9c-0.1,2.7-4.6,2.3-4.5,1.2l-2-2L104.7,165.2z"/>
	<path fill="#ACFFD3" d="M240.9,250.7c-0.2,0.2-0.5,0.2-0.7,0l-2.1-2.1c-0.2-0.2-0.2-0.6,0-0.7l5.4-5.4c0.2-0.2,0.6-0.2,0.7,0
		l5.4,5.4c0.2,0.2,0.4,0.5,0.4,0.9c-0.1,2.7-4.6,2.3-4.5,1.2l-2-2L240.9,250.7z"/>
	<path fill="#ACFFD3" d="M287.9,84.6c0,8.3-6.5,10.9-11.2,10.9c-4.6,0-11.2-2.5-11.2-10.9c0-3.3,4.1-1.7,4.1,0c0,5.6,5.2,6.4,7,6.4
		c1.8,0,7.3-0.8,7.3-6.4C283.8,83.4,287.9,81.4,287.9,84.6z"/>
	<path fill="#ACFFD3" d="M133.9,32.9c-5.9,5.9-12.3,3-15.6-0.3c-3.2-3.2-6.1-9.7-0.2-15.6c2.3-2.3,4.1,1.7,2.9,2.9
		c-3.9,3.9-0.8,8.2,0.5,9.5c1.3,1.3,5.7,4.6,9.6,0.6C131.9,29.2,136.1,30.6,133.9,32.9z"/>
	<path fill="#ACFFD3" d="M143.3,89.8c0,8.3-6.5,10.9-11.2,10.9c-4.6,0-11.2-2.5-11.2-10.9c0-3.3,4.1-1.7,4.1,0c0,5.6,5.2,6.4,7,6.4
		c1.8,0,7.3-0.8,7.3-6.4C139.3,88.6,143.3,86.6,143.3,89.8z"/>
	<path fill="#ACFFD3" d="M78.3,199.4c-1.6-3.2,2.5-4.5,3.5-2.5c1.6,3.1,4,6.9,0.6,10.3c-2.8,2.8-6.6,2.4-9.5-0.5
		c-0.8-0.8-2.7-3-4-6.5c-0.1-0.3,0-0.6,0.3-0.7l2.7-1.1c0.3-0.1,0.6,0,0.7,0.3c0.5,1.3,1.6,3.6,2.9,4.9c1.1,1.1,2.4,1.7,3.5,0.7
		C80.2,203.2,79.3,201.5,78.3,199.4"/>
	<path fill="#ACFFD3" d="M140.1,183.4c-1.6-3.2,2.5-4.5,3.5-2.5c1.6,3.1,4,6.9,0.6,10.3c-2.8,2.8-6.6,2.4-9.5-0.5
		c-0.8-0.8-2.7-3-4-6.5c-0.1-0.3,0-0.6,0.3-0.7l2.7-1.1c0.3-0.1,0.6,0,0.7,0.3c0.5,1.3,1.6,3.6,2.9,4.9c1.1,1.1,2.4,1.7,3.5,0.7
		C142,187.1,141.1,185.4,140.1,183.4"/>
	<path fill="#ACFFD3" d="M128.5,135.2c-1.6-3.2-3.7-7.3-0.2-10.4c2.7-2.4,6.8-2,10.1,1.2c2.2,2.2-1.3,4.4-2.7,3
		c-1.3-1.3-2.9-1.7-3.9-1c-1.3,0.9-0.7,2.7,0.3,4.6c1.6,3.1,4,6.9,0.6,10.3c-2.8,2.8-6.6,2.4-9.5-0.5c-0.8-0.8,1.3-4.5,2.7-3.1
		c1.1,1.1,2.4,1.7,3.5,0.7C130.4,138.9,129.5,137.3,128.5,135.2"/>
	<path fill="#ACFFD3" d="M275.2,277.5c1.2-3.4,2.5-7.7,7.2-7.5c3.6,0.2,6.3,3.4,6.3,8c0,3.1-4.1,2.2-4.1,0.2c0-1.9-0.8-3.3-2.1-3.5
		c-1.6-0.3-2.4,1.4-3.1,3.5c-1,3.3-2.1,7.7-6.8,7.7c-4,0-6.4-3-6.4-7.1c0-1.2,4.1-2.2,4.1-0.3c0,1.5,0.5,2.9,2,3
		C273.9,281.4,274.5,279.6,275.2,277.5"/>
	<path fill="#ACFFD3" d="M194.6,228.3c1.2-3.4,2.5-7.7,7.2-7.5c3.6,0.2,6.3,3.4,6.3,8c0,3.1-4.1,2.2-4.1,0.2c0-1.9-0.8-3.3-2.1-3.5
		c-1.6-0.3-2.4,1.4-3.1,3.5c-1,3.3-2.1,7.7-6.8,7.7c-4,0-6.4-3-6.4-7.1c0-1.2,4.1-2.2,4.1-0.3c0,1.5,0.5,2.9,2,3
		C193.3,232.3,193.9,230.5,194.6,228.3"/>
	<path fill="#ACFFD3" d="M228.8,274.2c1.6,3.2,3.7,7.3,0.2,10.4c-2.7,2.4-6.8,2-10.1-1.2c-2.2-2.2,1.3-4.4,2.7-3
		c1.3,1.3,2.9,1.7,3.9,1c1.3-0.9,0.7-2.7-0.3-4.6c-1.6-3.1-4-6.9-0.6-10.3c2.8-2.8,6.6-2.4,9.5,0.5c0.8,0.8-1.3,4.5-2.7,3.1
		c-1.1-1.1-2.4-1.7-3.5-0.7C227,270.5,227.8,272.1,228.8,274.2"/>
	<path fill="#ACFFD3" d="M171.6,32.4c-3.4-1.2-1.4-4.9,0.7-4.2c3.3,1,7.7,2.1,7.7,6.8c0,4-3,6.4-7.1,6.4c-1.2,0-4-0.2-7.5-1.8
		c-0.3-0.1-0.4-0.4-0.3-0.7l1.2-2.7c0.1-0.3,0.4-0.4,0.7-0.3c1.3,0.5,3.6,1.4,5.6,1.4c1.5,0,2.9-0.5,3-2
		C175.6,33.7,173.8,33.1,171.6,32.4"/>
	<path fill="#ACFFD3" d="M42.6,268.3c-0.3,0-0.5-0.2-0.5-0.5v-2.9c0-0.3,0.3-0.5,0.5-0.5h7.7c0.3,0,0.5,0.3,0.5,0.5v7.6
		c0,0.3-0.1,0.7-0.4,0.9c-2,1.8-4.8-1.6-4.1-2.3v-2.8H42.6z"/>
	<path fill="#ACFFD3" d="M14.5,246.7c0.2,0.2,0.2,0.5,0,0.7l-2.1,2.1c-0.2,0.2-0.6,0.2-0.7,0l-5.4-5.4c-0.2-0.2-0.2-0.6,0-0.7
		l5.4-5.4c0.2-0.2,0.5-0.4,0.9-0.4c2.7,0.1,2.3,4.6,1.2,4.5l-2,2L14.5,246.7z"/>
	<path fill="#ACFFD3" d="M60.1,230.1c0,8.3-6.5,10.9-11.2,10.9c-4.6,0-11.2-2.5-11.2-10.9c0-3.3,4.1-1.7,4.1,0c0,5.6,5.2,6.4,7,6.4
		c1.8,0,7.3-0.8,7.3-6.4C56.1,228.9,60.1,226.9,60.1,230.1z"/>
	<path fill="#ACFFD3" d="M166.8,259.3c0,8.3-6.5,10.9-11.2,10.9c-4.6,0-11.2-2.5-11.2-10.9c0-3.3,4.1-1.7,4.1,0c0,5.6,5.2,6.4,7,6.4
		c1.8,0,7.3-0.8,7.3-6.4C162.8,258.1,166.8,256.1,166.8,259.3z"/>
	<path fill="#ACFFD3" d="M20,280.6c3.4,1.2,1.4,4.9-0.7,4.2c-3.3-1-7.7-2.1-7.7-6.8c0-4,3-6.4,7.1-6.4c1.2,0,4,0.2,7.5,1.8
		c0.3,0.1,0.4,0.4,0.3,0.7l-1.2,2.7c-0.1,0.3-0.4,0.4-0.7,0.3c-1.3-0.5-3.6-1.4-5.6-1.4c-1.5,0-2.9,0.5-3,2
		C16.1,279.3,17.9,279.8,20,280.6"/>
	<path fill="#ACFFD3" d="M194.5,260.2c3.4,1.2,1.4,4.9-0.7,4.2c-3.3-1-7.7-2.1-7.7-6.8c0-4,3-6.4,7.1-6.4c1.2,0,4,0.2,7.5,1.8
		c0.2,0.1,0.4,0.4,0.2,0.7l-1.2,2.7c-0.1,0.3-0.4,0.4-0.7,0.3c-1.3-0.5-3.6-1.4-5.6-1.4c-1.5,0-2.9,0.5-3,2
		C190.6,258.8,192.4,259.4,194.5,260.2"/>
	<path fill="#ACFFD3" d="M80.2,269.7c-1.6-3.2,2.5-4.5,3.5-2.5c1.6,3.1,4,6.9,0.6,10.3c-2.8,2.8-6.6,2.4-9.5-0.5
		c-0.8-0.8-2.7-3-4-6.5c-0.1-0.3,0-0.6,0.3-0.7l2.7-1.1c0.3-0.1,0.6,0,0.7,0.3c0.5,1.3,1.6,3.6,2.9,4.9c1.1,1.1,2.4,1.7,3.5,0.7
		C82.1,273.5,81.2,271.8,80.2,269.7"/>
	<path fill="#ACFFD3" d="M90,243.6c3.2-1.6,4.5,2.5,2.5,3.5c-3.1,1.6-6.9,4-10.3,0.6c-2.8-2.8-2.4-6.6,0.5-9.5c0.8-0.8,3-2.7,6.5-4
		c0.3-0.1,0.6,0,0.7,0.3l1.1,2.7c0.1,0.3,0,0.6-0.3,0.7c-1.3,0.5-3.6,1.6-4.9,2.9c-1.1,1.1-1.7,2.4-0.7,3.5
		C86.3,245.5,88,244.6,90,243.6"/>
	<path fill="#ACFFD3" d="M118.2,274.2c3.4,1.2,7.7,2.5,7.5,7.2c-0.2,3.6-3.4,6.3-8,6.3c-3.1,0-2.2-4.1-0.2-4.1
		c1.9,0,3.3-0.8,3.5-2.1c0.3-1.6-1.4-2.4-3.5-3.1c-3.3-1-7.7-2.1-7.7-6.8c0-4,3-6.4,7.1-6.4c1.2,0,2.2,4.1,0.3,4.1
		c-1.5,0-2.9,0.5-3,2C114.2,272.9,116,273.5,118.2,274.2"/>
	<path fill="#ACFFD3" d="M198,103.6c-3.2,1.6-7.3,3.7-10.4,0.2c-2.4-2.7-2-6.8,1.2-10.1c2.2-2.2,4.4,1.3,3,2.7
		c-1.3,1.3-1.7,2.9-1,3.9c0.9,1.3,2.7,0.7,4.6-0.3c3.1-1.6,6.9-4,10.3-0.6c2.8,2.8,2.4,6.6-0.5,9.5c-0.8,0.8-4.5-1.3-3.1-2.7
		c1.1-1.1,1.7-2.4,0.7-3.5C201.7,101.8,200,102.7,198,103.6"/>
	<path fill="#ACFFD3" d="M145.4,226.7c1.2-3.4,2.5-7.7,7.2-7.5c3.6,0.2,6.3,3.4,6.3,8c0,3.1-4.1,2.2-4.1,0.2c0-1.9-0.8-3.3-2.1-3.5
		c-1.6-0.3-2.4,1.4-3.1,3.5c-1,3.3-2.1,7.7-6.8,7.7c-4,0-6.4-3-6.4-7.1c0-1.2,4.1-2.2,4.1-0.3c0,1.5,0.5,2.9,2,3
		C144,230.6,144.6,228.8,145.4,226.7"/>
	<path fill="#ACFFD3" d="M18.7,205.1c1.2-3.4,2.5-7.7,7.2-7.5c3.6,0.2,6.3,3.4,6.3,8c0,3.1-4.1,2.2-4.1,0.2c0-1.9-0.8-3.3-2.1-3.5
		c-1.6-0.3-2.4,1.4-3.1,3.5c-1,3.3-2.1,7.7-6.8,7.7c-4,0-6.4-3-6.4-7.1c0-1.2,4.1-2.2,4.1-0.3c0,1.5,0.5,2.9,2,3
		C17.3,209.1,17.9,207.3,18.7,205.1"/>
	<path fill="#ACFFD3" d="M108.3,204.5c-3.4-1.2-7.7-2.5-7.5-7.2c0.2-3.6,3.4-6.3,8-6.3c3.1,0,2.2,4.1,0.2,4.1
		c-1.9,0-3.3,0.8-3.5,2.1c-0.3,1.6,1.4,2.4,3.5,3.1c3.3,1,7.7,2.1,7.7,6.8c0,4-3,6.4-7.1,6.4c-1.2,0-2.2-4.1-0.3-4.1
		c1.5,0,2.9-0.5,3-2C112.2,205.8,110.4,205.2,108.3,204.5"/>
	<path fill="#ACFFD3" d="M171.3,144.9c0,0.3-0.3,0.5-0.6,0.4l-2.9-0.5c-0.3,0-0.5-0.3-0.4-0.6l1.2-7.6c0-0.3,0.3-0.5,0.6-0.4
		l7.5,1.2c0.3,0.1,0.6,0.2,0.8,0.5c1.5,2.3-2.4,4.5-2.9,3.6l-2.7-0.4L171.3,144.9z"/>
	<path fill="#ACFFD3" d="M166.8,208.9c-0.3,0-0.5-0.3-0.4-0.6l0.5-2.9c0-0.3,0.3-0.5,0.6-0.4l7.6,1.2c0.3,0,0.5,0.3,0.4,0.6
		l-1.2,7.5c-0.1,0.3-0.2,0.6-0.5,0.8c-2.3,1.5-4.5-2.4-3.6-2.9l0.4-2.7L166.8,208.9z"/>
	<path fill="#ACFFD3" d="M164.6,83.7c0,0.3-0.3,0.5-0.6,0.4l-2.9-0.5c-0.3,0-0.5-0.3-0.4-0.6l1.2-7.6c0-0.3,0.3-0.5,0.6-0.4l7.5,1.2
		c0.3,0.1,0.6,0.2,0.8,0.5c1.5,2.3-2.4,4.5-2.9,3.6l-2.7-0.4L164.6,83.7z"/>
	<path fill="#ACFFD3" d="M273.2,204.6c0-0.3,0.3-0.5,0.6-0.4l2.9,0.5c0.3,0,0.5,0.3,0.4,0.6l-1.2,7.6c0,0.3-0.3,0.5-0.6,0.4
		l-7.5-1.2c-0.3-0.1-0.6-0.2-0.8-0.5c-1.5-2.3,2.4-4.5,2.9-3.6l2.7,0.4L273.2,204.6z"/>
	<path fill="#ACFFD3" d="M234.4,68.5c-0.2-0.2-0.1-0.6,0.1-0.7l2.4-1.7c0.2-0.2,0.6-0.1,0.7,0.1l4.5,6.2c0.2,0.2,0.1,0.6-0.1,0.7
		l-6.2,4.5c-0.3,0.2-0.6,0.3-1,0.2c-2.6-0.6-1.5-4.9-0.5-4.6l2.3-1.6L234.4,68.5z"/>
	<path fill="#ACFFD3" d="M160.2,101c8.2,1.3,9.7,8.2,8.9,12.8c-0.7,4.5-4.3,10.6-12.5,9.3c-3.3-0.5-1-4.3,0.7-4.1
		c5.5,0.9,7.1-4.1,7.4-5.9c0.3-1.8,0.4-7.3-5.1-8.2C158.3,104.7,157,100.5,160.2,101z"/>
	<path fill="#ACFFD3" d="M275.4,229.5c8.2,1.3,9.7,8.2,8.9,12.8c-0.7,4.5-4.3,10.6-12.5,9.3c-3.3-0.5-1-4.3,0.7-4.1
		c5.5,0.9,7.1-4.1,7.4-5.9c0.3-1.8,0.4-7.3-5.1-8.2C273.5,233.3,272.2,229,275.4,229.5z"/>
	<path fill="#ACFFD3" d="M244.6,96.1c-1.3,8.2-8.2,9.7-12.8,8.9c-4.5-0.7-10.6-4.3-9.3-12.5c0.5-3.3,4.3-1,4.1,0.7
		c-0.9,5.5,4.1,7.1,5.9,7.4c1.8,0.3,7.3,0.4,8.2-5.1C240.8,94.3,245.1,93,244.6,96.1z"/>
	<path fill="#ACFFD3" d="M197.2,194.1c1.3-8.2,8.2-9.7,12.8-8.9c4.5,0.7,10.6,4.3,9.3,12.5c-0.5,3.3-4.3,1-4.1-0.7
		c0.9-5.5-4.1-7.1-5.9-7.4c-1.8-0.3-7.3-0.4-8.2,5.1C201,195.9,196.7,197.3,197.2,194.1z"/>
	<path fill="#ACFFD3" d="M254.3,39.2c1.3-8.2,8.2-9.7,12.8-8.9c4.5,0.7,10.6,4.3,9.3,12.5c-0.5,3.3-4.3,1-4.1-0.7
		c0.9-5.5-4.1-7.1-5.9-7.4c-1.8-0.3-7.3-0.4-8.2,5.1C258,41,253.7,42.4,254.3,39.2z"/>
	<path fill="#ACFFD3" d="M269.7,166.9c-4.9-6.8-1-12.6,2.8-15.4c3.7-2.7,10.6-4.5,15.4,2.3c1.9,2.7-2.4,3.8-3.3,2.4
		c-3.3-4.5-8-2.1-9.4-1.1c-1.4,1-5.4,4.9-2.2,9.4C273.7,165.5,271.6,169.5,269.7,166.9z"/>
	<path fill="#ACFFD3" d="M263.8,61.7c-3.2-1.7-0.6-5.1,1.4-4.1c3.1,1.5,7.3,3.3,6.5,8c-0.6,3.9-3.9,5.8-8,5.1
		c-1.2-0.2-3.9-0.9-7.1-3c-0.2-0.2-0.3-0.5-0.1-0.7l1.6-2.5c0.2-0.3,0.5-0.3,0.8-0.2c1.2,0.7,3.4,2,5.3,2.3c1.5,0.2,2.9,0,3.2-1.5
		C267.5,63.7,265.8,62.8,263.8,61.7"/>
	<path fill="#ACFFD3" d="M243.8,190.2c-1.7,3.2-5.1,0.6-4.1-1.4c1.5-3.1,3.3-7.3,8-6.5c3.9,0.6,5.8,3.9,5.1,8
		c-0.2,1.2-0.9,3.9-3,7.1c-0.2,0.2-0.5,0.3-0.7,0.1l-2.5-1.6c-0.3-0.2-0.3-0.5-0.2-0.8c0.7-1.2,2-3.4,2.3-5.3c0.2-1.5,0-2.9-1.5-3.3
		C245.8,186.5,244.9,188.2,243.8,190.2"/>
	<path fill="#ACFFD3" d="M202.5,130c1.7-3.2,5.1-0.6,4.1,1.4c-1.5,3.1-3.3,7.3-8,6.5c-3.9-0.6-5.8-3.9-5.1-8c0.2-1.2,0.9-3.9,3-7.1
		c0.2-0.2,0.5-0.3,0.7-0.1l2.5,1.6c0.3,0.2,0.3,0.5,0.2,0.8c-0.7,1.2-2,3.4-2.3,5.3c-0.2,1.5,0,2.9,1.5,3.3
		C200.5,133.7,201.4,132,202.5,130"/>
	<path fill="#ACFFD3" d="M285.7,183.2c1.7-3.2,5.1-0.6,4.1,1.4c-1.5,3.1-3.3,7.3-8,6.5c-3.9-0.6-5.8-3.9-5.1-8
		c0.2-1.2,0.9-3.9,3-7.1c0.2-0.2,0.5-0.3,0.7-0.1l2.5,1.6c0.3,0.2,0.3,0.5,0.2,0.8c-0.7,1.2-2,3.4-2.3,5.3c-0.2,1.5,0,2.9,1.5,3.2
		C283.8,186.8,284.7,185.2,285.7,183.2"/>
	<path fill="#ACFFD3" d="M80.3,162.3c1.7-3.2,5.1-0.6,4.1,1.4c-1.5,3.1-3.3,7.3-8,6.5c-3.9-0.6-5.8-3.9-5.1-8c0.2-1.2,0.9-3.9,3-7.1
		c0.2-0.2,0.5-0.3,0.7-0.1l2.5,1.6c0.3,0.2,0.3,0.5,0.2,0.8c-0.7,1.2-2,3.4-2.3,5.3c-0.2,1.5,0,2.9,1.5,3.2
		C78.3,166,79.2,164.3,80.3,162.3"/>
	<path fill="#ACFFD3" d="M222.3,19c1.7-3.2,5.1-0.6,4.1,1.4c-1.5,3.1-3.3,7.3-8,6.5c-3.9-0.6-5.8-4-5.1-8c0.2-1.2,0.9-3.9,3-7.1
		c0.2-0.2,0.5-0.3,0.7-0.1l2.5,1.6c0.3,0.2,0.3,0.5,0.2,0.8c-0.7,1.2-2,3.4-2.3,5.3c-0.2,1.5,0,2.9,1.5,3.3
		C220.4,22.7,221.2,21,222.3,19"/>
	<path fill="#ACFFD3" d="M239.1,127c-3.2-1.7-0.6-5.1,1.4-4.1c3.1,1.5,7.3,3.3,6.5,8c-0.6,3.9-3.9,5.8-8,5.1c-1.2-0.2-3.9-0.9-7.1-3
		c-0.2-0.2-0.3-0.5-0.1-0.7l1.6-2.5c0.2-0.3,0.5-0.3,0.8-0.2c1.2,0.7,3.4,2,5.3,2.3c1.5,0.2,2.9,0,3.3-1.5
		C242.7,128.9,241.1,128.1,239.1,127"/>
	<path fill="#ACFFD3" d="M275.7,12.9c-3.4,1-4-3.2-1.9-3.9c3.3-1.1,7.5-2.8,10.3,1c2.3,3.2,1.3,6.9-2,9.3c-1,0.7-3.4,2.1-7.1,2.9
		c-0.3,0-0.6-0.1-0.6-0.4l-0.6-2.9c-0.1-0.3,0.1-0.6,0.4-0.7c1.3-0.3,3.8-1,5.3-2.1c1.2-0.9,2.1-2.1,1.2-3.4
		C279.7,11.7,277.9,12.3,275.7,12.9"/>
	<path fill="#ACFFD3" d="M189.7,63.9c-1-3.4,3.2-4,3.9-1.9c1.1,3.3,2.8,7.5-1,10.3c-3.2,2.3-6.9,1.3-9.3-2c-0.7-1-2.1-3.4-2.9-7.1
		c0-0.3,0.1-0.6,0.4-0.6l2.9-0.6c0.3-0.1,0.6,0.1,0.7,0.4c0.3,1.3,1,3.8,2.1,5.3c0.9,1.2,2.1,2.1,3.4,1.2
		C191,67.9,190.4,66.1,189.7,63.9"/>
	<path fill="#ACFFD3" d="M217.9,44.5c1.7-3.2,3.7-7.2,8.3-6.2c3.5,0.8,5.6,4.4,4.9,8.9c-0.5,3-4.4,1.5-4.1-0.4
		c0.3-1.9-0.3-3.4-1.5-3.8c-1.5-0.5-2.6,1-3.6,3c-1.5,3.1-3.3,7.3-8,6.5c-3.9-0.6-5.8-3.9-5.1-8c0.2-1.2,4.4-1.5,4.1,0.4
		c-0.2,1.5,0,2.9,1.5,3.3C215.9,48.2,216.8,46.5,217.9,44.5"/>
	<path fill="#ACFFD3" d="M269.6,125.5c-3.2-1.7-7.2-3.7-6.2-8.3c0.8-3.5,4.4-5.6,8.9-4.9c3,0.5,1.5,4.4-0.4,4.1
		c-1.9-0.3-3.4,0.3-3.8,1.5c-0.5,1.5,1,2.6,3,3.6c3.1,1.5,7.3,3.3,6.5,8c-0.6,3.9-3.9,5.8-8,5.1c-1.2-0.2-1.5-4.4,0.4-4.1
		c1.5,0.2,2.9,0,3.3-1.5C273.3,127.4,271.6,126.6,269.6,125.5"/>
	<path fill="#ACFFD3" d="M188.3,15.1c-3.2-1.7-7.2-3.7-6.2-8.3c0.8-3.5,4.4-5.6,8.9-4.9c3,0.5,1.5,4.4-0.4,4.1
		c-1.9-0.3-3.4,0.3-3.8,1.5c-0.5,1.5,1,2.6,3,3.6c3.1,1.5,7.3,3.3,6.5,8c-0.6,3.9-3.9,5.8-8,5.1c-1.2-0.2-1.5-4.4,0.4-4.1
		c1.5,0.2,2.9,0,3.3-1.5C192,17,190.3,16.1,188.3,15.1"/>
	<path fill="#ACFFD3" d="M166.1,166.5c-3.4,1.1-7.8,2.5-10.3-1.5c-1.9-3-0.9-7.1,2.8-9.7c2.5-1.8,4.2,2,2.6,3.2
		c-1.5,1.1-2.2,2.6-1.6,3.7c0.7,1.4,2.5,1.1,4.6,0.4c3.3-1.1,7.5-2.8,10.3,1c2.3,3.2,1.3,6.9-2,9.3c-1,0.7-4.2-2-2.7-3.2
		c1.2-0.9,2.1-2.1,1.2-3.4C170.1,165.3,168.3,165.9,166.1,166.5"/>
	<path fill="#ACFFD3" d="M150.1,57.2c-1.7,3.2-3.7,7.2-8.3,6.2c-3.5-0.8-5.6-4.4-4.9-8.9c0.5-3,4.4-1.5,4.1,0.4
		c-0.3,1.9,0.3,3.4,1.5,3.8c1.5,0.5,2.6-1,3.6-3c1.5-3.1,3.3-7.3,8-6.5c3.9,0.6,5.8,3.9,5.1,8c-0.2,1.2-4.4,1.5-4.1-0.4
		c0.2-1.5,0-2.9-1.5-3.3C152.1,53.5,151.2,55.2,150.1,57.2"/>
	<path fill="#ACFFD3" d="M243.7,220.6c-1.7,3.2-3.7,7.2-8.3,6.2c-3.5-0.8-5.6-4.4-4.9-8.9c0.5-3,4.4-1.5,4.1,0.4
		c-0.3,1.9,0.3,3.4,1.5,3.8c1.5,0.5,2.6-1,3.6-3c1.5-3.1,3.3-7.3,8-6.5c3.9,0.6,5.8,3.9,5.1,8c-0.2,1.2-4.4,1.5-4.1-0.4
		c0.2-1.5,0-2.9-1.5-3.3C245.7,216.9,244.8,218.6,243.7,220.6"/>
	<path fill="#ACFFD3" d="M104.2,127.3c0.2,0.2,0.1,0.6-0.1,0.7l-2.4,1.7c-0.2,0.2-0.6,0.1-0.7-0.1l-4.5-6.2
		c-0.2-0.2-0.1-0.6,0.1-0.7l6.2-4.5c0.3-0.2,0.6-0.3,1-0.2c2.6,0.6,1.5,4.9,0.5,4.6l-2.3,1.6L104.2,127.3z"/>
	<path fill="#ACFFD3" d="M13.8,133.7c0-0.3,0.3-0.5,0.6-0.4l2.9,0.5c0.3,0,0.5,0.3,0.4,0.6l-1.2,7.6c0,0.3-0.3,0.5-0.6,0.4l-7.5-1.2
		c-0.3-0.1-0.6-0.2-0.8-0.5c-1.5-2.3,2.4-4.5,2.9-3.6l2.7,0.4L13.8,133.7z"/>
	<path fill="#ACFFD3" d="M35.1,39.6c0.2,0.2,0.1,0.6-0.1,0.7l-2.4,1.7c-0.2,0.2-0.6,0.1-0.7-0.1l-4.5-6.2c-0.2-0.2-0.1-0.6,0.1-0.7
		l6.2-4.5c0.3-0.2,0.6-0.3,1-0.2c2.6,0.6,1.5,4.9,0.5,4.6l-2.3,1.6L35.1,39.6z"/>
	<path fill="#ACFFD3" d="M52.3,187.3c0.2,0.2,0.1,0.6-0.1,0.7l-2.4,1.7c-0.2,0.2-0.6,0.1-0.7-0.1l-4.5-6.2c-0.2-0.2-0.1-0.6,0.1-0.7
		l6.2-4.5c0.3-0.2,0.6-0.3,1-0.2c2.6,0.6,1.5,4.9,0.5,4.6l-2.3,1.6L52.3,187.3z"/>
	<path fill="#ACFFD3" d="M189,285.2c0.2,0.2,0.1,0.6-0.1,0.7l-2.4,1.7c-0.2,0.2-0.6,0.1-0.7-0.1l-4.5-6.2c-0.2-0.2-0.1-0.6,0.1-0.7
		l6.2-4.5c0.3-0.2,0.6-0.3,1-0.2c2.6,0.6,1.5,4.9,0.5,4.6l-2.3,1.6L189,285.2z"/>
	<path fill="#ACFFD3" d="M27.3,5.4c-1.3,8.2-8.2,9.7-12.8,8.9C10,13.6,3.8,10,5.2,1.8c0.5-3.3,4.3-1,4.1,0.7
		C8.3,8,13.4,9.6,15.1,9.9c1.8,0.3,7.3,0.4,8.2-5.1C23.5,3.6,27.8,2.2,27.3,5.4z"/>
	<path fill="#ACFFD3" d="M5.8,156.5c8.2,1.3,9.7,8.2,8.9,12.8c-0.7,4.5-4.3,10.6-12.5,9.3c-3.3-0.5-1-4.3,0.7-4.1
		c5.5,0.9,7.1-4.1,7.4-5.9c0.3-1.8,0.4-7.3-5.1-8.2C4,160.3,2.7,156,5.8,156.5z"/>
	<path fill="#ACFFD3" d="M2.2,105.2c-4.9-6.8-1-12.6,2.8-15.4c3.7-2.7,10.6-4.5,15.4,2.3c1.9,2.7-2.4,3.8-3.3,2.4
		c-3.3-4.5-8-2.1-9.4-1.1c-1.4,1-5.4,4.9-2.2,9.4C6.2,103.8,4.1,107.8,2.2,105.2z"/>
	<path fill="#ACFFD3" d="M62,145.2c-4.9-6.8-1-12.6,2.8-15.4c3.7-2.7,10.6-4.5,15.4,2.3c1.9,2.7-2.4,3.8-3.3,2.4
		c-3.3-4.5-8-2.1-9.4-1.1c-1.4,1-5.4,4.9-2.2,9.4C66,143.9,63.9,147.8,62,145.2z"/>
	<path fill="#ACFFD3" d="M73.2,52.9c-4.9-6.8-1-12.6,2.8-15.4c3.7-2.7,10.6-4.5,15.4,2.3c1.9,2.7-2.4,3.8-3.3,2.4
		c-3.3-4.5-8-2.1-9.4-1.1c-1.4,1-5.4,4.9-2.2,9.4C77.1,51.6,75,55.5,73.2,52.9z"/>
	<path fill="#ACFFD3" d="M58.8,11.4c1.7-3.2,5.1-0.6,4.1,1.4c-1.5,3.1-3.3,7.3-8,6.5c-3.9-0.6-5.8-3.9-5.1-8c0.2-1.2,0.9-3.9,3-7.1
		c0.2-0.2,0.5-0.3,0.7-0.1l2.5,1.6c0.3,0.2,0.3,0.5,0.2,0.8c-0.7,1.2-2,3.4-2.3,5.3c-0.2,1.5,0,2.9,1.5,3.3
		C56.8,15.1,57.7,13.4,58.8,11.4"/>
	<path fill="#ACFFD3" d="M41.1,152.4c1.7-3.2,5.1-0.6,4.1,1.4c-1.5,3.1-3.3,7.3-8,6.5c-3.9-0.6-5.8-3.9-5.1-8c0.2-1.2,0.9-3.9,3-7.1
		c0.2-0.2,0.5-0.3,0.7-0.1l2.5,1.6c0.3,0.2,0.3,0.5,0.2,0.8c-0.7,1.2-2,3.4-2.3,5.3c-0.2,1.5,0,2.9,1.5,3.2
		C39.2,156.1,40,154.4,41.1,152.4"/>
	<path fill="#ACFFD3" d="M48.4,68.9c-3.4,1-4-3.2-1.9-3.9c3.3-1.1,7.5-2.8,10.3,1c2.3,3.2,1.3,6.9-2,9.3c-1,0.7-3.4,2.1-7.1,2.9
		c-0.3,0-0.6-0.1-0.6-0.4L46.3,75c-0.1-0.3,0.1-0.6,0.4-0.7c1.3-0.3,3.8-1,5.3-2.1c1.2-0.9,2.1-2.1,1.2-3.4
		C52.4,67.7,50.6,68.3,48.4,68.9"/>
	<path fill="#ACFFD3" d="M100.1,70.5c-3.4,1-4-3.2-1.9-3.9c3.3-1.1,7.5-2.8,10.3,1c2.3,3.2,1.3,6.9-2,9.3c-1,0.7-3.4,2.1-7.1,2.9
		c-0.3,0-0.6-0.1-0.6-0.4L98,76.6c-0.1-0.3,0.1-0.6,0.4-0.7c1.3-0.3,3.8-1,5.3-2.1c1.2-0.9,2.1-2.1,1.2-3.4
		C104.1,69.3,102.3,69.9,100.1,70.5"/>
	<path fill="#ACFFD3" d="M89.5,6.3c1.7-3.2,3.7-7.2,8.3-6.2c3.5,0.8,5.6,4.4,4.9,8.9c-0.5,3-4.4,1.5-4.1-0.4
		c0.3-1.9-0.3-3.4-1.5-3.8c-1.5-0.5-2.6,1-3.6,3c-1.5,3.1-3.3,7.3-8,6.5c-3.9-0.6-5.8-3.9-5.1-8c0.2-1.2,4.4-1.5,4.1,0.4
		c-0.2,1.5,0,2.9,1.5,3.3C87.5,10,88.4,8.3,89.5,6.3"/>
	<path fill="#ACFFD3" d="M13.4,61.1c-3.2-1.7-7.2-3.7-6.2-8.3c0.8-3.5,4.4-5.6,8.9-4.9c3,0.5,1.5,4.4-0.4,4.1
		c-1.9-0.3-3.4,0.3-3.8,1.5c-0.5,1.5,1,2.6,3,3.6c3.1,1.5,7.3,3.3,6.5,8c-0.6,3.9-3.9,5.8-8,5.1c-1.2-0.2-1.5-4.4,0.4-4.1
		c1.5,0.2,2.9,0,3.3-1.5C17.1,63.1,15.4,62.2,13.4,61.1"/>
	<path fill="#ACFFD3" d="M80.1,99c-3.2-1.7-7.2-3.7-6.2-8.3c0.8-3.5,4.4-5.6,8.9-4.9c3,0.5,1.5,4.4-0.4,4.1
		c-1.9-0.3-3.4,0.3-3.8,1.5c-0.5,1.5,1,2.6,3,3.6c3.1,1.5,7.3,3.3,6.5,8c-0.6,3.9-3.9,5.8-8,5.1c-1.2-0.2-1.5-4.4,0.4-4.1
		c1.5,0.2,2.9,0,3.3-1.5C83.8,101,82.2,100.1,80.1,99"/>
	<path fill="#ACFFD3" d="M46.4,111.8c-1.7,3.2-3.7,7.2-8.3,6.2c-3.5-0.8-5.6-4.4-4.9-8.9c0.5-3,4.4-1.5,4.1,0.4
		c-0.3,1.9,0.3,3.4,1.5,3.8c1.5,0.5,2.6-1,3.6-3c1.5-3.1,3.3-7.3,8-6.5c3.9,0.6,5.8,3.9,5.1,8c-0.2,1.2-4.4,1.5-4.1-0.4
		c0.2-1.5,0-2.9-1.5-3.3C48.3,108.1,47.4,109.8,46.4,111.8"/>
</g>
</svg>
