<?xml version="1.0" encoding="utf-8"?>
<!-- Generator: Adobe Illustrator 17.1.0, SVG Export Plug-In . SVG Version: 6.00 Build 0)  -->
<!DOCTYPE svg PUBLIC "-//W3C//DTD SVG 1.1//EN" "http://www.w3.org/Graphics/SVG/1.1/DTD/svg11.dtd">
<svg version="1.1" id="Layer_1" xmlns="http://www.w3.org/2000/svg" xmlns:xlink="http://www.w3.org/1999/xlink" x="0px" y="0px"
	 viewBox="-0.2 92.2 612.2 607.3" enable-background="new -0.2 92.2 612.2 607.3" xml:space="preserve">
<g>
	<path fill="#9FB328" d="M430.1,435.9c-0.6,0-1.1-0.4-1.1-1.1v-6.1c0-0.6,0.6-1.1,1.1-1.1h16.2c0.6,0,1.1,0.6,1.1,1.1v16
		c0,0.6-0.2,1.5-0.8,1.9c-4.2,3.8-10.1-3.4-8.7-4.9v-5.9L430.1,435.9L430.1,435.9z"/>
	<path fill="#9FB328" d="M321.8,108.4c0.6,0,1.1,0.4,1.1,1.1v6.1c0,0.6-0.6,1.1-1.1,1.1h-16.2c-0.6,0-1.1-0.6-1.1-1.1v-16
		c0-0.6,0.2-1.5,0.8-1.9c4.2-3.8,10.1,3.4,8.7,4.9v5.9L321.8,108.4L321.8,108.4z"/>
	<path fill="#9FB328" d="M522.9,408c0.4-0.4,1.1-0.4,1.5,0l4.4,4.4c0.4,0.4,0.4,1.3,0,1.5l-11.4,11.4c-0.4,0.4-1.3,0.4-1.5,0
		l-11.4-11.4c-0.4-0.4-0.8-1.1-0.8-1.9c0.2-5.7,9.7-4.9,9.5-2.5l4.2,4.2L522.9,408z"/>
	<path fill="#9FB328" d="M257.5,600.7c0.6,0,1.1,0.4,1.1,1.1v6.1c0,0.6-0.6,1.1-1.1,1.1h-16.2c-0.6,0-1.1-0.6-1.1-1.1v-16
		c0-0.6,0.2-1.5,0.8-1.9c4.2-3.8,10.1,3.4,8.7,4.9v5.9L257.5,600.7L257.5,600.7z"/>
	<path fill="#9FB328" d="M516,116c-0.4,0.4-1.1,0.4-1.5,0l-4.4-4.4c-0.4-0.4-0.4-1.3,0-1.5l11.4-11.4c0.4-0.4,1.3-0.4,1.5,0
		l11.4,11.4c0.4,0.4,0.8,1.1,0.8,1.9c-0.2,5.7-9.7,4.9-9.5,2.5l-4.2-4.2L516,116z"/>
	<path fill="#9FB328" d="M221,440.9c-0.4,0.4-1.1,0.4-1.5,0l-4.4-4.4c-0.4-0.4-0.4-1.3,0-1.5l11.4-11.4c0.4-0.4,1.3-0.4,1.5,0
		l11.4,11.4c0.4,0.4,0.8,1.1,0.8,1.9c-0.2,5.7-9.7,4.9-9.5,2.5l-4.2-4.2L221,440.9z"/>
	<path fill="#9FB328" d="M508.4,621.4c-0.4,0.4-1.1,0.4-1.5,0l-4.4-4.4c-0.4-0.4-0.4-1.3,0-1.5l11.4-11.4c0.4-0.4,1.3-0.4,1.5,0
		l11.4,11.4c0.4,0.4,0.8,1.1,0.8,1.9c-0.2,5.7-9.7,4.9-9.5,2.5l-4.2-4.2L508.4,621.4z"/>
	<path fill="#9FB328" d="M607.6,270.9c0,17.5-13.7,23-23.6,23c-9.7,0-23.6-5.3-23.6-23c0-7,8.7-3.6,8.7,0c0,11.8,11,13.5,14.8,13.5
		s15.4-1.7,15.4-13.5C598.9,268.3,607.6,264.1,607.6,270.9z"/>
	<path fill="#9FB328" d="M282.6,161.8c-12.5,12.5-26,6.3-32.9-0.6c-6.8-6.8-12.9-20.5-0.4-32.9c4.9-4.9,8.7,3.6,6.1,6.1
		c-8.2,8.2-1.7,17.3,1.1,20c2.7,2.7,12,9.7,20.3,1.3C278.4,153.9,287.2,156.9,282.6,161.8z"/>
	<path fill="#9FB328" d="M302.4,281.8c0,17.5-13.7,23-23.6,23c-9.7,0-23.6-5.3-23.6-23c0-7,8.7-3.6,8.7,0c0,11.8,11,13.5,14.8,13.5
		c3.8,0,15.4-1.7,15.4-13.5C294,279.3,302.4,275.1,302.4,281.8z"/>
	<path fill="#9FB328" d="M165.2,513.1c-3.4-6.8,5.3-9.5,7.4-5.3c3.4,6.5,8.4,14.6,1.3,21.7c-5.9,5.9-13.9,5.1-20-1.1
		c-1.7-1.7-5.7-6.3-8.4-13.7c-0.2-0.6,0-1.3,0.6-1.5l5.7-2.3c0.6-0.2,1.3,0,1.5,0.6c1.1,2.7,3.4,7.6,6.1,10.3
		c2.3,2.3,5.1,3.6,7.4,1.5C169.2,521.1,167.4,517.6,165.2,513.1"/>
	<path fill="#9FB328" d="M295.7,479.4c-3.4-6.8,5.3-9.5,7.4-5.3c3.4,6.5,8.4,14.6,1.3,21.7c-5.9,5.9-13.9,5.1-20-1.1
		c-1.7-1.7-5.7-6.3-8.4-13.7c-0.2-0.6,0-1.3,0.6-1.5l5.7-2.3c0.6-0.2,1.3,0,1.5,0.6c1.1,2.7,3.4,7.6,6.1,10.3
		c2.3,2.3,5.1,3.6,7.4,1.5C299.7,487.2,297.8,483.6,295.7,479.4"/>
	<path fill="#9FB328" d="M271.2,377.6c-3.4-6.8-7.8-15.4-0.4-21.9c5.7-5.1,14.4-4.2,21.3,2.5c4.6,4.6-2.7,9.3-5.7,6.3
		c-2.7-2.7-6.1-3.6-8.2-2.1c-2.7,1.9-1.5,5.7,0.6,9.7c3.4,6.5,8.4,14.6,1.3,21.7c-5.9,5.9-13.9,5.1-20-1.1c-1.7-1.7,2.7-9.5,5.7-6.5
		c2.3,2.3,5.1,3.6,7.4,1.5C275.2,385.4,273.3,382.1,271.2,377.6"/>
	<path fill="#9FB328" d="M580.8,677.9c2.5-7.2,5.3-16.2,15.2-15.8c7.6,0.4,13.3,7.2,13.3,16.9c0,6.5-8.7,4.6-8.7,0.4
		c0-4-1.7-7-4.4-7.4c-3.4-0.6-5.1,3-6.5,7.4c-2.1,7-4.4,16.2-14.4,16.2c-8.4,0-13.5-6.3-13.5-15c0-2.5,8.7-4.6,8.7-0.6
		c0,3.2,1.1,6.1,4.2,6.3C578,686.2,579.3,682.4,580.8,677.9"/>
	<path fill="#9FB328" d="M410.7,574.1c2.5-7.2,5.3-16.2,15.2-15.8c7.6,0.4,13.3,7.2,13.3,16.9c0,6.5-8.7,4.6-8.7,0.4
		c0-4-1.7-7-4.4-7.4c-3.4-0.6-5.1,3-6.5,7.4c-2.1,7-4.4,16.2-14.4,16.2c-8.4,0-13.5-6.3-13.5-15c0-2.5,8.7-4.6,8.7-0.6
		c0,3.2,1.1,6.1,4.2,6.3C407.9,582.6,409.2,578.8,410.7,574.1"/>
	<path fill="#9FB328" d="M482.8,671c3.4,6.8,7.8,15.4,0.4,21.9c-5.7,5.1-14.4,4.2-21.3-2.5c-4.6-4.6,2.7-9.3,5.7-6.3
		c2.7,2.7,6.1,3.6,8.2,2.1c2.7-1.9,1.5-5.7-0.6-9.7c-3.4-6.5-8.4-14.6-1.3-21.7c5.9-5.9,13.9-5.1,20,1.1c1.7,1.7-2.7,9.5-5.7,6.5
		c-2.3-2.3-5.1-3.6-7.4-1.5C479,663.2,480.7,666.5,482.8,671"/>
	<path fill="#9FB328" d="M362.1,160.7c-7.2-2.5-3-10.3,1.5-8.9c7,2.1,16.2,4.4,16.2,14.4c0,8.4-6.3,13.5-15,13.5
		c-2.5,0-8.4-0.4-15.8-3.8c-0.6-0.2-0.8-0.8-0.6-1.5l2.5-5.7c0.2-0.6,0.8-0.8,1.5-0.6c2.7,1.1,7.6,3,11.8,3c3.2,0,6.1-1.1,6.3-4.2
		C370.6,163.4,366.8,162.2,362.1,160.7"/>
	<path fill="#9FB328" d="M89.9,658.5c-0.6,0-1.1-0.4-1.1-1.1v-6.1c0-0.6,0.6-1.1,1.1-1.1h16.2c0.6,0,1.1,0.6,1.1,1.1v16
		c0,0.6-0.2,1.5-0.8,1.9c-4.2,3.8-10.1-3.4-8.7-4.9v-5.9L89.9,658.5L89.9,658.5z"/>
	<path fill="#9FB328" d="M30.6,612.9c0.4,0.4,0.4,1.1,0,1.5l-4.4,4.4c-0.4,0.4-1.3,0.4-1.5,0l-11.4-11.4c-0.4-0.4-0.4-1.3,0-1.5
		l11.4-11.4c0.4-0.4,1.1-0.8,1.9-0.8c5.7,0.2,4.9,9.7,2.5,9.5l-4.2,4.2L30.6,612.9z"/>
	<path fill="#9FB328" d="M126.8,577.9c0,17.5-13.7,23-23.6,23c-9.7,0-23.6-5.3-23.6-23c0-7,8.7-3.6,8.7,0c0,11.8,11,13.5,14.8,13.5
		c3.8,0,15.4-1.7,15.4-13.5C118.4,575.4,126.8,571.2,126.8,577.9z"/>
	<path fill="#9FB328" d="M352,639.5c0,17.5-13.7,23-23.6,23c-9.7,0-23.6-5.3-23.6-23c0-7,8.7-3.6,8.7,0c0,11.8,11,13.5,14.8,13.5
		c3.8,0,15.4-1.7,15.4-13.5C343.6,637,352,632.8,352,639.5z"/>
	<path fill="#9FB328" d="M42.2,684.5c7.2,2.5,3,10.3-1.5,8.9c-7-2.1-16.2-4.4-16.2-14.4c0-8.4,6.3-13.5,15-13.5
		c2.5,0,8.4,0.4,15.8,3.8c0.6,0.2,0.8,0.8,0.6,1.5l-2.5,5.7c-0.2,0.6-0.8,0.8-1.5,0.6c-2.7-1.1-7.6-3-11.8-3c-3.2,0-6.1,1.1-6.3,4.2
		C34,681.7,37.8,682.8,42.2,684.5"/>
	<path fill="#9FB328" d="M410.5,641.4c7.2,2.5,3,10.3-1.5,8.9c-7-2.1-16.2-4.4-16.2-14.4c0-8.4,6.3-13.5,15-13.5
		c2.5,0,8.4,0.4,15.8,3.8c0.4,0.2,0.8,0.8,0.4,1.5l-2.5,5.7c-0.2,0.6-0.8,0.8-1.5,0.6c-2.7-1.1-7.6-3-11.8-3c-3.2,0-6.1,1.1-6.3,4.2
		C402.2,638.5,406,639.7,410.5,641.4"/>
	<path fill="#9FB328" d="M169.2,661.5c-3.4-6.8,5.3-9.5,7.4-5.3c3.4,6.5,8.4,14.6,1.3,21.7c-5.9,5.9-13.9,5.1-20-1.1
		c-1.7-1.7-5.7-6.3-8.4-13.7c-0.2-0.6,0-1.3,0.6-1.5l5.7-2.3c0.6-0.2,1.3,0,1.5,0.6c1.1,2.7,3.4,7.6,6.1,10.3
		c2.3,2.3,5.1,3.6,7.4,1.5C173.3,669.5,171.4,665.9,169.2,661.5"/>
	<path fill="#9FB328" d="M189.9,606.4c6.8-3.4,9.5,5.3,5.3,7.4c-6.5,3.4-14.6,8.4-21.7,1.3c-5.9-5.9-5.1-13.9,1.1-20
		c1.7-1.7,6.3-5.7,13.7-8.4c0.6-0.2,1.3,0,1.5,0.6l2.3,5.7c0.2,0.6,0,1.3-0.6,1.5c-2.7,1.1-7.6,3.4-10.3,6.1
		c-2.3,2.3-3.6,5.1-1.5,7.4C182.1,610.4,185.7,608.5,189.9,606.4"/>
	<path fill="#9FB328" d="M249.4,671c7.2,2.5,16.2,5.3,15.8,15.2c-0.4,7.6-7.2,13.3-16.9,13.3c-6.5,0-4.6-8.7-0.4-8.7
		c4,0,7-1.7,7.4-4.4c0.6-3.4-3-5.1-7.4-6.5c-7-2.1-16.2-4.4-16.2-14.4c0-8.4,6.3-13.5,15-13.5c2.5,0,4.6,8.7,0.6,8.7
		c-3.2,0-6.1,1.1-6.3,4.2C241,668.2,244.8,669.5,249.4,671"/>
	<path fill="#9FB328" d="M417.8,311c-6.8,3.4-15.4,7.8-21.9,0.4c-5.1-5.7-4.2-14.4,2.5-21.3c4.6-4.6,9.3,2.7,6.3,5.7
		c-2.7,2.7-3.6,6.1-2.1,8.2c1.9,2.7,5.7,1.5,9.7-0.6c6.5-3.4,14.6-8.4,21.7-1.3c5.9,5.9,5.1,13.9-1.1,20c-1.7,1.7-9.5-2.7-6.5-5.7
		c2.3-2.3,3.6-5.1,1.5-7.4C425.7,307.2,422.1,309.1,417.8,311"/>
	<path fill="#9FB328" d="M306.8,570.7c2.5-7.2,5.3-16.2,15.2-15.8c7.6,0.4,13.3,7.2,13.3,16.9c0,6.5-8.7,4.6-8.7,0.4
		c0-4-1.7-7-4.4-7.4c-3.4-0.6-5.1,3-6.5,7.4c-2.1,7-4.4,16.2-14.4,16.2c-8.4,0-13.5-6.3-13.5-15c0-2.5,8.7-4.6,8.7-0.6
		c0,3.2,1.1,6.1,4.2,6.3C303.9,579,305.2,575.2,306.8,570.7"/>
	<path fill="#9FB328" d="M39.5,525.2c2.5-7.2,5.3-16.3,15.2-15.8c7.6,0.4,13.3,7.2,13.3,16.9c0,6.5-8.7,4.6-8.7,0.4
		c0-4-1.7-7-4.4-7.4c-3.4-0.6-5.1,3-6.5,7.4c-2.1,7-4.4,16.2-14.3,16.2c-8.4,0-13.5-6.3-13.5-15c0-2.5,8.7-4.6,8.7-0.6
		c0,3.2,1.1,6.1,4.2,6.3C36.5,533.6,37.8,529.8,39.5,525.2"/>
	<path fill="#9FB328" d="M228.6,523.9c-7.2-2.5-16.2-5.3-15.8-15.2c0.4-7.6,7.2-13.3,16.9-13.3c6.5,0,4.6,8.7,0.4,8.7
		c-4,0-7,1.7-7.4,4.4c-0.6,3.4,3,5.1,7.4,6.5c7,2.1,16.2,4.4,16.2,14.4c0,8.4-6.3,13.5-15,13.5c-2.5,0-4.6-8.7-0.6-8.7
		c3.2,0,6.1-1.1,6.3-4.2C236.8,526.6,233,525.4,228.6,523.9"/>
	<path fill="#9FB328" d="M361.5,398.1c0,0.6-0.6,1.1-1.3,0.8l-6.1-1.1c-0.6,0-1.1-0.6-0.8-1.3l2.5-16c0-0.6,0.6-1.1,1.3-0.8
		l15.8,2.5c0.6,0.2,1.3,0.4,1.7,1.1c3.2,4.9-5.1,9.5-6.1,7.6l-5.7-0.8L361.5,398.1z"/>
	<path fill="#9FB328" d="M352,533.2c-0.6,0-1.1-0.6-0.8-1.3l1.1-6.1c0-0.6,0.6-1.1,1.3-0.8l16,2.5c0.6,0,1.1,0.6,0.8,1.3l-2.5,15.8
		c-0.2,0.6-0.4,1.3-1.1,1.7c-4.9,3.2-9.5-5.1-7.6-6.1l0.8-5.7L352,533.2z"/>
	<path fill="#9FB328" d="M347.4,269c0,0.6-0.6,1.1-1.3,0.8l-6.1-1.1c-0.6,0-1.1-0.6-0.8-1.3l2.5-16c0-0.6,0.6-1.1,1.3-0.8l15.8,2.5
		c0.6,0.2,1.3,0.4,1.7,1.1c3.2,4.9-5.1,9.5-6.1,7.6l-5.7-0.8L347.4,269z"/>
	<path fill="#9FB328" d="M576.5,524.1c0-0.6,0.6-1.1,1.3-0.8l6.1,1.1c0.6,0,1.1,0.6,0.8,1.3l-2.5,16c0,0.6-0.6,1.1-1.3,0.8
		l-15.8-2.5c-0.6-0.2-1.3-0.4-1.7-1.1c-3.2-4.9,5.1-9.5,6.1-7.6l5.7,0.8L576.5,524.1z"/>
	<path fill="#9FB328" d="M494.7,236.9c-0.4-0.4-0.2-1.3,0.2-1.5l5.1-3.6c0.4-0.4,1.3-0.2,1.5,0.2l9.5,13.1c0.4,0.4,0.2,1.3-0.2,1.5
		l-13.1,9.5c-0.6,0.4-1.3,0.6-2.1,0.4c-5.5-1.3-3.2-10.3-1.1-9.7l4.9-3.4L494.7,236.9z"/>
	<path fill="#9FB328" d="M338.1,305.5c17.3,2.7,20.5,17.3,18.8,27c-1.5,9.5-9.1,22.4-26.4,19.6c-7-1.1-2.1-9.1,1.5-8.7
		c11.6,1.9,15-8.7,15.6-12.5c0.6-3.8,0.8-15.4-10.8-17.3C334.1,313.3,331.3,304.4,338.1,305.5z"/>
	<path fill="#9FB328" d="M581.2,576.6c17.3,2.7,20.5,17.3,18.8,27c-1.5,9.5-9.1,22.4-26.4,19.6c-7-1.1-2.1-9.1,1.5-8.7
		c11.6,1.9,15-8.7,15.6-12.5s0.8-15.4-10.8-17.3C577.2,584.7,574.4,575.6,581.2,576.6z"/>
	<path fill="#9FB328" d="M516.2,295.1c-2.7,17.3-17.3,20.5-27,18.8c-9.5-1.5-22.4-9.1-19.6-26.4c1.1-7,9.1-2.1,8.7,1.5
		c-1.9,11.6,8.7,15,12.5,15.6c3.8,0.6,15.4,0.8,17.3-10.8C508.2,291.3,517.2,288.6,516.2,295.1z"/>
	<path fill="#9FB328" d="M416.2,501.9c2.7-17.3,17.3-20.5,27-18.8c9.5,1.5,22.4,9.1,19.6,26.4c-1.1,7-9.1,2.1-8.7-1.5
		c1.9-11.6-8.7-15-12.5-15.6c-3.8-0.6-15.4-0.8-17.3,10.8C424.2,505.7,415.1,508.7,416.2,501.9z"/>
	<path fill="#9FB328" d="M536.7,175c2.7-17.3,17.3-20.5,27-18.8c9.5,1.5,22.4,9.1,19.6,26.4c-1.1,7-9.1,2.1-8.7-1.5
		c1.9-11.6-8.7-15-12.5-15.6c-3.8-0.6-15.4-0.8-17.3,10.8C544.5,178.8,535.4,181.8,536.7,175z"/>
	<path fill="#9FB328" d="M569.2,444.5c-10.3-14.4-2.1-26.6,5.9-32.5c7.8-5.7,22.4-9.5,32.5,4.9c4,5.7-5.1,8-7,5.1
		c-7-9.5-16.9-4.4-19.8-2.3c-3,2.1-11.4,10.3-4.6,19.8C577.6,441.6,573.2,450,569.2,444.5z"/>
	<path fill="#9FB328" d="M556.7,222.5c-6.8-3.6-1.3-10.8,3-8.7c6.5,3.2,15.4,7,13.7,16.9c-1.3,8.2-8.2,12.2-16.9,10.8
		c-2.5-0.4-8.2-1.9-15-6.3c-0.4-0.4-0.6-1.1-0.2-1.5l3.4-5.3c0.4-0.6,1.1-0.6,1.7-0.4c2.5,1.5,7.2,4.2,11.2,4.9
		c3.2,0.4,6.1,0,6.8-3.2C564.5,226.7,560.9,224.9,556.7,222.5"/>
	<path fill="#9FB328" d="M514.5,493.7c-3.6,6.8-10.8,1.3-8.7-3c3.2-6.5,7-15.4,16.9-13.7c8.2,1.3,12.2,8.2,10.8,16.9
		c-0.4,2.5-1.9,8.2-6.3,15c-0.4,0.4-1.1,0.6-1.5,0.2l-5.3-3.4c-0.6-0.4-0.6-1.1-0.4-1.7c1.5-2.5,4.2-7.2,4.9-11.2
		c0.4-3.2,0-6.1-3.2-7C518.7,485.9,516.8,489.5,514.5,493.7"/>
	<path fill="#9FB328" d="M427.3,366.7c3.6-6.8,10.8-1.3,8.7,3c-3.2,6.5-7,15.4-16.9,13.7c-8.2-1.3-12.2-8.2-10.8-16.9
		c0.4-2.5,1.9-8.2,6.3-15c0.4-0.4,1.1-0.6,1.5-0.2l5.3,3.4c0.6,0.4,0.6,1.1,0.4,1.7c-1.5,2.5-4.2,7.2-4.9,11.2c-0.4,3.2,0,6.1,3.2,7
		C423.1,374.5,425,370.9,427.3,366.7"/>
	<path fill="#9FB328" d="M602.9,478.9c3.6-6.8,10.8-1.3,8.7,3c-3.2,6.5-7,15.4-16.9,13.7c-8.2-1.3-12.2-8.2-10.8-16.9
		c0.4-2.5,1.9-8.2,6.3-15c0.4-0.4,1.1-0.6,1.5-0.2l5.3,3.4c0.6,0.4,0.6,1.1,0.4,1.7c-1.5,2.5-4.2,7.2-4.9,11.2
		c-0.4,3.2,0,6.1,3.2,6.8C598.9,486.5,600.8,483.2,602.9,478.9"/>
	<path fill="#9FB328" d="M169.5,434.8c3.6-6.8,10.8-1.3,8.7,3c-3.2,6.5-7,15.4-16.9,13.7c-8.2-1.3-12.2-8.2-10.8-16.9
		c0.4-2.5,1.9-8.2,6.3-15c0.4-0.4,1.1-0.6,1.5-0.2l5.3,3.4c0.6,0.4,0.6,1.1,0.4,1.7c-1.5,2.5-4.2,7.2-4.9,11.2
		c-0.4,3.2,0,6.1,3.2,6.8C165.2,442.6,167.1,439.1,169.5,434.8"/>
	<path fill="#9FB328" d="M469.1,132.4c3.6-6.8,10.8-1.3,8.7,3c-3.2,6.5-7,15.4-16.9,13.7c-8.2-1.3-12.2-8.4-10.8-16.9
		c0.4-2.5,1.9-8.2,6.3-15c0.4-0.4,1.1-0.6,1.5-0.2l5.3,3.4c0.6,0.4,0.6,1.1,0.4,1.7c-1.5,2.5-4.2,7.2-4.9,11.2c-0.4,3.2,0,6.1,3.2,7
		C465.1,140.2,466.8,136.6,469.1,132.4"/>
	<path fill="#9FB328" d="M504.6,360.3c-6.8-3.6-1.3-10.8,3-8.7c6.5,3.2,15.4,7,13.7,16.9c-1.3,8.2-8.2,12.2-16.9,10.8
		c-2.5-0.4-8.2-1.9-15-6.3c-0.4-0.4-0.6-1.1-0.2-1.5l3.4-5.3c0.4-0.6,1.1-0.6,1.7-0.4c2.5,1.5,7.2,4.2,11.2,4.9c3.2,0.4,6.1,0,7-3.2
		C512.2,364.3,508.8,362.7,504.6,360.3"/>
	<path fill="#9FB328" d="M581.8,119.5c-7.2,2.1-8.4-6.8-4-8.2c7-2.3,15.8-5.9,21.7,2.1c4.9,6.8,2.7,14.6-4.2,19.6
		c-2.1,1.5-7.2,4.4-15,6.1c-0.6,0-1.3-0.2-1.3-0.8l-1.3-6.1c-0.2-0.6,0.2-1.3,0.8-1.5c2.7-0.6,8-2.1,11.2-4.4
		c2.5-1.9,4.4-4.4,2.5-7.2C590.3,117,586.5,118.3,581.8,119.5"/>
	<path fill="#9FB328" d="M400.3,227.2c-2.1-7.2,6.8-8.4,8.2-4c2.3,7,5.9,15.8-2.1,21.7c-6.8,4.9-14.6,2.7-19.6-4.2
		c-1.5-2.1-4.4-7.2-6.1-15c0-0.6,0.2-1.3,0.8-1.3l6.1-1.3c0.6-0.2,1.3,0.2,1.5,0.8c0.6,2.7,2.1,8,4.4,11.2c1.9,2.5,4.4,4.4,7.2,2.5
		C403.1,235.6,401.8,231.8,400.3,227.2"/>
	<path fill="#9FB328" d="M459.8,186.2c3.6-6.8,7.8-15.2,17.5-13.1c7.4,1.7,11.8,9.3,10.3,18.8c-1.1,6.3-9.3,3.2-8.7-0.8
		c0.6-4-0.6-7.2-3.2-8c-3.2-1.1-5.5,2.1-7.6,6.3c-3.2,6.5-7,15.4-16.9,13.7c-8.2-1.3-12.2-8.2-10.8-16.9c0.4-2.5,9.3-3.2,8.7,0.8
		c-0.4,3.2,0,6.1,3.2,7C455.6,194,457.5,190.5,459.8,186.2"/>
	<path fill="#9FB328" d="M568.9,357.2c-6.8-3.6-15.2-7.8-13.1-17.5c1.7-7.4,9.3-11.8,18.8-10.3c6.3,1.1,3.2,9.3-0.8,8.7
		c-4-0.6-7.2,0.6-8,3.2c-1.1,3.2,2.1,5.5,6.3,7.6c6.5,3.2,15.4,7,13.7,16.9c-1.3,8.2-8.2,12.2-16.9,10.8c-2.5-0.4-3.2-9.3,0.8-8.7
		c3.2,0.4,6.1,0,7-3.2C576.8,361.2,573.2,359.5,568.9,357.2"/>
	<path fill="#9FB328" d="M397.4,124.2c-6.8-3.6-15.2-7.8-13.1-17.5c1.7-7.4,9.3-11.8,18.8-10.3c6.3,1.1,3.2,9.3-0.8,8.7
		c-4-0.6-7.2,0.6-8,3.2c-1.1,3.2,2.1,5.5,6.3,7.6c6.5,3.2,15.4,7,13.7,16.9c-1.3,8.2-8.2,12.2-16.9,10.8c-2.5-0.4-3.2-9.3,0.8-8.7
		c3.2,0.4,6.1,0,7-3.2C405.2,128.2,401.6,126.3,397.4,124.2"/>
	<path fill="#9FB328" d="M350.5,443.7c-7.2,2.3-16.5,5.3-21.7-3.2c-4-6.3-1.9-15,5.9-20.5c5.3-3.8,8.9,4.2,5.5,6.8
		c-3.2,2.3-4.6,5.5-3.4,7.8c1.5,3,5.3,2.3,9.7,0.8c7-2.3,15.8-5.9,21.7,2.1c4.9,6.8,2.7,14.6-4.2,19.6c-2.1,1.5-8.9-4.2-5.7-6.8
		c2.5-1.9,4.4-4.4,2.5-7.2C359,441.2,355.2,442.4,350.5,443.7"/>
	<path fill="#9FB328" d="M316.8,213c-3.6,6.8-7.8,15.2-17.5,13.1c-7.4-1.7-11.8-9.3-10.3-18.8c1.1-6.3,9.3-3.2,8.7,0.8
		c-0.6,4,0.6,7.2,3.2,8c3.2,1.1,5.5-2.1,7.6-6.3c3.2-6.5,7-15.4,16.9-13.7c8.2,1.3,12.2,8.2,10.8,16.9c-0.4,2.5-9.3,3.2-8.7-0.8
		c0.4-3.2,0-6.1-3.2-7C321,205.2,319.1,208.8,316.8,213"/>
	<path fill="#9FB328" d="M514.3,557.9c-3.6,6.8-7.8,15.2-17.5,13.1c-7.4-1.7-11.8-9.3-10.3-18.8c1.1-6.3,9.3-3.2,8.7,0.8
		s0.6,7.2,3.2,8c3.2,1.1,5.5-2.1,7.6-6.3c3.2-6.5,7-15.4,16.9-13.7c8.2,1.3,12.2,8.2,10.8,16.9c-0.4,2.5-9.3,3.2-8.7-0.8
		c0.4-3.2,0-6.1-3.2-7C518.5,550.1,516.6,553.6,514.3,557.9"/>
	<path fill="#9FB328" d="M219.9,361c0.4,0.4,0.2,1.3-0.2,1.5l-5.1,3.6c-0.4,0.4-1.3,0.2-1.5-0.2l-9.5-13.1c-0.4-0.4-0.2-1.3,0.2-1.5
		l13.1-9.5c0.6-0.4,1.3-0.6,2.1-0.4c5.5,1.3,3.2,10.3,1.1,9.7l-4.9,3.4L219.9,361z"/>
	<path fill="#9FB328" d="M29.1,374.5c0-0.6,0.6-1.1,1.3-0.8l6.1,1.1c0.6,0,1.1,0.6,0.8,1.3l-2.5,16c0,0.6-0.6,1.1-1.3,0.8l-15.8-2.5
		c-0.6-0.2-1.3-0.4-1.7-1.1c-3.2-4.9,5.1-9.5,6.1-7.6l5.7,0.8L29.1,374.5z"/>
	<path fill="#9FB328" d="M74.1,175.9c0.4,0.4,0.2,1.3-0.2,1.5l-5.1,3.6c-0.4,0.4-1.3,0.2-1.5-0.2l-9.5-13.1
		c-0.4-0.4-0.2-1.3,0.2-1.5l13.1-9.5c0.6-0.4,1.3-0.6,2.1-0.4c5.5,1.3,3.2,10.3,1.1,9.7l-4.9,3.4L74.1,175.9z"/>
	<path fill="#9FB328" d="M110.4,487.6c0.4,0.4,0.2,1.3-0.2,1.5l-5.1,3.6c-0.4,0.4-1.3,0.2-1.5-0.2l-9.5-13.1
		c-0.4-0.4-0.2-1.3,0.2-1.5l13.1-9.5c0.6-0.4,1.3-0.6,2.1-0.4c5.5,1.3,3.2,10.3,1.1,9.7l-4.9,3.4L110.4,487.6z"/>
	<path fill="#9FB328" d="M398.9,694.2c0.4,0.4,0.2,1.3-0.2,1.5l-5.1,3.6c-0.4,0.4-1.3,0.2-1.5-0.2l-9.5-13.1
		c-0.4-0.4-0.2-1.3,0.2-1.5l13.1-9.5c0.6-0.4,1.3-0.6,2.1-0.4c5.5,1.3,3.2,10.3,1.1,9.7l-4.9,3.4L398.9,694.2z"/>
	<path fill="#9FB328" d="M57.6,103.7c-2.7,17.3-17.3,20.5-27,18.8C21.1,121,8,113.4,11,96.1c1.1-7,9.1-2.1,8.7,1.5
		c-2.1,11.6,8.7,15,12.2,15.6c3.8,0.6,15.4,0.8,17.3-10.8C49.6,99.9,58.7,97,57.6,103.7z"/>
	<path fill="#9FB328" d="M12.2,422.6c17.3,2.7,20.5,17.3,18.8,27c-1.5,9.5-9.1,22.4-26.4,19.6c-7-1.1-2.1-9.1,1.5-8.7
		c11.6,1.9,15-8.7,15.6-12.5c0.6-3.8,0.8-15.4-10.8-17.3C8.4,430.6,5.7,421.5,12.2,422.6z"/>
	<path fill="#9FB328" d="M4.6,314.3c-10.3-14.4-2.1-26.6,5.9-32.5c7.8-5.7,22.4-9.5,32.5,4.9c4,5.7-5.1,8-7,5.1
		c-7-9.5-16.9-4.4-19.8-2.3c-3,2.1-11.4,10.3-4.6,19.8C13.1,311.4,8.7,319.8,4.6,314.3z"/>
	<path fill="#9FB328" d="M130.8,398.7c-10.3-14.4-2.1-26.6,5.9-32.5c7.8-5.7,22.4-9.5,32.5,4.9c4,5.7-5.1,8-7,5.1
		c-7-9.5-16.9-4.4-19.8-2.3s-11.4,10.3-4.6,19.8C139.3,396,134.9,404.2,130.8,398.7z"/>
	<path fill="#9FB328" d="M154.5,204c-10.3-14.4-2.1-26.6,5.9-32.5c7.8-5.7,22.4-9.5,32.5,4.9c4,5.7-5.1,8-7,5.1
		c-7-9.5-16.9-4.4-19.8-2.3c-3,2.1-11.4,10.3-4.6,19.8C162.7,201.2,158.3,209.4,154.5,204z"/>
	<path fill="#9FB328" d="M124.1,116.4c3.6-6.8,10.8-1.3,8.7,3c-3.2,6.5-7,15.4-16.9,13.7c-8.2-1.3-12.2-8.2-10.8-16.9
		c0.4-2.5,1.9-8.2,6.3-15c0.4-0.4,1.1-0.6,1.5-0.2l5.3,3.4c0.6,0.4,0.6,1.1,0.4,1.7c-1.5,2.5-4.2,7.2-4.9,11.2c-0.4,3.2,0,6.1,3.2,7
		C119.9,124.2,121.8,120.6,124.1,116.4"/>
	<path fill="#9FB328" d="M86.7,413.9c3.6-6.8,10.8-1.3,8.7,3c-3.2,6.5-7,15.4-16.9,13.7c-8.2-1.3-12.2-8.2-10.8-16.9
		c0.4-2.5,1.9-8.2,6.3-15c0.4-0.4,1.1-0.6,1.5-0.2l5.3,3.4c0.6,0.4,0.6,1.1,0.4,1.7c-1.5,2.5-4.2,7.2-4.9,11.2
		c-0.4,3.2,0,6.1,3.2,6.8C82.7,421.7,84.4,418.2,86.7,413.9"/>
	<path fill="#9FB328" d="M102.1,237.7c-7.2,2.1-8.4-6.8-4-8.2c7-2.3,15.8-5.9,21.7,2.1c4.9,6.8,2.7,14.6-4.2,19.6
		c-2.1,1.5-7.2,4.4-15,6.1c-0.6,0-1.3-0.2-1.3-0.8l-1.7-5.9c-0.2-0.6,0.2-1.3,0.8-1.5c2.7-0.6,8-2.1,11.2-4.4
		c2.5-1.9,4.4-4.4,2.5-7.2C110.6,235.2,106.8,236.5,102.1,237.7"/>
	<path fill="#9FB328" d="M211.2,241.1c-7.2,2.1-8.4-6.8-4-8.2c7-2.3,15.8-5.9,21.7,2.1c4.9,6.8,2.7,14.6-4.2,19.6
		c-2.1,1.5-7.2,4.4-15,6.1c-0.6,0-1.3-0.2-1.3-0.8l-1.7-5.9c-0.2-0.6,0.2-1.3,0.8-1.5c2.7-0.6,8-2.1,11.2-4.4
		c2.5-1.9,4.4-4.4,2.5-7.2C219.7,238.6,215.9,239.8,211.2,241.1"/>
	<path fill="#9FB328" d="M188.9,105.6c3.6-6.8,7.8-15.2,17.5-13.1c7.4,1.7,11.8,9.3,10.3,18.8c-1.1,6.3-9.3,3.2-8.7-0.8
		c0.6-4-0.6-7.2-3.2-8c-3.2-1.1-5.5,2.1-7.6,6.3c-3.2,6.5-7,15.4-16.9,13.7c-8.2-1.3-12.2-8.2-10.8-16.9c0.4-2.5,9.3-3.2,8.7,0.8
		c-0.4,3.2,0,6.1,3.2,7C184.7,113.4,186.6,109.8,188.9,105.6"/>
	<path fill="#9FB328" d="M28.3,221.3c-6.8-3.6-15.2-7.8-13.1-17.5c1.7-7.4,9.3-11.8,18.8-10.3c6.3,1.1,3.2,9.3-0.8,8.7
		s-7.2,0.6-8,3.2c-1.1,3.2,2.1,5.5,6.3,7.6c6.5,3.2,15.4,7,13.7,16.9c-1.3,8.2-8.2,12.2-16.9,10.8c-2.5-0.4-3.2-9.3,0.8-8.7
		c3.2,0.4,6.1,0,7-3.2C36.1,225.5,32.5,223.6,28.3,221.3"/>
	<path fill="#9FB328" d="M169,301.2c-6.8-3.6-15.2-7.8-13.1-17.5c1.7-7.4,9.3-11.8,18.8-10.3c6.3,1.1,3.2,9.3-0.8,8.7
		s-7.2,0.6-8,3.2c-1.1,3.2,2.1,5.5,6.3,7.6c6.5,3.2,15.4,7,13.7,16.9c-1.3,8.2-8.2,12.2-16.9,10.8c-2.5-0.4-3.2-9.3,0.8-8.7
		c3.2,0.4,6.1,0,7-3.2C176.8,305.5,173.5,303.6,169,301.2"/>
	<path fill="#9FB328" d="M97.9,328.3c-3.6,6.8-7.8,15.2-17.5,13.1c-7.4-1.7-11.8-9.3-10.3-18.8c1.1-6.3,9.3-3.2,8.7,0.8
		c-0.6,4,0.6,7.2,3.2,8c3.2,1.1,5.5-2.1,7.6-6.3c3.2-6.5,7-15.4,16.9-13.7c8.2,1.3,12.2,8.2,10.8,16.9c-0.4,2.5-9.3,3.2-8.7-0.8
		c0.4-3.2,0-6.1-3.2-7C101.9,320.4,100,324,97.9,328.3"/>
</g>
</svg>
