<?xml version="1.0" encoding="utf-8"?>
<!-- Generator: Adobe Illustrator 16.0.0, SVG Export Plug-In . SVG Version: 6.00 Build 0)  -->
<!DOCTYPE svg PUBLIC "-//W3C//DTD SVG 1.1//EN" "http://www.w3.org/Graphics/SVG/1.1/DTD/svg11.dtd">
<svg version="1.1" id="Layer_1" xmlns="http://www.w3.org/2000/svg" xmlns:xlink="http://www.w3.org/1999/xlink" x="0px" y="0px"
	 width="608.542px" height="769.949px" viewBox="3.178 11.42 608.542 769.949" enable-background="new 3.178 11.42 608.542 769.949"
	 xml:space="preserve">
<g>
	<path fill="#222222" d="M435.776,413.759c-9.562-6.83-21.856-4.098-27.321,4.1c0,0-8.196,10.929-24.589,13.659
		c-15.027,2.732-28.688-5.464-31.42-17.759c-1.366-6.83-1.366-13.66-1.366-19.125c1.366-10.928-6.83-20.491-17.759-21.857
		c-10.93-1.366-20.491,6.83-21.857,17.759c-1.365,10.928-1.365,21.856,1.366,32.786c5.465,30.054,34.152,50.545,65.571,50.545
		c4.099,0,8.196,0,12.295-1.366c32.786-5.464,49.179-28.688,50.545-31.42C446.705,431.518,443.974,419.224,435.776,413.759z"/>
	<circle fill="#222222" cx="389.33" cy="389.17" r="19.125"/>
	<circle fill="#222222" cx="371.571" cy="155.571" r="20.491"/>
	<circle fill="#222222" cx="478.125" cy="155.571" r="20.491"/>
	<path fill="#222222" d="M601.071,375.509c-5.464-8.196-12.295-13.661-16.394-19.125c-1.366-1.366-2.731-4.098-4.099-5.464
		c-4.099-5.464-5.464-13.661-5.464-28.688c0-2.732,0-6.83,0-10.928l0,0c-4.1-124.312-32.786-213.107-87.43-260.92
		c-31.42-28.688-71.035-42.348-113.384-38.25c-101.089,8.197-174.857,105.188-188.518,248.625
		C170.757,426.054,135.24,462.938,49.177,520.312C1.366,551.732-2.732,588.616,8.196,611.84
		c10.929,23.224,38.25,34.151,65.571,24.589c5.464-1.366,19.125-6.83,21.857-5.465c0,0,0,0,1.366,2.732
		c1.366,2.731-1.366,10.929-2.732,16.393c-4.098,17.76-12.294,46.447,15.027,71.036c23.223,20.491,64.206,15.026,90.161-15.026
		c8.196-8.195,13.661-10.929,15.027-10.929c1.366,1.366,2.732,5.464,2.732,12.295v5.464c1.366,23.225,1.366,45.08,24.589,60.107
		c8.197,5.464,16.393,8.196,25.956,8.196c4.098,0,8.196,0,12.294-1.366c16.393-4.1,31.419-17.759,40.982-38.25
		c9.562-19.125,17.759-23.225,19.125-23.225c1.365,0,5.465,1.366,10.929,12.295c25.955,43.716,51.911,51.911,69.67,50.545
		c62.839-4.099,137.973-87.429,146.17-306c9.562-4.099,19.125-9.562,27.321-17.759C614.732,431.518,617.464,398.732,601.071,375.509
		z M564.188,427.42c-2.731,4.098-16.393,15.026-32.785,5.464c-1.365-1.366-2.731-1.366-4.099-2.731
		c-6.83-8.196-20.491-9.562-28.688-1.365c-8.196,6.83-9.562,20.49-1.366,28.688c4.099,4.099,8.196,8.196,12.295,10.929
		c5.464,2.731,9.562,5.465,15.026,6.831c-6.83,177.589-60.107,262.285-107.92,266.384c-6.83,0-19.125-6.831-32.785-30.054
		c-16.394-27.321-34.152-32.786-46.446-31.42c-20.491,0-38.25,16.393-53.277,45.079c-5.464,12.296-12.295,17.761-16.393,17.761
		c-1.366,0-2.732,0-5.464-1.366c-4.098-2.732-5.464-5.465-5.464-27.321v-5.465c-1.366-24.589-12.294-42.348-28.688-49.179
		c-10.928-4.099-32.786-6.83-58.741,21.856c-13.661,15.026-30.054,16.394-35.518,10.93c-8.196-6.83-8.196-12.295-2.732-30.055
		c2.732-12.295,6.83-25.955,1.366-40.981c-15.026-40.981-57.375-27.321-73.768-21.856c-8.197,1.365-15.027,0-17.759-5.465
		c-2.732-6.83,1.366-23.223,27.322-40.982c94.259-61.473,137.973-107.919,154.366-289.605
		c12.295-124.312,69.67-206.277,151.634-213.107c31.42-2.732,60.107,6.831,84.696,28.688
		c45.08,40.982,71.036,121.581,73.768,232.232l0,0c0,0,0,0,0,1.366c0,4.098,0,6.831,0,9.562c1.366,16.393,1.366,32.786,10.93,46.447
		c-6.83,2.732-10.93,9.562-10.93,16.393c0,10.929,8.196,19.125,19.125,19.125c6.831,0,12.295-2.732,15.027-8.196
		C575.116,408.295,571.018,420.589,564.188,427.42z"/>
	<path fill="#222222" d="M484.955,195.188H360.643c-4.098,0-8.195,4.098-8.195,8.196c0,38.25,30.054,81.964,69.67,81.964
		s69.67-43.714,69.67-81.964C491.786,197.919,489.054,195.188,484.955,195.188z"/>
</g>
</svg>
