<?xml version="1.0" encoding="utf-8"?>
<!-- Generator: Adobe Illustrator 16.0.0, SVG Export Plug-In . SVG Version: 6.00 Build 0)  -->
<!DOCTYPE svg PUBLIC "-//W3C//DTD SVG 1.1//EN" "http://www.w3.org/Graphics/SVG/1.1/DTD/svg11.dtd">
<svg version="1.1" id="Layer_1" xmlns="http://www.w3.org/2000/svg" xmlns:xlink="http://www.w3.org/1999/xlink" x="0px" y="0px"
	 width="611.482px" height="440.826px" viewBox="1.032 175.845 611.482 440.826"
	 enable-background="new 1.032 175.845 611.482 440.826" xml:space="preserve">
<path fill="#222222" d="M612,304.226l-171.175-2.062l-1.03-0.516l-0.516,0.516l-50.527-0.516v-0.516h-6.703
	c-1.547,0-5.156,0-10.827,0.516l-107.242-1.031l-77.338-83.525c5.156-13.921-0.516-29.388-13.405-37.122
	c-4.64-2.578-9.796-4.125-14.952-4.125c-10.827,0-21.139,5.671-26.811,15.467c-4.125,7.218-5.156,15.468-3.093,23.201
	c2.062,7.734,7.218,14.437,14.437,18.562c4.64,2.578,9.796,4.125,14.952,4.125c7.218,0,14.437-2.578,19.592-7.218l64.964,70.12
	l-180.971-1.547c-1.031-5.156-3.609-9.796-7.733-13.92c-5.672-5.672-13.405-9.281-21.655-9.281h-0.516
	c-16.499,0-30.419,13.405-30.419,29.904c0,8.25,3.093,15.983,8.765,21.655c5.672,5.671,13.405,9.28,21.139,9.28h0.516
	c13.921,0,25.779-9.796,29.388-22.686l120.132,1.031L53.621,432.606c-5.156-3.609-10.828-5.155-17.015-5.155
	c-7.218,0-14.436,2.577-20.108,7.218c-12.89,10.827-14.436,30.42-3.609,43.31c5.671,6.702,14.437,10.827,23.201,10.827
	c7.218,0,14.437-2.578,20.108-7.219c6.187-5.155,9.796-12.89,10.827-20.623c0.516-5.672-0.515-11.343-3.093-15.982l55.167-51.043
	l9.796,22.686c-4.125,3.094-7.734,7.734-9.796,12.89c-3.093,7.734-3.093,15.983,0.516,23.202
	c4.64,11.343,15.983,18.562,27.842,18.562l0,0c4.125,0,8.25-1.031,12.374-2.578c15.467-6.702,22.686-24.748,15.983-40.215
	c-4.64-11.345-15.983-18.562-27.841-18.562c-1.547,0-3.094,0-4.64,0.516l-11.859-27.326l72.698-67.026l114.977,1.031
	c-17.53,8.25-35.575,21.139-51.56,41.247c-45.887,57.745-29.904,122.709-28.873,125.287l1.546,5.672h6.703
	c7.218,0,70.635-1.547,114.46-56.715c35.575-44.856,34.028-93.836,30.936-114.977l37.122,0.516
	c-14.438,24.232-43.824,86.618-21.654,163.44c27.842,97.962,113.429,131.475,117.038,133.021l5.671,2.062l3.609-4.641
	c2.577-3.095,56.715-76.822,28.873-174.783c-18.562-64.448-61.354-101.055-90.229-118.585l139.724,1.547L612,304.226z
	 M158.285,221.732c-2.578,0-5.156-0.515-7.734-2.062c-3.609-2.062-6.187-5.156-7.218-9.281s-0.516-7.734,1.546-11.343
	c2.578-4.64,7.734-7.734,13.405-7.734c2.578,0,5.156,0.516,7.734,2.062c7.218,4.125,9.796,13.405,5.671,20.624
	C168.597,218.639,163.44,221.732,158.285,221.732z M161.894,433.638c3.093,7.733,0,16.499-7.734,20.108
	c-2.062,1.03-4.125,1.03-6.187,1.03c-6.187,0-11.343-3.608-13.921-9.28c-1.547-3.609-1.547-7.733,0-11.343
	c1.547-3.61,4.125-6.702,8.25-8.249c2.062-1.031,4.125-1.031,6.187-1.031C154.16,424.873,159.316,428.482,161.894,433.638z
	 M46.403,469.729c-2.578,2.578-6.187,3.609-9.796,3.609c-4.64,0-8.765-2.062-11.343-5.156c-5.671-6.187-4.64-15.981,1.547-21.139
	c2.578-3.094,6.187-4.125,9.796-4.125c4.641,0,8.765,2.062,11.343,5.156c2.578,3.094,4.125,7.218,3.609,10.827
	C51.043,463.026,49.496,466.635,46.403,469.729z M31.451,320.725v7.734V320.725c-4.125,0-8.25-1.547-10.827-4.64
	c-2.578-3.094-4.125-6.703-4.125-10.828c0-8.249,6.703-14.952,15.468-14.952l0,0c4.125,0,7.734,1.546,10.827,4.64
	c2.578,3.093,4.125,6.703,4.125,10.827C46.403,314.022,39.7,320.725,31.451,320.725z M354.723,331.036l-38.669,4.641
	c18.562-10.828,36.606-15.468,49.496-17.53L354.723,331.036z M291.306,354.238l49.496-5.671l-12.89,16.499l-51.042,5.671
	c1.031-1.031,1.546-2.062,2.578-3.094C283.057,362.487,287.181,357.847,291.306,354.238z M332.037,439.825
	c-4.641,4.124-9.28,7.732-13.921,10.312l-4.642-42.277l12.891-16.5L332.037,439.825z M266.042,387.75l48.465-5.671l-12.889,16.499
	l-42.278,4.641C260.886,398.062,263.464,392.906,266.042,387.75z M254.184,419.201l33.513-3.609l-12.89,16.499l-23.201,2.578
	C252.121,430.028,252.637,424.873,254.184,419.201z M250.575,450.652l10.827-1.031l-10.312,12.89
	C250.575,458.901,250.059,454.776,250.575,450.652z M273.26,458.901l1.031,10.826c-4.125,1.031-8.25,1.548-11.858,2.578
	L273.26,458.901z M286.666,441.887l12.89-16.498l4.125,33.514c-4.64,2.578-9.796,4.641-14.436,6.188L286.666,441.887z
	 M345.958,425.389l-5.672-51.042l12.89-16.499l5.672,49.496c-3.094,5.156-6.188,9.796-10.312,14.952
	C347.505,423.842,346.989,424.357,345.958,425.389z M371.222,379.501l-4.641-38.669l10.312-12.89
	C377.924,340.317,377.408,358.878,371.222,379.501z M547.036,441.371c1.031,4.125,2.062,8.25,3.094,12.375l-70.12-39.186
	l-10.312-36.606l68.573,38.153C541.365,423.842,544.458,432.091,547.036,441.371z M514.555,592.438
	c-6.188-3.608-14.437-8.766-22.687-14.951l12.374-21.654L514.555,592.438z M518.679,551.191l22.171,12.374
	c-3.608,9.796-7.733,18.561-11.344,24.747L518.679,551.191z M513.008,530.053l-10.312-36.606l49.496,27.842
	c-1.548,9.796-3.609,19.077-6.188,27.326L513.008,530.053z M421.749,476.947c-2.578-8.767-4.125-17.53-5.672-26.295l38.153-68.573
	l10.312,36.605l-38.669,70.637C424.327,485.196,423.296,481.071,421.749,476.947z M415.046,421.779
	c1.031-41.247,14.952-74.244,24.749-91.774l8.765,30.936L415.046,421.779z M471.245,439.825l10.312,36.605l-31.966,57.229
	c-5.672-8.249-11.343-17.014-15.982-26.812L471.245,439.825z M496.509,472.307L486.197,435.7l67.542,37.638
	c1.03,10.827,1.03,21.139,0.516,31.451L496.509,472.307z M459.902,547.582l27.325-49.496l10.312,36.606l-18.046,32.997
	C473.308,561.503,466.604,555.316,459.902,547.582z M523.835,390.844l-60.839-33.513l-8.766-30.935
	C471.761,335.677,501.665,356.3,523.835,390.844z"/>
</svg>
