<?xml version="1.0" encoding="utf-8"?>
<!-- Generator: Adobe Illustrator 16.0.0, SVG Export Plug-In . SVG Version: 6.00 Build 0)  -->
<!DOCTYPE svg PUBLIC "-//W3C//DTD SVG 1.1//EN" "http://www.w3.org/Graphics/SVG/1.1/DTD/svg11.dtd">
<svg version="1.1" id="Layer_1" xmlns="http://www.w3.org/2000/svg" xmlns:xlink="http://www.w3.org/1999/xlink" x="0px" y="0px"
	 width="612.041px" height="205.248px" viewBox="0 293.396 612.041 205.248" enable-background="new 0 293.396 612.041 205.248"
	 xml:space="preserve">
<g>
	<rect x="96.807" y="390.533" fill="#222222" width="1.233" height="3.7"/>
	<g>
		<path fill="#222222" d="M574.593,351.481h-6.905v7.399h6.905V351.481z M573.359,357.647h-4.439v-1.85h4.439V357.647z
			 M573.359,354.564h-4.439v-1.85h4.439V354.564z"/>
		<path fill="#222222" d="M565.426,351.481h-6.906v7.399h6.906V351.481z M564.192,357.647h-4.439v-1.85h4.439V357.647z
			 M564.192,354.564h-4.439v-1.85h4.439V354.564z"/>
		<path fill="#222222" d="M583.76,351.481h-6.906v7.399h6.906V351.481z M582.526,357.647h-4.439v-1.85h4.439V357.647z
			 M582.526,354.564h-4.439v-1.85h4.439V354.564z"/>
		<path fill="#222222" d="M574.593,363.813h-6.905v7.399h6.905V363.813z M573.359,369.979h-4.439v-1.85h4.439V369.979z
			 M573.359,366.896h-4.439v-1.85h4.439V366.896z"/>
		<path fill="#222222" d="M565.426,363.813h-6.906v7.399h6.906V363.813z M564.192,369.979h-4.439v-1.85h4.439V369.979z
			 M564.192,366.896h-4.439v-1.85h4.439V366.896z"/>
		<path fill="#222222" d="M583.76,363.813h-6.906v7.399h6.906V363.813z M582.526,369.979h-4.439v-1.85h4.439V369.979z
			 M582.526,366.896h-4.439v-1.85h4.439V366.896z"/>
		<path fill="#222222" d="M574.593,376.146h-6.905v7.399h6.905V376.146z M573.359,382.312h-4.439v-1.85h4.439V382.312z
			 M573.359,379.229h-4.439v-1.85h4.439V379.229z"/>
		<path fill="#222222" d="M565.426,376.146h-6.906v7.399h6.906V376.146z M564.192,382.312h-4.439v-1.85h4.439V382.312z
			 M564.192,379.229h-4.439v-1.85h4.439V379.229z"/>
		<path fill="#222222" d="M583.76,376.146h-6.906v7.399h6.906V376.146z M582.526,382.312h-4.439v-1.85h4.439V382.312z
			 M582.526,379.229h-4.439v-1.85h4.439V379.229z"/>
		<path fill="#222222" d="M574.593,388.478h-6.905v7.399h6.905V388.478z M573.359,394.644h-4.439v-1.85h4.439V394.644z
			 M573.359,391.561h-4.439v-1.85h4.439V391.561z"/>
		<path fill="#222222" d="M565.426,388.478h-6.906v7.399h6.906V388.478z M564.192,394.644h-4.439v-1.85h4.439V394.644z
			 M564.192,391.561h-4.439v-1.85h4.439V391.561z"/>
		<path fill="#222222" d="M583.76,388.478h-6.906v7.399h6.906V388.478z M582.526,394.644h-4.439v-1.85h4.439V394.644z
			 M582.526,391.561h-4.439v-1.85h4.439V391.561z"/>
		<path fill="#222222" d="M574.593,400.81h-6.905v7.399h6.905V400.81z M573.359,406.976h-4.439v-1.85h4.439V406.976z
			 M573.359,403.893h-4.439v-1.85h4.439V403.893z"/>
		<path fill="#222222" d="M565.426,400.81h-6.906v7.399h6.906V400.81z M564.192,406.976h-4.439v-1.85h4.439V406.976z
			 M564.192,403.893h-4.439v-1.85h4.439V403.893z"/>
		<path fill="#222222" d="M583.76,400.81h-6.906v7.399h6.906V400.81z M582.526,406.976h-4.439v-1.85h4.439V406.976z
			 M582.526,403.893h-4.439v-1.85h4.439V403.893z"/>
		<path fill="#222222" d="M574.593,413.142h-6.905v7.399h6.905V413.142z M573.359,419.308h-4.439v-1.85h4.439V419.308z
			 M573.359,416.225h-4.439v-1.85h4.439V416.225z"/>
		<path fill="#222222" d="M565.426,413.142h-6.906v7.399h6.906V413.142z M564.192,419.308h-4.439v-1.85h4.439V419.308z
			 M564.192,416.225h-4.439v-1.85h4.439V416.225z"/>
		<path fill="#222222" d="M583.76,413.142h-6.906v7.399h6.906V413.142z M582.526,419.308h-4.439v-1.85h4.439V419.308z
			 M582.526,416.225h-4.439v-1.85h4.439V416.225z"/>
		<path fill="#222222" d="M574.593,425.474h-6.905v7.399h6.905V425.474z M573.359,431.64h-4.439v-1.85h4.439V431.64z
			 M573.359,428.557h-4.439v-1.85h4.439V428.557z"/>
		<path fill="#222222" d="M565.426,425.474h-6.906v7.399h6.906V425.474z M564.192,431.64h-4.439v-1.85h4.439V431.64z
			 M564.192,428.557h-4.439v-1.85h4.439V428.557z"/>
		<path fill="#222222" d="M583.76,425.474h-6.906v7.399h6.906V425.474z M582.526,431.64h-4.439v-1.85h4.439V431.64z
			 M582.526,428.557h-4.439v-1.85h4.439V428.557z"/>
		<path fill="#222222" d="M574.593,437.806h-6.905v7.399h6.905V437.806z M573.359,443.972h-4.439v-1.85h4.439V443.972z
			 M573.359,440.889h-4.439v-1.85h4.439V440.889z"/>
		<path fill="#222222" d="M565.426,437.806h-6.906v7.399h6.906V437.806z M564.192,443.972h-4.439v-1.85h4.439V443.972z
			 M564.192,440.889h-4.439v-1.85h4.439V440.889z"/>
		<path fill="#222222" d="M583.76,437.806h-6.906v7.399h6.906V437.806z M582.526,443.972h-4.439v-1.85h4.439V443.972z
			 M582.526,440.889h-4.439v-1.85h4.439V440.889z"/>
		<g>
			<path fill="#222222" d="M514.371,407.099l-0.493,0.699c-0.37,0.493-3.453,4.853-3.453,6.823c0,2.179,1.77,3.946,3.946,3.946
				s3.946-1.77,3.946-3.946c0-1.973-3.083-6.33-3.453-6.823L514.371,407.099z M514.371,417.334c-1.479,0-2.713-1.232-2.713-2.713
				c0-1.027,1.521-3.617,2.713-5.385c1.19,1.768,2.713,4.355,2.713,5.385C517.084,416.143,515.851,417.334,514.371,417.334z"/>
			<path fill="#222222" d="M514.371,425.597l-0.493,0.699c-0.37,0.493-3.453,4.853-3.453,6.823c0,2.179,1.77,3.946,3.946,3.946
				s3.946-1.77,3.946-3.946c0-1.973-3.083-6.33-3.453-6.823L514.371,425.597z M514.371,435.833c-1.479,0-2.713-1.233-2.713-2.714
				c0-1.027,1.521-3.617,2.713-5.385c1.19,1.768,2.713,4.355,2.713,5.385C517.084,434.641,515.851,435.833,514.371,435.833z"/>
			<path fill="#222222" d="M514.371,444.095l-0.493,0.699c-0.37,0.493-3.453,4.851-3.453,6.823c0,2.179,1.77,3.947,3.946,3.947
				s3.946-1.771,3.946-3.947c0-1.975-3.083-6.33-3.453-6.823L514.371,444.095z M514.371,454.331c-1.479,0-2.713-1.233-2.713-2.714
				c0-1.027,1.521-3.617,2.713-5.385c1.19,1.768,2.713,4.355,2.713,5.385C517.084,453.139,515.851,454.331,514.371,454.331z"/>
			<path fill="#222222" d="M514.371,479.036l-0.493,0.698c-0.37,0.492-3.453,4.852-3.453,6.822c0,2.181,1.77,3.946,3.946,3.946
				s3.946-1.768,3.946-3.946c0-1.973-3.083-6.329-3.453-6.822L514.371,479.036z M514.371,489.271c-1.479,0-2.713-1.233-2.713-2.715
				c0-1.025,1.521-3.615,2.713-5.385c1.19,1.77,2.713,4.357,2.713,5.385C517.084,488.079,515.851,489.271,514.371,489.271z"/>
			<path fill="#222222" d="M503.396,370.76c0.984,1.192,2.384,1.973,3.862,2.22c1.109,1.11,2.507,1.768,4.028,1.891
				c0.205,0,0.411,0.041,0.575,0.041c1.313,0,2.549-0.411,3.7-1.151c0.573,0,1.148-0.083,1.685-0.206
				c2.508,4.357,4.769,9.455,6.536,14.757c0.535,1.686,1.027,3.33,1.479,5.015c-0.615-0.535-1.438-0.945-2.549-0.945
				c-0.206,0-0.411,0-0.616,0.041c-2.59,0.37-5.797,4.316-6.125,4.729l-0.411,0.491l0.534,0.37c0.164,0.123,4.11,2.877,6.741,2.877
				c0.165,0,0.329,0,0.493-0.041c1.686-0.247,2.631-1.313,3.166-2.425c0.986,5.14,1.396,10.029,1.149,14.266l1.232,0.082
				c0.411-6.988-0.904-15.579-3.699-24.294c0.616,0.329,1.356,0.617,2.181,0.617c0.696,0,1.354-0.206,2.014-0.576
				c2.22-1.315,3.7-6.166,3.864-6.742l0.164-0.617l-0.616-0.164c-0.082-0.041-2.343-0.535-4.521-0.535
				c-1.396,0-2.508,0.206-3.207,0.658c-0.902,0.535-1.438,1.274-1.727,2.056c-1.438-3.618-3.041-7.029-4.81-10.112
				c0.368-0.165,0.697-0.37,1.026-0.617c0.575,0.863,1.356,1.48,2.425,1.85c0.493,0.165,1.11,0.247,1.729,0.247
				c3.165,0,7.438-1.891,7.688-1.973l0.616-0.247l-0.287-0.575c-0.124-0.247-3.207-6.166-6.249-7.235
				c-0.452-0.165-0.943-0.247-1.396-0.288c0.123-1.521-0.329-2.96-1.151-4.234c0-1.603-0.534-3.042-1.479-4.193
				c-0.986-1.192-2.386-1.973-3.864-2.22c-1.109-1.11-2.507-1.768-4.028-1.891c-1.521-0.123-3.001,0.247-4.273,1.151
				c-1.521,0-3,0.493-4.192,1.521c-1.151,0.986-1.933,2.302-2.22,3.864c-1.069,1.069-1.77,2.466-1.935,4.028
				c-0.123,1.562,0.288,3.042,1.151,4.316C501.916,368.129,502.409,369.568,503.396,370.76z M519.674,397.645l5.961-0.82
				c-0.165,0.943-0.699,2.549-2.508,2.836c-0.082,0-0.206,0-0.288,0c-1.603,0-4.11-1.438-5.467-2.302
				c1.15-1.315,3.37-3.576,4.933-3.782c0.164-0.041,0.288-0.041,0.452-0.041c1.521,0,2.384,1.233,2.754,2.055l-5.96,0.822
				L519.674,397.645z M525.593,382.229c0.535-0.329,1.439-0.493,2.59-0.493c1.356,0,2.798,0.206,3.618,0.37
				c-0.535,1.644-1.768,4.563-3.083,5.385c-0.452,0.288-0.902,0.411-1.396,0.411c-0.986,0-1.852-0.575-2.345-1.028l5.182-3.083
				l-0.617-1.068l-5.179,3.083C524.113,384.86,523.99,383.175,525.593,382.229z M504.341,369.938
				c-0.452-0.534-0.781-1.151-0.984-1.809c0.861,0.699,1.891,1.233,3.042,1.562c0.902,0.946,2.055,1.645,3.327,2.097
				C507.671,372.117,505.615,371.5,504.341,369.938z M509.479,362.046l2.715,5.714c-0.082,0-0.164,0-0.206,0
				c-2.468-0.206-4.274-2.384-4.069-4.851c0.041-0.329,0.082-0.658,0.206-0.945L509.479,362.046z M508.698,360.73
				c0.82-1.151,2.138-1.932,3.658-1.932c0.124,0,0.288,0,0.409,0c1.069,0.082,2.017,0.534,2.756,1.274l-0.821,1.151L508.698,360.73z
				 M512.151,364.8l-1.233-2.631l2.96,0.288L512.151,364.8z M516.344,361.141c0.411,0.781,0.617,1.645,0.535,2.549
				c-0.165,1.932-1.562,3.453-3.33,3.946l-0.74-1.562L516.344,361.141z M516.796,359.62c-0.986-1.151-2.343-1.891-3.863-2.014
				c-2.097-0.206-3.985,0.74-5.139,2.302l-1.727-0.165c1.231-2.713,4.026-4.357,7.027-4.111c3.042,0.288,5.469,2.384,6.207,5.303
				l-1.768-0.164C517.331,360.36,517.084,359.99,516.796,359.62z M511.863,368.952c0.165,0,0.329,0.041,0.534,0.041
				c1.892,0,3.533-0.904,4.562-2.302l1.77,0.164c-1.233,2.713-4.028,4.357-7.029,4.111c-3.042-0.288-5.468-2.384-6.207-5.303
				l1.768,0.165C508.123,367.513,509.85,368.787,511.863,368.952z M511.411,373.638c-0.698-0.082-1.356-0.247-1.973-0.575
				c0.696-0.083,1.396-0.247,2.055-0.494c0.617,0.37,1.272,0.658,1.933,0.863C512.768,373.638,512.069,373.72,511.411,373.638z
				 M519.016,371.295c-1.521,1.274-3.615,1.562-5.59,0.863c1.397-0.165,2.672-0.699,3.781-1.48c1.11-0.124,2.179-0.452,3.083-0.987
				C519.962,370.267,519.551,370.843,519.016,371.295z M523.702,365.499c0.411,0,0.781,0.083,1.192,0.206
				c1.932,0.658,4.19,4.152,5.262,6.043c-1.976,0.822-5.961,2.096-7.854,1.438c-0.861-0.288-1.479-0.822-1.891-1.521
				c0.575-0.617,1.027-1.397,1.355-2.22l5.386,1.891l0.411-1.151l-5.387-1.891C522.839,367.472,523.414,366.526,523.702,365.499z
				 M522.675,364.224c-0.206,2.097-1.686,3.905-3.782,4.728c0.534-0.74,0.986-1.562,1.274-2.466l0.247-0.74l-2.796-0.247
				c0.206-0.534,0.37-1.11,0.411-1.727c0.041-0.575,0-1.192-0.123-1.726l2.795,0.247l-0.123-0.781
				c-0.123-0.945-0.411-1.85-0.822-2.631C521.729,360.114,522.88,362.128,522.675,364.224z M520.332,356.62
				c0.451,0.534,0.78,1.151,0.986,1.809c-0.822-0.658-1.811-1.192-2.878-1.521c-0.945-0.986-2.099-1.727-3.412-2.138
				C517.043,354.441,519.058,355.099,520.332,356.62z M513.261,352.92c0.699,0.082,1.356,0.247,1.976,0.576
				c-0.699,0.082-1.356,0.247-2.058,0.493c-0.616-0.37-1.272-0.658-1.932-0.863C511.904,352.961,512.562,352.879,513.261,352.92z
				 M505.656,355.304c1.521-1.274,3.658-1.562,5.632-0.822c-1.356,0.165-2.59,0.699-3.658,1.439
				c-1.19,0.123-2.303,0.452-3.248,0.986C504.711,356.291,505.122,355.756,505.656,355.304z M501.957,362.333
				c0.205-2.179,1.768-3.987,3.946-4.81c-0.576,0.74-1.028,1.603-1.356,2.549l-0.247,0.74l2.754,0.247
				c-0.205,0.535-0.37,1.11-0.411,1.686c-0.041,0.617,0,1.192,0.124,1.768l-2.796-0.247l0.124,0.781
				c0.123,0.987,0.452,1.891,0.862,2.754C502.984,366.608,501.792,364.553,501.957,362.333z"/>
			<path fill="#222222" d="M537.597,422.268c-1.026,0-1.85,0.822-1.85,1.852s0.821,1.85,1.85,1.85c1.027,0,1.852-0.82,1.852-1.85
				S538.624,422.268,537.597,422.268z M537.597,424.733c-0.329,0-0.616-0.287-0.616-0.616s0.287-0.616,0.616-0.616
				s0.616,0.287,0.616,0.616S537.967,424.733,537.597,424.733z"/>
			<path fill="#222222" d="M545.818,425.556c-1.028,0-1.853,0.822-1.853,1.852c0,1.026,0.822,1.851,1.853,1.851
				c1.025,0,1.85-0.822,1.85-1.851C547.668,426.378,546.846,425.556,545.818,425.556z M545.818,428.022
				c-0.329,0-0.617-0.288-0.617-0.617c0-0.328,0.288-0.616,0.617-0.616c0.328,0,0.614,0.288,0.614,0.616
				C546.435,427.734,546.188,428.022,545.818,428.022z"/>
			<path fill="#222222" d="M549.929,459.675c-1.026,0-1.85,0.822-1.85,1.852c0,1.026,0.821,1.85,1.85,1.85
				c1.027,0,1.852-0.822,1.852-1.85C551.779,460.497,550.956,459.675,549.929,459.675z M549.929,462.141
				c-0.329,0-0.616-0.287-0.616-0.614c0-0.329,0.287-0.616,0.616-0.616s0.616,0.287,0.616,0.616
				C550.545,461.854,550.299,462.141,549.929,462.141z"/>
			<path fill="#222222" d="M531.842,457.619c-1.026,0-1.85,0.822-1.85,1.85c0,1.028,0.82,1.853,1.85,1.853
				c1.027,0,1.852-0.822,1.852-1.853C533.691,458.441,532.869,457.619,531.842,457.619z M531.842,460.086
				c-0.329,0-0.617-0.288-0.617-0.617c0-0.328,0.288-0.616,0.617-0.616c0.328,0,0.616,0.288,0.616,0.616
				C532.458,459.798,532.211,460.086,531.842,460.086z"/>
			<g>
				<path fill="#222222" d="M488.68,396.74h-6.904v7.396h6.904V396.74z M487.446,402.906h-4.439v-1.852h4.439V402.906z
					 M487.446,399.823h-4.439v-1.853h4.439V399.823z"/>
				<path fill="#222222" d="M479.472,396.74h-6.904v7.396h6.904V396.74z M478.238,402.906h-4.439v-1.852h4.439V402.906z
					 M478.238,399.823h-4.439v-1.853h4.439V399.823z"/>
				<path fill="#222222" d="M470.305,396.74H463.4v7.396h6.904V396.74z M469.071,402.906h-4.439v-1.852h4.439V402.906z
					 M469.071,399.823h-4.439v-1.853h4.439V399.823z"/>
				<path fill="#222222" d="M497.846,396.74h-6.903v7.396h6.903V396.74z M496.613,402.906h-4.44v-1.852h4.44V402.906z
					 M496.613,399.823h-4.44v-1.853h4.44V399.823z"/>
				<path fill="#222222" d="M488.68,409.072h-6.904v7.397h6.904V409.072z M487.446,415.238h-4.439v-1.852h4.439V415.238z
					 M487.446,412.155h-4.439v-1.852h4.439V412.155z"/>
				<path fill="#222222" d="M479.472,409.072h-6.904v7.397h6.904V409.072z M478.238,415.238h-4.439v-1.852h4.439V415.238z
					 M478.238,412.155h-4.439v-1.852h4.439V412.155z"/>
				<path fill="#222222" d="M470.305,409.072H463.4v7.397h6.904V409.072z M469.071,415.238h-4.439v-1.852h4.439V415.238z
					 M469.071,412.155h-4.439v-1.852h4.439V412.155z"/>
				<path fill="#222222" d="M497.846,409.072h-6.903v7.397h6.903V409.072z M496.613,415.238h-4.44v-1.852h4.44V415.238z
					 M496.613,412.155h-4.44v-1.852h4.44V412.155z"/>
				<path fill="#222222" d="M488.68,421.404h-6.904v7.397h6.904V421.404z M487.446,427.57h-4.439v-1.852h4.439V427.57z
					 M487.446,424.487h-4.439v-1.852h4.439V424.487z"/>
				<path fill="#222222" d="M479.472,421.404h-6.904v7.397h6.904V421.404z M478.238,427.57h-4.439v-1.852h4.439V427.57z
					 M478.238,424.487h-4.439v-1.852h4.439V424.487z"/>
				<path fill="#222222" d="M470.305,421.404H463.4v7.397h6.904V421.404z M469.071,427.57h-4.439v-1.852h4.439V427.57z
					 M469.071,424.487h-4.439v-1.852h4.439V424.487z"/>
				<path fill="#222222" d="M497.846,421.404h-6.903v7.397h6.903V421.404z M496.613,427.57h-4.44v-1.852h4.44V427.57z
					 M496.613,424.487h-4.44v-1.852h4.44V424.487z"/>
				<path fill="#222222" d="M488.68,433.736h-6.904v7.397h6.904V433.736z M487.446,439.902h-4.439v-1.852h4.439V439.902z
					 M487.446,436.819h-4.439v-1.852h4.439V436.819z"/>
				<path fill="#222222" d="M479.472,433.736h-6.904v7.397h6.904V433.736z M478.238,439.902h-4.439v-1.852h4.439V439.902z
					 M478.238,436.819h-4.439v-1.852h4.439V436.819z"/>
				<path fill="#222222" d="M470.305,433.736H463.4v7.397h6.904V433.736z M469.071,439.902h-4.439v-1.852h4.439V439.902z
					 M469.071,436.819h-4.439v-1.852h4.439V436.819z"/>
				<path fill="#222222" d="M497.846,433.736h-6.903v7.397h6.903V433.736z M496.613,439.902h-4.44v-1.852h4.44V439.902z
					 M496.613,436.819h-4.44v-1.852h4.44V436.819z"/>
				<path fill="#222222" d="M497.846,446.191h-6.903v7.397h6.903V446.191z M496.613,452.357h-4.44v-1.852h4.44V452.357z
					 M496.613,449.274h-4.44v-1.852h4.44V449.274z"/>
				<path fill="#222222" d="M486.377,448.206h-5.097v7.975h5.097V448.206z M485.144,454.947h-2.631v-5.508h2.631V454.947z"/>
				<g>
					<path fill="#222222" d="M451.066,418.444h-4.853v7.397h4.853V418.444z M449.833,424.61h-2.384v-1.852h2.384V424.61z
						 M449.833,421.527h-2.384v-1.852h2.384V421.527z"/>
					<path fill="#222222" d="M456.821,418.444h-4.853v7.397h4.853V418.444z M455.588,424.61h-2.384v-1.852h2.384V424.61z
						 M455.588,421.527h-2.384v-1.852h2.384V421.527z"/>
					<path fill="#222222" d="M451.066,408.373h-4.853v7.398h4.853V408.373z M449.833,414.539h-2.384v-1.85h2.384V414.539z
						 M449.833,411.456h-2.384v-1.85h2.384V411.456z"/>
					<path fill="#222222" d="M456.821,408.373h-4.853v7.398h4.853V408.373z M455.588,414.539h-2.384v-1.85h2.384V414.539z
						 M455.588,411.456h-2.384v-1.85h2.384V411.456z"/>
					<path fill="#222222" d="M451.066,398.302h-4.853v7.399h4.853V398.302z M449.833,404.468h-2.384v-1.85h2.384V404.468z
						 M449.833,401.385h-2.384v-1.85h2.384V401.385z"/>
					<path fill="#222222" d="M456.821,398.302h-4.853v7.399h4.853V398.302z M455.588,404.468h-2.384v-1.85h2.384V404.468z
						 M455.588,401.385h-2.384v-1.85h2.384V401.385z"/>
					<g>
						<path fill="#222222" d="M430.143,353.002c0.124,0,0.247,0,0.37-0.041c0.986-0.165,1.48-0.863,1.521-0.945
							c0.205-0.288,0.123-0.617-0.165-0.822c-0.287-0.206-0.657-0.123-0.822,0.124c0,0-0.246,0.329-0.739,0.411
							c-0.45,0.082-0.861-0.165-0.943-0.535c-0.042-0.206-0.042-0.411-0.042-0.575c0.042-0.329-0.205-0.617-0.534-0.658
							c-0.329-0.042-0.616,0.206-0.657,0.534s-0.041,0.658,0.041,0.986C428.334,352.344,429.197,353.002,430.143,353.002z"/>
						<circle fill="#222222" cx="430.472" cy="350.453" r="0.575"/>
						<circle fill="#222222" cx="429.938" cy="343.424" r="0.617"/>
						<circle fill="#222222" cx="433.144" cy="343.424" r="0.617"/>
						<path fill="#222222" d="M420.894,357.935c0.165-0.041,0.576-0.206,0.658-0.165c0,0,0,0,0.041,0.082
							c0.041,0.083-0.041,0.329-0.082,0.494c-0.124,0.534-0.37,1.397,0.452,2.137c0.698,0.617,1.932,0.452,2.713-0.452
							c0.246-0.247,0.411-0.329,0.452-0.329c0.041,0.041,0.082,0.165,0.082,0.37v0.165c0.041,0.699,0.041,1.356,0.74,1.809
							c0.246,0.164,0.493,0.247,0.781,0.247c0.121,0,0.244,0,0.367-0.042c0.494-0.123,0.946-0.534,1.233-1.151
							c0.288-0.575,0.534-0.699,0.576-0.699c0.041,0,0.164,0.041,0.328,0.37c0.779,1.315,1.562,1.562,2.097,1.521
							c1.891-0.124,4.151-2.631,4.398-9.208c0.286-0.124,0.573-0.288,0.82-0.535c0.657-0.699,0.74-1.685,0.247-2.384
							c-0.165-0.247-0.37-0.411-0.494-0.575c-0.041-0.041-0.082-0.124-0.123-0.165c-0.123-0.165-0.164-0.411-0.164-0.863
							c0-0.082,0-0.206,0-0.329c-0.122-3.741-0.985-6.413-2.631-7.852c-0.943-0.863-2.138-1.274-3.412-1.151
							c-3.042,0.247-5.262,3.165-5.673,7.481c-0.452,4.974-1.521,6.083-4.108,7.81c-1.439,0.946-1.562,2.056-1.233,2.754
							C419.25,357.894,420.071,358.182,420.894,357.935z M420.812,355.427c2.837-1.85,4.15-3.247,4.646-8.714
							c0.37-3.741,2.096-6.207,4.562-6.413c0.945-0.083,1.811,0.206,2.551,0.863c1.354,1.233,2.138,3.659,2.22,6.988l0,0
							c0,0,0,0,0,0.041c0,0.124,0,0.206,0,0.288c0.041,0.493,0.041,0.986,0.329,1.397c-0.206,0.083-0.329,0.288-0.329,0.493
							c0,0.329,0.246,0.576,0.575,0.576c0.206,0,0.37-0.082,0.452-0.247c0.165,0.288,0.041,0.617-0.164,0.863
							c-0.082,0.123-0.493,0.452-0.986,0.165c-0.042-0.042-0.083-0.042-0.124-0.083c-0.205-0.247-0.616-0.288-0.863-0.041
							c-0.246,0.247-0.287,0.617-0.041,0.863c0.124,0.123,0.247,0.247,0.37,0.329c0.165,0.083,0.288,0.165,0.452,0.206
							c-0.205,5.344-1.809,7.893-3.247,8.016c-0.206,0-0.576-0.206-0.987-0.904c-0.491-0.822-1.025-0.987-1.396-0.946
							c-0.616,0-1.15,0.494-1.604,1.357c-0.164,0.37-0.368,0.534-0.491,0.534c-0.042,0-0.083,0-0.165-0.041
							c-0.123-0.083-0.164-0.165-0.164-0.822v-0.165c-0.041-0.74-0.37-1.274-0.863-1.479c-0.329-0.124-0.986-0.206-1.768,0.658
							c-0.411,0.452-0.904,0.493-1.069,0.329c-0.246-0.206-0.246-0.37-0.082-0.904c0.082-0.37,0.206-0.781,0.041-1.233
							c-0.452-1.233-1.729-0.822-2.22-0.658c-0.246,0.083-0.452,0.042-0.534-0.123C419.866,356.455,420.03,355.962,420.812,355.427z
							"/>
						<path fill="#222222" d="M431.458,347.33c1.192,0,2.097-1.315,2.097-2.467c0-0.123-0.123-0.247-0.246-0.247h-3.739
							c-0.123,0-0.247,0.124-0.247,0.247C429.362,346.014,430.267,347.33,431.458,347.33z"/>
						<path fill="#222222" d="M403.465,440.807c1.562,0,2.795-1.272,2.795-2.795c0-1.521-1.272-2.796-2.795-2.796
							c-1.521,0-2.796,1.274-2.796,2.796C400.669,439.532,401.902,440.807,403.465,440.807z M403.465,436.408
							c0.863,0,1.562,0.699,1.562,1.562c0,0.863-0.698,1.562-1.562,1.562s-1.562-0.699-1.562-1.562
							C401.902,437.107,402.602,436.408,403.465,436.408z"/>
						<path fill="#222222" d="M425.251,440.807c1.562,0,2.796-1.272,2.796-2.795c0-1.521-1.272-2.796-2.796-2.796
							c-1.521,0-2.795,1.274-2.795,2.796C422.456,439.532,423.689,440.807,425.251,440.807z M425.251,436.408
							c0.863,0,1.562,0.699,1.562,1.562c0,0.863-0.699,1.562-1.562,1.562s-1.562-0.699-1.562-1.562
							C423.689,437.107,424.388,436.408,425.251,436.408z"/>
						<rect x="411.604" y="443.808" fill="#222222" width="5.47" height="1.233"/>
						<g>
							<path fill="#222222" d="M243.271,440.312c0.74,0,1.356-0.616,1.356-1.355c0-0.74-0.617-1.356-1.356-1.356
								c-0.74,0-1.357,0.616-1.357,1.356C241.914,439.696,242.531,440.312,243.271,440.312z M243.271,438.875
								c0.041,0,0.123,0.041,0.123,0.123c0,0.123-0.206,0.123-0.206,0C243.147,438.916,243.188,438.875,243.271,438.875z"/>
							<path fill="#222222" d="M263.824,457.167c0.74,0,1.356-0.616,1.356-1.356c0-0.738-0.616-1.354-1.356-1.354
								c-0.74,0-1.356,0.616-1.356,1.354C262.468,456.551,263.084,457.167,263.824,457.167z M263.824,455.729
								c0.041,0,0.124,0.041,0.124,0.123c0,0.123-0.206,0.123-0.206,0C263.701,455.77,263.742,455.729,263.824,455.729z"/>
							<path fill="#222222" d="M243.271,461.072c-0.74,0-1.357,0.614-1.357,1.354s0.617,1.356,1.357,1.356
								c0.74,0,1.356-0.616,1.356-1.356C244.627,461.688,244.011,461.072,243.271,461.072z M243.147,462.429
								c0-0.041,0.041-0.123,0.124-0.123c0.082,0,0.123,0.041,0.123,0.123C243.353,462.511,243.147,462.511,243.147,462.429z"/>
							<path fill="#222222" d="M251.492,470.116c-0.74,0-1.356,0.616-1.356,1.354c0,0.739,0.617,1.356,1.356,1.356
								c0.739,0,1.356-0.617,1.356-1.356C252.849,470.732,252.232,470.116,251.492,470.116z M251.369,471.473
								c0-0.041,0.042-0.124,0.124-0.124s0.124,0.042,0.124,0.124C251.574,471.555,251.369,471.555,251.369,471.473z"/>
							<path fill="#222222" d="M239.16,481.626c-0.74,0-1.356,0.616-1.356,1.356c0,0.738,0.617,1.354,1.356,1.354
								c0.739,0,1.356-0.616,1.356-1.354C240.516,482.242,239.9,481.626,239.16,481.626z M239.037,482.982
								c0-0.041,0.042-0.123,0.124-0.123s0.123,0.041,0.123,0.123C239.242,483.064,239.037,483.064,239.037,482.982z"/>
							<path fill="#222222" d="M259.713,476.693c-0.74,0-1.356,0.614-1.356,1.354c0,0.739,0.617,1.356,1.356,1.356
								c0.74,0,1.357-0.617,1.357-1.356S260.454,476.693,259.713,476.693z M259.59,478.05c0-0.042,0.041-0.124,0.123-0.124
								c0.083,0,0.124,0.041,0.124,0.124C259.796,478.132,259.59,478.132,259.59,478.05z"/>
							<g>
								<g>
									<path fill="#222222" d="M169.812,459.716c-1.233,0-2.22,0.986-2.22,2.22c0,1.234,0.987,2.222,2.22,2.222
										s2.22-0.986,2.22-2.222C172.032,460.702,171.046,459.716,169.812,459.716z M169.812,462.881
										c-0.534,0-0.986-0.452-0.986-0.986c0-0.532,0.452-0.984,0.986-0.984c0.535,0,0.987,0.452,0.987,0.984
										C170.799,462.429,170.347,462.881,169.812,462.881z"/>
									<path fill="#222222" d="M215.441,459.716c-1.233,0-2.22,0.986-2.22,2.22c0,1.234,0.986,2.222,2.22,2.222
										s2.22-0.986,2.22-2.222C217.661,460.702,216.675,459.716,215.441,459.716z M215.441,462.881
										c-0.534,0-0.986-0.452-0.986-0.986c0-0.532,0.452-0.984,0.986-0.984c0.534,0,0.987,0.452,0.987,0.984
										C216.428,462.429,215.976,462.881,215.441,462.881z"/>
									<path fill="#222222" d="M169.73,450.796c0.74,0,1.356-0.617,1.356-1.354c0-0.74-0.617-1.357-1.356-1.357
										s-1.356,0.617-1.356,1.357C168.374,450.179,168.991,450.796,169.73,450.796z M169.73,449.274
										c0.082,0,0.124,0.082,0.124,0.122c0,0.043-0.083,0.123-0.124,0.123s-0.123-0.08-0.123-0.123
										C169.607,449.356,169.648,449.274,169.73,449.274z"/>
									<path fill="#222222" d="M169.73,441.752c0.74,0,1.356-0.616,1.356-1.354c0-0.74-0.617-1.356-1.356-1.356
										s-1.356,0.616-1.356,1.356C168.374,441.136,168.991,441.752,169.73,441.752z M169.73,440.231
										c0.082,0,0.124,0.08,0.124,0.121s-0.083,0.123-0.124,0.123s-0.123-0.082-0.123-0.123
										C169.607,440.312,169.648,440.231,169.73,440.231z"/>
									<path fill="#222222" d="M214.702,450.796c0.74,0,1.356-0.617,1.356-1.354c0-0.74-0.617-1.357-1.356-1.357
										c-0.74,0-1.357,0.617-1.357,1.357C213.345,450.179,213.92,450.796,214.702,450.796z M214.702,449.274
										c0.082,0,0.123,0.082,0.123,0.122c0,0.043-0.082,0.123-0.123,0.123c-0.042,0-0.124-0.08-0.124-0.123
										C214.578,449.356,214.619,449.274,214.702,449.274z"/>
									<path fill="#222222" d="M214.702,441.752c0.74,0,1.356-0.616,1.356-1.354c0-0.74-0.617-1.356-1.356-1.356
										c-0.74,0-1.357,0.616-1.357,1.356C213.345,441.136,213.92,441.752,214.702,441.752z M214.702,440.231
										c0.082,0,0.123,0.08,0.123,0.121s-0.082,0.123-0.123,0.123c-0.042,0-0.124-0.082-0.124-0.123
										C214.578,440.312,214.619,440.231,214.702,440.231z"/>
									<rect x="198.546" y="422.555" fill="#222222" width="1.233" height="3.7"/>
									<rect x="201.835" y="426.666" fill="#222222" width="1.233" height="3.699"/>
									<rect x="205.124" y="423.788" fill="#222222" width="1.233" height="3.7"/>
									<rect x="198.546" y="429.954" fill="#222222" width="1.233" height="3.7"/>
									<rect x="201.835" y="434.065" fill="#222222" width="1.233" height="3.697"/>
									<rect x="205.124" y="431.188" fill="#222222" width="1.233" height="3.699"/>
									<g>
										<path fill="#222222" d="M86.407,461.277c6.331,0,11.469-5.14,11.469-11.471c0-6.329-5.138-11.469-11.469-11.469
											c-6.331,0-11.469,5.141-11.469,11.469C74.938,456.14,80.076,461.277,86.407,461.277z M86.407,439.573
											c5.632,0,10.236,4.604,10.236,10.233c0,5.634-4.604,10.236-10.236,10.236c-5.632,0-10.236-4.604-10.236-10.236
											C76.171,444.178,80.775,439.573,86.407,439.573z"/>
										<path fill="#222222" d="M86.407,453.303c1.932,0,3.535-1.562,3.535-3.535c0-1.973-1.562-3.533-3.535-3.533
											c-1.932,0-3.535,1.562-3.535,3.533C82.872,451.741,84.475,453.303,86.407,453.303z M86.407,447.507
											c1.274,0,2.302,1.028,2.302,2.302c0,1.274-1.028,2.305-2.302,2.305c-1.274,0-2.302-1.028-2.302-2.305
											C84.105,448.535,85.132,447.507,86.407,447.507z"/>
										<path fill="#222222" d="M130.104,461.277c6.331,0,11.469-5.14,11.469-11.471c0-6.329-5.138-11.469-11.469-11.469
											s-11.469,5.141-11.469,11.469C118.635,456.14,123.814,461.277,130.104,461.277z M130.104,439.573
											c5.631,0,10.235,4.604,10.235,10.233c0,5.634-4.604,10.236-10.235,10.236c-5.632,0-10.236-4.604-10.236-10.236
											C119.868,444.178,124.472,439.573,130.104,439.573z"/>
										<path fill="#222222" d="M130.104,453.303c1.932,0,3.535-1.562,3.535-3.535c0-1.973-1.562-3.533-3.535-3.533
											c-1.932,0-3.535,1.562-3.535,3.533C126.568,451.741,128.171,453.303,130.104,453.303z M130.104,447.507
											c1.274,0,2.302,1.028,2.302,2.302c0,1.274-1.027,2.305-2.302,2.305s-2.302-1.028-2.302-2.305
											C127.801,448.535,128.87,447.507,130.104,447.507z"/>
										<path fill="#222222" d="M77.528,432.544c1.11,0,2.055-0.904,2.055-2.056c0-1.15-0.904-2.057-2.055-2.057
											c-1.11,0-2.056,0.904-2.056,2.057C75.472,431.64,76.376,432.544,77.528,432.544z M77.528,429.708
											c0.452,0,0.822,0.37,0.822,0.822s-0.37,0.819-0.822,0.819c-0.452,0-0.822-0.367-0.822-0.819
											S77.076,429.708,77.528,429.708z"/>
										<path fill="#222222" d="M83.036,432.544c1.11,0,2.055-0.904,2.055-2.056c0-1.15-0.904-2.057-2.055-2.057
											c-1.11,0-2.056,0.904-2.056,2.057C80.98,431.64,81.885,432.544,83.036,432.544z M83.036,429.708
											c0.452,0,0.822,0.37,0.822,0.822s-0.37,0.819-0.822,0.819c-0.452,0-0.822-0.367-0.822-0.819
											S82.584,429.708,83.036,429.708z"/>
										<path fill="#222222" d="M140.709,428.762H86.694v3.494h53.974v-3.494H140.709z M139.476,431.023H87.928v-1.028h51.507
											v1.028H139.476z"/>
										<path fill="#222222" d="M105.439,455.562c0.904,0,1.644-0.738,1.644-1.645s-0.74-1.645-1.644-1.645
											s-1.645,0.738-1.645,1.645S104.535,455.562,105.439,455.562z M105.439,453.509c0.206,0,0.411,0.164,0.411,0.411
											c0,0.246-0.165,0.411-0.411,0.411c-0.206,0-0.411-0.165-0.411-0.411C105.028,453.673,105.193,453.509,105.439,453.509z"/>
										<path fill="#222222" d="M110.948,455.562c0.904,0,1.644-0.738,1.644-1.645s-0.74-1.645-1.644-1.645
											c-0.904,0-1.645,0.738-1.645,1.645S110.043,455.562,110.948,455.562z M110.948,453.509c0.206,0,0.411,0.164,0.411,0.411
											c0,0.246-0.165,0.411-0.411,0.411c-0.206,0-0.411-0.165-0.411-0.411C110.537,453.673,110.701,453.509,110.948,453.509z"/>
										<rect x="102.356" y="437.148" fill="#222222" width="1.233" height="8.756"/>
										<rect x="105.851" y="437.148" fill="#222222" width="1.233" height="8.756"/>
										<rect x="109.344" y="437.148" fill="#222222" width="1.233" height="8.756"/>
										<rect x="112.838" y="437.148" fill="#222222" width="1.233" height="8.756"/>
										<g>
											<rect x="79.131" y="358.058" fill="#222222" width="1.233" height="3.7"/>
											<rect x="82.419" y="379.845" fill="#222222" width="1.233" height="3.7"/>
											<rect x="75.842" y="361.347" fill="#222222" width="1.233" height="3.7"/>
											<rect x="79.131" y="365.458" fill="#222222" width="1.233" height="3.7"/>
											<rect x="82.419" y="362.58" fill="#222222" width="1.233" height="3.7"/>
											<rect x="100.095" y="386.011" fill="#222222" width="1.233" height="3.699"/>
											<rect x="72.143" y="392.177" fill="#222222" width="1.233" height="3.699"/>
											<rect x="75.431" y="396.288" fill="#222222" width="1.233" height="3.699"/>
											<rect x="78.72" y="393.41" fill="#222222" width="1.233" height="3.699"/>
											<rect x="79.542" y="412.73" fill="#222222" width="1.233" height="3.697"/>
											<rect x="58.167" y="372.857" fill="#222222" width="1.233" height="3.7"/>
											<g>
												<path fill="#222222" d="M38.558,404.345h6.906v-7.397h-6.906V404.345z M39.792,398.179h4.439v1.852h-4.439V398.179z
													 M39.792,401.262h4.439v1.852h-4.439V401.262z"/>
												<path fill="#222222" d="M29.392,404.345h6.906v-7.397h-6.906V404.345z M30.625,398.179h4.44v1.852h-4.44V398.179z
													 M30.625,401.262h4.44v1.852h-4.44V401.262z"/>
												<path fill="#222222" d="M20.225,404.345h6.906v-7.397h-6.906V404.345z M21.458,398.179h4.439v1.852h-4.439V398.179z
													 M21.458,401.262h4.439v1.852h-4.439V401.262z"/>
												<path fill="#222222" d="M47.766,404.345h6.906v-7.397h-6.906V404.345z M49,398.179h4.439v1.852H49V398.179z M49,401.262
													h4.439v1.852H49V401.262z"/>
												<path fill="#222222" d="M38.558,416.677h6.906v-7.397h-6.906V416.677z M39.792,410.511h4.439v1.852h-4.439V410.511z
													 M39.792,413.594h4.439v1.852h-4.439V413.594z"/>
												<path fill="#222222" d="M29.392,416.677h6.906v-7.397h-6.906V416.677z M30.625,410.511h4.44v1.852h-4.44V410.511z
													 M30.625,413.594h4.44v1.852h-4.44V413.594z"/>
												<path fill="#222222" d="M20.225,416.677h6.906v-7.397h-6.906V416.677z M21.458,410.511h4.439v1.852h-4.439V410.511z
													 M21.458,413.594h4.439v1.852h-4.439V413.594z"/>
												<path fill="#222222" d="M47.766,416.677h6.906v-7.397h-6.906V416.677z M49,410.511h4.439v1.852H49V410.511z M49,413.594
													h4.439v1.852H49V413.594z"/>
												<path fill="#222222" d="M38.558,429.009h6.906v-7.397h-6.906V429.009z M39.792,422.843h4.439v1.852h-4.439V422.843z
													 M39.792,425.926h4.439v1.852h-4.439V425.926z"/>
												<path fill="#222222" d="M29.392,429.009h6.906v-7.397h-6.906V429.009z M30.625,422.843h4.44v1.852h-4.44V422.843z
													 M30.625,425.926h4.44v1.852h-4.44V425.926z"/>
												<path fill="#222222" d="M20.225,429.009h6.906v-7.397h-6.906V429.009z M21.458,422.843h4.439v1.852h-4.439V422.843z
													 M21.458,425.926h4.439v1.852h-4.439V425.926z"/>
												<path fill="#222222" d="M47.766,429.009h6.906v-7.397h-6.906V429.009z M49,422.843h4.439v1.852H49V422.843z M49,425.926
													h4.439v1.852H49V425.926z"/>
												<path fill="#222222" d="M38.558,441.341h6.906v-7.397h-6.906V441.341z M39.792,435.175h4.439v1.852h-4.439V435.175z
													 M39.792,438.258h4.439v1.852h-4.439V438.258z"/>
												<path fill="#222222" d="M29.392,441.341h6.906v-7.397h-6.906V441.341z M30.625,435.175h4.44v1.852h-4.44V435.175z
													 M30.625,438.258h4.44v1.852h-4.44V438.258z"/>
												<path fill="#222222" d="M20.225,441.341h6.906v-7.397h-6.906V441.341z M21.458,435.175h4.439v1.852h-4.439V435.175z
													 M21.458,438.258h4.439v1.852h-4.439V438.258z"/>
												<path fill="#222222" d="M47.766,441.341h6.906v-7.397h-6.906V441.341z M49,435.175h4.439v1.852H49V435.175z M49,438.258
													h4.439v1.852H49V438.258z"/>
												<path fill="#222222" d="M38.558,453.673h6.906v-7.397h-6.906V453.673z M39.792,447.507h4.439v1.852h-4.439V447.507z
													 M39.792,450.59h4.439v1.852h-4.439V450.59z"/>
												<path fill="#222222" d="M29.392,453.673h6.906v-7.397h-6.906V453.673z M30.625,447.507h4.44v1.852h-4.44V447.507z
													 M30.625,450.59h4.44v1.852h-4.44V450.59z"/>
												<path fill="#222222" d="M20.225,453.673h6.906v-7.397h-6.906V453.673z M21.458,447.507h4.439v1.852h-4.439V447.507z
													 M21.458,450.59h4.439v1.852h-4.439V450.59z"/>
												<path fill="#222222" d="M47.766,453.673h6.906v-7.397h-6.906V453.673z M49,447.507h4.439v1.852H49V447.507z M49,450.59
													h4.439v1.852H49V450.59z"/>
												<g>
													<rect x="9.989" y="352.55" fill="#222222" width="1.233" height="109.838"/>
													<rect x="5.878" y="352.55" fill="#222222" width="1.233" height="109.838"/>
													<rect x="1.768" y="352.55" fill="#222222" width="1.233" height="109.838"/>
													<rect x="14.1" y="336.107" fill="#222222" width="1.233" height="10.77"/>
													<rect x="9.989" y="336.107" fill="#222222" width="1.233" height="10.77"/>
													<rect x="5.878" y="336.107" fill="#222222" width="1.233" height="10.77"/>
													<rect x="1.768" y="336.107" fill="#222222" width="1.233" height="10.77"/>
													<rect x="9.989" y="325.831" fill="#222222" width="1.233" height="4.604"/>
													<rect x="5.878" y="325.831" fill="#222222" width="1.233" height="4.604"/>
													<rect x="1.768" y="325.831" fill="#222222" width="1.233" height="4.604"/>
													<path fill="#222222" d="M65.072,467.69c-1.233,2.302,0.082,7.191,0.247,7.77l0.165,0.616l0.617-0.205
														c0.534-0.165,5.344-1.853,6.536-4.152c0.494-0.943,0.576-1.85,0.411-2.631c3.083,2.344,6.29,4.398,9.414,6.125
														c-0.206,0.329-0.411,0.699-0.576,1.069c-0.945-0.452-1.973-0.576-3.042-0.329c-3.166,0.657-6.947,6.166-7.112,6.371
														l-0.37,0.535l0.575,0.326c0.206,0.124,4.974,3.001,8.18,3.001c0.329,0,0.617-0.04,0.905-0.08
														c0.493-0.123,0.945-0.288,1.356-0.493c0.699,1.354,1.809,2.384,3.206,3.001c0.822,1.354,2.014,2.302,3.453,2.795
														c0.699,0.247,1.356,0.329,2.055,0.329c0.822,0,1.645-0.165,2.384-0.452c0.535,0.123,1.069,0.205,1.562,0.205
														c0.987,0,1.932-0.205,2.836-0.657c1.356-0.658,2.425-1.768,3.042-3.207c1.315-0.822,2.302-2.014,2.795-3.494
														c0.493-1.438,0.452-2.959-0.124-4.438c0.329-1.479,0.206-3.042-0.493-4.439c-0.699-1.396-1.85-2.425-3.248-3.083
														c-0.822-1.354-2.014-2.302-3.453-2.795c-1.479-0.493-3.042-0.411-4.48,0.123c-1.521-0.37-3.042-0.205-4.398,0.493
														c-1.356,0.658-2.425,1.768-3.083,3.207c-0.493,0.287-0.904,0.657-1.315,1.066c-3.7-2.015-7.481-4.521-11.14-7.438
														h0.535h71.115h98.123h16.484h116.375l-4.316,4.191c-0.37-0.245-0.822-0.368-1.274-0.368
														c-0.614,0-1.23,0.244-1.685,0.696s-0.74,1.069-0.74,1.729s0.246,1.272,0.698,1.727c0.452,0.493,1.069,0.74,1.768,0.74
														c0.617,0,1.233-0.247,1.688-0.699s0.74-1.066,0.74-1.727c0-0.452-0.123-0.863-0.329-1.232l5.221-5.057h1.521
														l-0.494,12.168c-1.068,0.205-1.893,1.107-1.975,2.22c-0.123,1.356,0.904,2.508,2.222,2.631c0.082,0,0.123,0,0.205,0
														l0,0c1.272,0,2.344-0.984,2.426-2.261c0.041-0.658-0.164-1.274-0.575-1.768c-0.288-0.329-0.658-0.576-1.069-0.74
														l0.247-6.002l1.811,0.699c-0.041,0.409,0,0.861,0.164,1.272c0.247,0.616,0.738,1.068,1.354,1.315
														c0.288,0.123,0.576,0.164,0.904,0.164c1.028,0,1.892-0.616,2.262-1.562c0.493-1.231-0.124-2.672-1.354-3.166
														c-0.288-0.123-0.576-0.164-0.905-0.164c-0.78,0-1.521,0.37-1.973,0.986l-2.222-0.863l0.205-4.974h7.729
														c0.861,4.149,2.919,6.823,3.083,6.988l0.288,0.368l0.409-0.165c0.246-0.082,4.935-2.096,7.977-7.15H510.51
														c-0.164,0.493-0.287,0.943-0.287,1.313c0,2.181,1.77,3.946,3.946,3.946s3.945-1.768,3.945-3.946
														c0-0.37-0.123-0.82-0.287-1.313h93.971v-1.233h-4.728v-16.44l2.179-1.233c0.493,0.329,1.438,0.945,2.549,1.438V448
														c-0.494-0.246-0.987-0.534-1.355-0.739l0.944-0.535l0.37,0.165v-7.934c-0.288,0.041-0.576,0.164-0.822,0.287
														c-0.041,0-0.041,0.041-0.083,0.041l-0.123,0.083c-0.286,0.205-0.532,0.452-0.738,0.698
														c-1.438,1.85-1.438,5.591-1.438,6.822l-1.604,0.904V436.86l2.18-1.233c0.493,0.329,1.438,0.945,2.548,1.438v-1.356
														c-0.493-0.246-0.984-0.534-1.354-0.739l0.943-0.535l0.37,0.165v-7.934c-0.287,0.041-0.575,0.164-0.822,0.287
														l-0.041,0.042c-0.041,0.041-0.08,0.041-0.121,0.082c-0.288,0.205-0.534,0.452-0.74,0.698
														c-1.438,1.851-1.438,5.591-1.438,6.822l-1.604,0.904v-10.935l2.179-1.233c0.493,0.329,1.439,0.945,2.549,1.439v-1.357
														c-0.493-0.246-0.984-0.534-1.354-0.739l0.943-0.534l0.37,0.164v-7.934c-0.288,0.041-0.575,0.164-0.822,0.329
														l-0.041,0.041c-0.041,0.041-0.08,0.041-0.121,0.082c-0.288,0.205-0.534,0.452-0.74,0.698
														c-1.438,1.851-1.438,5.591-1.438,6.822l-1.604,0.904v-8.509c0.862-0.452,3.124-1.646,4.728-3.289v-1.975
														c-0.943,1.604-3.206,3.084-4.728,3.864v-1.521l4.728-3.905v-2.713c-0.452-0.247-0.984-0.411-1.562-0.411
														c-0.082,0-0.164,0-0.246,0v-0.616c0-1.974-1.604-3.576-3.576-3.576c-1.974,0-3.577,1.604-3.577,3.576v0.616
														c-0.082,0-0.164,0-0.246,0c-1.768,0-3.247,1.438-3.247,3.248c0,0.041,0,0.041,0,0.082s0,0.123,0,0.164
														c0.041,0.411,0.123,0.781,0.287,1.108c1.069,2.509,4.935,4.688,6.125,5.305v8.55l-1.604-0.904
														c0.042-1.231,0-4.974-1.397-6.781c-0.205-0.287-0.452-0.534-0.737-0.739c-0.042-0.041-0.083-0.041-0.124-0.082
														l-0.082-0.041c-0.411-0.247-0.904-0.37-1.397-0.37c-1.025,0-1.974,0.575-2.508,1.438c0,0.041-0.041,0.082-0.041,0.082
														l-0.37-0.204c-0.452-0.246-0.986-0.41-1.562-0.41c-1.151,0-2.181,0.614-2.757,1.604
														c-0.861,1.521-0.326,3.452,1.192,4.315l0.37,0.206c0,0.041-0.041,0.082-0.041,0.082
														c-0.37,0.655-0.452,1.438-0.247,2.179c0.206,0.74,0.699,1.354,1.356,1.727c0.042,0,0.042,0.041,0.083,0.041
														c0.041,0.041,0.082,0.041,0.164,0.082c0.041,0,0.041,0.041,0.081,0.041c0.081,0.041,0.164,0.041,0.205,0.082h0.041
														c0.37,0.124,0.74,0.165,1.191,0.165c2.303,0,5.098-1.727,6.043-2.385l2.22,1.232v10.936l-1.603-0.904
														c0.041-1.231,0-4.974-1.398-6.782c-0.205-0.286-0.452-0.533-0.738-0.738c-0.041-0.041-0.081-0.041-0.125-0.082
														l-0.081-0.041c-0.41-0.247-0.903-0.37-1.396-0.37c-1.027,0-1.973,0.575-2.508,1.438c0,0.041-0.041,0.082-0.041,0.082
														l-0.37-0.205c-0.452-0.246-0.986-0.409-1.562-0.409c-1.149,0-2.179,0.614-2.754,1.603
														c-0.41,0.74-0.533,1.604-0.288,2.385c0.247,0.822,0.74,1.479,1.479,1.893l0.37,0.206c0,0.041-0.041,0.082-0.041,0.082
														c-0.37,0.655-0.452,1.438-0.246,2.179c0.205,0.739,0.698,1.354,1.313,1.727c0.041,0,0.041,0.041,0.082,0.041
														c0.041,0.041,0.082,0.041,0.123,0.082l0.082,0.041c0.082,0.041,0.124,0.041,0.247,0.082
														c0.37,0.124,0.739,0.165,1.191,0.165c2.303,0,5.098-1.727,6.043-2.385l2.22,1.233v10.935l-1.603-0.904
														c0.041-1.231,0-4.974-1.398-6.783c-0.205-0.285-0.452-0.532-0.739-0.737l-0.165-0.124
														c-0.411-0.246-0.902-0.369-1.396-0.369c-1.027,0-1.975,0.575-2.508,1.438c0,0.041-0.041,0.082-0.041,0.082l-0.37-0.204
														c-0.451-0.246-0.986-0.41-1.562-0.41c-1.149,0-2.179,0.614-2.754,1.603c-0.411,0.74-0.535,1.604-0.288,2.385
														c0.247,0.781,0.74,1.479,1.479,1.893l0.37,0.206c0,0.041-0.041,0.082-0.041,0.082c-0.37,0.655-0.452,1.438-0.246,2.179
														c0.205,0.739,0.697,1.354,1.354,1.727c0.041,0,0.041,0.041,0.082,0.041c0.041,0.041,0.082,0.041,0.164,0.082
														l0.082,0.041c0.083,0.041,0.165,0.041,0.206,0.082h0.041c0.37,0.124,0.74,0.165,1.192,0.165
														c2.302,0,5.097-1.727,6.042-2.385l2.221,1.233v16.44H587.34V345.768h-33.174v74.28l-5.96-4.562V402.66h2.179v-5.837
														h-3.371l0.822-6.29H537.19l0.821,6.29h-3.371v5.837h2.14v12.866l-13.154,10.11v5.305v26.268v8.304h-6.536
														c-0.944-1.932-2.384-3.944-2.631-4.273l-0.493-0.698l-0.493,0.698c-0.246,0.329-1.686,2.385-2.631,4.273h-7.11v-73.787
														h3.288v-6.371h-42.506c0-0.247,0.042-0.494,0.042-0.74v-21.047c0-1.479-1.19-2.672-2.672-2.672
														c-0.534,0-1.027,0.165-1.438,0.411v-1.027v-1.645c0-1.48-1.191-2.672-2.673-2.672c-0.533,0-1.026,0.165-1.438,0.411
														v-1.439c0-1.48-1.191-2.672-2.672-2.672c-1.479,0-2.672,1.192-2.672,2.672v0.617c-0.411-0.247-0.904-0.411-1.439-0.411
														c-1.479,0-2.672,1.192-2.672,2.672v20.266c0,0.781-0.657,1.439-1.438,1.439c-0.781,0-1.438-0.658-1.438-1.439V368.5
														c0-1.48-1.191-2.672-2.672-2.672c-1.479,0-2.672,1.192-2.672,2.672v16.114c0,4.275,2.096,8.222,5.59,10.647v24.168
														c-22.279-13.111-27.993-44.229-28.24-45.545c-0.041-5.22-4.231-9.455-9.412-9.578c-0.452-4.481-4.11-8.057-8.675-8.345
														v-7.235h11.1v-8.879h-12.331v0.616v8.345v7.235c-4.562,0.288-8.223,3.864-8.675,8.345
														c-4.273,0.124-7.852,3.042-9.002,6.988c-2.18,1.932-4.397,3.782-6.7,5.549h-0.041l0,0
														c-5.14,3.905-10.563,7.317-16.318,10.277h-0.124v0.082c-15.908,8.098-33.913,12.455-52.658,12.455
														c-28.528,0-55.453-10.071-75.842-28.322c-1.151-3.946-4.769-6.906-9.043-6.988c-0.452-4.48-4.111-8.057-8.674-8.345
														v-7.234h11.099v-9.002h-12.332v0.616v8.345v7.235c-4.563,0.288-8.222,3.864-8.674,8.345
														c-5.179,0.124-9.331,4.357-9.372,9.537c-0.206,1.233-5.632,30.789-26.473,44.438c0.576-2.058,0.658-3.535,0.658-3.7
														v-0.452l-0.452-0.164c-0.37-0.123-9.043-2.919-17.388,2.837c-2.59,1.77-4.398,3.904-5.631,5.919
														c0.164-2.015-0.042-4.355-0.987-6.78c-2.795-7.523-9.701-9.66-10.03-9.743l-0.453-0.123l-0.247,0.411
														c-0.164,0.247-3.987,6.413-1.192,13.895c0.904,2.384,2.261,4.439,4.152,6.166h-9.126v-10.894H92.408v10.894h-3.453
														v-9.455l9.084-9.085l-0.863-0.862l-8.221,8.223v-18.375h10.276c2.919,0,5.262-2.343,5.262-5.261V374.71
														c0-2.425-1.973-4.439-4.439-4.439c-2.425,0-4.439,1.973-4.439,4.439v12.784h-6.659v-31.447
														c0-6.001-4.892-10.893-10.894-10.893s-10.893,4.892-10.893,10.893v16.237h-3.823v-5.385c0-2.426-1.973-4.44-4.439-4.44
														c-2.425,0-4.439,1.973-4.439,4.44v9.701c0,2.918,2.343,5.262,5.262,5.262h7.44l-0.042,80.775
														c-2.096-1.933-4.028-3.903-5.796-5.92V391.85h-3.165v-3.165h-9.619L45.67,376.68h1.315v-1.233h-1.356v-4.357h1.809
														l-7.893-7.811l-7.852,7.811h1.809v4.439h-1.479v1.233h1.315l-2.877,12.003h-7.399v-39.627h-3.946v-16.443h-4.111
														v-10.277H12.95v-3.617H8.263v-14.47H7.07v-10.935H5.837v10.935H4.645v14.47H0.041v3.617H0v1.233h0.041h12.908h0.822
														v8.961H0v1.315h17.881v15.127H0v1.233h19.115h2.713v38.394h-2.384V352.55H18.21v36.133h-1.645v3.165h-1.233V352.55
														H14.1v39.298h-0.699v73.664H0v1.233h65.73C65.483,467.033,65.237,467.32,65.072,467.69z M80.734,484.873
														c-1.973,0.411-5.755-1.356-7.646-2.425c1.274-1.729,3.988-4.894,5.961-5.347c0.863-0.203,1.685-0.08,2.425,0.329
														c-0.165,0.863-0.165,1.729,0,2.592l-5.55,1.19l0.247,1.191l5.591-1.191c-0.247,1.068-0.206,2.179,0.082,3.206
														C81.556,484.627,81.186,484.791,80.734,484.873z M83.406,484.955c-0.945-1.891-0.575-4.192,0.781-6.001
														c-0.082,0.904-0.041,1.85,0.165,2.754l0.164,0.74l2.508-1.233c0.082,0.575,0.247,1.15,0.534,1.688
														c0.247,0.532,0.617,1.025,0.987,1.438l-2.508,1.233l0.494,0.614c0.616,0.74,1.315,1.356,2.096,1.852
														C86.366,487.997,84.352,486.847,83.406,484.955z M97.177,480.681c-0.082,1.562-0.986,3-2.466,3.74
														c-0.617,0.288-1.274,0.452-1.973,0.452c-0.37,0-0.699-0.041-1.028-0.123l0.124-1.397L97.177,480.681z M91.874,481.913
														l0.206-2.918l2.425,1.603L91.874,481.913z M95.82,479.94l-5.303-3.453c0.082-0.041,0.123-0.082,0.206-0.123
														c0.617-0.288,1.274-0.452,1.973-0.452c1.727,0,3.247,0.945,4.028,2.507c0.165,0.288,0.247,0.617,0.329,0.946
														L95.82,479.94z M90.929,478.214l-0.452,6.043c-0.74-0.452-1.357-1.069-1.768-1.892
														c-0.863-1.729-0.494-3.781,0.781-5.099L90.929,478.214z M89.408,490.217c-0.658-0.205-1.274-0.575-1.768-1.025
														c0.37,0.041,0.74,0.082,1.11,0.082c0.699,0,1.438-0.082,2.137-0.287c0.699,0.164,1.398,0.287,2.097,0.287
														c0.658,0,1.315-0.082,1.932-0.246C93.312,490.341,91.298,490.834,89.408,490.217z M88.051,485.983l1.562-0.781
														c0.904,0.575,1.973,0.904,3.083,0.904c0.863,0,1.727-0.206,2.507-0.575c1.85-0.904,3.001-2.714,3.165-4.646
														l1.562-0.781c0.37,2.962-1.151,5.84-3.864,7.153C93.354,488.614,90.147,488.079,88.051,485.983z M97.341,489.683
														c-0.617,0.288-1.274,0.493-1.973,0.534c0.534-0.411,1.069-0.902,1.48-1.479c0.74,0,1.438-0.082,2.096-0.288
														C98.492,488.942,97.958,489.395,97.341,489.683z M102.603,483.681c-0.658,1.894-2.302,3.248-4.357,3.659
														c1.028-0.863,1.85-1.933,2.384-3.165c0.945-0.699,1.727-1.604,2.261-2.549
														C102.891,482.365,102.809,483.023,102.603,483.681z M102.068,475.747c0.987,1.974,0.576,4.316-0.863,6.166
														c0.124-0.945,0.042-1.891-0.164-2.877l-0.165-0.74l-2.508,1.233c-0.082-0.575-0.247-1.11-0.534-1.646
														s-0.617-1.025-1.028-1.438l2.508-1.233l-0.493-0.616c-0.617-0.779-1.357-1.396-2.179-1.892
														C98.985,472.664,101.082,473.774,102.068,475.747z M96.067,470.485c0.658,0.206,1.274,0.574,1.768,1.026
														c-1.11-0.165-2.261-0.082-3.412,0.246c-1.274-0.328-2.631-0.328-3.946-0.041
														C92.121,470.362,94.176,469.869,96.067,470.485z M97.341,474.761l-1.603,0.781c-0.905-0.575-1.932-0.863-3.042-0.863
														c-0.863,0-1.727,0.205-2.508,0.575c-1.85,0.904-2.959,2.672-3.165,4.604l-1.603,0.778
														c-0.37-2.959,1.151-5.837,3.864-7.15C91.997,472.171,95.204,472.705,97.341,474.761z M88.133,471.021
														c0.617-0.288,1.274-0.493,1.973-0.535c-0.535,0.411-1.028,0.903-1.48,1.479c-0.74,0-1.438,0.082-2.096,0.287
														C86.982,471.76,87.517,471.349,88.133,471.021z M82.872,477.021c0.658-1.893,2.302-3.206,4.316-3.617
														c-1.069,0.861-1.891,1.974-2.425,3.206c-0.905,0.697-1.604,1.521-2.138,2.467
														C82.584,478.378,82.666,477.68,82.872,477.021z M370.004,473.897c-0.247,0.204-0.535,0.327-0.822,0.327
														c-0.329,0-0.656-0.122-0.861-0.368c-0.206-0.247-0.329-0.534-0.329-0.863s0.123-0.616,0.37-0.863
														c0.246-0.205,0.532-0.329,0.82-0.329c0.328,0,0.657,0.124,0.863,0.37c0.205,0.247,0.328,0.534,0.328,0.863
														S370.25,473.651,370.004,473.897z M382.171,473.568c0.165-0.452,0.617-0.78,1.11-0.78c0.164,0,0.287,0.041,0.452,0.082
														c0.614,0.246,0.902,0.945,0.696,1.562c-0.164,0.452-0.614,0.781-1.107,0.781c-0.165,0-0.288-0.041-0.452-0.082
														c-0.288-0.123-0.534-0.329-0.658-0.658C382.089,474.145,382.048,473.897,382.171,473.568z M611.301,440.684
														c0.124-0.165,0.247-0.286,0.411-0.409l0.083-0.083c0.082-0.041,0.123-0.082,0.205-0.082l-0.986,5.427l-0.943,0.534
														C610.109,444.465,610.355,441.916,611.301,440.684z M611.301,428.352c0.124-0.165,0.247-0.286,0.452-0.409l0.083-0.041
														c0.082-0.042,0.123-0.083,0.205-0.083l-0.986,5.427l-0.943,0.534C610.109,432.092,610.355,429.543,611.301,428.352z
														 M611.301,415.978c0.124-0.162,0.247-0.285,0.452-0.409c0,0,0.042,0,0.042-0.041c0.041,0,0.041-0.041,0.041-0.041
														c0.082-0.041,0.123-0.082,0.205-0.082l-0.986,5.426l-0.943,0.535C610.109,419.76,610.355,417.211,611.301,415.978z
														 M607.271,401.673c0.739,0.205,1.355,0.781,1.604,1.521l-1.604,1.313V401.673z M607.271,406.112l1.728-1.438v1.479
														l0.822-0.288c0.206-0.082,0.452-0.123,0.655-0.123c0.494,0,0.946,0.206,1.316,0.493l-4.48,3.7v-3.823H607.271
														L607.271,406.112z M606.039,413.019c-1.438-0.82-4.192-2.59-5.015-4.396c-0.123-0.206-0.164-0.452-0.164-0.699
														c0-0.041,0-0.041,0-0.082V407.8c0-0.165,0-0.288,0.041-0.452l5.138,4.233V413.019z M606.039,409.936l-4.48-3.698
														c0.37-0.287,0.781-0.493,1.315-0.493c0.206,0,0.411,0.041,0.658,0.123l0.822,0.288v-1.479l1.726,1.438v3.821H606.039
														L606.039,409.936z M606.039,404.509l-1.604-1.313c0.246-0.739,0.863-1.315,1.604-1.521V404.509z M598.928,417.458
														l0.165-0.863c0.041-0.165,0.082-0.37,0.164-0.493c0.164-0.327,0.452-0.533,0.781-0.697l0.822,4.646l-2.673-1.521
														l-0.287-1.688L598.928,417.458z M596.215,416.225c0.082,0,0.206,0,0.288,0.041l0.287,1.521l-1.85-1.028
														C595.311,416.43,595.763,416.225,596.215,416.225z M594.776,419.39c-0.37-0.45-0.534-1.025-0.411-1.603l1.85,1.027
														L594.776,419.39z M595.886,422.843c-0.041-0.329,0-0.699,0.206-1.025c0.082-0.165,0.205-0.288,0.329-0.411l0.657-0.576
														l-1.068-0.575l1.562-0.616l2.672,1.521L595.886,422.843z M597.818,424.281c-0.288,0-0.576-0.041-0.822-0.123
														c-0.041,0-0.082-0.041-0.123-0.041l-0.124-0.041c0,0-0.041,0-0.041-0.041c-0.082-0.041-0.123-0.082-0.164-0.123
														l5.138-2.015l0.946,0.532C601.518,423.172,599.463,424.281,597.818,424.281z M602.258,420.828l-0.986-5.426
														c0.082,0.041,0.123,0.041,0.164,0.082l0.123,0.082c0.165,0.124,0.329,0.247,0.452,0.409
														c0.945,1.192,1.151,3.741,1.192,5.388L602.258,420.828z M598.928,429.831l0.165-0.863
														c0.041-0.164,0.082-0.37,0.164-0.493c0.164-0.329,0.452-0.532,0.781-0.697l0.822,4.646l-2.673-1.521l-0.287-1.687
														L598.928,429.831z M596.215,428.598c0.082,0,0.206,0,0.288,0.041l0.287,1.521l-1.85-1.028
														C595.311,428.762,595.763,428.598,596.215,428.598z M594.776,431.763c-0.165-0.205-0.329-0.452-0.37-0.737
														c-0.082-0.288-0.082-0.576-0.041-0.863l1.85,1.025L594.776,431.763z M595.886,435.175
														c-0.041-0.329,0-0.698,0.206-1.025c0.082-0.165,0.205-0.288,0.329-0.411l0.657-0.576l-1.068-0.575l1.562-0.616
														l2.672,1.521L595.886,435.175z M597.818,436.654c-0.288,0-0.576-0.041-0.74-0.082h-0.041
														c-0.041,0-0.082-0.041-0.123-0.041l-0.082-0.041c-0.042,0-0.042-0.041-0.083-0.041h-0.041
														c-0.082-0.041-0.123-0.082-0.164-0.123l5.139-1.976l0.945,0.534C601.518,435.504,599.463,436.654,597.818,436.654z
														 M602.258,433.202l-0.986-5.427c0.082,0.041,0.123,0.041,0.164,0.082l0.123,0.083c0.165,0.122,0.329,0.244,0.452,0.409
														c0.945,1.191,1.151,3.74,1.192,5.387L602.258,433.202z M598.969,442.204l0.165-0.863
														c0.041-0.164,0.082-0.329,0.164-0.493c0.165-0.329,0.452-0.532,0.781-0.697l0.822,4.646l-2.673-1.521l-0.287-1.688
														L598.969,442.204z M596.215,440.93c0.082,0,0.206,0,0.288,0.041l0.287,1.521l-1.85-1.028
														C595.311,441.136,595.763,440.93,596.215,440.93z M594.776,444.095c-0.165-0.205-0.329-0.452-0.37-0.737
														c-0.082-0.288-0.082-0.576-0.041-0.863l1.85,1.025L594.776,444.095z M595.886,447.548
														c-0.041-0.329,0-0.698,0.206-1.025c0.082-0.164,0.205-0.288,0.329-0.411l0.657-0.575l-1.068-0.576l1.562-0.616
														l2.672,1.521L595.886,447.548z M597.818,448.986c-0.288,0-0.576-0.041-0.74-0.082h-0.041
														c-0.041,0-0.082-0.041-0.123-0.041l-0.247,0.576l0.206-0.576c-0.041,0-0.041-0.041-0.083-0.041l-0.041-0.041
														c-0.082-0.041-0.123-0.082-0.164-0.123l5.139-1.976l0.945,0.534C601.518,447.877,599.463,448.986,597.818,448.986z
														 M602.258,445.534l-0.986-5.427c0.082,0.041,0.123,0.041,0.205,0.082l0.082,0.042c0.165,0.121,0.329,0.244,0.452,0.409
														c0.945,1.191,1.151,3.74,1.192,5.387L602.258,445.534z M570.523,465.512h-4.481v-15.004h4.481V465.512z
														 M576.278,465.512h-4.48v-15.004h4.48V465.512z M555.807,457.208V430.94V347h30.707v118.511h-9.002v-16.235H564.81
														v16.235h-9.003V457.208z M546.846,391.725l-0.658,4.975h-6.534l-0.657-4.975H546.846z M536.281,401.385v-3.37h13.275
														v3.37H536.281z M538.419,416.143V402.66h9.002v13.44l3.289,2.509h-15.498L538.419,416.143z M525.265,426.255
														l8.347-6.413h18.702l2.304,1.77v7.315c-0.042,0.082-0.042,0.164-0.042,0.246c0,0.083,0.042,0.165,0.042,0.247v1.521
														h-29.312v-4.688L525.265,426.255L525.265,426.255z M525.265,432.174h29.311v1.646h-27.541v20.513h27.541v1.644h-29.311
														V432.174z M554.573,435.052v18.046h-26.31v-18.046H554.573z M525.265,457.208h29.311v7.934v0.411h-29.311V457.208z
														 M514.371,462.676c0.575,0.863,1.231,1.893,1.727,2.836h-3.494C513.138,464.566,513.796,463.539,514.371,462.676z
														 M512.028,466.745h4.686c0.247,0.534,0.37,0.986,0.37,1.313c0,1.479-1.233,2.715-2.713,2.715
														c-1.48,0-2.713-1.233-2.713-2.715C511.658,467.731,511.781,467.279,512.028,466.745z M397.915,341.081h9.866v6.495
														h-9.866V341.081z M209.646,341.081h9.866v6.495h-9.866V341.081z M5.919,305.565h1.11v13.236h-1.11V305.565z
														 M11.715,322.418H1.274v-2.384h3.412h3.577h3.412v2.384H11.715z M98.862,448.452v10.894v6.166H73.828v-30.83h25.034
														V448.452z M116.333,465.512h-16.237v-2.425h16.237V465.512z M100.095,461.854v-2.508h2.261v2.508H100.095z
														 M103.589,461.854v-2.508h2.261v2.508H103.589z M107.083,461.854v-2.508h2.261v2.508H107.083z M110.578,461.854v-2.508
														h2.261v2.508H110.578z M116.333,461.854h-2.261v-2.508h2.261V461.854z M116.333,458.153h-16.237v-8.429h16.237V458.153
														z M116.333,448.452h-16.237v-13.771h16.237V448.452z M142.518,465.512h-24.952v-6.166v-10.894v-13.771h24.952V465.512z
														 M169.812,465.142c-1.768,0-3.206-1.438-3.206-3.206c0-1.768,1.438-3.204,3.206-3.204s3.207,1.438,3.207,3.204
														C173.019,463.704,171.622,465.142,169.812,465.142z M205.247,406.605c-0.206,0-0.411,0.041-0.617,0.041
														c-0.493-0.986-0.74-2.057-0.74-3.247c0-3.7,2.384-5.593,4.521-7.235c2.302-1.809,3.7-3.083,3.7-5.59
														c0-2.507-1.398-3.782-3.7-5.59c-2.097-1.645-4.521-3.494-4.521-7.235s2.384-5.59,4.521-7.235
														c2.302-1.809,3.7-3.083,3.7-5.59c0-0.576,0.452-1.028,1.028-1.028c0.575,0,1.027,0.452,1.027,1.028
														c0,3.699-2.384,5.59-4.521,7.235c-2.302,1.809-3.7,3.083-3.7,5.59s1.397,3.782,3.7,5.59
														c2.096,1.645,4.521,3.494,4.521,7.235c0,3.7-2.384,5.59-4.521,7.233c-2.302,1.811-3.7,3.083-3.7,5.593
														c0,2.508,1.397,3.779,3.7,5.591c2.096,1.644,4.521,3.494,4.521,7.232c0,3.535-2.179,5.387-4.193,6.988v-2.672
														c1.356-1.192,2.138-2.426,2.138-4.316c0-2.343-1.233-3.615-3.289-5.262c0.041-0.247,0.082-0.493,0.082-0.74
														C208.905,408.25,207.261,406.605,205.247,406.605z M208.33,412.155c1.644,1.313,2.548,2.302,2.548,4.067
														c0,1.397-0.575,2.304-1.603,3.247h-3.7v-5.631C206.768,413.758,207.754,413.101,208.33,412.155z M208.741,420.705
														v24.048c0,4.192-3.412,7.604-7.605,7.604h-21.499c-0.781,0-1.438-0.657-1.438-1.438s0.658-1.438,1.438-1.438h2.261
														v-1.233h-2.261c-0.781,0-1.438-0.658-1.438-1.438c0-0.779,0.658-1.438,1.438-1.438h2.261v-1.232h-2.261
														c-0.781,0-1.438-0.656-1.438-1.438s0.658-1.438,1.438-1.438h2.261v-1.231h-2.261h-0.411h-1.233
														c-0.781,0-1.439-0.657-1.439-1.438c0-0.779,0.658-1.438,1.439-1.438h18.457V420.71h3.124h6.042h3.125V420.705z
														 M195.217,435.956h-17.224c-1.48,0-2.672,1.192-2.672,2.672c0,1.274,0.904,2.343,2.096,2.631
														c-0.288,0.411-0.452,0.945-0.452,1.479c0,0.82,0.37,1.562,0.987,2.056c-0.576,0.493-0.987,1.233-0.987,2.056
														c0,0.823,0.37,1.562,0.987,2.057c-0.576,0.493-0.987,1.231-0.987,2.056c0,1.479,1.192,2.672,2.672,2.672h21.458
														c4.892,0,8.838-3.985,8.838-8.838V432.38h12.085c6.906,0,12.538,5.632,12.538,12.537
														c0,6.906-5.632,12.538-12.538,12.538h-58.783c-6.906,0-12.538-5.632-12.538-12.538c0-6.905,5.631-12.537,12.538-12.537
														h31.981L195.217,435.956L195.217,435.956z M172.402,465.512c1.151-0.82,1.891-2.138,1.891-3.617
														c0-1.272-0.535-2.426-1.398-3.204h39.504c-0.863,0.819-1.397,1.973-1.397,3.204c0,1.479,0.74,2.797,1.891,3.617
														H172.402z M215.441,465.142c-1.768,0-3.207-1.438-3.207-3.206c0-1.768,1.439-3.204,3.207-3.204
														s3.207,1.438,3.207,3.204C218.648,463.704,217.25,465.142,215.441,465.142z M258.398,465.512h-16.484
														c-1.932,0-3.494-1.562-3.494-3.494c0-1.932,1.562-3.492,3.494-3.492h0.083c0.247,0.165,0.534,0.328,0.822,0.45
														c0.575,0.247,1.192,0.37,1.85,0.37h5.508v-1.231h-5.508c-0.493,0-0.945-0.082-1.356-0.287
														c-0.206-0.083-0.411-0.206-0.576-0.329l-0.206-0.082c-0.329-0.247-0.617-0.535-0.822-0.863v-0.041
														c-0.042-0.083-0.124-0.206-0.165-0.288c0-0.041-0.041-0.082-0.041-0.123c-0.042-0.083-0.083-0.165-0.083-0.204
														c0-0.041-0.041-0.082-0.041-0.123c-0.041-0.082-0.041-0.164-0.082-0.206c0-0.041-0.041-0.082-0.041-0.123
														c0-0.082-0.042-0.164-0.042-0.246c0-0.041,0-0.083,0-0.124c0-0.123-0.041-0.246-0.041-0.369
														c0-1.933,1.562-3.494,3.494-3.494h0.082c0.781,0.534,1.686,0.821,2.672,0.821V450.8c-0.699,0-1.357-0.206-1.932-0.575
														l-0.165-0.122c-0.452-0.329-0.781-0.74-1.028-1.233c0-0.041-0.041-0.041-0.041-0.082
														c-0.041-0.082-0.082-0.164-0.123-0.246c0-0.042-0.042-0.083-0.042-0.124c-0.041-0.082-0.041-0.164-0.082-0.246
														c0-0.041-0.041-0.083-0.041-0.124c0-0.082-0.041-0.164-0.041-0.246c0-0.041,0-0.082,0-0.123
														c0-0.124-0.041-0.247-0.041-0.369c0-1.934,1.562-3.493,3.494-3.493c1.686,0,2.96-1.192,3.289-2.837
														c0.946,0.327,1.604,1.19,1.604,2.22c0,1.231-0.946,2.261-2.179,2.344l0.082,1.233c1.645-0.124,3.001-1.357,3.289-2.919
														c1.686,0.246,2.96,1.727,2.96,3.452c0,0.122,0,0.245-0.042,0.369c0,0.041,0,0.082,0,0.123
														c0,0.082-0.041,0.164-0.041,0.246c0,0.041-0.041,0.083-0.041,0.124c-0.041,0.082-0.041,0.164-0.082,0.246
														c0,0.041-0.041,0.082-0.041,0.124c-0.042,0.082-0.083,0.164-0.124,0.246c0,0.041-0.041,0.041-0.041,0.082
														c-0.247,0.452-0.576,0.863-1.028,1.233l-0.165,0.121c-0.575,0.37-1.233,0.576-1.932,0.576v1.232
														c0.986,0,1.891-0.287,2.672-0.821h0.082c1.932,0,3.494,1.562,3.494,3.494c0,0.123,0,0.246-0.041,0.369
														c0,0.041,0,0.083,0,0.124c0,0.082-0.041,0.164-0.041,0.246c0,0.041-0.041,0.082-0.041,0.123
														c0,0.083-0.042,0.165-0.083,0.206c0,0.041-0.041,0.082-0.041,0.123c-0.041,0.08-0.082,0.163-0.082,0.204
														s-0.041,0.082-0.041,0.123c-0.042,0.082-0.124,0.205-0.165,0.288v0.041c-0.206,0.328-0.494,0.616-0.822,0.863
														l-0.165,0.123c-0.165,0.123-0.37,0.246-0.575,0.329c-0.411,0.164-0.905,0.287-1.357,0.287h-1.356v1.231h1.356
														c0.658,0,1.274-0.123,1.85-0.37c0.288-0.123,0.575-0.286,0.822-0.45h0.082c1.932,0,3.494,1.562,3.494,3.492
														C261.934,463.991,260.33,465.512,258.398,465.512z M377.812,465.512l0.328-0.329v0.329H377.812z M378.965,480.557
														c0.205,0.247,0.329,0.576,0.288,0.863c-0.041,0.658-0.617,1.151-1.315,1.11c-0.656-0.041-1.149-0.617-1.108-1.315
														c0.041-0.617,0.575-1.108,1.19-1.108c0.041,0,0.082,0,0.082,0C378.472,480.146,378.76,480.311,378.965,480.557z
														 M386.816,465.512h-7.44l0.082-1.562l9.044-8.756c-0.493,0.984-0.904,2.096-1.233,3.288
														C386.569,461.113,386.528,463.456,386.816,465.512z M390.886,442.738l-6.207,1.768l-10.604-5.878
														c0.821-0.329,1.686-0.658,2.59-0.904c1.272-0.368,2.507-0.614,3.781-0.779L390.886,442.738z M382.623,436.737
														c2.96-0.124,5.961,0.246,8.921,1.107c-0.083,1.274-0.165,2.508-0.165,3.741L382.623,436.737z M382.993,444.999
														l-6.248,1.768l-8.633-4.81c1.313-0.986,2.837-1.932,4.521-2.754L382.993,444.999z M375.101,447.261l-6.207,1.77
														l-5.18-2.878c0.945-1.109,2.056-2.263,3.371-3.371L375.101,447.261z M367.208,449.521l-7.07,2.014
														c0.534-1.027,1.438-2.631,2.795-4.398L367.208,449.521z M367.537,450.713l-2.384,4.275
														c-2.099-0.781-3.741-1.646-4.729-2.263L367.537,450.713z M369.223,450.22l6.207-1.768l-4.438,8.017
														c-1.688-0.247-3.248-0.617-4.646-1.067L369.223,450.22z M377.115,447.959l6.248-1.768l-5.755,10.357
														c-1.852,0.205-3.617,0.205-5.264,0.041L377.115,447.959z M385.008,445.698l6.248-1.77l-5.796,10.441
														c-1.151,0.534-2.385,0.986-3.618,1.354c-0.904,0.246-1.809,0.452-2.672,0.616L385.008,445.698z M391.626,445.821
														c0.082,1.026,0.246,2.015,0.411,2.919l0.082,0.493h0.822c-1.688,1.645-3.535,3.001-5.511,4.149L391.626,445.821z
														 M398.696,457.126h-0.082v4.769l-3.001-5.139l0.902-3.412L398.696,457.126z M396.929,451.659l0.616-2.385h0.411
														c0.206,0.409,0.452,0.82,0.617,1.272v4.028L396.929,451.659z M395.695,451.33l-5.511,3.206
														c1.48-2.466,3.371-4.192,4.977-5.303h1.066L395.695,451.33z M395.284,453.016l-0.904,3.411l-6.207,3.659
														c0.082-0.411,0.164-0.822,0.288-1.233c0.205-0.82,0.452-1.562,0.78-2.261L395.284,453.016z M387.967,461.647
														l6.002-3.494l-0.902,3.412l-5.1,2.96C387.885,463.621,387.885,462.635,387.967,461.647z M388.132,465.841l4.48-2.631
														l-0.904,3.412l-2.96,1.727C388.502,467.608,388.296,466.745,388.132,465.841z M390.352,471.842
														c-0.327-0.575-0.738-1.354-1.149-2.343l2.056-1.233L390.352,471.842z M391.544,472.171l0.945-3.535l1.231,2.058
														C392.859,471.349,392.119,471.842,391.544,472.171z M394.627,469.869l-1.727-2.96l0.902-3.411l2.631,4.479
														C395.818,468.718,395.243,469.335,394.627,469.869z M397.216,466.909l-2.959-5.097l0.904-3.412l3.494,6.002
														C398.203,465.348,397.751,466.17,397.216,466.909z M399.23,462.963l-0.616-1.068l0.205,0.164
														c0.041,0.041,0.206,0.165,0.573,0.411C399.312,462.635,399.271,462.84,399.23,462.963z M398.983,455.194h0.985
														c0.082,0.655,0.164,1.272,0.164,1.932h-0.246l0.164-0.123L398.983,455.194z M399.478,465.512
														c0.369-0.738,0.698-1.521,0.986-2.384c1.521,0.78,4.069,1.809,7.977,2.384H399.478z M399.806,461.319v-2.96h3.083
														v2.672h1.233v-2.672h3.083v2.672h1.233v-2.672h3.083v2.672h1.231v-2.672h3.083v2.672h1.233v-2.672h3.083v2.672h1.23
														v-2.672h3.083v2.672h1.233v-2.672h3.124v2.96c-0.986,0.696-5.426,3.37-14.511,3.37
														C405.232,464.689,400.793,462.018,399.806,461.319z M450.737,465.512c0.329-0.164,0.615-0.411,0.861-0.699
														c0.247,0.288,0.534,0.494,0.863,0.699H450.737z M454.272,464.771c-0.904,0-1.729-0.493-2.14-1.273l-0.534-1.028
														l-0.532,1.028c-0.411,0.78-1.233,1.273-2.14,1.273c-1.313,0-2.384-1.068-2.384-2.386c0-1.314,1.068-2.384,2.384-2.384
														c0.041,0,0.123,0,0.164,0l0.74,0.082v-6.947h3.576v6.947l0.739-0.082c0.041,0,0.082,0,0.163,0
														c1.315,0,2.387,1.068,2.387,2.384C456.697,463.703,455.588,464.771,454.272,464.771z M480.663,465.512h-24.582
														c1.11-0.614,1.851-1.809,1.851-3.165c0-1.891-1.438-3.453-3.289-3.615v-5.634H459V442.78l0,0h4.316v5.797h5.796v5.796
														h5.796v5.796h5.796v5.344L480.663,465.512L480.663,465.512z M486.788,465.512h-4.892v-6.536H476.1v-2.795h4.11v-7.975
														h-5.097v4.974h-0.493v-5.755h12.167L486.788,465.512L486.788,465.512z M476.347,454.947v-5.508h2.631v5.508H476.347z
														 M502.861,465.512h-14.84v-19.318h-14.636v6.986h-3.083v-5.796h-5.797v-5.796h-5.549v-43.162v-3.166
														c1.396-0.946,2.549-2.179,3.453-3.536h0.781H502.9v73.787L502.861,465.512L502.861,465.512z M464.385,386.586h41.767
														v3.905h-2.057h-40.941h-0.041C463.769,389.3,464.18,387.984,464.385,386.586z M439.885,384.613V368.5
														c0-0.781,0.658-1.439,1.439-1.439s1.438,0.658,1.438,1.439v9.578c0,1.48,1.192,2.672,2.672,2.672
														c1.48,0,2.674-1.192,2.674-2.672v-20.266c0-0.781,0.656-1.438,1.438-1.438s1.439,0.658,1.439,1.438v17.594h1.231
														v-17.594v-2.877c0-0.781,0.657-1.438,1.438-1.438c0.779,0,1.438,0.658,1.438,1.438v3.289v0.411v18.005h1.233v-18.005
														c0-0.781,0.657-1.439,1.438-1.439c0.781,0,1.438,0.658,1.438,1.439v1.645v3.288v14.306h1.231v-14.306
														c0-0.781,0.658-1.438,1.439-1.438c0.78,0,1.438,0.658,1.438,1.438v21.047c0,3.946-1.974,7.646-5.303,9.784
														l-0.288,0.164v3.823v43.122h-0.903V429.05h-10.604v13.688h8.961h1.645h0.904l0,0v9.085h-3.124h-6.043h-3.124v-57.221
														l-0.287-0.165C441.858,392.259,439.885,388.601,439.885,384.613z M455.588,430.365v11.223h-0.411h-3.042v-11.223
														H455.588z M450.943,430.365v11.223h-3.453v-11.223H450.943z M448.6,453.139v5.634c-1.85,0.162-3.286,1.727-3.286,3.615
														c0,1.356,0.738,2.55,1.85,3.165h-26.884c6.618-0.943,9.496-3.329,9.619-3.453l0.203-0.164v-4.769H401.37
														c0-0.657-0.082-1.274-0.164-1.932h28.896v-5.92h6.495l0.082-0.493c1.028-5.796,0.822-13.4-1.313-20.35
														c0.985,0.822,2.138,1.646,4.273,1.646c2.222,0,3.412-0.946,4.439-1.77c0.041-0.041,0.082-0.083,0.164-0.124v24.952
														h4.355L448.6,453.139L448.6,453.139z M434.706,426.378c-0.863-2.261-1.933-4.438-3.248-6.413l12.784,5.386v1.274
														c-0.328,0.246-0.657,0.452-0.945,0.698c-0.986,0.82-1.85,1.521-3.658,1.521c-1.808,0-2.672-0.699-3.656-1.521
														C435.61,426.994,435.199,426.666,434.706,426.378z M444.242,424.035l-14.225-6.002c-0.04-0.041-0.08-0.082-0.121-0.164
														c-1.48-1.77-3.124-3.248-4.977-4.357l19.279,8.141v2.385L444.242,424.035L444.242,424.035z M432.321,411.168
														c3.165,3.494,6.29,6.084,9.167,8.017l-9.167-3.862V411.168z M424.101,411.785v-12.168
														c2.263,3.985,4.604,7.356,7.029,10.192h-0.042v4.977l-7.07-3.001H424.101z M416.002,379.434
														c0.904,3.371,2.344,8.016,4.563,13.072c0.778,1.727,1.562,3.371,2.343,4.935h-0.082v13.854l-6.865-2.878v-28.98
														L416.002,379.434L416.002,379.434z M416.002,409.729l3.741,1.604c-1.192-0.288-2.467-0.493-3.741-0.575V409.729z
														 M406.63,365.622c4.521,0.123,8.139,3.823,8.139,8.386v36.708c-0.121,0-0.285,0-0.409,0
														c-2.796,0-5.387,0.494-7.729,1.398V365.622z M414.357,411.908c5.961,0,10.853,2.261,14.594,6.742
														c6.33,7.562,8.098,20.348,6.618,29.35h-6.701v5.92h-3.083v-3.083h-1.232v3.083h-3.083v-3.083h-1.231v3.083h-3.083
														v-3.083h-1.233v3.083h-3.083v-3.083h-1.231v3.083h-3.084v-3.083h-1.232v3.083h-3.083v-3.083h-1.232v3.083h-3.125V448
														h-6.698c-1.356-8.386,0.081-20.06,5.385-27.747l0,0l0,0c0.37-0.575,0.781-1.109,1.231-1.603
														C403.506,414.169,408.397,411.908,414.357,411.908z M393.312,428.434c-0.37,0.164-0.74,0.287-1.151,0.328
														c0.041-0.696,0.123-1.354,0.329-1.973c0.575-1.809,1.85-3.083,3.165-4.151
														C394.709,424.446,393.928,426.419,393.312,428.434z M396.682,410.634c-2.096-1.644-4.521-3.494-4.521-7.232
														c0-3.7,2.384-5.593,4.521-7.235c2.304-1.809,3.7-3.083,3.7-5.59c0-2.507-1.396-3.782-3.7-5.59
														c-2.096-1.645-4.521-3.494-4.521-7.235c0-3.741,2.384-5.59,4.521-7.235c2.304-1.809,3.7-3.083,3.7-5.59
														c0-0.576,0.452-1.028,1.027-1.028s1.025,0.452,1.025,1.028c0,3.699-2.384,5.59-4.521,7.235
														c-2.302,1.809-3.699,3.083-3.699,5.59s1.397,3.782,3.699,5.59c2.097,1.645,4.521,3.494,4.521,7.235
														c0,3.7-2.384,5.59-4.521,7.233c-2.302,1.811-3.699,3.083-3.699,5.593c0,2.508,1.397,3.779,3.699,5.591
														c1.768,1.354,3.741,2.918,4.316,5.549c-0.658,0.493-1.274,1.027-1.893,1.604
														C400.341,413.676,398.942,412.442,396.682,410.634z M389.2,365.293c0-4.48,3.617-8.098,8.099-8.098
														c4.48,0,8.1,3.618,8.1,8.098v47.314c-0.699,0.326-1.397,0.737-2.058,1.148c-0.821-2.754-2.918-4.396-4.645-5.755
														c-2.058-1.603-3.248-2.631-3.248-4.645c0-2.017,1.149-3.001,3.248-4.604c2.097-1.645,4.974-3.864,4.974-8.18
														c0-4.316-2.877-6.536-4.974-8.18c-2.058-1.603-3.248-2.631-3.248-4.604c0-1.973,1.149-3,3.248-4.604
														c2.097-1.644,4.974-3.864,4.974-8.18c0-1.233-1.027-2.261-2.261-2.261c-1.234,0-2.261,1.027-2.261,2.261
														c0,2.014-1.151,3.001-3.248,4.604c-2.098,1.644-4.976,3.864-4.976,8.18s2.878,6.536,4.976,8.18
														c2.056,1.604,3.248,2.631,3.248,4.604c0,1.973-1.151,3.001-3.248,4.604c-2.098,1.646-4.976,3.864-4.976,8.183
														c0,4.315,2.878,6.534,4.976,8.18c2.056,1.604,3.248,2.631,3.248,4.646c0,0.534-0.082,0.986-0.247,1.397
														c-0.041,0.082-0.041,0.123-0.082,0.206l-0.041,0.041c-0.452,0.534-0.863,1.066-1.233,1.603
														c-0.164,0.165-0.37,0.329-0.616,0.534c-0.329,0.247-0.656,0.535-1.026,0.822c-1.646,1.272-3.74,2.919-4.562,5.55
														c-0.246,0.74-0.37,1.562-0.411,2.425c-0.696-0.041-1.231-0.205-1.727-0.41L389.2,365.293L389.2,365.293z
														 M379.91,373.967c0-4.522,3.576-8.222,8.057-8.386v61.989c-0.123-0.082-0.205-0.165-0.328-0.288
														c-1.026-0.822-2.179-1.77-4.438-1.77c-1.48,0-2.508,0.411-3.33,0.945v-52.493L379.91,373.967L379.91,373.967z
														 M373.539,377.543c1.768-1.356,3.494-2.754,5.179-4.234c0,0.247-0.041,0.452-0.041,0.699v29.803h-5.138V377.543z
														 M365.317,383.257c2.384-1.521,4.728-3.124,6.986-4.81v25.322h-6.986V383.257z M357.096,387.984
														c2.387-1.233,4.729-2.549,6.988-3.946v19.729h-6.988V387.984z M378.677,405.002v2.467H227.732v-2.467H378.677z
														 M378.677,408.702v18.745c-0.943,0.778-1.809,1.396-3.494,1.396c-1.809,0-2.672-0.699-3.656-1.521
														c-1.027-0.822-2.181-1.77-4.439-1.77c-2.22,0-3.412,0.945-4.438,1.77c-0.986,0.82-1.852,1.521-3.659,1.521
														c-1.811,0-2.631-0.699-3.658-1.521c-1.027-0.822-2.179-1.77-4.439-1.77c-2.22,0-3.41,0.945-4.438,1.77
														c-0.986,0.82-1.851,1.521-3.658,1.521c-1.807,0-2.631-0.699-3.659-1.521c-1.025-0.822-2.179-1.77-4.438-1.77
														s-3.412,0.945-4.439,1.77c-0.984,0.82-1.85,1.521-3.657,1.521c-1.809,0-2.632-0.699-3.658-1.521
														c-1.027-0.822-2.18-1.77-4.439-1.77s-3.411,0.945-4.438,1.77c-0.986,0.82-1.852,1.521-3.658,1.521
														c-1.809,0-2.631-0.699-3.658-1.521c-1.028-0.822-2.179-1.77-4.44-1.77c-2.261,0-3.412,0.945-4.439,1.77
														c-0.987,0.82-1.85,1.521-3.659,1.521c-1.809,0-2.631-0.699-3.658-1.521c-1.028-0.822-2.179-1.77-4.44-1.77
														c-2.22,0-3.412,0.945-4.439,1.77c-0.986,0.82-1.85,1.521-3.659,1.521s-2.63-0.699-3.658-1.521
														c-1.028-0.822-2.179-1.77-4.439-1.77c-2.22,0-3.412,0.945-4.439,1.77c-0.987,0.82-1.85,1.521-3.659,1.521
														s-2.631-0.699-3.659-1.521c-1.027-0.822-2.179-1.77-4.439-1.77c-2.22,0-3.412,0.945-4.439,1.77
														c-0.987,0.82-1.85,1.521-3.659,1.521c-1.809,0-2.631-0.699-3.659-1.521c-1.027-0.822-2.178-1.77-4.439-1.77
														c-2.22,0-3.412,0.945-4.439,1.77c-0.986,0.82-1.85,1.521-3.659,1.521c-0.986,0-1.726-0.206-2.302-0.576v-19.564
														H378.677z M348.875,391.848c2.384-0.986,4.686-2.055,6.987-3.207v15.167h-6.987V391.848z M340.653,394.931
														c2.343-0.781,4.686-1.644,6.986-2.59v11.428h-6.986V394.931z M332.432,397.315c2.345-0.575,4.688-1.274,6.988-2.016
														v8.468h-6.988V397.315z M324.21,399.083c2.344-0.411,4.688-0.904,6.988-1.438v6.166h-6.988V399.083z M315.989,400.234
														c2.343-0.247,4.686-0.576,6.986-0.946v4.479h-6.986V400.234z M307.768,400.81c2.345-0.082,4.688-0.247,6.988-0.45v3.41
														h-6.988V400.81z M299.546,400.851c1.233,0.041,2.425,0.041,3.658,0.041c1.11,0,2.22,0,3.33-0.041v2.919h-6.988V400.851
														L299.546,400.851z M291.325,400.316c2.302,0.246,4.645,0.409,6.988,0.491v2.96h-6.988V400.316z M283.104,399.206
														c2.302,0.411,4.645,0.699,6.988,0.987v3.574h-6.988V399.206z M274.882,397.521c2.302,0.574,4.646,1.067,6.988,1.479
														v4.769h-6.988V397.521z M266.661,395.219c2.302,0.74,4.645,1.397,6.988,2.017v6.534h-6.988V395.219z M258.439,392.218
														c2.302,0.945,4.645,1.809,6.988,2.59v8.959h-6.988V392.218z M250.218,388.437c2.302,1.151,4.604,2.261,6.988,3.247
														v12.084h-6.988V388.437L250.218,388.437z M241.997,383.833c2.261,1.397,4.604,2.754,6.988,3.987v15.991h-6.988V383.833
														z M233.775,378.201c2.261,1.727,4.604,3.33,6.988,4.851v20.718h-6.988V378.201z M232.542,377.255v26.514h-4.81v-29.803
														c0-0.247,0-0.452-0.041-0.699C229.294,374.666,230.897,375.981,232.542,377.255z M218.36,365.622
														c4.522,0.123,8.139,3.823,8.139,8.386v53.439c-0.041-0.042-0.041-0.042-0.082-0.083
														c-1.028-0.822-2.179-1.77-4.439-1.77c-1.686,0-2.754,0.534-3.618,1.151V365.622z M218.36,428.311
														c0.987-0.82,1.85-1.521,3.659-1.521s2.631,0.699,3.659,1.521c1.027,0.821,2.179,1.77,4.439,1.77
														c2.22,0,3.412-0.946,4.439-1.77c0.987-0.82,1.85-1.521,3.659-1.521s2.631,0.699,3.658,1.521
														c1.028,0.821,2.179,1.77,4.44,1.77s3.412-0.946,4.439-1.77c0.986-0.82,1.85-1.521,3.658-1.521
														c1.809,0,2.631,0.699,3.659,1.521c1.028,0.821,2.179,1.77,4.439,1.77c2.22,0,3.412-0.946,4.439-1.77
														c0.987-0.82,1.85-1.521,3.659-1.521s2.631,0.699,3.659,1.521c1.027,0.821,2.179,1.77,4.439,1.77
														c2.22,0,3.412-0.946,4.439-1.77c0.987-0.82,1.85-1.521,3.659-1.521c1.809,0,2.631,0.699,3.658,1.521
														c1.028,0.821,2.179,1.77,4.44,1.77c2.261,0,3.412-0.946,4.439-1.77c0.986-0.82,1.85-1.521,3.658-1.521
														c1.809,0,2.631,0.699,3.659,1.521c1.025,0.821,2.178,1.77,4.438,1.77c2.22,0,3.411-0.946,4.439-1.77
														c0.984-0.82,1.85-1.521,3.658-1.521c1.808,0,2.631,0.699,3.656,1.521c1.028,0.821,2.181,1.77,4.439,1.77
														c2.262,0,3.412-0.946,4.438-1.77c0.986-0.82,1.852-1.521,3.658-1.521c1.81,0,2.631,0.699,3.658,1.521
														c1.028,0.821,2.179,1.77,4.438,1.77c2.261,0,3.411-0.946,4.438-1.77c0.987-0.82,1.851-1.521,3.659-1.521
														c1.808,0,2.631,0.699,3.658,1.521c1.025,0.821,2.179,1.77,4.438,1.77c2.22,0,3.412-0.946,4.439-1.77
														c0.985-0.82,1.85-1.521,3.658-1.521c1.81,0,2.632,0.699,3.657,1.521c1.027,0.821,2.18,1.77,4.439,1.77
														c2.22,0,3.412-0.946,4.438-1.77c0.986-0.82,1.852-1.521,3.658-1.521c1.811,0,2.631,0.699,3.659,1.521
														c1.026,0.821,2.179,1.77,4.438,1.77c0.575,0,1.109-0.083,1.604-0.206c-0.576,2.22-0.987,4.48-1.233,6.741
														c-5.139-1.479-10.275-1.521-15.333-0.041c-13.193,3.782-17.882,15.621-17.923,15.744l-0.164,0.45l0.37,0.288
														c0.082,0.041,6.659,4.935,16.072,4.935c2.343,0,4.851-0.288,7.479-1.068c1.646-0.452,3.206-1.067,4.688-1.81
														l-4.771,4.604l-8.304,0.411c-0.411-0.822-1.232-1.354-2.179-1.354c-0.205,0-0.452,0.041-0.657,0.082
														c-1.314,0.368-2.056,1.686-1.728,3.001c0.287,1.066,1.273,1.809,2.344,1.809c0.206,0,0.452-0.041,0.657-0.082
														c1.026-0.288,1.727-1.192,1.81-2.22l6.7-0.329l-4.688,4.562H261.563c0.945-0.861,1.562-2.096,1.562-3.494
														c0-2.261-1.562-4.108-3.659-4.604c0-0.041,0.041-0.041,0.041-0.082c0.042-0.041,0.083-0.082,0.083-0.165
														c0.041-0.082,0.082-0.164,0.165-0.246c0-0.041,0.041-0.082,0.041-0.124c0.123-0.246,0.247-0.534,0.329-0.821
														c0-0.042,0-0.042,0.041-0.083c0.042-0.123,0.042-0.203,0.083-0.326c0-0.041,0-0.083,0.041-0.124
														c0-0.082,0.041-0.205,0.041-0.328c0-0.041,0-0.083,0-0.124c0-0.164,0.041-0.287,0.041-0.452
														c0-2.261-1.562-4.11-3.658-4.604c0-0.041,0.041-0.041,0.041-0.082c0.041-0.041,0.082-0.123,0.123-0.164
														c0.041-0.082,0.083-0.122,0.124-0.204c0.041-0.041,0.041-0.082,0.082-0.165c0.083-0.123,0.124-0.246,0.165-0.369
														c0-0.042,0.041-0.042,0.041-0.083c0.041-0.082,0.083-0.205,0.124-0.328c0-0.041,0.041-0.082,0.041-0.124
														c0.041-0.082,0.041-0.164,0.082-0.287c0-0.041,0.042-0.082,0.042-0.165c0-0.082,0.041-0.205,0.041-0.287
														c0-0.041,0-0.082,0-0.124c0-0.123,0.041-0.287,0.041-0.452c0-2.425-1.809-4.438-4.152-4.686
														c-0.247-1.604-1.603-2.878-3.289-3.001l-0.658-0.041v0.657c0,1.396-0.863,2.344-2.096,2.344
														c-2.631,0-4.728,2.138-4.728,4.727c0,0.165,0,0.288,0.041,0.452c0,0.042,0,0.083,0,0.124
														c0,0.082,0.041,0.205,0.041,0.287c0,0.041,0,0.083,0.041,0.165c0,0.082,0.042,0.164,0.083,0.287
														c0,0.042,0.041,0.083,0.041,0.124c0.041,0.123,0.082,0.205,0.124,0.328c0,0.042,0.041,0.042,0.041,0.083
														c0.041,0.123,0.123,0.246,0.165,0.369c0.041,0.042,0.041,0.083,0.082,0.165s0.082,0.122,0.123,0.204
														c0.042,0.04,0.083,0.123,0.124,0.164c0,0.041,0.041,0.041,0.041,0.082c-2.096,0.493-3.658,2.386-3.658,4.604
														c0,0.165,0,0.288,0.041,0.452c0,0.041,0,0.083,0,0.124c0,0.123,0.041,0.205,0.041,0.328c0,0.042,0,0.083,0.041,0.124
														c0.041,0.122,0.041,0.203,0.082,0.326c0,0.041,0,0.041,0.042,0.083c0.082,0.287,0.206,0.534,0.329,0.821
														c0,0.042,0.041,0.083,0.041,0.124c0.041,0.082,0.083,0.164,0.165,0.246c0.041,0.041,0.082,0.083,0.082,0.165
														c0,0.041,0.042,0.041,0.042,0.082c-2.097,0.493-3.659,2.384-3.659,4.604c0,1.398,0.617,2.633,1.562,3.494h-20.677
														c1.151-0.82,1.891-2.138,1.891-3.617c0-1.272-0.534-2.425-1.397-3.204h3.494c7.605,0,13.771-6.166,13.771-13.771
														c0-7.604-6.166-13.771-13.771-13.771h-12.085v-2.592c0.945,0.74,2.055,1.439,3.987,1.439
														C216.181,430.078,217.333,429.132,218.36,428.311z M371.936,462.347c-0.121,0.041-0.203,0.041-0.327,0.041
														c-0.534,0-1.027-0.37-1.15-0.902c-0.165-0.658,0.205-1.315,0.863-1.479c0.123-0.042,0.205-0.042,0.328-0.042
														c0.532,0,1.026,0.37,1.149,0.905C372.922,461.483,372.552,462.183,371.936,462.347z M200.931,365.293
														c0-4.48,3.617-8.098,8.098-8.098c4.48,0,8.098,3.618,8.098,8.098v62.4c-0.822,0.656-1.686,1.149-3.207,1.149
														c-1.809,0-2.631-0.699-3.659-1.521c-0.123-0.082-0.205-0.164-0.329-0.246v-2.303c0.165-0.123,0.288-0.246,0.452-0.369
														c2.097-1.646,4.974-3.864,4.974-8.183c0-4.315-2.877-6.536-4.974-8.181c-2.055-1.604-3.248-2.631-3.248-4.645
														c0-2.017,1.151-3.002,3.248-4.604c2.097-1.644,4.974-3.864,4.974-8.18s-2.877-6.536-4.974-8.181
														c-2.055-1.603-3.248-2.631-3.248-4.604c0-1.973,1.151-3,3.248-4.604c2.097-1.644,4.974-3.864,4.974-8.18
														c0-1.233-1.028-2.261-2.261-2.261c-1.233,0-2.261,1.028-2.261,2.261c0,2.014-1.151,3.001-3.248,4.604
														c-2.096,1.645-4.974,3.864-4.974,8.18s2.877,6.536,4.974,8.181c2.056,1.603,3.248,2.63,3.248,4.604
														c0,1.973-1.151,3-3.248,4.604c-2.096,1.646-4.974,3.864-4.974,8.183c0,1.313,0.288,2.549,0.822,3.656
														c-0.329,0.206-0.616,0.411-0.863,0.699c-0.453-0.493-1.028-0.822-1.645-1.028v-41.435h0.003V365.293z M199.903,407.839
														c0.904,0,1.727,0.493,2.138,1.274l0.535,1.025l0.534-1.025c0.411-0.781,1.233-1.274,2.138-1.274
														c1.315,0,2.384,1.068,2.384,2.384c0,1.316-1.068,2.387-2.384,2.387c-0.042,0-0.124,0-0.165,0l-0.74-0.082v6.944h-3.577
														v-6.944l-0.74,0.082c-0.041,0-0.082,0-0.165,0c-1.315,0-2.384-1.069-2.384-2.387
														C197.477,408.907,198.587,407.839,199.903,407.839z M191.641,373.967c0-4.522,3.576-8.222,8.057-8.386v41.024
														c-1.891,0.121-3.412,1.686-3.412,3.615c0,1.894,1.438,3.453,3.289,3.618v5.631h-4.357v8.635
														c-0.37-0.247-0.699-0.493-1.069-0.781c-0.699-0.575-1.438-1.191-2.548-1.521v-51.836L191.641,373.967L191.641,373.967z
														 M193.367,428.311c0.534,0.451,1.11,0.904,1.85,1.232v1.604h-31.981c-7.605,0-13.771,6.165-13.771,13.771
														c0,7.606,6.166,13.771,13.771,13.771h3.494c-0.863,0.819-1.397,1.973-1.397,3.204c0,1.479,0.74,2.797,1.891,3.617
														H143.71v-31.98c0.082,0,0.164,0,0.288,0c3.165,0,7.522-0.698,11.756-3.617c1.315-0.904,2.384-1.891,3.33-2.877
														c0.822,0.287,1.397,0.739,2.014,1.271c1.028,0.822,2.179,1.771,4.439,1.771c2.22,0,3.412-0.946,4.439-1.771
														c0.987-0.819,1.85-1.521,3.659-1.521c1.809,0,2.631,0.699,3.658,1.521c1.028,0.822,2.179,1.771,4.44,1.771
														c2.261,0,3.412-0.946,4.439-1.771c0.986-0.819,1.85-1.521,3.658-1.521C191.558,426.789,192.38,427.488,193.367,428.311
														z M156.412,427.899c-0.411,0.326-0.863,0.655-1.315,0.984c-0.781,0.534-1.604,1.027-2.384,1.397l-8.181-1.479
														l3.536-2.426L156.412,427.899z M149.465,425.392l3.535-2.426l6.783,1.233c-0.617,0.902-1.398,1.809-2.261,2.672
														L149.465,425.392z M150.616,431.188c-2.548,0.904-4.974,1.151-6.865,1.11v-2.385L150.616,431.188z M159.988,426.049
														c0.123-0.123,0.206-0.246,0.288-0.369l30.09-12.7v12.617c-0.206,0-0.411-0.041-0.658-0.041
														c-2.22,0-3.412,0.945-4.439,1.77c-0.987,0.822-1.85,1.521-3.659,1.521s-2.631-0.697-3.658-1.521
														c-1.028-0.822-2.179-1.77-4.44-1.77c-2.22,0-3.412,0.945-4.439,1.77c-0.986,0.822-1.85,1.521-3.658,1.521
														c-1.809,0-2.631-0.697-3.659-1.521C161.345,426.871,160.769,426.378,159.988,426.049z M183.419,397.562
														c1.028-1.935,1.891-3.823,2.672-5.591c2.096-4.851,3.453-9.291,4.316-12.538v28.446l-6.988,2.96V397.562
														L183.419,397.562z M182.186,399.823v11.551l-15.498,6.536C173.554,412.854,178.568,406.153,182.186,399.823z
														 M190.407,409.236v2.343l-28.816,12.168c0.617-1.027,1.11-2.014,1.521-3.001L190.407,409.236z M162.373,419.103
														l-3.001-0.533l3.782-2.632C163.071,416.718,162.825,417.828,162.373,419.103z M159.248,414.539
														c1.357,0.041,2.467,0.206,3.248,0.37l-3.823,2.631L159.248,414.539z M161.961,420.253
														c-0.37,0.904-0.822,1.85-1.398,2.837l-6.083-1.108l3.535-2.427L161.961,420.253z M154.85,414.868
														c1.11-0.206,2.179-0.288,3.125-0.329l-0.74,3.987l-3.535,2.426L154.85,414.868z M153.534,415.156l-1.233,6.782
														l-3.535,2.425l1.479-8.059C151.356,415.812,152.466,415.402,153.534,415.156z M145.313,419.637
														c0.658-0.617,1.356-1.19,2.138-1.727c0.452-0.329,0.945-0.617,1.397-0.863l-1.521,8.345l-3.535,2.427L145.313,419.637z
														 M143.751,421.281l-0.987,5.344h-2.22C141.202,425.021,142.23,423.131,143.751,421.281z M139.106,426.625h-1.11
														l-0.329-0.904l2.261-4.975C140.051,423.049,139.64,425.062,139.106,426.625z M138.982,416.472
														c0.247,0.698,0.452,1.356,0.576,2.016l-2.549,5.591l-1.027-2.795l2.631-5.756
														C138.736,415.812,138.859,416.143,138.982,416.472z M137.873,414.128l-2.507,5.509l-1.028-2.796l2.138-4.686
														C136.968,412.73,137.461,413.389,137.873,414.128z M135.571,411.168l-1.85,4.07l-1.027-2.796l1.233-2.714
														C134.461,410.141,135.036,410.593,135.571,411.168z M132.899,408.99l-0.822,1.768l-1.028-2.796
														C131.542,408.209,132.2,408.537,132.899,408.99z M129.857,408.414l1.027,2.796l-1.768-0.822
														C129.363,409.606,129.651,408.907,129.857,408.414z M128.829,411.621l2.713,1.23l1.028,2.798l-4.069-1.853
														C128.583,413.019,128.665,412.278,128.829,411.621z M128.459,415.114l4.687,2.138l1.027,2.796l-5.508-2.508
														C128.583,416.718,128.5,415.896,128.459,415.114z M129.405,420.048c-0.124-0.329-0.206-0.617-0.329-0.945l5.755,2.633
														l1.028,2.795l-5.59-2.549C129.939,421.322,129.651,420.705,129.405,420.048z M131.542,423.87l4.933,2.261l0.165,0.494
														h-2.384C133.228,425.803,132.323,424.898,131.542,423.87z M93.765,416.965h28.281v9.66h-3.042v-6.947H96.807v6.947
														h-3.042V416.965L93.765,416.965z M117.771,420.911v5.714H98.04v-5.714H117.771z M92.532,427.857h4.275h22.198h4.275
														h19.238v5.591h-24.952H98.862H73.828v-5.591H92.532z M79.624,426.625l8.222-8.222v8.222H79.624z M59.852,380.626
														c-2.22,0-4.028-1.809-4.028-4.028v-9.701c0-1.768,1.438-3.207,3.207-3.207c1.768,0,3.206,1.439,3.206,3.207v6.618h6.29
														v-17.471c0-5.344,4.316-9.66,9.66-9.66c5.344,0,9.66,4.316,9.66,9.66v32.68h9.125v-14.018
														c0-1.768,1.439-3.207,3.207-3.207c1.768,0,3.206,1.439,3.206,3.207v17.101c0,2.22-1.809,4.028-4.028,4.028h-11.51
														v20.841l-9.948,9.948h-5.262v38.887h-2.055c-0.206-0.164-0.411-0.329-0.617-0.534c-0.493-0.409-0.945-0.82-1.438-1.231
														l0.041-83.159h-8.715L59.852,380.626L59.852,380.626z M68.648,465.512h-0.164v-0.123
														C68.525,465.43,68.607,465.471,68.648,465.512z M68.772,466.786c0.329,0,0.617,0.041,0.863,0.082l-2.836,5.303
														l1.069,0.576l2.836-5.345c0.699,0.697,1.685,2.056,0.781,3.698c-0.74,1.356-3.617,2.715-5.221,3.329
														c-0.411-1.685-0.904-4.81-0.164-6.207C66.675,467.279,67.58,466.786,68.772,466.786z M47.396,388.724h-7.235v-4.81
														h6.042L47.396,388.724z M34.735,375.488v-4.398h9.66v4.439h-9.66V375.488z M38.928,376.721v3.782
														c-2.466-0.247-4.234-1.974-4.234-3.536l0,0v-0.247L38.928,376.721L38.928,376.721z M44.396,376.967
														c0,1.562-1.768,3.289-4.234,3.536v-3.782h4.234V376.967L44.396,376.967z M45.958,382.681h-5.755v-0.904
														c2.096-0.206,3.987-1.315,4.892-2.795L45.958,382.681z M39.545,365.005l4.851,4.81h-9.701L39.545,365.005z
														 M34.078,378.94c0.904,1.48,2.754,2.631,4.892,2.795v0.904h-5.755L34.078,378.94z M32.886,383.915h6.042v4.81h-7.194
														L32.886,383.915z M17.799,389.957h39.257v1.932H17.799V389.957z M60.222,465.512H14.634v-72.43h1.932H58.29h1.932
														V465.512z M61.455,465.512v-6.945c1.726,1.892,3.617,3.78,5.59,5.55c0.082,0.041,0.124,0.123,0.206,0.164v1.19h-5.796
														V465.512z"/>
												</g>
											</g>
										</g>
									</g>
								</g>
							</g>
						</g>
						<path fill="#222222" d="M433.309,468.39l-0.45-0.165l-0.288,0.37c-0.247,0.288-5.511,7.481-2.795,16.979
							c2.713,9.495,11.017,12.784,11.345,12.907l0.452,0.162l0.288-0.367c0.247-0.288,5.509-7.481,2.795-16.979
							C441.94,471.801,433.678,468.513,433.309,468.39z M443.503,481.626c0.164,0.534,0.287,1.027,0.37,1.521l-7.194-3.987
							l-1.148-3.987l7.027,3.905C442.927,479.899,443.256,480.722,443.503,481.626z M441.529,477.104l-6.453-3.574l-0.987-3.411
							C435.815,471.062,439.146,473.199,441.529,477.104z M432.897,470.444l0.984,3.412l-3.576,6.452
							C430.226,475.747,431.91,472.171,432.897,470.444z M431.006,485.202c-0.246-0.904-0.452-1.77-0.534-2.631l3.905-7.029
							l1.151,3.987l-3.987,7.191C431.294,486.229,431.13,485.736,431.006,485.202z M432.116,488.121l3.864-6.947l1.148,3.987
							l-3.247,5.878C433.226,490.135,432.609,489.189,432.116,488.121z M434.665,492.066l2.918-5.222l1.151,3.987l-1.893,3.411
							C436.104,493.588,435.363,492.889,434.665,492.066z M437.789,495.026l1.396-2.551l1.233,4.275
							C439.721,496.342,438.816,495.808,437.789,495.026z M441.611,496.383l-1.232-4.272l2.548,1.396
							C442.475,494.739,441.981,495.726,441.611,496.383z M443.338,492.354l-3.411-1.891l-1.149-3.987l5.262,2.918
							C443.831,490.464,443.626,491.45,443.338,492.354z M444.16,488.079l-5.878-3.247l-1.151-3.987l6.947,3.864
							C444.242,485.859,444.242,487.011,444.16,488.079z"/>
						<path fill="#222222" d="M427.923,471.021h-0.534c-0.573,0-5.632,0.121-9.126,4.521c-3.656,4.604-2.384,9.783-2.302,9.989
							l0.123,0.452h0.535c0.575,0,5.631-0.124,9.125-4.522c3.659-4.604,2.385-9.783,2.303-9.988L427.923,471.021z M419.208,476.282
							c0.329-0.411,0.658-0.74,0.987-1.069l3.944-0.452l-1.026,1.315l-4.069,0.452C419.085,476.487,419.167,476.405,419.208,476.282
							z M418.181,477.885l3.864-0.452l-1.027,1.315l-3.369,0.37C417.77,478.748,417.976,478.337,418.181,477.885z M416.947,483.846
							c0-0.288-0.041-0.576-0.041-0.943l0.861-0.083L416.947,483.846z M417.893,484.627l0.822-1.028l0.083,0.863
							C418.51,484.544,418.181,484.586,417.893,484.627z M417.03,481.667c0.041-0.37,0.123-0.781,0.205-1.233l2.672-0.286
							l-1.027,1.313L417.03,481.667z M420.03,484.092l-0.205-1.85l1.025-1.315l0.329,2.672
							C420.771,483.764,420.4,483.928,420.03,484.092z M422.333,482.9l-0.37-3.371l1.027-1.315l0.452,3.864
							C423.072,482.406,422.702,482.653,422.333,482.9z M424.758,480.681c-0.082,0.082-0.123,0.164-0.205,0.246l-0.452-4.067
							l1.027-1.315l0.452,3.946C425.333,479.899,425.087,480.311,424.758,480.681z M425.251,473.404l-3.083,0.37
							c1.48-0.863,2.919-1.233,3.946-1.397L425.251,473.404z M426.566,477.269l-0.37-3.083l0.82-1.025
							C427.101,474.145,427.06,475.624,426.566,477.269z"/>
					</g>
				</g>
			</g>
		</g>
	</g>
</g>
</svg>
