<?xml version="1.0" encoding="utf-8"?>
<!-- Generator: Adobe Illustrator 16.0.0, SVG Export Plug-In . SVG Version: 6.00 Build 0)  -->
<!DOCTYPE svg PUBLIC "-//W3C//DTD SVG 1.1//EN" "http://www.w3.org/Graphics/SVG/1.1/DTD/svg11.dtd">
<svg version="1.1" id="Layer_1" xmlns="http://www.w3.org/2000/svg" xmlns:xlink="http://www.w3.org/1999/xlink" x="0px" y="0px"
	 width="4408.836px" height="89.326px" viewBox="0 0 4408.836 89.326" enable-background="new 0 0 4408.836 89.326"
	 xml:space="preserve">
<g>
	<path fill="none" d="M1274.649,52.47l-3.819-1.886c-2.188,1.401-4.771,2.185-7.501,2.185c-2.141,0-4.207-0.484-6.139-1.438
		c-4.51-2.225-7.26-6.59-7.669-11.267l-3.851-1.901c-0.894,7.18,2.795,14.158,9.418,17.427
		C1261.712,58.859,1269.495,57.546,1274.649,52.47z"/>
	<path fill="none" d="M1253.188,59.115c-1.769-0.009-3.476-0.249-5.095-0.686c1.099,1.264,2.416,2.298,3.931,3.045
		c1.514,0.748,3.132,1.166,4.8,1.271C1255.494,61.727,1254.267,60.514,1253.188,59.115z"/>
	<path fill="none" d="M1267.784,59.719c-1.652,0.435-3.357,0.664-5.076,0.664c-1.58-0.002-3.169-0.194-4.738-0.576
		c3.836,3.28,8.812,4.494,13.381,2.946c1.611-0.546,3.061-1.405,4.322-2.525c-0.875,0.12-1.765,0.187-2.666,0.187
		C1271.29,60.414,1269.534,60.181,1267.784,59.719z"/>
	<path fill="none" d="M1244.148,48.127c-2.333-1.738-4.187-3.855-5.513-6.178c-0.121,1.679,0.078,3.351,0.621,4.957
		c1.566,4.616,5.625,7.86,10.643,8.873C1247.354,53.702,1245.4,51.071,1244.148,48.127z"/>
	<path fill="none" d="M1273.101,43.698c2.09-4.231,1.156-9.172-1.949-12.387l-3.496,2.277l1.139,14.705
		C1270.611,47.241,1272.124,45.676,1273.101,43.698z"/>
	<path fill="none" d="M1283.62,42.1l-0.436,1.832l-6.114-3.019c-0.205,1.396-0.622,2.782-1.28,4.113
		c-0.64,1.298-1.465,2.457-2.425,3.464l6.084,3.004l-1.188,1.46c-1.469,1.8-3.187,3.289-5.066,4.45
		c5.496-0.059,10.443-2.792,12.729-7.418c2.281-4.622,1.44-10.214-1.854-14.615C1284.291,37.57,1284.157,39.839,1283.62,42.1z"/>
	<path fill="none" d="M1678.219,59.719c-1.75,0.462-3.506,0.695-5.222,0.695c-0.902,0-1.792-0.066-2.666-0.187
		c1.261,1.12,2.711,1.979,4.322,2.525c4.569,1.548,9.544,0.334,13.38-2.946c-1.569,0.382-3.158,0.574-4.738,0.576
		C1681.576,60.383,1679.872,60.153,1678.219,59.719z"/>
	<path fill="none" d="M1243.093,35.59l0.435-1.831l6.087,3.006c0.21-1.369,0.627-2.729,1.271-4.034
		c0.653-1.323,1.498-2.5,2.482-3.521l-6.107-3.017l1.19-1.459c1.524-1.868,3.319-3.397,5.284-4.576
		c-5.686-0.109-10.836,2.629-13.202,7.419c-2.364,4.791-1.407,10.545,2.138,14.993C1242.412,40.291,1242.534,37.937,1243.093,35.59z
		"/>
	<path fill="none" d="M1268.158,29.114c-1.515-0.748-3.133-1.127-4.81-1.127c-4.178,0-7.924,2.326-9.772,6.071
		c-0.362,0.734-0.627,1.492-0.812,2.257l2.965,1.465l12.896-8.405C1268.47,29.288,1268.32,29.194,1268.158,29.114z"/>
	<path fill="none" d="M1680.13,49.449c0.823,0.195,1.67,0.319,2.544,0.319c1.676,0,3.295-0.38,4.811-1.128
		c3.627-1.79,5.808-5.346,6.037-9.119l-13.125,6.48L1680.13,49.449z"/>
	<polygon fill="none" points="1680.666,42.524 1687.147,39.323 1681.212,35.456 	"/>
	<path fill="none" d="M1276.695,21.815c2.629,2.114,4.64,4.814,5.909,7.842c2.193,1.698,3.947,3.742,5.216,5.977
		c0.124-1.686-0.074-3.362-0.621-4.976C1285.647,26.079,1281.647,22.858,1276.695,21.815z"/>
	<path fill="none" d="M1672.903,43.698c0.976,1.978,2.489,3.543,4.307,4.596l1.138-14.705l-3.496-2.277
		C1671.747,34.526,1670.812,39.467,1672.903,43.698z"/>
	<path fill="none" d="M1682.654,27.987c-1.676,0-3.294,0.379-4.809,1.127c-0.162,0.08-0.312,0.174-0.468,0.261l12.897,8.405
		l2.965-1.465c-0.185-0.765-0.449-1.522-0.812-2.257C1690.578,30.313,1686.833,27.987,1682.654,27.987z"/>
	<path fill="none" d="M1667.743,52.954l-1.189-1.46l6.084-3.004c-0.96-1.007-1.785-2.166-2.425-3.464
		c-0.658-1.331-1.075-2.718-1.28-4.113l-6.115,3.019l-0.435-1.832c-0.537-2.261-0.671-4.529-0.449-6.729
		c-3.294,4.401-4.135,9.993-1.853,14.615c2.284,4.626,7.232,7.359,12.728,7.418C1670.929,56.243,1669.21,54.754,1667.743,52.954z"/>
	<path fill="none" d="M1321.511,5.732c-0.791,0-1.524,0.09-2.139,0.201l6.889,12.947l-2.649,1.408l-6.896-12.965
		c-1.66,1.679-4.052,5.03-1.934,9.012c1.775,3.336,8.783,6.577,12.729,8.09c0.951-4.116,2.18-11.738,0.404-15.077
		C1326.638,6.949,1324.484,5.732,1321.511,5.732z"/>
	<path fill="none" d="M1656.18,40.865l-13.597,2.921l-0.63-2.934l13.527-2.905c-0.437-2.099-0.443-4.214-0.031-6.28
		c-1.782-0.966-3.761-1.226-5.901-0.764c-4.843,1.039-11.411,8.783-14.506,12.969c4.543,2.547,13.716,6.91,18.552,5.87
		c1.034-0.222,1.966-0.586,2.79-1.076C1655.672,46.131,1655.625,43.464,1656.18,40.865z"/>
	<path fill="none" d="M1259.048,17.949c3.098-0.794,6.373-0.843,9.566-0.087c-3.854-3.364-8.893-4.618-13.51-3.053
		c-1.608,0.545-3.057,1.403-4.316,2.521C1253.439,16.971,1256.249,17.155,1259.048,17.949z"/>
	<path fill="none" d="M531.127,15.293c1.977,1.576,3.798,2.764,5.207,3.583l-2.256-8.625L531.127,15.293z"/>
	<path fill="none" d="M524.476,8.729c1.419,1.745,2.891,3.258,4.336,4.58l4.192-7.164l-0.117-0.449l-0.737-2.82h-4.248l-1.651,2.82
		L524.476,8.729z"/>
	<path fill="none" d="M536.433,5.696l6.644,3.888c0.4-1.215,0.764-2.518,1.078-3.888c0.167-0.726,0.324-1.465,0.456-2.232
		l-1.004-0.588h-8.356l0.657,2.513L536.433,5.696z"/>
	<path fill="none" d="M231.853,5.696c-0.555,1.3-0.897,2.418-0.897,3.19c0,3.637,2.958,6.595,6.595,6.595s6.595-2.958,6.595-6.595
		c0-0.772-0.343-1.891-0.898-3.19H231.853z"/>
	<path fill="none" d="M522.529,6.113l0.244-0.417l1.651-2.82h-3.898c0.551,0.985,1.128,1.927,1.729,2.82
		C522.347,5.834,522.437,5.978,522.529,6.113z"/>
	<path fill="none" d="M3442.53,6.113l0.244-0.417l1.651-2.82h-3.898c0.551,0.985,1.128,1.927,1.729,2.82
		C3442.348,5.834,3442.438,5.978,3442.53,6.113z"/>
	<path fill="none" d="M2401.849,5.696c0.314,1.37,0.678,2.673,1.078,3.888l6.644-3.888l0.525-0.308l0.657-2.513h-8.356l-1.004,0.588
		C2401.524,4.231,2401.682,4.971,2401.849,5.696z"/>
	<path fill="none" d="M2423.474,6.113c0.093-0.136,0.183-0.279,0.274-0.417c0.601-0.894,1.178-1.835,1.729-2.82h-3.898l1.651,2.82
		L2423.474,6.113z"/>
	<path fill="none" d="M2412.999,6.146l4.192,7.164c1.445-1.322,2.917-2.835,4.336-4.58l-1.775-3.033l-1.65-2.82h-4.248l-0.737,2.82
		L2412.999,6.146z"/>
	<polygon fill="none" points="1258.855,39.323 1265.337,42.524 1264.791,35.456 	"/>
	<path fill="none" d="M1310.962,43.872c-3.096-4.186-9.664-11.93-14.507-12.969c-2.14-0.462-4.118-0.202-5.901,0.764
		c0.412,2.066,0.406,4.182-0.03,6.28l13.526,2.905l-0.629,2.934l-13.598-2.921c0.555,2.599,0.508,5.266-0.204,7.801
		c0.824,0.49,1.757,0.854,2.79,1.076C1297.245,50.782,1306.419,46.419,1310.962,43.872z"/>
	<path fill="none" d="M1252.062,25.218l3.859,1.906c2.172-1.373,4.729-2.137,7.428-2.137c2.142,0,4.205,0.483,6.139,1.438
		c4.48,2.213,7.225,6.536,7.66,11.18l3.893,1.922c0.896-7.18-2.794-14.159-9.417-17.429
		C1265.003,18.829,1257.218,20.142,1252.062,25.218z"/>
	<path fill="none" d="M1273.263,18.458c1.767,0.009,3.479,0.232,5.096,0.668c-1.098-1.261-2.413-2.293-3.926-3.039
		c-1.512-0.748-3.131-1.164-4.801-1.268C1270.962,15.837,1272.181,17.061,1273.263,18.458z"/>
	<path fill="none" d="M3444.477,8.729c1.419,1.745,2.891,3.258,4.336,4.58l4.192-7.164l-0.117-0.449l-0.737-2.82h-4.248l-1.65,2.82
		L3444.477,8.729z"/>
	<path fill="none" d="M556.388,20.447c-0.367,0-0.729,0.068-1.075,0.205c-1.507,0.594-2.25,2.304-1.656,3.811
		c0.445,1.131,1.519,1.862,2.734,1.862c0.366,0,0.729-0.069,1.077-0.206c0.729-0.287,1.304-0.842,1.615-1.562
		c0.313-0.72,0.327-1.518,0.039-2.248C558.677,21.178,557.604,20.447,556.388,20.447z"/>
	<path fill="none" d="M590.731,23.871c0.803,0,1.553-0.318,2.112-0.896c0.546-0.564,0.839-1.307,0.825-2.091
		c-0.013-0.784-0.331-1.518-0.896-2.063c-0.551-0.533-1.276-0.826-2.042-0.826c-0.803,0-1.552,0.317-2.11,0.896
		c-0.547,0.564-0.84,1.308-0.828,2.092c0.014,0.784,0.33,1.517,0.896,2.062C589.239,23.577,589.964,23.871,590.731,23.871z"/>
	<path fill="none" d="M539.236,18.117c0.828-1.406,1.837-3.328,2.79-5.671l-5.045-2.953L539.236,18.117z"/>
	<path fill="none" d="M566.941,39.248c-0.51,0.597-0.756,1.356-0.694,2.14c0.126,1.596,1.545,2.822,3.161,2.696
		c1.615-0.129,2.825-1.547,2.697-3.161c-0.121-1.518-1.406-2.705-2.925-2.705c-0.078,0-0.157,0.003-0.237,0.009
		C568.16,38.289,567.449,38.651,566.941,39.248z"/>
	<path fill="none" d="M1258.519,48.641c1.516,0.748,3.135,1.128,4.811,1.128c0.874,0,1.721-0.124,2.544-0.319l-0.267-3.447
		l-13.125-6.48C1252.71,43.295,1254.892,46.851,1258.519,48.641z"/>
	<path fill="none" d="M4188.159,29.114c-1.515-0.748-3.133-1.127-4.81-1.127c-4.178,0-7.924,2.326-9.772,6.071
		c-0.362,0.734-0.627,1.492-0.812,2.257l2.965,1.465l12.896-8.405C4188.471,29.288,4188.321,29.194,4188.159,29.114z"/>
	<path fill="none" d="M3476.389,20.447c-0.367,0-0.729,0.068-1.075,0.205c-1.507,0.594-2.25,2.304-1.656,3.811
		c0.445,1.131,1.519,1.862,2.734,1.862c0.366,0,0.729-0.069,1.077-0.206c0.729-0.287,1.304-0.842,1.615-1.562
		c0.313-0.72,0.327-1.518,0.039-2.248C3478.678,21.178,3477.604,20.447,3476.389,20.447z"/>
	<path fill="none" d="M4178.52,48.641c1.516,0.748,3.135,1.128,4.811,1.128c0.874,0,1.721-0.124,2.544-0.319l-0.267-3.447
		l-13.125-6.48C4172.711,43.295,4174.893,46.851,4178.52,48.641z"/>
	<path fill="none" d="M4193.102,43.698c2.09-4.231,1.156-9.172-1.949-12.387l-3.496,2.277l1.139,14.705
		C4190.612,47.241,4192.125,45.676,4193.102,43.698z"/>
	<polygon fill="none" points="4178.856,39.323 4185.338,42.524 4184.792,35.456 	"/>
	<path fill="none" d="M3510.732,23.871c0.803,0,1.553-0.318,2.112-0.896c0.546-0.564,0.839-1.307,0.825-2.091
		c-0.013-0.784-0.331-1.518-0.896-2.063c-0.551-0.533-1.276-0.826-2.042-0.826c-0.803,0-1.552,0.317-2.11,0.896
		c-0.547,0.564-0.84,1.308-0.828,2.092c0.014,0.784,0.33,1.517,0.896,2.062C3509.24,23.577,3509.965,23.871,3510.732,23.871z"/>
	<path fill="none" d="M4230.963,43.872c-3.096-4.186-9.664-11.93-14.507-12.969c-2.14-0.462-4.118-0.202-5.901,0.764
		c0.412,2.066,0.406,4.182-0.03,6.28l13.526,2.905l-0.629,2.934l-13.598-2.921c0.555,2.599,0.508,5.266-0.204,7.801
		c0.824,0.49,1.757,0.854,2.79,1.076C4217.246,50.782,4226.42,46.419,4230.963,43.872z"/>
	<path fill="none" d="M4193.264,18.458c1.767,0.009,3.479,0.232,5.096,0.668c-1.098-1.261-2.413-2.293-3.926-3.039
		c-1.512-0.748-3.131-1.164-4.801-1.268C4190.963,15.837,4192.182,17.061,4193.264,18.458z"/>
	<path fill="none" d="M4172.062,25.218l3.859,1.906c2.172-1.373,4.729-2.137,7.428-2.137c2.142,0,4.205,0.483,6.139,1.438
		c4.48,2.213,7.225,6.536,7.66,11.18l3.893,1.922c0.896-7.18-2.794-14.159-9.417-17.429
		C4185.004,18.829,4177.219,20.142,4172.062,25.218z"/>
	<path fill="none" d="M4179.049,17.949c3.098-0.794,6.373-0.843,9.566-0.087c-3.854-3.364-8.893-4.618-13.51-3.053
		c-1.608,0.545-3.057,1.403-4.316,2.521C4173.44,16.971,4176.25,17.155,4179.049,17.949z"/>
	<path fill="none" d="M4187.785,59.719c-1.652,0.435-3.357,0.664-5.076,0.664c-1.58-0.002-3.169-0.194-4.738-0.576
		c3.836,3.28,8.812,4.494,13.381,2.946c1.611-0.546,3.061-1.405,4.322-2.525c-0.875,0.12-1.765,0.187-2.666,0.187
		C4191.291,60.414,4189.535,60.181,4187.785,59.719z"/>
	<path fill="none" d="M4163.094,35.59l0.435-1.831l6.087,3.006c0.21-1.369,0.627-2.729,1.271-4.034
		c0.653-1.323,1.498-2.5,2.482-3.521l-6.107-3.017l1.19-1.459c1.524-1.868,3.319-3.397,5.284-4.576
		c-5.686-0.109-10.836,2.629-13.202,7.419c-2.364,4.791-1.407,10.545,2.138,14.993C4162.413,40.291,4162.535,37.937,4163.094,35.59z
		"/>
	<path fill="none" d="M4196.696,21.815c2.629,2.114,4.64,4.814,5.909,7.842c2.193,1.698,3.947,3.742,5.216,5.977
		c0.124-1.686-0.074-3.362-0.621-4.976C4205.648,26.079,4201.648,22.858,4196.696,21.815z"/>
	<path fill="none" d="M4247.512,24.426c0.951-4.116,2.18-11.738,0.404-15.077c-1.277-2.399-3.431-3.616-6.404-3.616
		c-0.791,0-1.524,0.09-2.139,0.201l6.889,12.947l-2.649,1.408l-6.896-12.965c-1.66,1.679-4.052,5.03-1.934,9.012
		C4236.559,19.672,4243.566,22.913,4247.512,24.426z"/>
	<path fill="none" d="M4203.621,42.1l-0.436,1.832l-6.114-3.019c-0.205,1.396-0.622,2.782-1.28,4.113
		c-0.64,1.298-1.465,2.457-2.425,3.464l6.084,3.004l-1.188,1.46c-1.469,1.8-3.187,3.289-5.066,4.45
		c5.496-0.059,10.443-2.792,12.729-7.418c2.281-4.622,1.44-10.214-1.854-14.615C4204.292,37.57,4204.158,39.839,4203.621,42.1z"/>
	<path fill="none" d="M4164.149,48.127c-2.333-1.738-4.187-3.855-5.513-6.178c-0.121,1.679,0.078,3.351,0.621,4.957
		c1.566,4.616,5.625,7.86,10.643,8.873C4167.355,53.702,4165.401,51.071,4164.149,48.127z"/>
	<path fill="none" d="M4194.65,52.47l-3.819-1.886c-2.188,1.401-4.771,2.185-7.501,2.185c-2.141,0-4.207-0.484-6.139-1.438
		c-4.51-2.225-7.26-6.59-7.669-11.267l-3.851-1.901c-0.894,7.18,2.795,14.158,9.418,17.427
		C4181.713,58.859,4189.496,57.546,4194.65,52.47z"/>
	<path fill="none" d="M4173.188,59.115c-1.769-0.009-3.476-0.249-5.095-0.686c1.099,1.264,2.416,2.298,3.931,3.045
		c1.514,0.748,3.132,1.166,4.8,1.271C4175.495,61.727,4174.268,60.514,4173.188,59.115z"/>
	<path fill="none" d="M1676.371,14.819c-1.67,0.104-3.289,0.52-4.801,1.268c-1.512,0.746-2.827,1.778-3.925,3.039
		c1.617-0.436,3.329-0.659,5.096-0.668C1673.822,17.061,1675.041,15.837,1676.371,14.819z"/>
	<path fill="none" d="M1700.332,38.162l-3.85,1.901c-0.409,4.677-3.16,9.042-7.669,11.267c-1.932,0.954-3.998,1.438-6.139,1.438
		c-2.73,0-5.312-0.783-7.501-2.185l-3.819,1.886c5.154,5.076,12.938,6.39,19.561,3.119
		C1697.537,52.32,1701.226,45.342,1700.332,38.162z"/>
	<path fill="none" d="M1686.955,17.949c2.799-0.794,5.609-0.979,8.26-0.619c-1.26-1.117-2.708-1.976-4.316-2.521
		c-4.618-1.565-9.657-0.312-13.51,3.053C1680.583,17.106,1683.857,17.155,1686.955,17.949z"/>
	<path fill="none" d="M1664.963,39.527l3.893-1.922c0.436-4.644,3.18-8.967,7.66-11.18c1.933-0.955,3.997-1.438,6.138-1.438
		c2.7,0,5.256,0.764,7.429,2.137l3.859-1.906c-5.157-5.076-12.942-6.389-19.562-3.119
		C1667.757,25.368,1664.067,32.348,1664.963,39.527z"/>
	<path fill="none" d="M1663.398,29.657c1.269-3.027,3.28-5.728,5.909-7.842c-4.952,1.043-8.952,4.264-10.504,8.843
		c-0.547,1.613-0.745,3.29-0.621,4.976C1659.451,33.399,1661.206,31.355,1663.398,29.657z"/>
	<path fill="none" d="M1701.854,48.127c-1.252,2.944-3.206,5.575-5.751,7.652c5.017-1.013,9.076-4.257,10.642-8.873
		c0.544-1.606,0.743-3.278,0.622-4.957C1706.042,44.271,1704.188,46.389,1701.854,48.127z"/>
	<path fill="none" d="M1689.18,62.745c1.668-0.104,3.286-0.522,4.8-1.271c1.515-0.747,2.832-1.781,3.93-3.045
		c-1.618,0.437-3.326,0.677-5.094,0.686C1691.736,60.514,1690.509,61.727,1689.18,62.745z"/>
	<path fill="none" d="M1697.552,24.733l1.19,1.459l-6.107,3.017c0.985,1.021,1.829,2.198,2.482,3.521
		c0.645,1.306,1.062,2.665,1.272,4.034l6.087-3.006l0.435,1.831c0.558,2.347,0.68,4.701,0.421,6.979
		c3.545-4.448,4.503-10.202,2.138-14.993c-2.366-4.79-7.517-7.528-13.202-7.419C1694.232,21.336,1696.028,22.865,1697.552,24.733z"
		/>
	<path fill="none" d="M1622.392,20.289l-2.649-1.408l6.888-12.947c-0.614-0.111-1.347-0.201-2.139-0.201
		c-2.973,0-5.127,1.217-6.404,3.616c-1.775,3.339-0.546,10.961,0.405,15.077c3.945-1.513,10.953-4.754,12.728-8.09
		c2.118-3.981-0.274-7.333-1.933-9.012L1622.392,20.289z"/>
	<path fill="none" d="M2702.757,5.696c-0.556,1.3-0.898,2.418-0.898,3.19c0,3.637,2.958,6.595,6.595,6.595s6.595-2.958,6.595-6.595
		c0-0.772-0.343-1.891-0.897-3.19H2702.757z"/>
	<path fill="none" d="M3151.854,5.696c-0.555,1.3-0.897,2.418-0.897,3.19c0,3.637,2.958,6.595,6.595,6.595s6.595-2.958,6.595-6.595
		c0-0.772-0.343-1.891-0.898-3.19H3151.854z"/>
	<path fill="none" d="M2409.669,18.876c1.409-0.819,3.23-2.007,5.207-3.583l-2.951-5.042L2409.669,18.876z"/>
	<path fill="none" d="M2355.271,17.995c-0.766,0-1.491,0.293-2.042,0.826c-0.564,0.546-0.883,1.279-0.896,2.063
		c-0.014,0.784,0.279,1.526,0.825,2.091c0.56,0.577,1.31,0.896,2.112,0.896c0.768,0,1.492-0.294,2.043-0.827
		c0.565-0.545,0.882-1.277,0.896-2.062c0.012-0.784-0.281-1.527-0.828-2.092C2356.823,18.312,2356.074,17.995,2355.271,17.995z"/>
	<path fill="none" d="M3451.128,15.293c1.977,1.576,3.798,2.764,5.207,3.583l-2.256-8.625L3451.128,15.293z"/>
	<path fill="none" d="M3459.237,18.117c0.828-1.406,1.837-3.328,2.79-5.671l-5.045-2.953L3459.237,18.117z"/>
	<path fill="none" d="M2376.822,38.218c-1.519,0-2.804,1.188-2.925,2.705c-0.128,1.614,1.082,3.032,2.697,3.161
		c1.616,0.126,3.035-1.101,3.161-2.696c0.062-0.783-0.185-1.543-0.694-2.14c-0.508-0.597-1.219-0.959-2.002-1.021
		C2376.979,38.221,2376.9,38.218,2376.822,38.218z"/>
	<path fill="none" d="M2406.767,18.117l2.255-8.624l-5.045,2.953C2404.93,14.789,2405.938,16.711,2406.767,18.117z"/>
	<path fill="none" d="M2388.535,26.119c0.349,0.137,0.711,0.206,1.077,0.206c1.216,0,2.289-0.731,2.734-1.862
		c0.594-1.507-0.149-3.217-1.656-3.811c-0.346-0.137-0.708-0.205-1.075-0.205c-1.216,0-2.289,0.73-2.734,1.862
		c-0.288,0.73-0.274,1.528,0.039,2.248C2387.231,25.277,2387.806,25.832,2388.535,26.119z"/>
	<path fill="none" d="M3150.956,53.887c0,3.637,2.958,6.595,6.595,6.595s6.595-2.958,6.595-6.595c0-2.534-3.657-8.767-6.595-13.103
		C3154.612,45.119,3150.956,51.35,3150.956,53.887z"/>
	<path fill="none" d="M877.054,16.876c-0.139,0-0.252,0.113-0.252,0.252c0,0.277,0.504,0.277,0.504,0
		C877.306,16.989,877.193,16.876,877.054,16.876z"/>
	<path fill="none" d="M2038.949,44.876c-0.139,0-0.252,0.113-0.252,0.252c0,0.277,0.504,0.277,0.504,0
		C2039.201,44.989,2039.088,44.876,2038.949,44.876z"/>
	<path fill="none" d="M2088.949,32.876c-0.139,0-0.252,0.113-0.252,0.252c0,0.277,0.504,0.277,0.504,0
		C2089.201,32.989,2089.088,32.876,2088.949,32.876z"/>
	<path fill="none" d="M2068.949,16.876c-0.139,0-0.252,0.113-0.252,0.252c0,0.277,0.504,0.277,0.504,0
		C2069.201,16.989,2069.088,16.876,2068.949,16.876z"/>
	<path fill="none" d="M907.054,44.876c-0.139,0-0.252,0.113-0.252,0.252c0,0.277,0.504,0.277,0.504,0
		C907.306,44.989,907.193,44.876,907.054,44.876z"/>
	<path fill="none" d="M474.523,47.295c0.046-0.682,0.073-1.443,0.063-2.283l-2.063-0.237L474.523,47.295z"/>
	<path fill="none" d="M469.887,41.451l4.492,0.517c-0.114-0.947-0.287-1.94-0.528-2.968l-6.503-0.749L469.887,41.451z"/>
	<path fill="none" d="M857.054,32.876c-0.139,0-0.252,0.113-0.252,0.252c0,0.277,0.504,0.277,0.504,0
		C857.306,32.989,857.193,32.876,857.054,32.876z"/>
	<path fill="none" d="M464.711,34.927l8.195,0.944c-0.375-1.014-0.831-2.038-1.377-3.067l-9.357-1.078L464.711,34.927z"/>
	<path fill="none" d="M2483.642,36.792l0.945,8.213c0.901-0.6,1.795-1.279,2.673-2.049l-1.078-9.365L2483.642,36.792z"/>
	<path fill="none" d="M469.934,48.725c0.821,0.201,1.576,0.346,2.255,0.454l-2.015-2.54L469.934,48.725z"/>
	<path fill="none" d="M2478.466,43.315l0.521,4.518c0.895-0.326,1.823-0.722,2.769-1.19l-0.751-6.526L2478.466,43.315z"/>
	<path fill="none" d="M2491.645,21.879l2.02-2.547c-2.472,0.392-5.984,1.309-9.568,3.417L2491.645,21.879z"/>
	<path fill="none" d="M2472.152,39c-0.241,1.027-0.414,2.021-0.528,2.968l4.492-0.517l2.539-3.2L2472.152,39z"/>
	<path fill="none" d="M2471.479,47.295l2-2.521l-2.063,0.237C2471.406,45.852,2471.434,46.613,2471.479,47.295z"/>
	<path fill="none" d="M2473.814,49.179c0.679-0.108,1.434-0.253,2.255-0.454l-0.24-2.086L2473.814,49.179z"/>
	<path fill="none" d="M2483.831,31.726l-9.357,1.078c-0.546,1.029-1.002,2.054-1.377,3.067l8.195-0.944L2483.831,31.726z"/>
	<path fill="none" d="M2489.006,25.203l-9.628,1.108c-0.814,0.782-1.611,1.64-2.372,2.598c-0.167,0.211-0.31,0.425-0.468,0.637
		l9.931-1.145L2489.006,25.203z"/>
	<path fill="none" d="M2488.818,30.267l1.144,9.931c0.171-0.202,0.348-0.391,0.516-0.602c0.76-0.958,1.413-1.931,1.987-2.906
		l-1.107-9.623L2488.818,30.267z"/>
	<path fill="none" d="M411.335,70.855c1.1,2.918,2.293,5.265,3.234,6.914l2.964-10.354L411.335,70.855z"/>
	<path fill="none" d="M421.463,53.684l-12.75,7.076c0.384,2.613,0.965,5.028,1.638,7.211l8.35-4.633L421.463,53.684z"/>
	<path fill="none" d="M417.454,78.596c1.672-0.901,3.926-2.261,6.402-4.157l-3.438-6.195L417.454,78.596z"/>
	<path fill="none" d="M425.394,39.951l-16.901,9.38c-0.312,2.867-0.33,5.608-0.136,8.196l14.274-7.922L425.394,39.951z"/>
	<path fill="none" d="M429.324,26.22l-17.113,9.498c-0.864,1.91-1.63,3.95-2.256,6.139c-0.361,1.261-0.654,2.504-0.896,3.729
		l17.501-9.711L429.324,26.22z"/>
	<path fill="none" d="M230.955,53.887c0,3.637,2.958,6.595,6.595,6.595s6.595-2.958,6.595-6.595c0-2.534-3.657-8.767-6.595-13.103
		C234.611,45.119,230.955,51.35,230.955,53.887z"/>
	<path fill="none" d="M464.247,46.643c0.945,0.469,1.874,0.864,2.769,1.19l0.521-4.518l-2.539-3.199L464.247,46.643z"/>
	<path fill="none" d="M421.585,64.164l4.633,8.348c1.727-1.496,3.497-3.236,5.206-5.252l-7.076-12.75L421.585,64.164z"/>
	<path fill="none" d="M432.872,13.823c-4.258,2.298-12.32,7.585-18.098,17.041l15.717-8.723L432.872,13.823z"/>
	<path fill="none" d="M461.907,22.749c-3.584-2.108-7.097-3.025-9.568-3.417l2.02,2.547L461.907,22.749z"/>
	<path fill="none" d="M453.538,36.689c0.574,0.976,1.228,1.948,1.987,2.906c0.168,0.211,0.345,0.399,0.516,0.602l1.144-9.931
		l-2.539-3.2L453.538,36.689z"/>
	<path fill="none" d="M458.743,42.956c0.878,0.77,1.771,1.449,2.673,2.049l0.945-8.213l-2.54-3.201L458.743,42.956z"/>
	<path fill="none" d="M451.145,31.247l0.864-7.504l-2.01-2.533C449.831,23.68,449.931,27.297,451.145,31.247z"/>
	<path fill="none" d="M433.376,22.968l8.721,15.715c0.101-11.079-3.941-19.831-6.34-24.034L433.376,22.968z"/>
	<path fill="none" d="M429.446,36.699l9.711,17.5c0.443-1.168,0.853-2.377,1.214-3.638c0.626-2.188,1.056-4.324,1.334-6.402
		l-9.496-17.112L429.446,36.699z"/>
	<path fill="none" d="M459.534,28.401l9.931,1.145c-0.158-0.212-0.301-0.426-0.468-0.637c-0.761-0.958-1.558-1.815-2.372-2.598
		l-9.628-1.108L459.534,28.401z"/>
	<path fill="none" d="M425.516,50.431l7.92,14.274c1.534-2.092,2.971-4.429,4.223-7.027l-9.379-16.899L425.516,50.431z"/>
	<path fill="none" d="M3384.712,34.927l8.195,0.944c-0.375-1.014-0.831-2.038-1.377-3.067l-9.357-1.078L3384.712,34.927z"/>
	<path fill="none" d="M3381.908,22.749c-3.584-2.108-7.097-3.025-9.568-3.417l2.02,2.547L3381.908,22.749z"/>
	<path fill="none" d="M3371.146,31.247l0.864-7.504L3370,21.21C3369.832,23.68,3369.932,27.297,3371.146,31.247z"/>
	<path fill="none" d="M3341.586,64.164l4.633,8.348c1.727-1.496,3.497-3.236,5.206-5.252l-7.076-12.75L3341.586,64.164z"/>
	<path fill="none" d="M3379.535,28.401l9.931,1.145c-0.158-0.212-0.301-0.426-0.468-0.637c-0.761-0.958-1.558-1.815-2.372-2.598
		l-9.628-1.108L3379.535,28.401z"/>
	<path fill="none" d="M3373.539,36.689c0.574,0.976,1.228,1.948,1.987,2.906c0.168,0.211,0.345,0.399,0.516,0.602l1.144-9.931
		l-2.539-3.2L3373.539,36.689z"/>
	<path fill="none" d="M3345.517,50.431l7.92,14.274c1.534-2.092,2.971-4.429,4.223-7.027l-9.379-16.899L3345.517,50.431z"/>
	<path fill="none" d="M3353.377,22.968l8.721,15.715c0.101-11.079-3.941-19.831-6.34-24.034L3353.377,22.968z"/>
	<path fill="none" d="M3349.447,36.699l9.711,17.5c0.443-1.168,0.853-2.377,1.214-3.638c0.626-2.188,1.056-4.324,1.334-6.402
		l-9.496-17.112L3349.447,36.699z"/>
	<path fill="none" d="M3378.744,42.956c0.878,0.77,1.771,1.449,2.673,2.049l0.945-8.213l-2.54-3.201L3378.744,42.956z"/>
	<path fill="none" d="M3797.055,16.876c-0.139,0-0.252,0.113-0.252,0.252c0,0.277,0.504,0.277,0.504,0
		C3797.307,16.989,3797.194,16.876,3797.055,16.876z"/>
	<path fill="none" d="M3384.248,46.643c0.945,0.469,1.874,0.864,2.769,1.19l0.521-4.518l-2.539-3.199L3384.248,46.643z"/>
	<path fill="none" d="M3827.055,44.876c-0.139,0-0.252,0.113-0.252,0.252c0,0.277,0.504,0.277,0.504,0
		C3827.307,44.989,3827.194,44.876,3827.055,44.876z"/>
	<path fill="none" d="M3456.434,5.696l6.644,3.888c0.4-1.215,0.764-2.518,1.078-3.888c0.167-0.726,0.324-1.465,0.456-2.232
		l-1.004-0.588h-8.356l0.657,2.513L3456.434,5.696z"/>
	<path fill="none" d="M3777.055,32.876c-0.139,0-0.252,0.113-0.252,0.252c0,0.277,0.504,0.277,0.504,0
		C3777.307,32.989,3777.194,32.876,3777.055,32.876z"/>
	<path fill="none" d="M3389.935,48.725c0.821,0.201,1.576,0.346,2.255,0.454l-2.015-2.54L3389.935,48.725z"/>
	<path fill="none" d="M3394.524,47.295c0.046-0.682,0.073-1.443,0.063-2.283l-2.063-0.237L3394.524,47.295z"/>
	<path fill="none" d="M3389.888,41.451l4.492,0.517c-0.114-0.947-0.287-1.94-0.528-2.968l-6.503-0.749L3389.888,41.451z"/>
	<path fill="none" d="M2521.655,54.51l-7.076,12.75c1.709,2.016,3.479,3.756,5.206,5.252l4.633-8.348L2521.655,54.51z"/>
	<path fill="none" d="M2517.724,40.778l-9.379,16.899c1.252,2.599,2.688,4.936,4.223,7.027l7.92-14.274L2517.724,40.778z"/>
	<path fill="none" d="M2527.303,63.338l8.35,4.633c0.673-2.183,1.254-4.598,1.638-7.211l-12.75-7.076L2527.303,63.338z"/>
	<path fill="none" d="M2493.994,23.743l0.864,7.504c1.214-3.95,1.313-7.567,1.146-10.037L2493.994,23.743z"/>
	<path fill="none" d="M2531.434,77.77c0.941-1.649,2.135-3.996,3.234-6.914l-6.198-3.439L2531.434,77.77z"/>
	<path fill="none" d="M2513.794,27.047l-9.496,17.112c0.278,2.078,0.708,4.214,1.334,6.402c0.361,1.261,0.771,2.47,1.214,3.638
		l9.711-17.5L2513.794,27.047z"/>
	<path fill="none" d="M2519.442,35.874l17.501,9.711c-0.241-1.225-0.534-2.468-0.896-3.729c-0.626-2.188-1.392-4.229-2.256-6.139
		l-17.113-9.498L2519.442,35.874z"/>
	<path fill="none" d="M2531.229,30.864c-5.777-9.456-13.84-14.743-18.098-17.041l2.381,8.318L2531.229,30.864z"/>
	<path fill="none" d="M3337.455,78.596c1.672-0.901,3.926-2.261,6.402-4.157l-3.438-6.195L3337.455,78.596z"/>
	<path fill="none" d="M2510.246,14.648c-2.398,4.203-6.44,12.955-6.34,24.034l8.721-15.715L2510.246,14.648z"/>
	<path fill="none" d="M3341.464,53.684l-12.75,7.076c0.384,2.613,0.965,5.028,1.638,7.211l8.35-4.633L3341.464,53.684z"/>
	<path fill="none" d="M3345.395,39.951l-16.901,9.38c-0.312,2.867-0.33,5.608-0.136,8.196l14.274-7.922L3345.395,39.951z"/>
	<path fill="none" d="M3331.336,70.855c1.1,2.918,2.293,5.265,3.234,6.914l2.964-10.354L3331.336,70.855z"/>
	<path fill="none" d="M3349.325,26.22l-17.113,9.498c-0.864,1.91-1.63,3.95-2.256,6.139c-0.361,1.261-0.654,2.504-0.896,3.729
		l17.501-9.711L3349.325,26.22z"/>
	<path fill="none" d="M3352.873,13.823c-4.258,2.298-12.32,7.585-18.098,17.041l15.717-8.723L3352.873,13.823z"/>
	<path fill="none" d="M2701.858,53.887c0,3.637,2.958,6.595,6.595,6.595s6.595-2.958,6.595-6.595c0-2.537-3.656-8.768-6.595-13.103
		C2705.516,45.12,2701.858,51.353,2701.858,53.887z"/>
	<path fill="none" d="M3486.248,41.388c0.126,1.596,1.545,2.822,3.161,2.696c1.615-0.129,2.825-1.547,2.697-3.161
		c-0.121-1.518-1.406-2.705-2.925-2.705c-0.078,0-0.157,0.003-0.237,0.009c-0.783,0.062-1.494,0.425-2.002,1.021
		C3486.433,39.845,3486.187,40.604,3486.248,41.388z"/>
	<path fill="none" d="M2520.609,39.951l2.763,9.654l14.274,7.922c0.194-2.588,0.177-5.329-0.136-8.196L2520.609,39.951z"/>
	<path fill="none" d="M2522.146,74.438c2.477,1.896,4.73,3.256,6.402,4.157l-2.964-10.353L2522.146,74.438z"/>
	<path fill="#231F20" d="M2708.453,35.592l-1.218,1.693c-0.856,1.192-8.377,11.787-8.377,16.602c0,5.291,4.304,9.595,9.595,9.595
		c5.29,0,9.595-4.304,9.595-9.595c0-4.814-7.52-15.409-8.376-16.602L2708.453,35.592z M2708.453,60.481
		c-3.637,0-6.595-2.958-6.595-6.595c0-2.534,3.657-8.767,6.595-13.103c2.938,4.335,6.595,10.565,6.595,13.103
		C2715.048,57.523,2712.09,60.481,2708.453,60.481z"/>
	<path fill="#231F20" d="M2068.949,13.876c-1.793,0-3.252,1.459-3.252,3.252s1.459,3.252,3.252,3.252s3.252-1.459,3.252-3.252
		S2070.742,13.876,2068.949,13.876z M2068.697,17.128c0-0.139,0.113-0.252,0.252-0.252s0.252,0.113,0.252,0.252
		C2069.201,17.405,2068.697,17.405,2068.697,17.128z"/>
	<path fill="#231F20" d="M2038.949,41.876c-1.793,0-3.252,1.459-3.252,3.252s1.459,3.252,3.252,3.252s3.252-1.459,3.252-3.252
		S2040.742,41.876,2038.949,41.876z M2038.697,45.128c0-0.139,0.113-0.252,0.252-0.252s0.252,0.113,0.252,0.252
		C2039.201,45.405,2038.697,45.405,2038.697,45.128z"/>
	<path fill="#231F20" d="M2088.949,29.876c-1.793,0-3.252,1.459-3.252,3.252s1.459,3.252,3.252,3.252s3.252-1.459,3.252-3.252
		S2090.742,29.876,2088.949,29.876z M2088.697,33.128c0-0.139,0.113-0.252,0.252-0.252s0.252,0.113,0.252,0.252
		C2089.201,33.405,2088.697,33.405,2088.697,33.128z"/>
	<path fill="#231F20" d="M2511.305,9.62l-1.054-0.404l-0.68,0.9c-0.552,0.73-13.439,18.16-6.824,41.271s26.772,31.083,27.627,31.411
		l1.054,0.404l0.682-0.9c0.552-0.73,13.438-18.16,6.824-41.272C2532.318,17.92,2512.161,9.948,2511.305,9.62z M2536.048,41.856
		c0.361,1.261,0.654,2.504,0.896,3.729l-17.501-9.711l-2.764-9.654l17.113,9.498C2534.656,37.628,2535.422,39.668,2536.048,41.856z
		 M2531.229,30.864l-15.717-8.723l-2.381-8.318C2517.389,16.121,2525.451,21.408,2531.229,30.864z M2510.246,14.648l2.381,8.319
		l-8.721,15.715C2503.806,27.604,2507.848,18.852,2510.246,14.648z M2505.632,50.562c-0.626-2.188-1.056-4.324-1.334-6.402
		l9.496-17.112l2.763,9.652l-9.711,17.5C2506.402,53.031,2505.993,51.822,2505.632,50.562z M2508.345,57.678l9.379-16.899
		l2.764,9.652l-7.92,14.274C2511.033,62.613,2509.597,60.276,2508.345,57.678z M2514.579,67.26l7.076-12.75l2.763,9.654
		l-4.633,8.348C2518.059,71.016,2516.288,69.275,2514.579,67.26z M2522.146,74.438l3.438-6.195l2.964,10.353
		C2526.877,77.694,2524.623,76.335,2522.146,74.438z M2531.434,77.77l-2.964-10.354l6.198,3.439
		C2533.568,73.773,2532.375,76.12,2531.434,77.77z M2535.652,67.971l-8.35-4.633l-2.763-9.654l12.75,7.076
		C2536.906,63.373,2536.325,65.788,2535.652,67.971z M2537.646,57.527l-14.274-7.922l-2.763-9.654l16.901,9.38
		C2537.823,52.198,2537.841,54.939,2537.646,57.527z"/>
	<path fill="#231F20" d="M2498.168,16.066l-1.281-0.033c-1.381,0-13.739,0.309-22.23,11.011
		c-8.904,11.223-5.768,23.776-5.629,24.305l0.288,1.09l1.281,0.033c1.383,0,13.739-0.31,22.229-11.011
		c8.904-11.223,5.768-23.776,5.63-24.306L2498.168,16.066z M2477.006,28.909c0.761-0.958,1.558-1.815,2.372-2.598l9.628-1.108
		l-2.537,3.198l-9.931,1.145C2476.696,29.334,2476.839,29.12,2477.006,28.909z M2474.474,32.804l9.357-1.078l-2.539,3.201
		l-8.195,0.944C2473.472,34.857,2473.928,33.833,2474.474,32.804z M2471.479,47.295c-0.046-0.682-0.073-1.443-0.063-2.283
		l2.063-0.237L2471.479,47.295z M2473.814,49.179l2.015-2.54l0.24,2.086C2475.248,48.926,2474.493,49.07,2473.814,49.179z
		 M2471.624,41.968c0.114-0.947,0.287-1.94,0.528-2.968l6.503-0.749l-2.539,3.2L2471.624,41.968z M2478.987,47.833l-0.521-4.518
		l2.539-3.199l0.751,6.526C2480.811,47.111,2479.882,47.507,2478.987,47.833z M2484.587,45.005l-0.945-8.213l2.54-3.201l1.078,9.365
		C2486.382,43.726,2485.488,44.405,2484.587,45.005z M2490.478,39.596c-0.168,0.211-0.345,0.399-0.516,0.602l-1.144-9.931l2.539-3.2
		l1.107,9.623C2491.891,37.665,2491.237,38.638,2490.478,39.596z M2491.645,21.879l-7.549,0.87c3.584-2.108,7.097-3.025,9.568-3.417
		L2491.645,21.879z M2494.858,31.247l-0.864-7.504l2.01-2.533C2496.172,23.68,2496.072,27.297,2494.858,31.247z"/>
	<path fill="#231F20" d="M3464.611,3.464c-0.132,0.768-0.289,1.507-0.456,2.232c-0.314,1.37-0.678,2.673-1.078,3.888l-6.644-3.888
		l-0.525-0.308l-0.657-2.513h-3.101l0.737,2.82l0.117,0.449l-4.192,7.164c-1.445-1.322-2.917-2.835-4.336-4.58l1.775-3.033
		l1.65-2.82h-3.477l-1.651,2.82l-0.244,0.417c-0.093-0.136-0.183-0.279-0.274-0.417c-0.601-0.894-1.178-1.835-1.729-2.82H2425.477
		c-0.551,0.985-1.128,1.927-1.729,2.82c-0.092,0.138-0.182,0.281-0.274,0.417l-0.244-0.417l-1.651-2.82h-3.477l1.65,2.82
		l1.775,3.033c-1.419,1.745-2.891,3.258-4.336,4.58l-4.192-7.164l0.117-0.449l0.737-2.82h-3.101l-0.657,2.513l-0.525,0.308
		l-6.644,3.888c-0.4-1.215-0.764-2.518-1.078-3.888c-0.167-0.726-0.324-1.465-0.456-2.232l1.004-0.588H543.606l1.004,0.588
		c-0.132,0.768-0.289,1.507-0.456,2.232c-0.314,1.37-0.678,2.673-1.078,3.888l-6.644-3.888l-0.525-0.308l-0.657-2.513h-3.101
		l0.737,2.82l0.117,0.449l-4.192,7.164c-1.445-1.322-2.917-2.835-4.336-4.58l1.775-3.033l1.651-2.82h-3.477l-1.651,2.82
		l-0.244,0.417c-0.093-0.136-0.183-0.279-0.274-0.417c-0.6-0.894-1.178-1.835-1.729-2.82H0v2.82h228.646
		c-0.429,1.198-0.691,2.295-0.691,3.19c0,5.291,4.305,9.595,9.595,9.595c5.291,0,9.595-4.304,9.595-9.595
		c0-0.896-0.263-1.992-0.691-3.19h272.185c7.436,12.381,18.826,17.2,19.431,17.447l1.044,0.429l0.701-0.885
		c0.327-0.414,5.345-6.894,7.476-16.991h18.791l0.489,12.068l-5.395,2.124c-1.1-1.513-2.849-2.441-4.787-2.441
		c-0.745,0-1.478,0.139-2.176,0.414c-3.047,1.201-4.548,4.655-3.347,7.701c0.9,2.285,3.069,3.763,5.525,3.763
		c0.745,0,1.477-0.14,2.176-0.415c1.475-0.58,2.636-1.701,3.269-3.156c0.428-0.983,0.571-2.04,0.445-3.076l4.417-1.74l0.592,14.593
		c-1.013,0.338-1.921,0.938-2.631,1.771c-1.029,1.208-1.527,2.742-1.401,4.324c0.242,3.066,2.841,5.469,5.913,5.469h0.001
		c0.157,0,0.317-0.007,0.477-0.02c3.262-0.26,5.707-3.125,5.448-6.389c-0.215-2.691-2.244-4.865-4.812-5.357l-1.2-29.632h3.738
		l12.742,12.324c-0.516,0.909-0.787,1.939-0.77,3.011c0.026,1.586,0.668,3.066,1.809,4.169c1.112,1.077,2.579,1.671,4.129,1.671
		c1.624,0,3.139-0.643,4.268-1.81c1.104-1.141,1.696-2.642,1.669-4.227c-0.025-1.586-0.669-3.067-1.809-4.17
		c-1.114-1.077-2.579-1.67-4.128-1.67c-1.11,0-2.164,0.307-3.083,0.868L577.137,5.696h283.146h40.114h238.74h173.035h1.346
		c-8.869,7.045-18.119,13.224-27.107,18.092c-0.949-0.978-2.023-1.834-3.199-2.562c-1.576-3.487-4.136-6.194-7.451-7.829
		c-3.314-1.637-7.02-2.023-10.748-1.155c-3.482-1.32-7.274-1.492-10.871-0.274c-3.51,1.19-6.407,3.545-8.432,6.806
		c-3.385,1.529-6.188,4.079-7.865,7.475c-1.679,3.397-1.998,7.177-1.152,10.794c-1.357,3.587-1.465,7.319-0.277,10.827
		c1.221,3.6,3.664,6.508,6.83,8.47c1.578,3.485,4.137,6.19,7.45,7.825c2.178,1.075,4.521,1.617,6.927,1.617
		c1.258,0,2.531-0.157,3.809-0.454c1.884,0.715,3.858,1.098,5.847,1.098c1.687,0,3.381-0.271,5.036-0.83
		c3.517-1.193,6.422-3.555,8.445-6.827c3.332-1.508,6.092-4.002,7.766-7.292c0.992,0.534,2.072,0.945,3.254,1.2
		c0.689,0.147,1.429,0.216,2.205,0.216c7.859,0,19.402-6.944,19.936-7.269l1.357-0.822l-0.9-1.31
		c-0.388-0.565-9.611-13.873-17.291-15.521c-2.656-0.571-5.14-0.295-7.412,0.79c-0.377-0.915-0.834-1.781-1.363-2.594
		c7.57-4.134,15.31-9.167,22.852-14.852c-0.408,1.963-0.24,4.147,0.973,6.43c2.965,5.572,14.629,9.635,15.948,10.08l1.505,0.507
		l0.422-1.53c0.369-1.345,3.521-13.286,0.555-18.86c-0.451-0.849-0.985-1.598-1.596-2.244h128.2h31.667h128.2
		c-0.61,0.646-1.144,1.396-1.595,2.244c-2.966,5.574,0.186,17.516,0.555,18.86l0.421,1.53l1.505-0.507
		c1.32-0.445,12.984-4.508,15.948-10.08c1.214-2.282,1.381-4.467,0.973-6.43c7.542,5.685,15.281,10.718,22.852,14.852
		c-0.53,0.812-0.987,1.679-1.364,2.594c-2.272-1.085-4.755-1.361-7.412-0.79c-7.679,1.648-16.903,14.956-17.291,15.521l-0.9,1.31
		l1.357,0.822c0.534,0.324,12.077,7.269,19.936,7.269c0.776,0,1.515-0.068,2.205-0.216c1.182-0.255,2.262-0.666,3.254-1.2
		c1.673,3.29,4.434,5.784,7.765,7.292c2.024,3.272,4.929,5.634,8.446,6.827c1.655,0.56,3.349,0.83,5.036,0.83
		c1.988,0,3.963-0.383,5.847-1.098c1.277,0.297,2.551,0.454,3.808,0.454c2.406,0,4.749-0.542,6.927-1.617
		c3.314-1.635,5.872-4.34,7.45-7.825c3.166-1.962,5.609-4.87,6.83-8.47c1.187-3.508,1.08-7.24-0.277-10.827
		c0.846-3.617,0.526-7.396-1.152-10.794c-1.677-3.396-4.481-5.945-7.866-7.475c-2.024-3.261-4.922-5.615-8.431-6.806
		c-3.597-1.218-7.389-1.046-10.871,0.274c-3.729-0.868-7.434-0.481-10.749,1.155c-3.315,1.635-5.874,4.342-7.451,7.829
		c-1.175,0.728-2.25,1.584-3.199,2.562c-8.988-4.868-18.238-11.047-27.107-18.092h1.345h173.036h238.74h40.114h283.146
		l-10.512,10.167c-0.919-0.562-1.973-0.868-3.083-0.868c-1.549,0-3.014,0.593-4.128,1.67c-1.14,1.103-1.783,2.584-1.809,4.17
		c-0.027,1.585,0.565,3.086,1.669,4.227c1.129,1.167,2.644,1.81,4.268,1.81c1.55,0,3.017-0.594,4.129-1.671
		c1.141-1.103,1.782-2.583,1.809-4.169c0.018-1.071-0.254-2.102-0.77-3.011l12.742-12.324h3.738l-1.2,29.632
		c-2.568,0.492-4.598,2.666-4.812,5.357c-0.259,3.264,2.187,6.129,5.448,6.389c0.159,0.013,0.319,0.02,0.477,0.02h0.001
		c3.072,0,5.671-2.402,5.913-5.469c0.126-1.582-0.372-3.116-1.401-4.324c-0.71-0.832-1.618-1.433-2.631-1.771l0.592-14.593
		l4.417,1.74c-0.126,1.036,0.018,2.093,0.445,3.076c0.633,1.455,1.794,2.576,3.269,3.156c0.699,0.275,1.431,0.415,2.176,0.415
		c2.456,0,4.625-1.478,5.525-3.763c1.201-3.046-0.3-6.5-3.347-7.701c-0.698-0.275-1.431-0.414-2.176-0.414
		c-1.938,0-3.688,0.929-4.787,2.441l-5.395-2.124l0.489-12.068h18.791c2.131,10.098,7.148,16.577,7.476,16.991l0.701,0.885
		l1.044-0.429c0.604-0.247,11.995-5.066,19.431-17.447h272.185c-0.429,1.198-0.691,2.295-0.691,3.19
		c0,5.291,4.304,9.595,9.595,9.595c5.29,0,9.595-4.304,9.595-9.595c0-0.896-0.263-1.992-0.691-3.19h202.645h26.002h202.645
		c-0.429,1.198-0.691,2.295-0.691,3.19c0,5.291,4.305,9.595,9.595,9.595c5.291,0,9.595-4.304,9.595-9.595
		c0-0.896-0.263-1.992-0.691-3.19h272.185c7.436,12.381,18.826,17.2,19.431,17.447l1.044,0.429l0.701-0.885
		c0.327-0.414,5.345-6.894,7.476-16.991h18.791l0.489,12.068l-5.395,2.124c-1.1-1.513-2.849-2.441-4.787-2.441
		c-0.745,0-1.478,0.139-2.176,0.414c-3.047,1.201-4.548,4.655-3.347,7.701c0.9,2.285,3.069,3.763,5.525,3.763
		c0.745,0,1.477-0.14,2.176-0.415c1.475-0.58,2.636-1.701,3.269-3.156c0.428-0.983,0.571-2.04,0.445-3.076l4.417-1.74l0.592,14.593
		c-1.013,0.338-1.921,0.938-2.631,1.771c-1.029,1.208-1.527,2.742-1.401,4.324c0.242,3.066,2.841,5.469,5.913,5.469h0.001
		c0.157,0,0.317-0.007,0.477-0.02c3.262-0.26,5.707-3.125,5.448-6.389c-0.215-2.691-2.244-4.865-4.812-5.357l-1.2-29.632h3.738
		l12.742,12.324c-0.516,0.909-0.787,1.939-0.77,3.011c0.026,1.586,0.668,3.066,1.809,4.169c1.112,1.077,2.579,1.671,4.129,1.671
		c1.624,0,3.139-0.643,4.268-1.81c1.104-1.141,1.696-2.642,1.669-4.227c-0.025-1.586-0.669-3.067-1.809-4.17
		c-1.114-1.077-2.579-1.67-4.128-1.67c-1.11,0-2.164,0.307-3.083,0.868l-10.512-10.167h283.146h40.114h238.74h173.035h1.346
		c-8.869,7.045-18.119,13.224-27.107,18.092c-0.949-0.978-2.023-1.834-3.199-2.562c-1.576-3.487-4.136-6.194-7.451-7.829
		c-3.314-1.637-7.02-2.023-10.748-1.155c-3.482-1.32-7.274-1.492-10.871-0.274c-3.51,1.19-6.407,3.545-8.432,6.806
		c-3.385,1.529-6.188,4.079-7.865,7.475c-1.679,3.397-1.998,7.177-1.152,10.794c-1.357,3.587-1.465,7.319-0.277,10.827
		c1.221,3.6,3.664,6.508,6.83,8.47c1.578,3.485,4.137,6.19,7.45,7.825c2.178,1.075,4.521,1.617,6.927,1.617
		c1.258,0,2.531-0.157,3.809-0.454c1.884,0.715,3.858,1.098,5.847,1.098c1.687,0,3.381-0.271,5.036-0.83
		c3.517-1.193,6.422-3.555,8.445-6.827c3.332-1.508,6.092-4.002,7.766-7.292c0.992,0.534,2.072,0.945,3.254,1.2
		c0.689,0.147,1.429,0.216,2.205,0.216c7.859,0,19.402-6.944,19.936-7.269l1.357-0.822l-0.9-1.31
		c-0.388-0.565-9.611-13.873-17.291-15.521c-2.656-0.571-5.14-0.295-7.412,0.79c-0.377-0.915-0.834-1.781-1.363-2.594
		c7.57-4.134,15.31-9.167,22.852-14.852c-0.408,1.963-0.24,4.147,0.973,6.43c2.965,5.572,14.629,9.635,15.948,10.08l1.505,0.507
		l0.422-1.53c0.369-1.345,3.521-13.286,0.555-18.86c-0.451-0.849-0.985-1.598-1.596-2.244h159.867v-2.82h-945.229L3464.611,3.464z
		 M237.55,15.481c-3.637,0-6.595-2.958-6.595-6.595c0-0.772,0.343-1.891,0.897-3.19h11.394c0.556,1.3,0.898,2.418,0.898,3.19
		C244.145,12.523,241.187,15.481,237.55,15.481z M531.127,15.293l2.951-5.042l2.256,8.625
		C534.925,18.057,533.104,16.869,531.127,15.293z M539.236,18.117l-2.255-8.624l5.045,2.953
		C541.073,14.789,540.064,16.711,539.236,18.117z M559.083,24.558c-0.312,0.72-0.886,1.274-1.615,1.562
		c-0.349,0.137-0.711,0.206-1.077,0.206c-1.216,0-2.289-0.731-2.734-1.862c-0.594-1.507,0.149-3.217,1.656-3.811
		c0.346-0.137,0.708-0.205,1.075-0.205c1.216,0,2.289,0.73,2.734,1.862C559.41,23.04,559.396,23.838,559.083,24.558z
		 M569.181,38.218c1.519,0,2.804,1.188,2.925,2.705c0.128,1.614-1.082,3.032-2.697,3.161c-1.616,0.126-3.035-1.101-3.161-2.696
		c-0.062-0.783,0.185-1.543,0.694-2.14c0.508-0.597,1.219-0.959,2.002-1.021C569.023,38.221,569.103,38.218,569.181,38.218z
		 M588.621,18.891c0.559-0.578,1.308-0.896,2.11-0.896c0.766,0,1.491,0.293,2.042,0.826c0.564,0.546,0.883,1.279,0.896,2.063
		c0.014,0.784-0.279,1.526-0.825,2.091c-0.56,0.577-1.31,0.896-2.112,0.896c-0.768,0-1.492-0.294-2.043-0.827
		c-0.565-0.545-0.882-1.277-0.896-2.062C587.781,20.198,588.074,19.455,588.621,18.891z M1289.823,40.865l13.598,2.921l0.629-2.934
		l-13.526-2.905c0.437-2.099,0.442-4.214,0.03-6.28c1.783-0.966,3.762-1.226,5.901-0.764c4.843,1.039,11.411,8.783,14.507,12.969
		c-4.543,2.547-13.717,6.91-18.553,5.87c-1.033-0.222-1.966-0.586-2.79-1.076C1290.331,46.131,1290.378,43.464,1289.823,40.865z
		 M1274.433,16.087c1.513,0.746,2.828,1.778,3.926,3.039c-1.617-0.436-3.329-0.659-5.096-0.668
		c-1.082-1.397-2.301-2.621-3.631-3.639C1271.302,14.923,1272.921,15.339,1274.433,16.087z M1271.623,22.099
		c6.623,3.27,10.313,10.249,9.417,17.429l-3.893-1.922c-0.436-4.644-3.18-8.967-7.66-11.18c-1.934-0.955-3.997-1.438-6.139-1.438
		c-2.699,0-5.256,0.764-7.428,2.137l-3.859-1.906C1257.218,20.142,1265.003,18.829,1271.623,22.099z M1265.606,46.002l0.267,3.447
		c-0.823,0.195-1.67,0.319-2.544,0.319c-1.676,0-3.295-0.38-4.811-1.128c-3.627-1.79-5.809-5.346-6.037-9.119L1265.606,46.002z
		 M1258.855,39.323l5.936-3.867l0.546,7.068L1258.855,39.323z M1255.729,37.78l-2.965-1.465c0.185-0.765,0.449-1.522,0.812-2.257
		c1.849-3.745,5.595-6.071,9.772-6.071c1.677,0,3.295,0.379,4.81,1.127c0.162,0.08,0.312,0.174,0.468,0.261L1255.729,37.78z
		 M1271.151,31.312c3.105,3.215,4.039,8.155,1.949,12.387c-0.977,1.978-2.489,3.543-4.307,4.596l-1.139-14.705L1271.151,31.312z
		 M1255.104,14.81c4.617-1.565,9.656-0.312,13.51,3.053c-3.193-0.756-6.469-0.707-9.566,0.087c-2.799-0.794-5.608-0.979-8.26-0.619
		C1252.048,16.213,1253.496,15.354,1255.104,14.81z M1240.533,27.576c2.366-4.79,7.517-7.528,13.202-7.419
		c-1.965,1.179-3.76,2.708-5.284,4.576l-1.19,1.459l6.107,3.017c-0.984,1.021-1.829,2.198-2.482,3.521
		c-0.645,1.306-1.062,2.665-1.271,4.034l-6.087-3.006l-0.435,1.831c-0.559,2.347-0.681,4.701-0.422,6.979
		C1239.126,38.121,1238.169,32.367,1240.533,27.576z M1239.257,46.906c-0.543-1.606-0.742-3.278-0.621-4.957
		c1.326,2.322,3.18,4.439,5.513,6.178c1.252,2.944,3.206,5.575,5.751,7.652C1244.882,54.767,1240.823,51.522,1239.257,46.906z
		 M1252.023,61.475c-1.515-0.747-2.832-1.781-3.931-3.045c1.619,0.437,3.326,0.677,5.095,0.686c1.079,1.398,2.307,2.611,3.636,3.63
		C1255.155,62.641,1253.537,62.223,1252.023,61.475z M1255.089,55.589c-6.623-3.269-10.312-10.247-9.418-17.427l3.851,1.901
		c0.409,4.677,3.159,9.042,7.669,11.267c1.932,0.954,3.998,1.438,6.139,1.438c2.73,0,5.312-0.783,7.501-2.185l3.819,1.886
		C1269.495,57.546,1261.712,58.859,1255.089,55.589z M1271.351,62.753c-4.569,1.548-9.545,0.334-13.381-2.946
		c1.569,0.382,3.158,0.574,4.738,0.576c1.719,0,3.424-0.229,5.076-0.664c1.75,0.462,3.506,0.695,5.223,0.695
		c0.901,0,1.791-0.066,2.666-0.187C1274.411,61.348,1272.962,62.207,1271.351,62.753z M1285.923,49.986
		c-2.285,4.626-7.232,7.359-12.729,7.418c1.88-1.161,3.598-2.65,5.066-4.45l1.188-1.46l-6.084-3.004
		c0.96-1.007,1.785-2.166,2.425-3.464c0.658-1.331,1.075-2.718,1.28-4.113l6.114,3.019l0.436-1.832
		c0.537-2.261,0.671-4.529,0.449-6.729C1287.363,39.772,1288.204,45.364,1285.923,49.986z M1287.82,35.634
		c-1.269-2.234-3.022-4.278-5.216-5.977c-1.27-3.027-3.28-5.728-5.909-7.842c4.952,1.043,8.952,4.264,10.504,8.843
		C1287.746,32.271,1287.944,33.948,1287.82,35.634z M1327.511,24.426c-3.945-1.513-10.953-4.754-12.729-8.09
		c-2.118-3.981,0.273-7.333,1.934-9.012l6.896,12.965l2.649-1.408l-6.889-12.947c0.614-0.111,1.348-0.201,2.139-0.201
		c2.974,0,5.127,1.217,6.404,3.616C1329.69,12.688,1328.462,20.31,1327.511,24.426z M1653.594,49.742
		c-4.836,1.04-14.009-3.323-18.552-5.87c3.095-4.186,9.663-11.93,14.506-12.969c2.14-0.462,4.119-0.202,5.901,0.764
		c-0.412,2.066-0.406,4.182,0.031,6.28l-13.527,2.905l0.63,2.934l13.597-2.921c-0.555,2.599-0.508,5.266,0.204,7.801
		C1655.56,49.156,1654.627,49.521,1653.594,49.742z M1660.081,49.986c-2.282-4.622-1.441-10.214,1.853-14.615
		c-0.222,2.199-0.088,4.468,0.449,6.729l0.435,1.832l6.115-3.019c0.205,1.396,0.622,2.782,1.28,4.113
		c0.64,1.298,1.465,2.457,2.425,3.464l-6.084,3.004l1.189,1.46c1.468,1.8,3.186,3.289,5.066,4.45
		C1667.312,57.346,1662.365,54.612,1660.081,49.986z M1693.521,39.521c-0.229,3.773-2.41,7.329-6.037,9.119
		c-1.516,0.748-3.135,1.128-4.811,1.128c-0.874,0-1.721-0.124-2.544-0.319l0.267-3.447L1693.521,39.521z M1680.666,42.524
		l0.546-7.068l5.936,3.867L1680.666,42.524z M1690.273,37.78l-12.897-8.405c0.156-0.087,0.306-0.181,0.468-0.261
		c1.515-0.748,3.133-1.127,4.809-1.127c4.179,0,7.924,2.326,9.773,6.071c0.363,0.734,0.627,1.492,0.812,2.257L1690.273,37.78z
		 M1678.348,33.589l-1.138,14.705c-1.818-1.053-3.331-2.618-4.307-4.596c-2.09-4.231-1.156-9.172,1.949-12.387L1678.348,33.589z
		 M1674.653,62.753c-1.611-0.546-3.061-1.405-4.322-2.525c0.874,0.12,1.764,0.187,2.666,0.187c1.716,0,3.472-0.233,5.222-0.695
		c1.653,0.435,3.357,0.664,5.076,0.664c1.58-0.002,3.169-0.194,4.738-0.576C1684.197,63.087,1679.222,64.301,1674.653,62.753z
		 M1671.354,52.47l3.819-1.886c2.189,1.401,4.771,2.185,7.501,2.185c2.141,0,4.207-0.484,6.139-1.438
		c4.509-2.225,7.26-6.59,7.669-11.267l3.85-1.901c0.894,7.18-2.795,14.158-9.417,17.427
		C1684.292,58.859,1676.508,57.546,1671.354,52.47z M1693.979,61.475c-1.514,0.748-3.132,1.166-4.8,1.271
		c1.329-1.019,2.556-2.231,3.636-3.63c1.768-0.009,3.476-0.249,5.094-0.686C1696.812,59.693,1695.495,60.728,1693.979,61.475z
		 M1706.746,46.906c-1.566,4.616-5.625,7.86-10.642,8.873c2.545-2.077,4.499-4.708,5.751-7.652c2.333-1.738,4.187-3.855,5.513-6.178
		C1707.489,43.628,1707.29,45.3,1706.746,46.906z M1705.47,27.576c2.365,4.791,1.407,10.545-2.138,14.993
		c0.259-2.278,0.137-4.633-0.421-6.979l-0.435-1.831l-6.087,3.006c-0.21-1.369-0.627-2.729-1.272-4.034
		c-0.653-1.323-1.497-2.5-2.482-3.521l6.107-3.017l-1.19-1.459c-1.524-1.868-3.319-3.397-5.284-4.576
		C1697.953,20.048,1703.104,22.786,1705.47,27.576z M1690.898,14.81c1.608,0.545,3.056,1.403,4.316,2.521
		c-2.651-0.359-5.461-0.175-8.26,0.619c-3.097-0.794-6.372-0.843-9.566-0.087C1681.242,14.498,1686.281,13.244,1690.898,14.81z
		 M1693.942,25.218l-3.859,1.906c-2.173-1.373-4.729-2.137-7.429-2.137c-2.141,0-4.205,0.483-6.138,1.438
		c-4.48,2.213-7.224,6.536-7.66,11.18l-3.893,1.922c-0.896-7.18,2.794-14.159,9.417-17.429
		C1681,18.829,1688.785,20.142,1693.942,25.218z M1671.57,16.087c1.512-0.748,3.131-1.164,4.801-1.268
		c-1.33,1.018-2.549,2.241-3.63,3.639c-1.767,0.009-3.479,0.232-5.096,0.668C1668.743,17.865,1670.058,16.833,1671.57,16.087z
		 M1658.804,30.658c1.552-4.579,5.552-7.8,10.504-8.843c-2.629,2.114-4.64,4.814-5.909,7.842c-2.193,1.698-3.948,3.742-5.216,5.977
		C1658.059,33.948,1658.257,32.271,1658.804,30.658z M1631.221,16.336c-1.775,3.336-8.783,6.577-12.728,8.09
		c-0.951-4.116-2.18-11.738-0.405-15.077c1.277-2.399,3.431-3.616,6.404-3.616c0.792,0,1.525,0.09,2.139,0.201l-6.888,12.947
		l2.649,1.408l6.896-12.965C1630.947,9.003,1633.339,12.354,1631.221,16.336z M2357.314,23.044
		c-0.551,0.533-1.275,0.827-2.043,0.827c-0.803,0-1.553-0.318-2.112-0.896c-0.546-0.564-0.839-1.307-0.825-2.091
		c0.013-0.784,0.331-1.518,0.896-2.063c0.551-0.533,1.276-0.826,2.042-0.826c0.803,0,1.552,0.317,2.11,0.896
		c0.547,0.564,0.84,1.308,0.828,2.092C2358.196,21.767,2357.88,22.499,2357.314,23.044z M2379.062,39.248
		c0.51,0.597,0.756,1.356,0.694,2.14c-0.126,1.596-1.545,2.822-3.161,2.696c-1.615-0.129-2.825-1.547-2.697-3.161
		c0.121-1.518,1.406-2.705,2.925-2.705c0.078,0,0.157,0.003,0.237,0.009C2377.843,38.289,2378.554,38.651,2379.062,39.248z
		 M2386.881,22.31c0.445-1.132,1.519-1.862,2.734-1.862c0.367,0,0.729,0.068,1.075,0.205c1.507,0.594,2.25,2.304,1.656,3.811
		c-0.445,1.131-1.519,1.862-2.734,1.862c-0.366,0-0.729-0.069-1.077-0.206c-0.729-0.287-1.304-0.842-1.615-1.562
		C2386.606,23.838,2386.593,23.04,2386.881,22.31z M2406.767,18.117c-0.828-1.406-1.837-3.328-2.79-5.671l5.045-2.953
		L2406.767,18.117z M2409.669,18.876l2.256-8.625l2.951,5.042C2412.899,16.869,2411.078,18.057,2409.669,18.876z M2708.453,15.481
		c-3.637,0-6.595-2.958-6.595-6.595c0-0.772,0.343-1.891,0.898-3.19h11.394c0.555,1.3,0.897,2.418,0.897,3.19
		C2715.048,12.523,2712.09,15.481,2708.453,15.481z M3157.551,15.481c-3.637,0-6.595-2.958-6.595-6.595
		c0-0.772,0.343-1.891,0.897-3.19h11.394c0.556,1.3,0.898,2.418,0.898,3.19C3164.146,12.523,3161.188,15.481,3157.551,15.481z
		 M3451.128,15.293l2.951-5.042l2.256,8.625C3454.926,18.057,3453.104,16.869,3451.128,15.293z M3459.237,18.117l-2.255-8.624
		l5.045,2.953C3461.074,14.789,3460.065,16.711,3459.237,18.117z M3479.084,24.558c-0.312,0.72-0.886,1.274-1.615,1.562
		c-0.349,0.137-0.711,0.206-1.077,0.206c-1.216,0-2.289-0.731-2.734-1.862c-0.594-1.507,0.149-3.217,1.656-3.811
		c0.346-0.137,0.708-0.205,1.075-0.205c1.216,0,2.289,0.73,2.734,1.862C3479.411,23.04,3479.397,23.838,3479.084,24.558z
		 M3508.622,18.891c0.559-0.578,1.308-0.896,2.11-0.896c0.766,0,1.491,0.293,2.042,0.826c0.564,0.546,0.883,1.279,0.896,2.063
		c0.014,0.784-0.279,1.526-0.825,2.091c-0.56,0.577-1.31,0.896-2.112,0.896c-0.768,0-1.492-0.294-2.043-0.827
		c-0.565-0.545-0.882-1.277-0.896-2.062C3507.782,20.198,3508.075,19.455,3508.622,18.891z M4209.824,40.865l13.598,2.921
		l0.629-2.934l-13.526-2.905c0.437-2.099,0.442-4.214,0.03-6.28c1.783-0.966,3.762-1.226,5.901-0.764
		c4.843,1.039,11.411,8.783,14.507,12.969c-4.543,2.547-13.717,6.91-18.553,5.87c-1.033-0.222-1.966-0.586-2.79-1.076
		C4210.332,46.131,4210.379,43.464,4209.824,40.865z M4194.434,16.087c1.513,0.746,2.828,1.778,3.926,3.039
		c-1.617-0.436-3.329-0.659-5.096-0.668c-1.082-1.397-2.301-2.621-3.631-3.639C4191.303,14.923,4192.922,15.339,4194.434,16.087z
		 M4191.624,22.099c6.623,3.27,10.313,10.249,9.417,17.429l-3.893-1.922c-0.436-4.644-3.18-8.967-7.66-11.18
		c-1.934-0.955-3.997-1.438-6.139-1.438c-2.699,0-5.256,0.764-7.428,2.137l-3.859-1.906
		C4177.219,20.142,4185.004,18.829,4191.624,22.099z M4185.607,46.002l0.267,3.447c-0.823,0.195-1.67,0.319-2.544,0.319
		c-1.676,0-3.295-0.38-4.811-1.128c-3.627-1.79-5.809-5.346-6.037-9.119L4185.607,46.002z M4178.856,39.323l5.936-3.867l0.546,7.068
		L4178.856,39.323z M4175.73,37.78l-2.965-1.465c0.185-0.765,0.449-1.522,0.812-2.257c1.849-3.745,5.595-6.071,9.772-6.071
		c1.677,0,3.295,0.379,4.81,1.127c0.162,0.08,0.312,0.174,0.468,0.261L4175.73,37.78z M4191.152,31.312
		c3.105,3.215,4.039,8.155,1.949,12.387c-0.977,1.978-2.489,3.543-4.307,4.596l-1.139-14.705L4191.152,31.312z M4175.105,14.81
		c4.617-1.565,9.656-0.312,13.51,3.053c-3.193-0.756-6.469-0.707-9.566,0.087c-2.799-0.794-5.608-0.979-8.26-0.619
		C4172.049,16.213,4173.497,15.354,4175.105,14.81z M4160.534,27.576c2.366-4.79,7.517-7.528,13.202-7.419
		c-1.965,1.179-3.76,2.708-5.284,4.576l-1.19,1.459l6.107,3.017c-0.984,1.021-1.829,2.198-2.482,3.521
		c-0.645,1.306-1.062,2.665-1.271,4.034l-6.087-3.006l-0.435,1.831c-0.559,2.347-0.681,4.701-0.422,6.979
		C4159.127,38.121,4158.17,32.367,4160.534,27.576z M4159.258,46.906c-0.543-1.606-0.742-3.278-0.621-4.957
		c1.326,2.322,3.18,4.439,5.513,6.178c1.252,2.944,3.206,5.575,5.751,7.652C4164.883,54.767,4160.824,51.522,4159.258,46.906z
		 M4172.024,61.475c-1.515-0.747-2.832-1.781-3.931-3.045c1.619,0.437,3.326,0.677,5.095,0.686c1.079,1.398,2.307,2.611,3.636,3.63
		C4175.156,62.641,4173.538,62.223,4172.024,61.475z M4175.09,55.589c-6.623-3.269-10.312-10.247-9.418-17.427l3.851,1.901
		c0.409,4.677,3.159,9.042,7.669,11.267c1.932,0.954,3.998,1.438,6.139,1.438c2.73,0,5.312-0.783,7.501-2.185l3.819,1.886
		C4189.496,57.546,4181.713,58.859,4175.09,55.589z M4191.352,62.753c-4.569,1.548-9.545,0.334-13.381-2.946
		c1.569,0.382,3.158,0.574,4.738,0.576c1.719,0,3.424-0.229,5.076-0.664c1.75,0.462,3.506,0.695,5.223,0.695
		c0.901,0,1.791-0.066,2.666-0.187C4194.412,61.348,4192.963,62.207,4191.352,62.753z M4205.924,49.986
		c-2.285,4.626-7.232,7.359-12.729,7.418c1.88-1.161,3.598-2.65,5.066-4.45l1.188-1.46l-6.084-3.004
		c0.96-1.007,1.785-2.166,2.425-3.464c0.658-1.331,1.075-2.718,1.28-4.113l6.114,3.019l0.436-1.832
		c0.537-2.261,0.671-4.529,0.449-6.729C4207.364,39.772,4208.205,45.364,4205.924,49.986z M4207.821,35.634
		c-1.269-2.234-3.022-4.278-5.216-5.977c-1.27-3.027-3.28-5.728-5.909-7.842c4.952,1.043,8.952,4.264,10.504,8.843
		C4207.747,32.271,4207.945,33.948,4207.821,35.634z M4236.717,7.324l6.896,12.965l2.649-1.408l-6.889-12.947
		c0.614-0.111,1.348-0.201,2.139-0.201c2.974,0,5.127,1.217,6.404,3.616c1.775,3.339,0.547,10.961-0.404,15.077
		c-3.945-1.513-10.953-4.754-12.729-8.09C4232.665,12.354,4235.057,9.003,4236.717,7.324z M3489.182,38.218
		c1.519,0,2.804,1.188,2.925,2.705c0.128,1.614-1.082,3.032-2.697,3.161c-1.616,0.126-3.035-1.101-3.161-2.696
		c-0.062-0.783,0.185-1.543,0.694-2.14c0.508-0.597,1.219-0.959,2.002-1.021C3489.024,38.221,3489.104,38.218,3489.182,38.218z"/>
	<path fill="#231F20" d="M3157.551,35.592l-1.219,1.693c-0.856,1.192-8.376,11.787-8.376,16.602c0,5.291,4.305,9.595,9.595,9.595
		c5.291,0,9.595-4.304,9.595-9.595c0-4.814-7.521-15.409-8.377-16.602L3157.551,35.592z M3157.551,60.481
		c-3.637,0-6.595-2.958-6.595-6.595c0-2.537,3.656-8.768,6.595-13.103c2.938,4.336,6.595,10.568,6.595,13.103
		C3164.146,57.523,3161.188,60.481,3157.551,60.481z"/>
	<path fill="#231F20" d="M3797.055,13.876c-1.793,0-3.252,1.459-3.252,3.252s1.459,3.252,3.252,3.252s3.252-1.459,3.252-3.252
		S3798.848,13.876,3797.055,13.876z M3796.803,17.128c0-0.139,0.113-0.252,0.252-0.252c0.14,0,0.252,0.113,0.252,0.252
		C3797.307,17.405,3796.803,17.405,3796.803,17.128z"/>
	<path fill="#231F20" d="M3827.055,41.876c-1.793,0-3.252,1.459-3.252,3.252s1.459,3.252,3.252,3.252s3.252-1.459,3.252-3.252
		S3828.848,41.876,3827.055,41.876z M3826.803,45.128c0-0.139,0.113-0.252,0.252-0.252c0.14,0,0.252,0.113,0.252,0.252
		C3827.307,45.405,3826.803,45.405,3826.803,45.128z"/>
	<path fill="#231F20" d="M3777.055,29.876c-1.793,0-3.252,1.459-3.252,3.252s1.459,3.252,3.252,3.252s3.252-1.459,3.252-3.252
		S3778.848,29.876,3777.055,29.876z M3776.803,33.128c0-0.139,0.113-0.252,0.252-0.252c0.14,0,0.252,0.113,0.252,0.252
		C3777.307,33.405,3776.803,33.405,3776.803,33.128z"/>
	<path fill="#231F20" d="M3355.753,9.216l-1.054,0.404c-0.856,0.328-21.014,8.3-27.629,31.41
		c-6.614,23.112,6.272,40.542,6.824,41.272l0.682,0.9l1.054-0.404c0.854-0.328,21.012-8.3,27.627-31.411s-6.272-40.541-6.824-41.271
		L3355.753,9.216z M3352.873,13.823l-2.381,8.318l-15.717,8.723C3340.553,21.408,3348.615,16.121,3352.873,13.823z M3329.956,41.856
		c0.626-2.188,1.392-4.229,2.256-6.139l17.113-9.498l-2.764,9.654l-17.501,9.711C3329.302,44.36,3329.595,43.117,3329.956,41.856z
		 M3328.493,49.331l16.901-9.38l-2.763,9.654l-14.274,7.922C3328.163,54.939,3328.181,52.198,3328.493,49.331z M3328.714,60.76
		l12.75-7.076l-2.763,9.654l-8.35,4.633C3329.679,65.788,3329.098,63.373,3328.714,60.76z M3334.57,77.77
		c-0.941-1.649-2.135-3.996-3.234-6.914l6.198-3.439L3334.57,77.77z M3337.455,78.596l2.964-10.353l3.438,6.195
		C3341.381,76.335,3339.127,77.694,3337.455,78.596z M3346.219,72.512l-4.633-8.348l2.763-9.654l7.076,12.75
		C3349.716,69.275,3347.945,71.016,3346.219,72.512z M3353.437,64.705l-7.92-14.274l2.764-9.652l9.379,16.899
		C3356.407,60.276,3354.971,62.613,3353.437,64.705z M3360.372,50.562c-0.361,1.261-0.771,2.47-1.214,3.638l-9.711-17.5l2.763-9.652
		l9.496,17.112C3361.428,46.237,3360.998,48.373,3360.372,50.562z M3353.377,22.968l2.381-8.319
		c2.398,4.203,6.44,12.955,6.34,24.034L3353.377,22.968z"/>
	<path fill="#231F20" d="M3369.117,16.033l-1.281,0.033l-0.288,1.089c-0.138,0.529-3.274,13.083,5.63,24.306
		c8.49,10.701,20.847,11.011,22.229,11.011l1.281-0.033l0.288-1.09c0.139-0.528,3.275-13.082-5.629-24.305
		C3382.856,16.342,3370.498,16.033,3369.117,16.033z M3388.998,28.909c0.167,0.211,0.31,0.425,0.468,0.637l-9.931-1.145
		l-2.537-3.198l9.628,1.108C3387.44,27.094,3388.237,27.951,3388.998,28.909z M3371.146,31.247
		c-1.214-3.95-1.313-7.567-1.146-10.037l2.01,2.533L3371.146,31.247z M3372.34,19.332c2.472,0.392,5.984,1.309,9.568,3.417
		l-7.549-0.87L3372.34,19.332z M3376.042,40.197c-0.171-0.202-0.348-0.391-0.516-0.602c-0.76-0.958-1.413-1.931-1.987-2.906
		l1.107-9.623l2.539,3.2L3376.042,40.197z M3381.417,45.005c-0.901-0.6-1.795-1.279-2.673-2.049l1.078-9.365l2.54,3.201
		L3381.417,45.005z M3387.017,47.833c-0.895-0.326-1.823-0.722-2.769-1.19l0.751-6.526l2.539,3.199L3387.017,47.833z
		 M3389.935,48.725l0.24-2.086l2.015,2.54C3391.511,49.07,3390.756,48.926,3389.935,48.725z M3394.524,47.295l-2-2.521l2.063,0.237
		C3394.598,45.852,3394.57,46.613,3394.524,47.295z M3394.38,41.968l-4.492-0.517l-2.539-3.2l6.503,0.749
		C3394.093,40.027,3394.266,41.021,3394.38,41.968z M3392.907,35.871l-8.195-0.944l-2.539-3.201l9.357,1.078
		C3392.076,33.833,3392.532,34.857,3392.907,35.871z"/>
	<path fill="#231F20" d="M237.55,35.592l-1.219,1.693c-0.856,1.192-8.376,11.787-8.376,16.602c0,5.291,4.305,9.595,9.595,9.595
		c5.291,0,9.595-4.304,9.595-9.595c0-4.814-7.521-15.409-8.377-16.602L237.55,35.592z M237.55,60.481
		c-3.637,0-6.595-2.958-6.595-6.595c0-2.537,3.656-8.768,6.595-13.103c2.938,4.336,6.595,10.568,6.595,13.103
		C244.145,57.523,241.187,60.481,237.55,60.481z"/>
	<path fill="#231F20" d="M877.054,13.876c-1.793,0-3.252,1.459-3.252,3.252s1.459,3.252,3.252,3.252s3.252-1.459,3.252-3.252
		S878.847,13.876,877.054,13.876z M876.802,17.128c0-0.139,0.113-0.252,0.252-0.252c0.14,0,0.252,0.113,0.252,0.252
		C877.306,17.405,876.802,17.405,876.802,17.128z"/>
	<path fill="#231F20" d="M907.054,41.876c-1.793,0-3.252,1.459-3.252,3.252s1.459,3.252,3.252,3.252s3.252-1.459,3.252-3.252
		S908.847,41.876,907.054,41.876z M906.802,45.128c0-0.139,0.113-0.252,0.252-0.252c0.14,0,0.252,0.113,0.252,0.252
		C907.306,45.405,906.802,45.405,906.802,45.128z"/>
	<path fill="#231F20" d="M857.054,29.876c-1.793,0-3.252,1.459-3.252,3.252s1.459,3.252,3.252,3.252s3.252-1.459,3.252-3.252
		S858.847,29.876,857.054,29.876z M856.802,33.128c0-0.139,0.113-0.252,0.252-0.252c0.14,0,0.252,0.113,0.252,0.252
		C857.306,33.405,856.802,33.405,856.802,33.128z"/>
	<path fill="#231F20" d="M435.752,9.216l-1.054,0.404c-0.856,0.328-21.014,8.3-27.629,31.41
		c-6.614,23.112,6.272,40.542,6.824,41.272l0.682,0.9l1.054-0.404c0.854-0.328,21.012-8.3,27.627-31.411s-6.272-40.541-6.824-41.271
		L435.752,9.216z M432.872,13.823l-2.381,8.318l-15.717,8.723C420.552,21.408,428.614,16.121,432.872,13.823z M409.955,41.856
		c0.626-2.188,1.392-4.229,2.256-6.139l17.113-9.498l-2.764,9.654l-17.501,9.711C409.301,44.36,409.594,43.117,409.955,41.856z
		 M408.492,49.331l16.901-9.38l-2.763,9.654l-14.274,7.922C408.162,54.939,408.18,52.198,408.492,49.331z M408.713,60.76
		l12.75-7.076l-2.763,9.654l-8.35,4.633C409.678,65.788,409.097,63.373,408.713,60.76z M414.569,77.77
		c-0.941-1.649-2.135-3.996-3.234-6.914l6.198-3.439L414.569,77.77z M417.454,78.596l2.964-10.353l3.438,6.195
		C421.38,76.335,419.126,77.694,417.454,78.596z M426.218,72.512l-4.633-8.348l2.763-9.654l7.076,12.75
		C429.715,69.275,427.944,71.016,426.218,72.512z M433.436,64.705l-7.92-14.274l2.764-9.652l9.379,16.899
		C436.406,60.276,434.97,62.613,433.436,64.705z M440.371,50.562c-0.361,1.261-0.771,2.47-1.214,3.638l-9.711-17.5l2.763-9.652
		l9.496,17.112C441.427,46.237,440.997,48.373,440.371,50.562z M433.376,22.968l2.381-8.319c2.398,4.203,6.44,12.955,6.34,24.034
		L433.376,22.968z"/>
	<path fill="#231F20" d="M449.116,16.033l-1.281,0.033l-0.288,1.089c-0.138,0.529-3.274,13.083,5.63,24.306
		c8.49,10.701,20.847,11.011,22.229,11.011l1.281-0.033l0.288-1.09c0.139-0.528,3.275-13.082-5.629-24.305
		C462.855,16.342,450.497,16.033,449.116,16.033z M468.997,28.909c0.167,0.211,0.31,0.425,0.468,0.637l-9.931-1.145l-2.537-3.198
		l9.628,1.108C467.439,27.094,468.236,27.951,468.997,28.909z M451.145,31.247c-1.214-3.95-1.313-7.567-1.146-10.037l2.01,2.533
		L451.145,31.247z M452.339,19.332c2.472,0.392,5.984,1.309,9.568,3.417l-7.549-0.87L452.339,19.332z M456.041,40.197
		c-0.171-0.202-0.348-0.391-0.516-0.602c-0.76-0.958-1.413-1.931-1.987-2.906l1.107-9.623l2.539,3.2L456.041,40.197z
		 M461.416,45.005c-0.901-0.6-1.795-1.279-2.673-2.049l1.078-9.365l2.54,3.201L461.416,45.005z M467.016,47.833
		c-0.895-0.326-1.823-0.722-2.769-1.19l0.751-6.526l2.539,3.199L467.016,47.833z M469.934,48.725l0.24-2.086l2.015,2.54
		C471.51,49.07,470.755,48.926,469.934,48.725z M474.523,47.295l-2-2.521l2.063,0.237C474.597,45.852,474.569,46.613,474.523,47.295
		z M474.379,41.968l-4.492-0.517l-2.539-3.2L473.851,39C474.092,40.027,474.265,41.021,474.379,41.968z M472.906,35.871
		l-8.195-0.944l-2.539-3.201l9.357,1.078C472.075,33.833,472.531,34.857,472.906,35.871z"/>
	<path fill="#FFFFFF" d="M1321.864,2.696h0.354l-0.002-0.304C1322.099,2.494,1321.982,2.596,1321.864,2.696z"/>
	<path fill="#FFFFFF" d="M1623.786,2.696h0.353c-0.118-0.101-0.235-0.202-0.352-0.304L1623.786,2.696z"/>
	<path fill="#FFFFFF" d="M388.124,2.696h4.251c-0.786-0.45-1.505-1.02-2.125-1.696C389.63,1.677,388.912,2.246,388.124,2.696z"/>
	<polygon fill="#FFFFFF" points="568.961,2.696 569.72,2.696 568.931,1.934 	"/>
	<path fill="#FFFFFF" d="M4241.865,2.696h0.354l-0.002-0.304C4242.1,2.494,4241.983,2.596,4241.865,2.696z"/>
	<polygon fill="#FFFFFF" points="3488.962,2.696 3489.721,2.696 3488.932,1.934 	"/>
	<polygon fill="#FFFFFF" points="2377.042,2.696 2377.072,1.934 2376.283,2.696 	"/>
</g>
</svg>
