<?xml version="1.0" encoding="utf-8"?>
<!-- Generator: Adobe Illustrator 16.0.0, SVG Export Plug-In . SVG Version: 6.00 Build 0)  -->
<!DOCTYPE svg PUBLIC "-//W3C//DTD SVG 1.1//EN" "http://www.w3.org/Graphics/SVG/1.1/DTD/svg11.dtd">
<svg version="1.1" id="Layer_1" xmlns="http://www.w3.org/2000/svg" xmlns:xlink="http://www.w3.org/1999/xlink" x="0px" y="0px"
	 width="612px" height="792px" viewBox="0 0 612 792" enable-background="new 0 0 612 792" xml:space="preserve">
<path fill="#222222" d="M527.658,127.879l-3.41-7.673h-50.3L516.575,9.378L492.704,0l-46.037,120.207H87.752l-4.263,7.673
	C51.094,198.64,44.273,252.349,61.324,293.27c22.166,51.152,77.58,70.76,127.027,87.811c51.152,17.903,82.695,29.838,82.695,59.677
	v252.349l-0.853,17.903c-121.912,15.346-131.29,55.414-131.29,68.202V792h333.339v-12.788c0-11.936-9.378-52.856-131.289-68.202
	l-0.853-17.051V440.758c0-29.839,31.543-42.627,82.695-59.677c49.446-17.05,104.861-35.806,127.026-87.811
	C566.874,252.349,560.054,197.787,527.658,127.879z M507.197,145.783c5.968,12.788,10.23,25.576,14.493,37.511h-72.466
	l14.493-37.511H507.197z M436.438,145.783l-14.493,37.511H89.458c3.41-11.936,8.525-23.871,14.493-37.511H436.438z M437.289,765.571
	H173.858c18.756-13.64,64.792-25.575,106.566-30.69h14.493l1.705-41.774V440.758c0-2.558,0-5.115-0.853-7.673
	c3.41,0.853,5.968,0.853,9.378,0.853s5.968,0,9.378-0.853c0,2.558-0.853,5.115-0.853,7.673v254.054l1.705,40.922h14.493
	C373.35,739.996,418.534,752.783,437.289,765.571z M525.953,283.04c-17.903,40.921-65.646,57.972-111.682,73.317
	c-32.396,11.083-65.645,23.018-84.4,43.479c-23.871,16.198-44.332,3.41-48.595,0c-18.755-21.313-52.004-32.396-84.4-43.479
	c-46.036-15.346-93.778-32.396-111.681-73.317c-8.525-19.608-9.378-44.332-2.558-75.023h329.929l-23.871,62.235l23.871,9.378
	l27.281-70.76h88.662C535.33,238.708,534.478,263.432,525.953,283.04z"/>
</svg>
