<?xml version="1.0" encoding="utf-8"?>
<!-- Generator: Adobe Illustrator 16.0.0, SVG Export Plug-In . SVG Version: 6.00 Build 0)  -->
<!DOCTYPE svg PUBLIC "-//W3C//DTD SVG 1.1//EN" "http://www.w3.org/Graphics/SVG/1.1/DTD/svg11.dtd">
<svg version="1.1" id="Layer_1" xmlns="http://www.w3.org/2000/svg" xmlns:xlink="http://www.w3.org/1999/xlink" x="0px" y="0px"
	 width="612px" height="792px" viewBox="0 0 612 792" enable-background="new 0 0 612 792" xml:space="preserve">
<g>
	<path fill="#222222" d="M157.403,306.292c-49.532,0-89.708,40.176-89.708,89.708s40.176,89.709,89.708,89.709
		s89.708-40.177,89.708-89.709S206.935,306.292,157.403,306.292z M157.403,468.647c-40.176,0-73.198-33.021-73.198-73.198
		s33.021-73.198,73.198-73.198s73.198,33.021,73.198,73.198S197.579,468.647,157.403,468.647z"/>
	<path fill="#222222" d="M454.597,306.292c-49.532,0-89.708,40.176-89.708,89.708s40.176,89.709,89.709,89.709
		c49.532,0,89.708-40.177,89.708-89.709S504.13,306.292,454.597,306.292z M454.597,468.647c-40.176,0-73.197-33.021-73.197-73.198
		s33.021-73.198,73.197-73.198c40.177,0,73.198,33.021,73.198,73.198S494.773,468.647,454.597,468.647z"/>
	<path fill="#222222" d="M612,368.482h-36.874c-12.108-55.036-61.641-96.313-120.529-96.313
		c-58.888,0-108.421,41.828-120.528,96.863c-18.162-4.403-37.975-4.403-56.137,0c-12.108-55.036-61.64-96.863-120.529-96.863
		S49.532,313.446,36.874,368.482H0v47.331h35.773c9.906,58.339,60.54,102.918,121.629,102.918
		c58.889,0,108.421-41.827,120.529-97.414c17.611-7.154,37.975-7.154,56.137,0c12.107,55.587,61.641,97.414,120.528,97.414
		c61.091,0,111.724-44.579,121.63-102.918H612V368.482z M34.122,399.853H16.511v-14.31h17.611V399.853z M157.403,502.77
		c-58.889,0-106.77-47.881-106.77-106.77c0-59.439,47.881-107.32,106.77-107.32s106.77,47.881,106.77,106.77
		C264.173,454.338,216.292,502.77,157.403,502.77z M306,399.853c-8.806,0-17.061,1.651-25.316,3.853c0-2.752,0-4.953,0-7.705
		c0-3.302,0-6.604-0.55-9.906c16.511-3.853,34.672-4.403,51.183,0c-0.55,3.302-0.55,6.604-0.55,10.457c0,2.751,0,4.953,0,7.705
		C323.611,400.953,314.806,399.853,306,399.853z M454.597,502.77c-58.888,0-106.77-47.881-106.77-106.77
		c0-59.439,47.882-107.32,106.77-107.32c58.889,0,106.771,47.881,106.771,106.22v1.651
		C561.367,454.889,513.485,502.77,454.597,502.77z M595.489,399.853h-17.611v-2.752c0-0.55,0-1.101,0-1.651s0-1.101,0-1.651v-8.806
		h17.611V399.853z"/>
</g>
</svg>
