<?xml version="1.0" encoding="utf-8"?>
<!-- Generator: Adobe Illustrator 16.0.0, SVG Export Plug-In . SVG Version: 6.00 Build 0)  -->
<!DOCTYPE svg PUBLIC "-//W3C//DTD SVG 1.1//EN" "http://www.w3.org/Graphics/SVG/1.1/DTD/svg11.dtd">
<svg version="1.1" id="Layer_1" xmlns="http://www.w3.org/2000/svg" xmlns:xlink="http://www.w3.org/1999/xlink" x="0px" y="0px"
	 width="583px" height="578.596px" viewBox="0 0 583 578.596" enable-background="new 0 0 583 578.596" xml:space="preserve">
<g>
	<defs>
		<rect id="SVGID_1_" width="583" height="578.596"/>
	</defs>
	<clipPath id="SVGID_2_">
		<use xlink:href="#SVGID_1_"  overflow="visible"/>
	</clipPath>
	<path clip-path="url(#SVGID_2_)" fill="#ACFFD3" d="M409.785,327.252c-0.56,0-1.064-0.496-1.064-1.062v-5.893
		c0-0.563,0.505-1.066,1.064-1.066h15.422c0.562,0,1.065,0.503,1.065,1.066v15.356c0,0.69-0.249,1.316-0.753,1.817
		c-4.008,3.635-9.712-3.258-8.148-4.639v-5.58H409.785z"/>
	<path clip-path="url(#SVGID_2_)" fill="#ACFFD3" d="M306.758,15.353c0.562,0,1.066,0.495,1.066,1.062v5.893
		c0,0.564-0.504,1.067-1.066,1.065l-15.421,0.002c-0.562,0-1.065-0.505-1.065-1.067V6.951c0-0.689,0.25-1.316,0.753-1.818
		c4.008-3.635,9.713,3.259,8.149,4.639v5.58L306.758,15.353z"/>
	<path clip-path="url(#SVGID_2_)" fill="#ACFFD3" d="M498.304,300.784c0.396-0.396,1.104-0.402,1.504-0.002l4.166,4.167
		c0.398,0.398,0.398,1.108,0.002,1.507L493.07,317.36c-0.397,0.398-1.108,0.397-1.507,0L480.704,306.5
		c-0.486-0.488-0.754-1.106-0.752-1.817c0.264-5.405,9.172-4.563,9.043-2.482l3.945,3.946L498.304,300.784z"/>
	<path clip-path="url(#SVGID_2_)" fill="#ACFFD3" d="M245.416,484.292c0.56,0,1.065,0.496,1.065,1.062v5.894
		c0,0.562-0.505,1.065-1.065,1.065h-15.422c-0.563,0-1.065-0.503-1.065-1.065v-15.357c0-0.689,0.249-1.314,0.753-1.816
		c4.008-3.636,9.711,3.258,8.149,4.639v5.58H245.416z"/>
	<path clip-path="url(#SVGID_2_)" fill="#ACFFD3" d="M491.567,22.569c-0.397,0.396-1.104,0.402-1.505,0.001l-4.167-4.166
		c-0.398-0.398-0.398-1.11,0-1.507L496.8,5.992c0.398-0.398,1.109-0.397,1.507,0.001l10.858,10.859
		c0.487,0.488,0.756,1.106,0.755,1.817c-0.266,5.406-9.173,4.564-9.043,2.484l-3.946-3.947L491.567,22.569z"/>
	<path clip-path="url(#SVGID_2_)" fill="#ACFFD3" d="M210.521,332.127c-0.396,0.396-1.104,0.401-1.503,0.002l-4.167-4.166
		c-0.398-0.398-0.398-1.11-0.002-1.507l10.906-10.905c0.398-0.399,1.108-0.397,1.506,0l10.86,10.86
		c0.487,0.486,0.754,1.105,0.752,1.817c-0.263,5.404-9.172,4.563-9.041,2.482l-3.948-3.946L210.521,332.127z"/>
	<path clip-path="url(#SVGID_2_)" fill="#ACFFD3" d="M484.468,504.075c-0.396,0.396-1.104,0.4-1.503,0l-4.167-4.166
		c-0.398-0.398-0.398-1.109-0.002-1.506l10.906-10.906c0.397-0.398,1.107-0.397,1.506,0.002l10.859,10.859
		c0.487,0.486,0.755,1.105,0.752,1.816c-0.263,5.405-9.172,4.564-9.041,2.483l-3.947-3.946L484.468,504.075z"/>
	<path clip-path="url(#SVGID_2_)" fill="#ACFFD3" d="M578.776,170.219c0,16.737-13.161,21.814-22.562,21.814
		c-9.152,0-22.504-5.077-22.504-21.814c0-6.647,8.273-3.385,8.273,0c0,11.222,10.53,12.787,14.104,12.787
		s14.604-1.565,14.604-12.787C570.692,167.772,578.776,163.762,578.776,170.219"/>
	<path clip-path="url(#SVGID_2_)" fill="#ACFFD3" d="M269.228,66.231c-11.835,11.834-24.731,6.117-31.38-0.531
		c-6.47-6.471-12.322-19.502-0.487-31.336c4.699-4.7,8.244,3.456,5.851,5.849c-7.935,7.936-1.597,16.489,0.93,19.016
		c2.527,2.527,11.435,9.22,19.369,1.285C265.242,58.784,273.793,61.664,269.228,66.231"/>
	<path clip-path="url(#SVGID_2_)" fill="#ACFFD3" d="M288.274,180.701c0,16.737-13.161,21.814-22.562,21.814
		c-9.151,0-22.503-5.077-22.503-21.814c0-6.646,8.274-3.385,8.274,0c0,11.222,10.529,12.788,14.102,12.788
		c3.575,0,14.605-1.566,14.605-12.788C280.19,178.254,288.274,174.243,288.274,180.701"/>
	<path clip-path="url(#SVGID_2_)" fill="#ACFFD3" d="M157.581,400.979c-3.193-6.47,4.965-8.951,7.045-5.008
		c3.236,6.161,8.023,13.961,1.285,20.698c-5.674,5.676-13.252,4.83-19.101-1.019c-1.684-1.687-5.363-6.073-8.11-13.164
		c-0.181-0.531,0.085-1.154,0.662-1.375l5.494-2.215c0.58-0.224,1.2,0.044,1.465,0.577c1.065,2.57,3.191,7.179,5.896,9.884
		c2.173,2.173,4.829,3.412,7.093,1.328C161.3,408.514,159.577,405.102,157.581,400.979"/>
	<path clip-path="url(#SVGID_2_)" fill="#ACFFD3" d="M281.856,368.7c-3.193-6.472,4.966-8.952,7.046-5.009
		c3.236,6.16,8.023,13.961,1.285,20.699c-5.674,5.675-13.252,4.829-19.101-1.021c-1.684-1.687-5.363-6.072-8.112-13.162
		c-0.18-0.531,0.086-1.156,0.664-1.376l5.495-2.216c0.58-0.222,1.199,0.045,1.464,0.578c1.063,2.57,3.19,7.179,5.896,9.885
		c2.173,2.172,4.828,3.41,7.091,1.328C285.578,376.233,283.852,372.823,281.856,368.7"/>
	<path clip-path="url(#SVGID_2_)" fill="#ACFFD3" d="M258.54,271.867c-3.195-6.47-7.406-14.581-0.356-20.829
		c5.364-4.745,13.74-4.08,20.211,2.393c4.389,4.388-2.701,8.909-5.496,6.115c-2.703-2.703-5.804-3.499-7.93-1.994
		c-2.574,1.86-1.464,5.364,0.617,9.308c3.237,6.16,8.02,13.961,1.285,20.697c-5.676,5.675-13.254,4.833-19.104-1.016
		c-1.686-1.687,2.703-8.999,5.408-6.294c2.173,2.173,4.829,3.414,7.092,1.328C262.261,279.402,260.534,275.992,258.54,271.867"/>
	<path clip-path="url(#SVGID_2_)" fill="#ACFFD3" d="M553.369,557.839c2.314-6.834,5.072-15.546,14.477-14.98
		c7.148,0.437,12.601,6.831,12.601,15.983c0,6.207-8.21,4.39-8.21,0.438c0-3.823-1.633-6.58-4.199-7.019
		c-3.135-0.504-4.828,2.758-6.146,7.019c-2.066,6.646-4.199,15.543-13.726,15.543c-8.026,0-12.79-5.955-12.79-14.226
		c0-2.385,8.275-4.453,8.275-0.628c0,3.074,1,5.829,4.074,5.956C550.672,565.799,551.862,562.167,553.369,557.839"/>
	<path clip-path="url(#SVGID_2_)" fill="#ACFFD3" d="M391.365,459.021c2.315-6.834,5.073-15.546,14.477-14.98
		c7.147,0.437,12.601,6.831,12.601,15.983c0,6.207-8.212,4.39-8.212,0.438c0-3.823-1.63-6.58-4.198-7.019
		c-3.133-0.505-4.827,2.758-6.145,7.019c-2.068,6.646-4.2,15.543-13.727,15.543c-8.025,0-12.79-5.953-12.79-14.226
		c0-2.385,8.274-4.453,8.274-0.628c0,3.074,1.001,5.829,4.077,5.956C388.667,466.981,389.858,463.348,391.365,459.021"/>
	<path clip-path="url(#SVGID_2_)" fill="#ACFFD3" d="M460.067,551.272c3.195,6.469,7.405,14.58,0.355,20.829
		c-5.363,4.745-13.739,4.081-20.21-2.393c-4.391-4.388,2.7-8.91,5.494-6.117c2.703,2.704,5.806,3.5,7.932,1.995
		c2.574-1.858,1.465-5.363-0.618-9.307c-3.236-6.161-8.021-13.961-1.284-20.697c5.676-5.676,13.253-4.834,19.104,1.016
		c1.686,1.686-2.702,8.999-5.407,6.295c-2.174-2.174-4.829-3.414-7.094-1.33C456.347,543.737,458.073,547.147,460.067,551.272"/>
	<path clip-path="url(#SVGID_2_)" fill="#ACFFD3" d="M345.087,65.208c-6.833-2.317-2.818-9.841,1.44-8.523
		c6.645,2.069,15.546,4.198,15.546,13.728c0,8.024-5.957,12.785-14.227,12.784c-2.385,0.001-8.088-0.502-15.046-3.57
		c-0.503-0.249-0.755-0.879-0.503-1.442l2.32-5.454c0.251-0.565,0.877-0.815,1.442-0.626c2.571,1.066,7.332,2.821,11.159,2.82
		c3.071,0.001,5.825-1.002,5.953-4.075C353.046,67.903,349.412,66.712,345.087,65.208"/>
	<path clip-path="url(#SVGID_2_)" fill="#ACFFD3" d="M85.853,539.41c-0.561,0-1.064-0.497-1.064-1.064v-5.892
		c0-0.563,0.503-1.067,1.064-1.067h15.422c0.562,0,1.064,0.504,1.064,1.067v15.356c0,0.69-0.248,1.317-0.752,1.818
		c-4.007,3.635-9.713-3.259-8.149-4.639v-5.58H85.853z"/>
	<path clip-path="url(#SVGID_2_)" fill="#ACFFD3" d="M29.267,496.069c0.396,0.396,0.402,1.104,0.002,1.504l-4.167,4.166
		c-0.397,0.397-1.11,0.396-1.507,0.002l-10.904-10.905c-0.399-0.397-0.397-1.108,0.001-1.507l10.859-10.86
		c0.487-0.486,1.105-0.754,1.817-0.752c5.405,0.265,4.563,9.171,2.481,9.041l-3.945,3.946L29.267,496.069z"/>
	<path clip-path="url(#SVGID_2_)" fill="#ACFFD3" d="M120.987,462.569c0,16.735-13.162,21.813-22.564,21.813
		c-9.15,0-22.503-5.078-22.503-21.813c0-6.646,8.274-3.385,8.274,0c0,11.221,10.529,12.787,14.102,12.787
		c3.575,0,14.606-1.566,14.606-12.787C112.902,460.122,120.987,456.111,120.987,462.569"/>
	<path clip-path="url(#SVGID_2_)" fill="#ACFFD3" d="M335.386,521.284c0,16.735-13.162,21.813-22.563,21.813
		c-9.151,0-22.503-5.078-22.503-21.813c0-6.646,8.274-3.385,8.274,0c0,11.223,10.529,12.789,14.104,12.789
		c3.573,0,14.604-1.566,14.604-12.789C327.301,518.836,335.386,514.827,335.386,521.284"/>
	<path clip-path="url(#SVGID_2_)" fill="#ACFFD3" d="M40.407,564.127c6.832,2.315,2.816,9.84-1.441,8.522
		c-6.647-2.067-15.547-4.198-15.547-13.728c0-8.025,5.957-12.784,14.228-12.784c2.383,0,8.087,0.501,15.044,3.571
		c0.503,0.248,0.755,0.877,0.503,1.44l-2.318,5.454c-0.253,0.564-0.879,0.815-1.444,0.627c-2.571-1.067-7.332-2.82-11.159-2.82
		c-3.071,0-5.825,1.001-5.954,4.073C32.448,561.43,36.081,562.623,40.407,564.127"/>
	<path clip-path="url(#SVGID_2_)" fill="#ACFFD3" d="M391.161,523.032c6.832,2.316,2.816,9.84-1.441,8.522
		c-6.646-2.066-15.546-4.197-15.546-13.727c0-8.026,5.956-12.784,14.229-12.784c2.382,0,8.087,0.501,15.044,3.571
		c0.502,0.247,0.755,0.877,0.502,1.441l-2.318,5.453c-0.252,0.564-0.879,0.815-1.443,0.626c-2.57-1.066-7.332-2.82-11.158-2.82
		c-3.072,0-5.826,1.002-5.954,4.075C383.202,520.334,386.835,521.528,391.161,523.032"/>
	<path clip-path="url(#SVGID_2_)" fill="#ACFFD3" d="M161.396,542.276c-3.193-6.471,4.966-8.952,7.046-5.009
		c3.236,6.16,8.023,13.962,1.285,20.699c-5.674,5.675-13.252,4.829-19.101-1.02c-1.685-1.687-5.363-6.073-8.112-13.163
		c-0.182-0.531,0.086-1.156,0.664-1.377l5.494-2.215c0.579-0.223,1.199,0.045,1.465,0.578c1.063,2.571,3.19,7.178,5.896,9.884
		c2.172,2.173,4.827,3.411,7.092,1.328C165.117,549.809,163.392,546.399,161.396,542.276"/>
	<path clip-path="url(#SVGID_2_)" fill="#ACFFD3" d="M181.081,489.831c6.469-3.193,8.951,4.965,5.008,7.045
		c-6.162,3.238-13.962,8.022-20.701,1.285c-5.674-5.675-4.828-13.251,1.022-19.102c1.685-1.684,6.072-5.362,13.162-8.109
		c0.532-0.182,1.155,0.085,1.376,0.662l2.215,5.494c0.223,0.578-0.045,1.199-0.577,1.464c-2.572,1.064-7.179,3.19-9.886,5.897
		c-2.171,2.172-3.409,4.827-1.327,7.092C173.546,493.55,176.958,491.825,181.081,489.831"/>
	<path clip-path="url(#SVGID_2_)" fill="#ACFFD3" d="M237.701,551.349c6.834,2.313,15.545,5.073,14.979,14.477
		c-0.437,7.148-6.831,12.601-15.983,12.601c-6.206,0-4.391-8.211-0.437-8.211c3.822,0,6.579-1.632,7.017-4.199
		c0.506-3.133-2.757-4.827-7.017-6.145c-6.646-2.067-15.545-4.201-15.545-13.727c0-8.026,5.955-12.789,14.226-12.789
		c2.385,0,4.453,8.272,0.628,8.272c-3.073,0-5.829,1.003-5.955,4.076C229.74,548.651,233.375,549.842,237.701,551.349"/>
	<path clip-path="url(#SVGID_2_)" fill="#ACFFD3" d="M398.122,208.438c-6.469,3.195-14.58,7.406-20.83,0.356
		c-4.744-5.362-4.078-13.739,2.395-20.211c4.388-4.389,8.908,2.702,6.115,5.496c-2.704,2.703-3.501,5.805-1.994,7.932
		c1.858,2.573,5.362,1.463,9.307-0.619c6.162-3.235,13.961-8.02,20.697-1.285c5.676,5.676,4.834,13.255-1.016,19.103
		c-1.686,1.687-8.998-2.701-6.294-5.405c2.174-2.174,3.413-4.831,1.329-7.094C405.658,204.717,402.247,206.445,398.122,208.438"/>
	<path clip-path="url(#SVGID_2_)" fill="#ACFFD3" d="M292.395,455.702c2.317-6.834,5.075-15.547,14.479-14.98
		c7.149,0.438,12.6,6.83,12.601,15.984c0,6.205-8.211,4.389-8.211,0.437c0-3.821-1.632-6.58-4.198-7.019
		c-3.135-0.504-4.829,2.758-6.145,7.019c-2.068,6.646-4.2,15.543-13.728,15.543c-8.026,0-12.79-5.953-12.79-14.226
		c0-2.385,8.275-4.453,8.275-0.629c0,3.076,1.002,5.832,4.074,5.957C289.701,463.661,290.891,460.028,292.395,455.702"/>
	<path clip-path="url(#SVGID_2_)" fill="#ACFFD3" d="M37.64,412.449c2.314-6.834,5.073-15.546,14.477-14.98
		c7.147,0.437,12.6,6.831,12.6,15.983c0,6.207-8.212,4.39-8.212,0.438c0-3.822-1.63-6.579-4.198-7.018
		c-3.133-0.505-4.827,2.758-6.145,7.018c-2.068,6.646-4.2,15.543-13.726,15.543c-8.026,0-12.79-5.954-12.79-14.225
		c0-2.385,8.274-4.453,8.274-0.628c0,3.073,1.001,5.829,4.076,5.956C34.942,420.409,36.133,416.776,37.64,412.449"/>
	<path clip-path="url(#SVGID_2_)" fill="#ACFFD3" d="M217.744,411.068c-6.835-2.315-15.546-5.073-14.98-14.479
		c0.436-7.146,6.831-12.599,15.983-12.599c6.207,0,4.39,8.211,0.438,8.211c-3.823,0-6.581,1.631-7.018,4.198
		c-0.505,3.134,2.756,4.828,7.018,6.146c6.646,2.067,15.543,4.199,15.543,13.726c0,8.025-5.953,12.79-14.225,12.79
		c-2.385,0-4.452-8.273-0.629-8.273c3.075,0,5.83-1.002,5.957-4.076C225.704,413.765,222.071,412.575,217.744,411.068"/>
	<path clip-path="url(#SVGID_2_)" fill="#ACFFD3" d="M344.452,291.326c-0.09,0.554-0.66,0.971-1.219,0.88l-5.815-0.951
		c-0.556-0.09-0.971-0.668-0.88-1.222l2.485-15.221c0.091-0.555,0.668-0.969,1.224-0.879l15.156,2.477
		c0.681,0.11,1.258,0.456,1.672,1.034c2.941,4.543-4.781,9.061-5.892,7.296l-5.509-0.899L344.452,291.326z"/>
	<path clip-path="url(#SVGID_2_)" fill="#ACFFD3" d="M335.482,420.03c-0.554-0.092-0.972-0.662-0.879-1.221l0.948-5.816
		c0.092-0.555,0.67-0.971,1.224-0.881l15.22,2.485c0.557,0.093,0.971,0.669,0.88,1.226l-2.476,15.156
		c-0.111,0.68-0.457,1.258-1.037,1.672c-4.541,2.941-9.059-4.781-7.293-5.894l0.898-5.506L335.482,420.03z"/>
	<path clip-path="url(#SVGID_2_)" fill="#ACFFD3" d="M330.951,168.33c-0.09,0.554-0.662,0.971-1.221,0.88l-5.814-0.95
		c-0.557-0.091-0.973-0.67-0.883-1.223l2.487-15.221c0.091-0.555,0.668-0.968,1.224-0.879l15.156,2.476
		c0.681,0.112,1.258,0.457,1.672,1.036c2.942,4.543-4.781,9.06-5.891,7.295l-5.509-0.9L330.951,168.33z"/>
	<path clip-path="url(#SVGID_2_)" fill="#ACFFD3" d="M549.384,411.345c0.09-0.555,0.662-0.97,1.221-0.879l5.815,0.949
		c0.556,0.091,0.972,0.669,0.881,1.224l-2.485,15.221c-0.091,0.554-0.668,0.968-1.224,0.879l-15.157-2.477
		c-0.68-0.111-1.258-0.458-1.672-1.035c-2.941-4.543,4.781-9.063,5.893-7.296l5.508,0.899L549.384,411.345z"/>
	<path clip-path="url(#SVGID_2_)" fill="#ACFFD3" d="M471.356,137.715c-0.33-0.457-0.219-1.155,0.24-1.486l4.783-3.439
		c0.457-0.33,1.161-0.216,1.486,0.241l9.008,12.52c0.326,0.458,0.211,1.158-0.245,1.486l-12.468,8.968
		c-0.56,0.401-1.213,0.567-1.916,0.45c-5.29-1.132-3.024-9.786-0.992-9.324l4.531-3.258L471.356,137.715z"/>
	<path clip-path="url(#SVGID_2_)" fill="#ACFFD3" d="M322.145,203.058c16.52,2.698,19.408,16.507,17.893,25.785
		c-1.476,9.03-8.639,21.39-25.157,18.692c-6.56-1.071-2.006-8.71,1.333-8.166c11.077,1.81,14.318-8.33,14.895-11.857
		c0.576-3.527,0.81-14.666-10.266-16.475C318.428,210.643,315.771,202.018,322.145,203.058"/>
	<path clip-path="url(#SVGID_2_)" fill="#ACFFD3" d="M553.661,461.383c16.518,2.697,19.407,16.505,17.891,25.783
		c-1.475,9.031-8.638,21.393-25.157,18.693c-6.56-1.073-2.006-8.711,1.334-8.165c11.075,1.808,14.317-8.331,14.896-11.858
		c0.576-3.527,0.809-14.666-10.268-16.475C549.942,468.967,547.288,460.341,553.661,461.383"/>
	<path clip-path="url(#SVGID_2_)" fill="#ACFFD3" d="M491.815,193.352c-2.699,16.518-16.506,19.406-25.785,17.892
		c-9.031-1.476-21.391-8.639-18.692-25.158c1.071-6.559,8.711-2.007,8.165,1.334c-1.809,11.076,8.331,14.318,11.857,14.895
		c3.527,0.575,14.668,0.809,16.476-10.267C484.23,189.633,492.855,186.979,491.815,193.352"/>
	<path clip-path="url(#SVGID_2_)" fill="#ACFFD3" d="M396.534,390.261c2.7-16.52,16.507-19.407,25.786-17.893
		c9.031,1.476,21.391,8.64,18.693,25.157c-1.071,6.56-8.711,2.007-8.168-1.333c1.811-11.076-8.33-14.319-11.857-14.896
		c-3.526-0.576-14.665-0.809-16.475,10.268C404.119,393.978,395.494,396.633,396.534,390.261"/>
	<path clip-path="url(#SVGID_2_)" fill="#ACFFD3" d="M511.222,78.893c2.699-16.518,16.507-19.407,25.786-17.892
		c9.031,1.476,21.389,8.638,18.692,25.158c-1.073,6.559-8.712,2.005-8.167-1.334c1.811-11.076-8.329-14.319-11.857-14.895
		c-3.526-0.576-14.665-0.808-16.476,10.266C518.807,82.611,510.181,85.266,511.222,78.893"/>
	<path clip-path="url(#SVGID_2_)" fill="#ACFFD3" d="M542.248,335.594c-9.771-13.588-2.049-25.395,5.583-30.883
		c7.431-5.344,21.233-9.019,31.006,4.57c3.882,5.396-4.741,7.578-6.718,4.83c-6.553-9.109-16.014-4.234-18.916-2.147
		c-2.9,2.087-10.943,9.8-4.391,18.908C550.24,332.862,546.02,340.837,542.248,335.594"/>
	<path clip-path="url(#SVGID_2_)" fill="#ACFFD3" d="M530.501,124.205c-6.369-3.389-1.194-10.166,2.796-8.18
		c6.225,3.112,14.666,6.651,13.13,16.055c-1.294,7.92-7.939,11.657-16.104,10.323c-2.353-0.384-7.9-1.798-14.271-5.95
		c-0.456-0.325-0.604-0.987-0.264-1.504l3.168-5.007c0.34-0.516,0.998-0.663,1.526-0.385c2.364,1.466,6.78,3.964,10.558,4.582
		c3.031,0.496,5.91-0.049,6.531-3.063C537.92,128.15,534.528,126.387,530.501,124.205"/>
	<path clip-path="url(#SVGID_2_)" fill="#ACFFD3" d="M490.297,382.407c-3.388,6.369-10.165,1.193-8.181-2.797
		c3.113-6.225,6.65-14.665,16.055-13.129c7.92,1.294,11.657,7.938,10.324,16.103c-0.384,2.351-1.799,7.899-5.95,14.27
		c-0.325,0.457-0.987,0.606-1.505,0.266l-5.006-3.167c-0.518-0.341-0.664-0.998-0.384-1.525c1.464-2.366,3.962-6.783,4.581-10.559
		c0.494-3.031-0.051-5.911-3.064-6.533C494.241,374.986,492.478,378.379,490.297,382.407"/>
	<path clip-path="url(#SVGID_2_)" fill="#ACFFD3" d="M407.172,261.34c3.387-6.369,10.164-1.193,8.178,2.799
		c-3.109,6.222-6.648,14.664-16.053,13.127c-7.92-1.293-11.658-7.938-10.324-16.103c0.384-2.352,1.799-7.899,5.95-14.27
		c0.325-0.457,0.988-0.604,1.504-0.265l5.007,3.167c0.516,0.34,0.663,0.999,0.385,1.525c-1.467,2.366-3.963,6.782-4.58,10.559
		c-0.496,3.032,0.049,5.912,3.061,6.533C403.227,268.76,404.988,265.368,407.172,261.34"/>
	<path clip-path="url(#SVGID_2_)" fill="#ACFFD3" d="M574.533,368.264c3.389-6.37,10.167-1.195,8.18,2.797
		c-3.111,6.224-6.648,14.665-16.054,13.128c-7.921-1.294-11.657-7.939-10.323-16.104c0.383-2.351,1.8-7.899,5.95-14.271
		c0.325-0.456,0.987-0.604,1.503-0.264l5.008,3.167c0.517,0.341,0.664,0.999,0.386,1.524c-1.466,2.366-3.964,6.783-4.582,10.561
		c-0.495,3.03,0.049,5.91,3.062,6.53C570.59,375.682,572.352,372.291,574.533,368.264"/>
	<path clip-path="url(#SVGID_2_)" fill="#ACFFD3" d="M161.559,326.412c3.389-6.37,10.167-1.195,8.18,2.797
		c-3.112,6.224-6.649,14.665-16.054,13.128c-7.921-1.293-11.657-7.938-10.323-16.102c0.383-2.353,1.799-7.9,5.95-14.271
		c0.325-0.457,0.987-0.604,1.503-0.265l5.008,3.167c0.516,0.341,0.664,1,0.385,1.524c-1.466,2.366-3.964,6.783-4.582,10.561
		c-0.495,3.031,0.049,5.91,3.063,6.531C157.616,333.831,159.376,330.438,161.559,326.412"/>
	<path clip-path="url(#SVGID_2_)" fill="#ACFFD3" d="M447.04,38.28c3.388-6.371,10.165-1.197,8.18,2.795
		c-3.112,6.226-6.649,14.665-16.056,13.13c-7.919-1.294-11.657-7.941-10.323-16.105c0.384-2.351,1.8-7.898,5.95-14.269
		c0.326-0.457,0.988-0.606,1.505-0.264l5.007,3.166c0.516,0.34,0.662,0.999,0.385,1.526c-1.467,2.365-3.965,6.781-4.582,10.558
		c-0.494,3.032,0.049,5.91,3.062,6.533C443.095,45.698,444.857,42.306,447.04,38.28"/>
	<path clip-path="url(#SVGID_2_)" fill="#ACFFD3" d="M480.666,255.34c-6.371-3.391-1.196-10.168,2.795-8.182
		c6.226,3.114,14.664,6.651,13.128,16.057c-1.293,7.919-7.938,11.656-16.102,10.322c-2.353-0.383-7.9-1.799-14.271-5.949
		c-0.458-0.326-0.603-0.988-0.265-1.506l3.168-5.006c0.341-0.516,0.998-0.664,1.525-0.386c2.366,1.468,6.781,3.966,10.557,4.582
		c3.034,0.496,5.912-0.049,6.534-3.061C488.084,259.281,484.693,257.52,480.666,255.34"/>
	<path clip-path="url(#SVGID_2_)" fill="#ACFFD3" d="M554.425,26.067c-6.897,2.109-8.033-6.344-3.806-7.76
		c6.602-2.201,15.072-5.668,20.636,2.069c4.685,6.514,2.631,13.855-4.087,18.687c-1.934,1.392-6.857,4.313-14.299,5.883
		c-0.553,0.094-1.125-0.272-1.249-0.876l-1.302-5.781c-0.127-0.606,0.236-1.174,0.807-1.351c2.709-0.637,7.6-1.991,10.706-4.226
		c2.493-1.794,4.144-4.214,2.452-6.785C562.461,23.61,558.816,24.762,554.425,26.067"/>
	<path clip-path="url(#SVGID_2_)" fill="#ACFFD3" d="M381.529,128.487c-2.107-6.9,6.344-8.033,7.762-3.807
		c2.2,6.603,5.667,15.073-2.069,20.637c-6.515,4.686-13.857,2.629-18.687-4.088c-1.392-1.933-4.313-6.856-5.884-14.297
		c-0.091-0.554,0.271-1.127,0.877-1.252l5.781-1.3c0.604-0.125,1.174,0.238,1.35,0.805c0.635,2.71,1.992,7.599,4.227,10.706
		c1.793,2.496,4.216,4.146,6.786,2.455C383.985,136.521,382.833,132.878,381.529,128.487"/>
	<path clip-path="url(#SVGID_2_)" fill="#ACFFD3" d="M438.1,89.514c3.385-6.373,7.512-14.526,16.701-12.451
		c6.985,1.584,11.335,8.772,9.859,17.805c-1,6.125-8.812,3.009-8.174-0.891c0.615-3.774-0.549-6.756-3.012-7.604
		c-3.013-1.004-5.209,1.944-7.197,5.936c-3.111,6.226-6.65,14.663-16.051,13.128c-7.924-1.294-11.664-7.939-10.33-16.101
		c0.384-2.355,8.883-3.062,8.268,0.713c-0.496,3.035,0.049,5.914,3.061,6.535C434.153,96.934,435.914,93.539,438.1,89.514"/>
	<path clip-path="url(#SVGID_2_)" fill="#ACFFD3" d="M542.163,252.34c-6.372-3.387-14.526-7.514-12.45-16.703
		c1.584-6.984,8.771-11.334,17.805-9.859c6.127,1.001,3.01,8.812-0.89,8.175c-3.774-0.616-6.757,0.549-7.604,3.012
		c-1.005,3.012,1.942,5.21,5.937,7.195c6.223,3.113,14.662,6.653,13.126,16.053c-1.292,7.922-7.938,11.662-16.101,10.33
		c-2.354-0.385-3.061-8.885,0.713-8.267c3.035,0.496,5.914-0.049,6.535-3.063C549.585,256.285,546.189,254.525,542.163,252.34"/>
	<path clip-path="url(#SVGID_2_)" fill="#ACFFD3" d="M378.671,30.351c-6.372-3.386-14.525-7.513-12.45-16.702
		c1.582-6.984,8.772-11.334,17.806-9.859c6.125,1,3.009,8.811-0.892,8.174c-3.773-0.616-6.757,0.549-7.604,3.013
		c-1.003,3.011,1.943,5.208,5.938,7.195c6.224,3.112,14.662,6.651,13.125,16.053c-1.293,7.922-7.938,11.662-16.101,10.328
		c-2.354-0.383-3.062-8.883,0.714-8.266c3.033,0.495,5.914-0.048,6.535-3.062C386.092,34.297,382.697,32.536,378.671,30.351"/>
	<path clip-path="url(#SVGID_2_)" fill="#ACFFD3" d="M333.971,334.85c-6.897,2.11-15.583,4.959-20.614-3.006
		c-3.818-6.059-1.811-14.22,5.619-19.561c5.038-3.624,8.358,4.103,5.15,6.409c-3.104,2.231-4.39,5.166-3.247,7.506
		c1.421,2.839,5.058,2.311,9.287,0.891c6.602-2.2,15.07-5.664,20.633,2.068c4.686,6.518,2.633,13.86-4.083,18.69
		c-1.934,1.392-8.444-4.118-5.34-6.353c2.496-1.794,4.148-4.216,2.455-6.785C342.009,332.393,338.363,333.547,333.971,334.85"/>
	<path clip-path="url(#SVGID_2_)" fill="#ACFFD3" d="M301.853,115.076c-3.386,6.37-7.512,14.523-16.702,12.449
		c-6.984-1.583-11.333-8.773-9.858-17.804c1-6.126,8.81-3.01,8.172,0.89c-0.615,3.774,0.55,6.758,3.013,7.604
		c3.012,1.002,5.209-1.944,7.196-5.936c3.112-6.224,6.65-14.664,16.052-13.129c7.922,1.295,11.663,7.939,10.33,16.103
		c-0.385,2.354-8.885,3.059-8.267-0.714c0.494-3.034-0.05-5.915-3.062-6.535C305.798,107.653,304.037,111.047,301.853,115.076"/>
	<path clip-path="url(#SVGID_2_)" fill="#ACFFD3" d="M490.045,443.504c-3.386,6.373-7.513,14.525-16.702,12.451
		c-6.983-1.582-11.334-8.772-9.858-17.807c1-6.125,8.811-3.008,8.173,0.893c-0.615,3.773,0.549,6.757,3.013,7.604
		c3.011,1.002,5.21-1.943,7.196-5.937c3.112-6.226,6.65-14.663,16.052-13.127c7.923,1.294,11.663,7.938,10.329,16.103
		c-0.384,2.354-8.883,3.061-8.266-0.715c0.496-3.034-0.049-5.914-3.062-6.535C493.99,436.084,492.23,439.478,490.045,443.504"/>
	<path clip-path="url(#SVGID_2_)" fill="#ACFFD3" d="M209.698,256.024c0.326,0.455,0.217,1.154-0.243,1.486l-4.784,3.44
		c-0.456,0.329-1.16,0.215-1.487-0.24l-9.004-12.522c-0.33-0.457-0.213-1.157,0.244-1.486l12.467-8.967
		c0.561-0.403,1.213-0.566,1.914-0.45c5.294,1.132,3.026,9.789,0.994,9.324l-4.531,3.259L209.698,256.024z"/>
	<path clip-path="url(#SVGID_2_)" fill="#ACFFD3" d="M27.978,268.932c0.091-0.555,0.662-0.971,1.221-0.879l5.816,0.949
		c0.555,0.091,0.97,0.668,0.879,1.223l-2.484,15.221c-0.092,0.555-0.669,0.968-1.225,0.879l-15.156-2.476
		c-0.68-0.111-1.258-0.458-1.672-1.035c-2.942-4.544,4.781-9.062,5.892-7.296l5.507,0.9L27.978,268.932z"/>
	<path clip-path="url(#SVGID_2_)" fill="#ACFFD3" d="M70.787,79.786c0.328,0.456,0.22,1.154-0.241,1.485l-4.783,3.44
		c-0.458,0.329-1.161,0.215-1.487-0.241l-9.006-12.52c-0.328-0.458-0.212-1.158,0.244-1.487l12.469-8.968
		c0.559-0.401,1.211-0.566,1.914-0.449c5.292,1.133,3.027,9.787,0.993,9.324l-4.53,3.258L70.787,79.786z"/>
	<path clip-path="url(#SVGID_2_)" fill="#ACFFD3" d="M105.348,376.549c0.327,0.454,0.218,1.153-0.243,1.481l-4.782,3.443
		c-0.456,0.327-1.159,0.214-1.488-0.243l-9.004-12.52c-0.33-0.457-0.213-1.158,0.245-1.487l12.466-8.965
		c0.56-0.403,1.213-0.567,1.916-0.452c5.29,1.133,3.026,9.789,0.992,9.326l-4.531,3.258L105.348,376.549z"/>
	<path clip-path="url(#SVGID_2_)" fill="#ACFFD3" d="M380.102,573.483c0.327,0.455,0.218,1.153-0.243,1.483l-4.782,3.442
		c-0.456,0.328-1.159,0.213-1.487-0.243l-9.004-12.52c-0.33-0.457-0.214-1.158,0.245-1.487l12.466-8.965
		c0.56-0.403,1.213-0.568,1.916-0.452c5.29,1.133,3.025,9.788,0.991,9.325l-4.53,3.259L380.102,573.483z"/>
	<path clip-path="url(#SVGID_2_)" fill="#ACFFD3" d="M54.976,10.959c-2.698,16.518-16.507,19.406-25.785,17.892
		C20.16,27.377,7.8,20.213,10.498,3.695c1.072-6.559,8.711-2.007,8.166,1.333c-1.808,11.075,8.331,14.319,11.857,14.894
		c3.528,0.577,14.666,0.809,16.475-10.265C47.391,7.242,56.017,4.588,54.976,10.959"/>
	<path clip-path="url(#SVGID_2_)" fill="#ACFFD3" d="M11.868,314.758c16.518,2.698,19.406,16.506,17.891,25.785
		c-1.475,9.03-8.639,21.391-25.157,18.69c-6.559-1.069-2.005-8.71,1.334-8.164c11.075,1.81,14.319-8.33,14.895-11.857
		c0.576-3.526,0.808-14.667-10.268-16.477C8.149,322.342,5.495,313.717,11.868,314.758"/>
	<path clip-path="url(#SVGID_2_)" fill="#ACFFD3" d="M4.592,211.547c-9.771-13.588-2.05-25.395,5.583-30.883
		c7.429-5.344,21.232-9.018,31.006,4.571c3.881,5.395-4.742,7.578-6.719,4.829c-6.551-9.109-16.015-4.234-18.916-2.147
		c-2.9,2.087-10.943,9.799-4.391,18.909C12.583,208.815,8.363,216.789,4.592,211.547"/>
	<path clip-path="url(#SVGID_2_)" fill="#ACFFD3" d="M124.845,292.032c-9.771-13.59-2.052-25.395,5.58-30.884
		c7.43-5.343,21.234-9.017,31.008,4.57c3.88,5.397-4.742,7.58-6.719,4.831c-6.551-9.111-16.015-4.235-18.916-2.147
		c-2.9,2.087-10.942,9.798-4.391,18.909C132.836,289.297,128.616,297.273,124.845,292.032"/>
	<path clip-path="url(#SVGID_2_)" fill="#ACFFD3" d="M147.228,106.478c-9.771-13.587-2.05-25.393,5.583-30.882
		c7.429-5.344,21.234-9.018,31.006,4.571c3.881,5.396-4.741,7.578-6.718,4.83c-6.553-9.11-16.014-4.235-18.916-2.149
		c-2.901,2.089-10.942,9.8-4.391,18.91C155.222,103.746,150.999,111.722,147.228,106.478"/>
	<path clip-path="url(#SVGID_2_)" fill="#ACFFD3" d="M118.264,23.059c3.388-6.371,10.165-1.195,8.179,2.797
		c-3.113,6.224-6.649,14.664-16.055,13.127c-7.92-1.293-11.656-7.938-10.323-16.102c0.385-2.352,1.799-7.899,5.951-14.271
		c0.325-0.457,0.987-0.604,1.503-0.264l5.008,3.168c0.515,0.339,0.662,0.997,0.385,1.524c-1.467,2.367-3.965,6.782-4.582,10.558
		c-0.495,3.032,0.048,5.912,3.062,6.533C114.32,30.478,116.081,27.085,118.264,23.059"/>
	<path clip-path="url(#SVGID_2_)" fill="#ACFFD3" d="M82.787,306.506c3.388-6.369,10.166-1.195,8.179,2.797
		c-3.112,6.225-6.649,14.666-16.055,13.129c-7.919-1.293-11.655-7.939-10.322-16.104c0.385-2.352,1.799-7.898,5.949-14.27
		c0.326-0.457,0.988-0.604,1.504-0.265l5.009,3.167c0.516,0.34,0.663,0.998,0.384,1.524c-1.465,2.366-3.965,6.782-4.583,10.56
		c-0.494,3.03,0.049,5.91,3.065,6.531C78.843,313.926,80.604,310.534,82.787,306.506"/>
	<path clip-path="url(#SVGID_2_)" fill="#ACFFD3" d="M97.388,138.621c-6.902,2.108-8.035-6.345-3.809-7.761
		c6.604-2.201,15.073-5.668,20.637,2.069c4.686,6.515,2.629,13.855-4.084,18.685c-1.935,1.393-6.859,4.315-14.3,5.885
		c-0.555,0.093-1.126-0.272-1.251-0.877l-1.3-5.779c-0.125-0.608,0.237-1.176,0.805-1.353c2.71-0.636,7.599-1.991,10.704-4.226
		c2.496-1.794,4.147-4.213,2.455-6.785C105.422,136.163,101.779,137.314,97.388,138.621"/>
	<path clip-path="url(#SVGID_2_)" fill="#ACFFD3" d="M201.315,141.821c-6.9,2.109-8.035-6.342-3.807-7.762
		c6.602-2.199,15.071-5.668,20.635,2.071c4.686,6.513,2.631,13.857-4.086,18.685c-1.935,1.391-6.857,4.315-14.298,5.884
		c-0.553,0.093-1.126-0.271-1.251-0.877l-1.3-5.78c-0.127-0.606,0.236-1.174,0.806-1.352c2.709-0.635,7.6-1.99,10.705-4.224
		c2.494-1.794,4.145-4.215,2.453-6.786C209.351,139.365,205.706,140.517,201.315,141.821"/>
	<path clip-path="url(#SVGID_2_)" fill="#ACFFD3" d="M180.056,12.78c3.386-6.371,7.513-14.525,16.702-12.45
		c6.985,1.583,11.333,8.773,9.86,17.805c-1.001,6.125-8.813,3.008-8.174-0.891c0.615-3.773-0.55-6.757-3.014-7.603
		c-3.011-1.004-5.209,1.942-7.195,5.935c-3.113,6.225-6.651,14.664-16.053,13.129c-7.922-1.295-11.662-7.938-10.329-16.103
		c0.384-2.354,8.884-3.061,8.267,0.715c-0.495,3.033,0.048,5.914,3.062,6.535C176.111,20.201,177.872,16.807,180.056,12.78"/>
	<path clip-path="url(#SVGID_2_)" fill="#ACFFD3" d="M27.032,122.891c-6.37-3.387-14.524-7.514-12.449-16.703
		c1.583-6.984,8.773-11.334,17.805-9.858c6.125,1,3.009,8.811-0.889,8.173c-3.775-0.616-6.758,0.55-7.606,3.013
		c-1.002,3.012,1.944,5.209,5.938,7.195c6.222,3.112,14.662,6.653,13.126,16.054c-1.293,7.921-7.938,11.662-16.101,10.329
		c-2.354-0.385-3.06-8.885,0.714-8.267c3.034,0.495,5.915-0.049,6.534-3.062C34.454,126.836,31.059,125.075,27.032,122.891"/>
	<path clip-path="url(#SVGID_2_)" fill="#ACFFD3" d="M161.248,199.191c-6.372-3.387-14.526-7.514-12.45-16.702
		c1.582-6.984,8.771-11.335,17.804-9.859c6.125,1,3.008,8.81-0.89,8.173c-3.774-0.616-6.758,0.549-7.605,3.013
		c-1.003,3.011,1.945,5.209,5.937,7.196c6.224,3.112,14.664,6.651,13.127,16.053c-1.293,7.921-7.939,11.662-16.102,10.328
		c-2.353-0.384-3.06-8.883,0.715-8.267c3.033,0.496,5.914-0.048,6.533-3.063C168.668,203.135,165.275,201.375,161.248,199.191"/>
	<path clip-path="url(#SVGID_2_)" fill="#ACFFD3" d="M93.312,224.768c-3.386,6.371-7.513,14.524-16.702,12.45
		c-6.985-1.583-11.334-8.772-9.86-17.805c1-6.126,8.813-3.01,8.176,0.89c-0.617,3.774,0.548,6.756,3.012,7.604
		c3.012,1.004,5.209-1.944,7.195-5.936c3.112-6.224,6.651-14.663,16.053-13.128c7.921,1.294,11.663,7.939,10.328,16.103
		c-0.383,2.353-8.883,3.06-8.265-0.715c0.495-3.033-0.049-5.914-3.063-6.534C97.259,217.346,95.497,220.741,93.312,224.768"/>
</g>
</svg>
