<?xml version="1.0" encoding="utf-8"?>
<!-- Generator: Adobe Illustrator 18.0.0, SVG Export Plug-In . SVG Version: 6.00 Build 0)  -->
<!DOCTYPE svg PUBLIC "-//W3C//DTD SVG 1.1//EN" "http://www.w3.org/Graphics/SVG/1.1/DTD/svg11.dtd">
<svg version="1.1" id="Layer_1" xmlns="http://www.w3.org/2000/svg" xmlns:xlink="http://www.w3.org/1999/xlink" x="0px" y="0px"
	 viewBox="0 0 583 578.5" enable-background="new 0 0 583 578.5" xml:space="preserve">
<rect fill="#9FB336" width="583" height="578.5"/>
<g>
	<path fill="#ACFFD3" d="M409.7,327.2c-0.6,0-1.1-0.5-1.1-1.1v-5.9c0-0.6,0.5-1.1,1.1-1.1h15.4c0.6,0,1.1,0.5,1.1,1.1v15.4
		c0,0.7-0.2,1.3-0.8,1.8c-4,3.6-9.7-3.3-8.1-4.6v-5.6H409.7z"/>
	<path fill="#ACFFD3" d="M306.7,15.3c0.6,0,1.1,0.5,1.1,1.1v5.9c0,0.6-0.5,1.1-1.1,1.1l-15.4,0c-0.6,0-1.1-0.5-1.1-1.1V6.9
		c0-0.7,0.2-1.3,0.8-1.8c4-3.6,9.7,3.3,8.2,4.6v5.6L306.7,15.3z"/>
	<path fill="#ACFFD3" d="M498.2,300.7c0.4-0.4,1.1-0.4,1.5,0l4.2,4.2c0.4,0.4,0.4,1.1,0,1.5L493,317.3c-0.4,0.4-1.1,0.4-1.5,0
		l-10.9-10.9c-0.5-0.5-0.8-1.1-0.8-1.8c0.3-5.4,9.2-4.6,9-2.5l3.9,3.9L498.2,300.7z"/>
	<path fill="#ACFFD3" d="M245.3,484.2c0.6,0,1.1,0.5,1.1,1.1v5.9c0,0.6-0.5,1.1-1.1,1.1h-15.4c-0.6,0-1.1-0.5-1.1-1.1v-15.4
		c0-0.7,0.2-1.3,0.8-1.8c4-3.6,9.7,3.3,8.1,4.6v5.6H245.3z"/>
	<path fill="#ACFFD3" d="M491.5,22.5c-0.4,0.4-1.1,0.4-1.5,0l-4.2-4.2c-0.4-0.4-0.4-1.1,0-1.5l10.9-10.9c0.4-0.4,1.1-0.4,1.5,0
		l10.9,10.9c0.5,0.5,0.8,1.1,0.8,1.8c-0.3,5.4-9.2,4.6-9,2.5l-3.9-3.9L491.5,22.5z"/>
	<path fill="#ACFFD3" d="M210.4,332c-0.4,0.4-1.1,0.4-1.5,0l-4.2-4.2c-0.4-0.4-0.4-1.1,0-1.5l10.9-10.9c0.4-0.4,1.1-0.4,1.5,0
		l10.9,10.9c0.5,0.5,0.8,1.1,0.8,1.8c-0.3,5.4-9.2,4.6-9,2.5l-3.9-3.9L210.4,332z"/>
	<path fill="#ACFFD3" d="M484.4,504c-0.4,0.4-1.1,0.4-1.5,0l-4.2-4.2c-0.4-0.4-0.4-1.1,0-1.5l10.9-10.9c0.4-0.4,1.1-0.4,1.5,0
		l10.9,10.9c0.5,0.5,0.8,1.1,0.8,1.8c-0.3,5.4-9.2,4.6-9,2.5l-3.9-3.9L484.4,504z"/>
	<path fill="#ACFFD3" d="M578.7,170.1c0,16.7-13.2,21.8-22.6,21.8c-9.2,0-22.5-5.1-22.5-21.8c0-6.6,8.3-3.4,8.3,0
		c0,11.2,10.5,12.8,14.1,12.8c3.6,0,14.6-1.6,14.6-12.8C570.6,167.7,578.7,163.7,578.7,170.1z"/>
	<path fill="#ACFFD3" d="M269.2,66.1c-11.8,11.8-24.7,6.1-31.4-0.5c-6.5-6.5-12.3-19.5-0.5-31.3c4.7-4.7,8.2,3.5,5.9,5.8
		c-7.9,7.9-1.6,16.5,0.9,19c2.5,2.5,11.4,9.2,19.4,1.3C265.2,58.7,273.7,61.6,269.2,66.1z"/>
	<path fill="#ACFFD3" d="M288.2,180.6c0,16.7-13.2,21.8-22.6,21.8c-9.2,0-22.5-5.1-22.5-21.8c0-6.6,8.3-3.4,8.3,0
		c0,11.2,10.5,12.8,14.1,12.8c3.6,0,14.6-1.6,14.6-12.8C280.1,178.2,288.2,174.1,288.2,180.6z"/>
	<path fill="#ACFFD3" d="M157.5,400.9c-3.2-6.5,5-9,7-5c3.2,6.2,8,14,1.3,20.7c-5.7,5.7-13.3,4.8-19.1-1c-1.7-1.7-5.4-6.1-8.1-13.2
		c-0.2-0.5,0.1-1.2,0.7-1.4l5.5-2.2c0.6-0.2,1.2,0,1.5,0.6c1.1,2.6,3.2,7.2,5.9,9.9c2.2,2.2,4.8,3.4,7.1,1.3
		C161.2,408.4,159.5,405,157.5,400.9"/>
	<path fill="#ACFFD3" d="M281.8,368.6c-3.2-6.5,5-9,7-5c3.2,6.2,8,14,1.3,20.7c-5.7,5.7-13.3,4.8-19.1-1c-1.7-1.7-5.4-6.1-8.1-13.2
		c-0.2-0.5,0.1-1.2,0.7-1.4l5.5-2.2c0.6-0.2,1.2,0,1.5,0.6c1.1,2.6,3.2,7.2,5.9,9.9c2.2,2.2,4.8,3.4,7.1,1.3
		C285.5,376.1,283.8,372.7,281.8,368.6"/>
	<path fill="#ACFFD3" d="M258.5,271.8c-3.2-6.5-7.4-14.6-0.4-20.8c5.4-4.7,13.7-4.1,20.2,2.4c4.4,4.4-2.7,8.9-5.5,6.1
		c-2.7-2.7-5.8-3.5-7.9-2c-2.6,1.9-1.5,5.4,0.6,9.3c3.2,6.2,8,14,1.3,20.7c-5.7,5.7-13.3,4.8-19.1-1c-1.7-1.7,2.7-9,5.4-6.3
		c2.2,2.2,4.8,3.4,7.1,1.3C262.2,279.3,260.5,275.9,258.5,271.8"/>
	<path fill="#ACFFD3" d="M553.3,557.7c2.3-6.8,5.1-15.5,14.5-15c7.1,0.4,12.6,6.8,12.6,16c0,6.2-8.2,4.4-8.2,0.4
		c0-3.8-1.6-6.6-4.2-7c-3.1-0.5-4.8,2.8-6.1,7c-2.1,6.6-4.2,15.5-13.7,15.5c-8,0-12.8-6-12.8-14.2c0-2.4,8.3-4.5,8.3-0.6
		c0,3.1,1,5.8,4.1,6C550.6,565.7,551.8,562.1,553.3,557.7"/>
	<path fill="#ACFFD3" d="M391.3,458.9c2.3-6.8,5.1-15.5,14.5-15c7.1,0.4,12.6,6.8,12.6,16c0,6.2-8.2,4.4-8.2,0.4
		c0-3.8-1.6-6.6-4.2-7c-3.1-0.5-4.8,2.8-6.1,7c-2.1,6.6-4.2,15.5-13.7,15.5c-8,0-12.8-6-12.8-14.2c0-2.4,8.3-4.5,8.3-0.6
		c0,3.1,1,5.8,4.1,6C388.6,466.9,389.8,463.3,391.3,458.9"/>
	<path fill="#ACFFD3" d="M460,551.2c3.2,6.5,7.4,14.6,0.4,20.8c-5.4,4.7-13.7,4.1-20.2-2.4c-4.4-4.4,2.7-8.9,5.5-6.1
		c2.7,2.7,5.8,3.5,7.9,2c2.6-1.9,1.5-5.4-0.6-9.3c-3.2-6.2-8-14-1.3-20.7c5.7-5.7,13.3-4.8,19.1,1c1.7,1.7-2.7,9-5.4,6.3
		c-2.2-2.2-4.8-3.4-7.1-1.3C456.3,543.6,458,547.1,460,551.2"/>
	<path fill="#ACFFD3" d="M345,65.1c-6.8-2.3-2.8-9.8,1.4-8.5c6.6,2.1,15.5,4.2,15.5,13.7c0,8-6,12.8-14.2,12.8
		c-2.4,0-8.1-0.5-15-3.6c-0.5-0.2-0.8-0.9-0.5-1.4l2.3-5.5c0.3-0.6,0.9-0.8,1.4-0.6c2.6,1.1,7.3,2.8,11.2,2.8c3.1,0,5.8-1,6-4.1
		C353,67.8,349.3,66.6,345,65.1"/>
	<path fill="#ACFFD3" d="M85.8,539.3c-0.6,0-1.1-0.5-1.1-1.1v-5.9c0-0.6,0.5-1.1,1.1-1.1h15.4c0.6,0,1.1,0.5,1.1,1.1v15.4
		c0,0.7-0.2,1.3-0.8,1.8c-4,3.6-9.7-3.3-8.1-4.6v-5.6H85.8z"/>
	<path fill="#ACFFD3" d="M29.2,496c0.4,0.4,0.4,1.1,0,1.5l-4.2,4.2c-0.4,0.4-1.1,0.4-1.5,0l-10.9-10.9c-0.4-0.4-0.4-1.1,0-1.5
		l10.9-10.9c0.5-0.5,1.1-0.8,1.8-0.8c5.4,0.3,4.6,9.2,2.5,9l-3.9,3.9L29.2,496z"/>
	<path fill="#ACFFD3" d="M120.9,462.5c0,16.7-13.2,21.8-22.6,21.8c-9.2,0-22.5-5.1-22.5-21.8c0-6.6,8.3-3.4,8.3,0
		c0,11.2,10.5,12.8,14.1,12.8c3.6,0,14.6-1.6,14.6-12.8C112.8,460,120.9,456,120.9,462.5z"/>
	<path fill="#ACFFD3" d="M335.3,521.2c0,16.7-13.2,21.8-22.6,21.8c-9.2,0-22.5-5.1-22.5-21.8c0-6.6,8.3-3.4,8.3,0
		c0,11.2,10.5,12.8,14.1,12.8c3.6,0,14.6-1.6,14.6-12.8C327.2,518.7,335.3,514.7,335.3,521.2z"/>
	<path fill="#ACFFD3" d="M40.3,564c6.8,2.3,2.8,9.8-1.4,8.5c-6.6-2.1-15.5-4.2-15.5-13.7c0-8,6-12.8,14.2-12.8c2.4,0,8.1,0.5,15,3.6
		c0.5,0.2,0.8,0.9,0.5,1.4l-2.3,5.5c-0.3,0.6-0.9,0.8-1.4,0.6c-2.6-1.1-7.3-2.8-11.2-2.8c-3.1,0-5.8,1-6,4.1
		C32.4,561.3,36,562.5,40.3,564"/>
	<path fill="#ACFFD3" d="M391.1,522.9c6.8,2.3,2.8,9.8-1.4,8.5c-6.6-2.1-15.5-4.2-15.5-13.7c0-8,6-12.8,14.2-12.8
		c2.4,0,8.1,0.5,15,3.6c0.5,0.2,0.8,0.9,0.5,1.4l-2.3,5.5c-0.3,0.6-0.9,0.8-1.4,0.6c-2.6-1.1-7.3-2.8-11.2-2.8c-3.1,0-5.8,1-6,4.1
		C383.1,520.2,386.8,521.4,391.1,522.9"/>
	<path fill="#ACFFD3" d="M161.3,542.2c-3.2-6.5,5-9,7-5c3.2,6.2,8,14,1.3,20.7c-5.7,5.7-13.3,4.8-19.1-1c-1.7-1.7-5.4-6.1-8.1-13.2
		c-0.2-0.5,0.1-1.2,0.7-1.4l5.5-2.2c0.6-0.2,1.2,0,1.5,0.6c1.1,2.6,3.2,7.2,5.9,9.9c2.2,2.2,4.8,3.4,7.1,1.3
		C165,549.7,163.3,546.3,161.3,542.2"/>
	<path fill="#ACFFD3" d="M181,489.7c6.5-3.2,9,5,5,7c-6.2,3.2-14,8-20.7,1.3c-5.7-5.7-4.8-13.3,1-19.1c1.7-1.7,6.1-5.4,13.2-8.1
		c0.5-0.2,1.2,0.1,1.4,0.7l2.2,5.5c0.2,0.6,0,1.2-0.6,1.5c-2.6,1.1-7.2,3.2-9.9,5.9c-2.2,2.2-3.4,4.8-1.3,7.1
		C173.5,493.5,176.9,491.7,181,489.7"/>
	<path fill="#ACFFD3" d="M237.6,551.3c6.8,2.3,15.5,5.1,15,14.5c-0.4,7.1-6.8,12.6-16,12.6c-6.2,0-4.4-8.2-0.4-8.2
		c3.8,0,6.6-1.6,7-4.2c0.5-3.1-2.8-4.8-7-6.1c-6.6-2.1-15.5-4.2-15.5-13.7c0-8,6-12.8,14.2-12.8c2.4,0,4.5,8.3,0.6,8.3
		c-3.1,0-5.8,1-6,4.1C229.7,548.6,233.3,549.7,237.6,551.3"/>
	<path fill="#ACFFD3" d="M398.1,208.3c-6.5,3.2-14.6,7.4-20.8,0.4c-4.7-5.4-4.1-13.7,2.4-20.2c4.4-4.4,8.9,2.7,6.1,5.5
		c-2.7,2.7-3.5,5.8-2,7.9c1.9,2.6,5.4,1.5,9.3-0.6c6.2-3.2,14-8,20.7-1.3c5.7,5.7,4.8,13.3-1,19.1c-1.7,1.7-9-2.7-6.3-5.4
		c2.2-2.2,3.4-4.8,1.3-7.1C405.6,204.6,402.2,206.3,398.1,208.3"/>
	<path fill="#ACFFD3" d="M292.3,455.6c2.3-6.8,5.1-15.5,14.5-15c7.2,0.4,12.6,6.8,12.6,16c0,6.2-8.2,4.4-8.2,0.4
		c0-3.8-1.6-6.6-4.2-7c-3.1-0.5-4.8,2.8-6.1,7c-2.1,6.6-4.2,15.5-13.7,15.5c-8,0-12.8-6-12.8-14.2c0-2.4,8.3-4.5,8.3-0.6
		c0,3.1,1,5.8,4.1,6C289.6,463.6,290.8,459.9,292.3,455.6"/>
	<path fill="#ACFFD3" d="M37.6,412.4c2.3-6.8,5.1-15.5,14.5-15c7.1,0.4,12.6,6.8,12.6,16c0,6.2-8.2,4.4-8.2,0.4c0-3.8-1.6-6.6-4.2-7
		c-3.1-0.5-4.8,2.8-6.1,7c-2.1,6.6-4.2,15.5-13.7,15.5c-8,0-12.8-6-12.8-14.2c0-2.4,8.3-4.5,8.3-0.6c0,3.1,1,5.8,4.1,6
		C34.9,420.3,36.1,416.7,37.6,412.4"/>
	<path fill="#ACFFD3" d="M217.7,411c-6.8-2.3-15.5-5.1-15-14.5c0.4-7.1,6.8-12.6,16-12.6c6.2,0,4.4,8.2,0.4,8.2
		c-3.8,0-6.6,1.6-7,4.2c-0.5,3.1,2.8,4.8,7,6.1c6.6,2.1,15.5,4.2,15.5,13.7c0,8-6,12.8-14.2,12.8c-2.4,0-4.5-8.3-0.6-8.3
		c3.1,0,5.8-1,6-4.1C225.6,413.7,222,412.5,217.7,411"/>
	<path fill="#ACFFD3" d="M344.4,291.2c-0.1,0.6-0.7,1-1.2,0.9l-5.8-1c-0.6-0.1-1-0.7-0.9-1.2l2.5-15.2c0.1-0.6,0.7-1,1.2-0.9
		l15.2,2.5c0.7,0.1,1.3,0.5,1.7,1c2.9,4.5-4.8,9.1-5.9,7.3l-5.5-0.9L344.4,291.2z"/>
	<path fill="#ACFFD3" d="M335.4,419.9c-0.6-0.1-1-0.7-0.9-1.2l0.9-5.8c0.1-0.6,0.7-1,1.2-0.9l15.2,2.5c0.6,0.1,1,0.7,0.9,1.2
		l-2.5,15.2c-0.1,0.7-0.5,1.3-1,1.7c-4.5,2.9-9.1-4.8-7.3-5.9l0.9-5.5L335.4,419.9z"/>
	<path fill="#ACFFD3" d="M330.9,168.2c-0.1,0.6-0.7,1-1.2,0.9l-5.8-1c-0.6-0.1-1-0.7-0.9-1.2l2.5-15.2c0.1-0.6,0.7-1,1.2-0.9
		l15.2,2.5c0.7,0.1,1.3,0.5,1.7,1c2.9,4.5-4.8,9.1-5.9,7.3l-5.5-0.9L330.9,168.2z"/>
	<path fill="#ACFFD3" d="M549.3,411.2c0.1-0.6,0.7-1,1.2-0.9l5.8,1c0.6,0.1,1,0.7,0.9,1.2l-2.5,15.2c-0.1,0.6-0.7,1-1.2,0.9
		l-15.2-2.5c-0.7-0.1-1.3-0.5-1.7-1c-2.9-4.5,4.8-9.1,5.9-7.3l5.5,0.9L549.3,411.2z"/>
	<path fill="#ACFFD3" d="M471.3,137.6c-0.3-0.5-0.2-1.2,0.2-1.5l4.8-3.4c0.5-0.3,1.2-0.2,1.5,0.2l9,12.5c0.3,0.5,0.2,1.2-0.2,1.5
		l-12.5,9c-0.6,0.4-1.2,0.6-1.9,0.5c-5.3-1.1-3-9.8-1-9.3l4.5-3.3L471.3,137.6z"/>
	<path fill="#ACFFD3" d="M322.1,203c16.5,2.7,19.4,16.5,17.9,25.8c-1.5,9-8.6,21.4-25.2,18.7c-6.6-1.1-2-8.7,1.3-8.2
		c11.1,1.8,14.3-8.3,14.9-11.9c0.6-3.5,0.8-14.7-10.3-16.5C318.4,210.5,315.7,201.9,322.1,203z"/>
	<path fill="#ACFFD3" d="M553.6,461.3c16.5,2.7,19.4,16.5,17.9,25.8c-1.5,9-8.6,21.4-25.2,18.7c-6.6-1.1-2-8.7,1.3-8.2
		c11.1,1.8,14.3-8.3,14.9-11.9c0.6-3.5,0.8-14.7-10.3-16.5C549.9,468.9,547.2,460.2,553.6,461.3z"/>
	<path fill="#ACFFD3" d="M491.7,193.3c-2.7,16.5-16.5,19.4-25.8,17.9c-9-1.5-21.4-8.6-18.7-25.2c1.1-6.6,8.7-2,8.2,1.3
		c-1.8,11.1,8.3,14.3,11.9,14.9c3.5,0.6,14.7,0.8,16.5-10.3C484.2,189.5,492.8,186.9,491.7,193.3z"/>
	<path fill="#ACFFD3" d="M396.5,390.2c2.7-16.5,16.5-19.4,25.8-17.9c9,1.5,21.4,8.6,18.7,25.2c-1.1,6.6-8.7,2-8.2-1.3
		c1.8-11.1-8.3-14.3-11.9-14.9c-3.5-0.6-14.7-0.8-16.5,10.3C404,393.9,395.4,396.5,396.5,390.2z"/>
	<path fill="#ACFFD3" d="M511.2,78.8c2.7-16.5,16.5-19.4,25.8-17.9c9,1.5,21.4,8.6,18.7,25.2c-1.1,6.6-8.7,2-8.2-1.3
		c1.8-11.1-8.3-14.3-11.9-14.9c-3.5-0.6-14.7-0.8-16.5,10.3C518.7,82.5,510.1,85.2,511.2,78.8z"/>
	<path fill="#ACFFD3" d="M542.2,335.5c-9.8-13.6-2-25.4,5.6-30.9c7.4-5.3,21.2-9,31,4.6c3.9,5.4-4.7,7.6-6.7,4.8
		c-6.6-9.1-16-4.2-18.9-2.1c-2.9,2.1-10.9,9.8-4.4,18.9C550.2,332.8,545.9,340.7,542.2,335.5z"/>
	<path fill="#ACFFD3" d="M530.4,124.1c-6.4-3.4-1.2-10.2,2.8-8.2c6.2,3.1,14.7,6.7,13.1,16.1c-1.3,7.9-7.9,11.7-16.1,10.3
		c-2.4-0.4-7.9-1.8-14.3-6c-0.5-0.3-0.6-1-0.3-1.5l3.2-5c0.3-0.5,1-0.7,1.5-0.4c2.4,1.5,6.8,4,10.6,4.6c3,0.5,5.9,0,6.5-3.1
		C537.8,128.1,534.5,126.3,530.4,124.1"/>
	<path fill="#ACFFD3" d="M490.2,382.3c-3.4,6.4-10.2,1.2-8.2-2.8c3.1-6.2,6.7-14.7,16.1-13.1c7.9,1.3,11.7,7.9,10.3,16.1
		c-0.4,2.4-1.8,7.9-6,14.3c-0.3,0.5-1,0.6-1.5,0.3l-5-3.2c-0.5-0.3-0.7-1-0.4-1.5c1.5-2.4,4-6.8,4.6-10.6c0.5-3-0.1-5.9-3.1-6.5
		C494.2,374.9,492.4,378.3,490.2,382.3"/>
	<path fill="#ACFFD3" d="M407.1,261.2c3.4-6.4,10.2-1.2,8.2,2.8c-3.1,6.2-6.6,14.7-16.1,13.1c-7.9-1.3-11.7-7.9-10.3-16.1
		c0.4-2.4,1.8-7.9,6-14.3c0.3-0.5,1-0.6,1.5-0.3l5,3.2c0.5,0.3,0.7,1,0.4,1.5c-1.5,2.4-4,6.8-4.6,10.6c-0.5,3,0,5.9,3.1,6.5
		C403.2,268.7,404.9,265.3,407.1,261.2"/>
	<path fill="#ACFFD3" d="M574.5,368.2c3.4-6.4,10.2-1.2,8.2,2.8c-3.1,6.2-6.6,14.7-16.1,13.1c-7.9-1.3-11.7-7.9-10.3-16.1
		c0.4-2.4,1.8-7.9,6-14.3c0.3-0.5,1-0.6,1.5-0.3l5,3.2c0.5,0.3,0.7,1,0.4,1.5c-1.5,2.4-4,6.8-4.6,10.6c-0.5,3,0,5.9,3.1,6.5
		C570.5,375.6,572.3,372.2,574.5,368.2"/>
	<path fill="#ACFFD3" d="M161.5,326.3c3.4-6.4,10.2-1.2,8.2,2.8c-3.1,6.2-6.6,14.7-16.1,13.1c-7.9-1.3-11.7-7.9-10.3-16.1
		c0.4-2.4,1.8-7.9,6-14.3c0.3-0.5,1-0.6,1.5-0.3l5,3.2c0.5,0.3,0.7,1,0.4,1.5c-1.5,2.4-4,6.8-4.6,10.6c-0.5,3,0,5.9,3.1,6.5
		C157.5,333.7,159.3,330.3,161.5,326.3"/>
	<path fill="#ACFFD3" d="M447,38.2c3.4-6.4,10.2-1.2,8.2,2.8c-3.1,6.2-6.6,14.7-16.1,13.1c-7.9-1.3-11.7-7.9-10.3-16.1
		c0.4-2.4,1.8-7.9,6-14.3c0.3-0.5,1-0.6,1.5-0.3l5,3.2c0.5,0.3,0.7,1,0.4,1.5c-1.5,2.4-4,6.8-4.6,10.6c-0.5,3,0,5.9,3.1,6.5
		C443,45.6,444.8,42.2,447,38.2"/>
	<path fill="#ACFFD3" d="M480.6,255.2c-6.4-3.4-1.2-10.2,2.8-8.2c6.2,3.1,14.7,6.7,13.1,16.1c-1.3,7.9-7.9,11.7-16.1,10.3
		c-2.4-0.4-7.9-1.8-14.3-5.9c-0.5-0.3-0.6-1-0.3-1.5l3.2-5c0.3-0.5,1-0.7,1.5-0.4c2.4,1.5,6.8,4,10.6,4.6c3,0.5,5.9,0,6.5-3.1
		C488,259.2,484.6,257.4,480.6,255.2"/>
	<path fill="#ACFFD3" d="M554.4,26c-6.9,2.1-8-6.3-3.8-7.8c6.6-2.2,15.1-5.7,20.6,2.1c4.7,6.5,2.6,13.9-4.1,18.7
		c-1.9,1.4-6.9,4.3-14.3,5.9c-0.6,0.1-1.1-0.3-1.2-0.9l-1.3-5.8c-0.1-0.6,0.2-1.2,0.8-1.4c2.7-0.6,7.6-2,10.7-4.2
		c2.5-1.8,4.1-4.2,2.5-6.8C562.4,23.5,558.7,24.7,554.4,26"/>
	<path fill="#ACFFD3" d="M381.5,128.4c-2.1-6.9,6.3-8,7.8-3.8c2.2,6.6,5.7,15.1-2.1,20.6c-6.5,4.7-13.9,2.6-18.7-4.1
		c-1.4-1.9-4.3-6.9-5.9-14.3c-0.1-0.6,0.3-1.1,0.9-1.3l5.8-1.3c0.6-0.1,1.2,0.2,1.3,0.8c0.6,2.7,2,7.6,4.2,10.7
		c1.8,2.5,4.2,4.1,6.8,2.5C383.9,136.4,382.8,132.8,381.5,128.4"/>
	<path fill="#ACFFD3" d="M438,89.4c3.4-6.4,7.5-14.5,16.7-12.5c7,1.6,11.3,8.8,9.9,17.8c-1,6.1-8.8,3-8.2-0.9c0.6-3.8-0.5-6.8-3-7.6
		c-3-1-5.2,1.9-7.2,5.9c-3.1,6.2-6.7,14.7-16.1,13.1c-7.9-1.3-11.7-7.9-10.3-16.1c0.4-2.4,8.9-3.1,8.3,0.7c-0.5,3,0,5.9,3.1,6.5
		C434.1,96.8,435.8,93.4,438,89.4"/>
	<path fill="#ACFFD3" d="M542.1,252.2c-6.4-3.4-14.5-7.5-12.5-16.7c1.6-7,8.8-11.3,17.8-9.9c6.1,1,3,8.8-0.9,8.2
		c-3.8-0.6-6.8,0.5-7.6,3c-1,3,1.9,5.2,5.9,7.2c6.2,3.1,14.7,6.7,13.1,16.1c-1.3,7.9-7.9,11.7-16.1,10.3c-2.4-0.4-3.1-8.9,0.7-8.3
		c3,0.5,5.9,0,6.5-3.1C549.5,256.2,546.1,254.4,542.1,252.2"/>
	<path fill="#ACFFD3" d="M378.6,30.3c-6.4-3.4-14.5-7.5-12.5-16.7c1.6-7,8.8-11.3,17.8-9.9c6.1,1,3,8.8-0.9,8.2
		c-3.8-0.6-6.8,0.5-7.6,3c-1,3,1.9,5.2,5.9,7.2c6.2,3.1,14.7,6.7,13.1,16.1c-1.3,7.9-7.9,11.7-16.1,10.3c-2.4-0.4-3.1-8.9,0.7-8.3
		c3,0.5,5.9,0,6.5-3.1C386,34.2,382.6,32.4,378.6,30.3"/>
	<path fill="#ACFFD3" d="M333.9,334.8c-6.9,2.1-15.6,5-20.6-3c-3.8-6.1-1.8-14.2,5.6-19.6c5-3.6,8.4,4.1,5.2,6.4
		c-3.1,2.2-4.4,5.2-3.2,7.5c1.4,2.8,5.1,2.3,9.3,0.9c6.6-2.2,15.1-5.7,20.6,2.1c4.7,6.5,2.6,13.9-4.1,18.7c-1.9,1.4-8.4-4.1-5.3-6.4
		c2.5-1.8,4.1-4.2,2.5-6.8C341.9,332.3,338.3,333.5,333.9,334.8"/>
	<path fill="#ACFFD3" d="M301.8,115c-3.4,6.4-7.5,14.5-16.7,12.4c-7-1.6-11.3-8.8-9.9-17.8c1-6.1,8.8-3,8.2,0.9
		c-0.6,3.8,0.5,6.8,3,7.6c3,1,5.2-1.9,7.2-5.9c3.1-6.2,6.7-14.7,16.1-13.1c7.9,1.3,11.7,7.9,10.3,16.1c-0.4,2.4-8.9,3.1-8.3-0.7
		c0.5-3,0-5.9-3.1-6.5C305.7,107.6,304,111,301.8,115"/>
	<path fill="#ACFFD3" d="M490,443.4c-3.4,6.4-7.5,14.5-16.7,12.5c-7-1.6-11.3-8.8-9.9-17.8c1-6.1,8.8-3,8.2,0.9
		c-0.6,3.8,0.5,6.8,3,7.6c3,1,5.2-1.9,7.2-5.9c3.1-6.2,6.7-14.7,16.1-13.1c7.9,1.3,11.7,7.9,10.3,16.1c-0.4,2.4-8.9,3.1-8.3-0.7
		c0.5-3,0-5.9-3.1-6.5C493.9,436,492.2,439.4,490,443.4"/>
	<path fill="#ACFFD3" d="M209.6,255.9c0.3,0.5,0.2,1.2-0.2,1.5l-4.8,3.4c-0.5,0.3-1.2,0.2-1.5-0.2l-9-12.5c-0.3-0.5-0.2-1.2,0.2-1.5
		l12.5-9c0.6-0.4,1.2-0.6,1.9-0.5c5.3,1.1,3,9.8,1,9.3l-4.5,3.3L209.6,255.9z"/>
	<path fill="#ACFFD3" d="M27.9,268.8c0.1-0.6,0.7-1,1.2-0.9l5.8,0.9c0.6,0.1,1,0.7,0.9,1.2l-2.5,15.2c-0.1,0.6-0.7,1-1.2,0.9
		L17,283.8c-0.7-0.1-1.3-0.5-1.7-1c-2.9-4.5,4.8-9.1,5.9-7.3l5.5,0.9L27.9,268.8z"/>
	<path fill="#ACFFD3" d="M70.7,79.7c0.3,0.5,0.2,1.2-0.2,1.5l-4.8,3.4c-0.5,0.3-1.2,0.2-1.5-0.2l-9-12.5c-0.3-0.5-0.2-1.2,0.2-1.5
		l12.5-9c0.6-0.4,1.2-0.6,1.9-0.4c5.3,1.1,3,9.8,1,9.3l-4.5,3.3L70.7,79.7z"/>
	<path fill="#ACFFD3" d="M105.3,376.5c0.3,0.5,0.2,1.2-0.2,1.5l-4.8,3.4c-0.5,0.3-1.2,0.2-1.5-0.2l-9-12.5c-0.3-0.5-0.2-1.2,0.2-1.5
		l12.5-9c0.6-0.4,1.2-0.6,1.9-0.5c5.3,1.1,3,9.8,1,9.3l-4.5,3.3L105.3,376.5z"/>
	<path fill="#ACFFD3" d="M380,573.4c0.3,0.5,0.2,1.2-0.2,1.5l-4.8,3.4c-0.5,0.3-1.2,0.2-1.5-0.2l-9-12.5c-0.3-0.5-0.2-1.2,0.2-1.5
		l12.5-9c0.6-0.4,1.2-0.6,1.9-0.5c5.3,1.1,3,9.8,1,9.3l-4.5,3.3L380,573.4z"/>
	<path fill="#ACFFD3" d="M54.9,10.9c-2.7,16.5-16.5,19.4-25.8,17.9c-9-1.5-21.4-8.6-18.7-25.2c1.1-6.6,8.7-2,8.2,1.3
		C16.8,16,26.9,19.3,30.4,19.8c3.5,0.6,14.7,0.8,16.5-10.3C47.3,7.1,55.9,4.5,54.9,10.9z"/>
	<path fill="#ACFFD3" d="M11.8,314.7c16.5,2.7,19.4,16.5,17.9,25.8c-1.5,9-8.6,21.4-25.2,18.7c-6.6-1.1-2-8.7,1.3-8.2
		c11.1,1.8,14.3-8.3,14.9-11.9c0.6-3.5,0.8-14.7-10.3-16.5C8.1,322.2,5.4,313.6,11.8,314.7z"/>
	<path fill="#ACFFD3" d="M4.5,211.5c-9.8-13.6-2-25.4,5.6-30.9c7.4-5.3,21.2-9,31,4.6c3.9,5.4-4.7,7.6-6.7,4.8
		c-6.6-9.1-16-4.2-18.9-2.1c-2.9,2.1-10.9,9.8-4.4,18.9C12.5,208.7,8.3,216.7,4.5,211.5z"/>
	<path fill="#ACFFD3" d="M124.8,291.9c-9.8-13.6-2.1-25.4,5.6-30.9c7.4-5.3,21.2-9,31,4.6c3.9,5.4-4.7,7.6-6.7,4.8
		c-6.6-9.1-16-4.2-18.9-2.1c-2.9,2.1-10.9,9.8-4.4,18.9C132.8,289.2,128.5,297.2,124.8,291.9z"/>
	<path fill="#ACFFD3" d="M147.2,106.4c-9.8-13.6-2-25.4,5.6-30.9c7.4-5.3,21.2-9,31,4.6c3.9,5.4-4.7,7.6-6.7,4.8
		c-6.6-9.1-16-4.2-18.9-2.1c-2.9,2.1-10.9,9.8-4.4,18.9C155.2,103.6,150.9,111.6,147.2,106.4z"/>
	<path fill="#ACFFD3" d="M118.2,23c3.4-6.4,10.2-1.2,8.2,2.8c-3.1,6.2-6.6,14.7-16.1,13.1c-7.9-1.3-11.7-7.9-10.3-16.1
		c0.4-2.4,1.8-7.9,6-14.3c0.3-0.5,1-0.6,1.5-0.3l5,3.2c0.5,0.3,0.7,1,0.4,1.5c-1.5,2.4-4,6.8-4.6,10.6c-0.5,3,0,5.9,3.1,6.5
		C114.2,30.4,116,27,118.2,23"/>
	<path fill="#ACFFD3" d="M82.7,306.4c3.4-6.4,10.2-1.2,8.2,2.8c-3.1,6.2-6.6,14.7-16.1,13.1c-7.9-1.3-11.7-7.9-10.3-16.1
		c0.4-2.4,1.8-7.9,5.9-14.3c0.3-0.5,1-0.6,1.5-0.3l5,3.2c0.5,0.3,0.7,1,0.4,1.5c-1.5,2.4-4,6.8-4.6,10.6c-0.5,3,0,5.9,3.1,6.5
		C78.8,313.8,80.5,310.4,82.7,306.4"/>
	<path fill="#ACFFD3" d="M97.3,138.5c-6.9,2.1-8-6.3-3.8-7.8c6.6-2.2,15.1-5.7,20.6,2.1c4.7,6.5,2.6,13.9-4.1,18.7
		c-1.9,1.4-6.9,4.3-14.3,5.9c-0.6,0.1-1.1-0.3-1.3-0.9l-1.3-5.8c-0.1-0.6,0.2-1.2,0.8-1.4c2.7-0.6,7.6-2,10.7-4.2
		c2.5-1.8,4.1-4.2,2.5-6.8C105.4,136.1,101.7,137.2,97.3,138.5"/>
	<path fill="#ACFFD3" d="M201.2,141.7c-6.9,2.1-8-6.3-3.8-7.8c6.6-2.2,15.1-5.7,20.6,2.1c4.7,6.5,2.6,13.9-4.1,18.7
		c-1.9,1.4-6.9,4.3-14.3,5.9c-0.6,0.1-1.1-0.3-1.3-0.9l-1.3-5.8c-0.1-0.6,0.2-1.2,0.8-1.4c2.7-0.6,7.6-2,10.7-4.2
		c2.5-1.8,4.1-4.2,2.5-6.8C209.3,139.3,205.6,140.4,201.2,141.7"/>
	<path fill="#ACFFD3" d="M180,12.7c3.4-6.4,7.5-14.5,16.7-12.5c7,1.6,11.3,8.8,9.9,17.8c-1,6.1-8.8,3-8.2-0.9c0.6-3.8-0.5-6.8-3-7.6
		c-3-1-5.2,1.9-7.2,5.9c-3.1,6.2-6.7,14.7-16.1,13.1c-7.9-1.3-11.7-7.9-10.3-16.1c0.4-2.4,8.9-3.1,8.3,0.7c-0.5,3,0,5.9,3.1,6.5
		C176,20.1,177.8,16.7,180,12.7"/>
	<path fill="#ACFFD3" d="M27,122.8c-6.4-3.4-14.5-7.5-12.4-16.7c1.6-7,8.8-11.3,17.8-9.9c6.1,1,3,8.8-0.9,8.2
		c-3.8-0.6-6.8,0.5-7.6,3c-1,3,1.9,5.2,5.9,7.2c6.2,3.1,14.7,6.7,13.1,16.1c-1.3,7.9-7.9,11.7-16.1,10.3c-2.4-0.4-3.1-8.9,0.7-8.3
		c3,0.5,5.9,0,6.5-3.1C34.4,126.7,31,125,27,122.8"/>
	<path fill="#ACFFD3" d="M161.2,199.1c-6.4-3.4-14.5-7.5-12.5-16.7c1.6-7,8.8-11.3,17.8-9.9c6.1,1,3,8.8-0.9,8.2
		c-3.8-0.6-6.8,0.5-7.6,3c-1,3,1.9,5.2,5.9,7.2c6.2,3.1,14.7,6.7,13.1,16.1c-1.3,7.9-7.9,11.7-16.1,10.3c-2.4-0.4-3.1-8.9,0.7-8.3
		c3,0.5,5.9,0,6.5-3.1C168.6,203,165.2,201.3,161.2,199.1"/>
	<path fill="#ACFFD3" d="M93.2,224.7c-3.4,6.4-7.5,14.5-16.7,12.5c-7-1.6-11.3-8.8-9.9-17.8c1-6.1,8.8-3,8.2,0.9
		c-0.6,3.8,0.5,6.8,3,7.6c3,1,5.2-1.9,7.2-5.9c3.1-6.2,6.7-14.7,16.1-13.1c7.9,1.3,11.7,7.9,10.3,16.1c-0.4,2.4-8.9,3.1-8.3-0.7
		c0.5-3,0-5.9-3.1-6.5C97.2,217.2,95.4,220.6,93.2,224.7"/>
</g>
</svg>
