<?xml version="1.0" encoding="utf-8"?>
<!-- Generator: Adobe Illustrator 16.0.0, SVG Export Plug-In . SVG Version: 6.00 Build 0)  -->
<!DOCTYPE svg PUBLIC "-//W3C//DTD SVG 1.1//EN" "http://www.w3.org/Graphics/SVG/1.1/DTD/svg11.dtd">
<svg version="1.1" id="Layer_1" xmlns="http://www.w3.org/2000/svg" xmlns:xlink="http://www.w3.org/1999/xlink" x="0px" y="0px"
	 width="612px" height="607.276px" viewBox="0 92.362 612 607.276" enable-background="new 0 92.362 612 607.276"
	 xml:space="preserve">
<g>
	<path fill="#9FB328" d="M430.08,435.838c-0.63,0-1.155-0.525-1.155-1.155v-6.193c0-0.63,0.525-1.154,1.155-1.154h16.166
		c0.629,0,1.154,0.524,1.154,1.154v16.166c0,0.735-0.21,1.365-0.84,1.89c-4.199,3.779-10.183-3.464-8.503-4.828v-5.879H430.08
		L430.08,435.838z"/>
	<path fill="#9FB328" d="M321.956,108.423c0.63,0,1.154,0.525,1.154,1.155v6.193c0,0.63-0.524,1.155-1.154,1.155H305.79
		c-0.63,0-1.155-0.525-1.155-1.155V99.605c0-0.735,0.21-1.365,0.84-1.889c4.199-3.779,10.182,3.464,8.608,4.829v5.878H321.956z"/>
	<path fill="#9FB328" d="M522.981,408.02c0.42-0.42,1.155-0.42,1.575,0l4.409,4.409c0.419,0.42,0.419,1.154,0,1.574l-11.442,11.442
		c-0.42,0.42-1.155,0.42-1.575,0l-11.442-11.442c-0.524-0.524-0.839-1.154-0.839-1.89c0.314-5.668,9.657-4.828,9.447-2.624
		l4.094,4.094L522.981,408.02z"/>
	<path fill="#9FB328" d="M257.502,600.647c0.63,0,1.155,0.524,1.155,1.154v6.193c0,0.63-0.525,1.155-1.155,1.155h-16.166
		c-0.63,0-1.155-0.525-1.155-1.155v-16.166c0-0.734,0.21-1.364,0.84-1.889c4.199-3.779,10.183,3.464,8.503,4.828v5.879H257.502
		L257.502,600.647z"/>
	<path fill="#9FB328" d="M515.948,115.981c-0.42,0.42-1.154,0.42-1.574,0l-4.409-4.409c-0.42-0.42-0.42-1.155,0-1.575l11.442-11.442
		c0.42-0.42,1.154-0.42,1.574,0l11.442,11.442c0.525,0.525,0.84,1.155,0.84,1.89c-0.314,5.668-9.657,4.829-9.447,2.625l-4.095-4.094
		L515.948,115.981z"/>
	<path fill="#9FB328" d="M220.866,440.877c-0.42,0.42-1.155,0.42-1.575,0l-4.409-4.409c-0.42-0.42-0.42-1.155,0-1.575l11.442-11.441
		c0.42-0.42,1.154-0.42,1.574,0l11.442,11.441c0.525,0.525,0.84,1.155,0.84,1.89c-0.315,5.669-9.658,4.829-9.448,2.625l-4.094-4.095
		L220.866,440.877z"/>
	<path fill="#9FB328" d="M508.495,621.433c-0.42,0.42-1.154,0.42-1.574,0l-4.409-4.409c-0.42-0.42-0.42-1.155,0-1.574l11.442-11.442
		c0.42-0.42,1.154-0.42,1.574,0l11.442,11.442c0.525,0.524,0.84,1.154,0.84,1.889c-0.314,5.669-9.657,4.829-9.447,2.625
		l-4.095-4.095L508.495,621.433z"/>
	<path fill="#9FB328" d="M607.486,270.923c0,17.531-13.856,22.884-23.725,22.884c-9.657,0-23.619-5.354-23.619-22.884
		c0-6.928,8.713-3.569,8.713,0c0,11.757,11.022,13.437,14.802,13.437c3.778,0,15.326-1.68,15.326-13.437
		C598.983,268.404,607.486,264.205,607.486,270.923z"/>
	<path fill="#9FB328" d="M282.591,161.75c-12.387,12.387-25.929,6.403-32.962-0.525c-6.823-6.823-12.912-20.47-0.525-32.857
		c4.934-4.934,8.608,3.674,6.193,6.088c-8.293,8.293-1.68,17.321,0.945,19.945c2.625,2.624,11.967,9.658,20.365,1.365
		C278.392,153.982,287.314,157.026,282.591,161.75z"/>
	<path fill="#9FB328" d="M302.536,281.945c0,17.531-13.856,22.885-23.724,22.885c-9.658,0-23.619-5.354-23.619-22.885
		c0-6.928,8.713-3.569,8.713,0c0,11.757,11.022,13.437,14.801,13.437c3.779,0,15.326-1.68,15.326-13.437
		C294.033,279.426,302.536,275.122,302.536,281.945z"/>
	<path fill="#9FB328" d="M165.334,513.204c-3.359-6.823,5.249-9.448,7.348-5.249c3.359,6.509,8.398,14.696,1.365,21.729
		c-5.983,5.983-13.961,5.039-20.05-1.05c-1.784-1.784-5.668-6.403-8.503-13.856c-0.21-0.524,0.105-1.26,0.735-1.47l5.774-2.31
		c0.63-0.21,1.259,0,1.574,0.63c1.155,2.729,3.359,7.559,6.194,10.393c2.309,2.31,5.039,3.569,7.453,1.365
		C169.219,521.077,167.434,517.508,165.334,513.204"/>
	<path fill="#9FB328" d="M295.817,479.297c-3.359-6.823,5.249-9.447,7.348-5.248c3.359,6.508,8.398,14.696,1.365,21.729
		c-5.983,5.983-13.961,5.038-20.05-1.05c-1.785-1.785-5.669-6.403-8.503-13.856c-0.21-0.525,0.105-1.26,0.734-1.47l5.774-2.31
		c0.63-0.21,1.26,0,1.575,0.63c1.154,2.729,3.359,7.558,6.193,10.393c2.31,2.31,5.039,3.568,7.453,1.364
		C299.702,487.17,297.917,483.601,295.817,479.297"/>
	<path fill="#9FB328" d="M271.358,377.682c-3.359-6.823-7.768-15.326-0.42-21.835c5.669-4.934,14.382-4.304,21.205,2.52
		c4.619,4.619-2.834,9.343-5.774,6.403c-2.834-2.834-6.088-3.674-8.293-2.099c-2.729,1.994-1.574,5.668,0.63,9.762
		c3.359,6.508,8.398,14.697,1.365,21.73c-5.983,5.983-13.961,5.039-20.05-1.05c-1.785-1.785,2.834-9.448,5.668-6.613
		c2.31,2.309,5.039,3.569,7.453,1.364C275.243,385.555,273.458,381.986,271.358,377.682"/>
	<path fill="#9FB328" d="M580.822,677.804c2.415-7.139,5.354-16.271,15.222-15.746c7.453,0.42,13.227,7.138,13.227,16.796
		c0,6.508-8.607,4.618-8.607,0.42c0-3.989-1.68-6.929-4.409-7.349c-3.254-0.524-5.039,2.939-6.403,7.349
		c-2.205,6.928-4.409,16.271-14.382,16.271c-8.397,0-13.437-6.298-13.437-14.906c0-2.52,8.713-4.724,8.713-0.63
		c0,3.254,1.05,6.089,4.304,6.299C577.988,686.201,579.248,682.422,580.822,677.804"/>
	<path fill="#9FB328" d="M410.765,574.089c2.414-7.139,5.354-16.271,15.221-15.746c7.453,0.42,13.227,7.138,13.227,16.796
		c0,6.509-8.607,4.619-8.607,0.42c0-3.989-1.68-6.929-4.409-7.349c-3.254-0.524-5.039,2.939-6.403,7.349
		c-2.204,6.928-4.409,16.271-14.382,16.271c-8.397,0-13.437-6.298-13.437-14.906c0-2.52,8.713-4.724,8.713-0.63
		c0,3.255,1.05,6.089,4.304,6.299C407.93,582.486,409.189,578.708,410.765,574.089"/>
	<path fill="#9FB328" d="M482.882,670.98c3.359,6.823,7.768,15.326,0.42,21.834c-5.669,4.934-14.382,4.305-21.205-2.52
		c-4.619-4.618,2.834-9.342,5.773-6.403c2.835,2.835,6.089,3.675,8.293,2.1c2.729-1.994,1.575-5.668-0.63-9.763
		c-3.359-6.508-8.397-14.696-1.364-21.729c5.983-5.983,13.961-5.039,20.05,1.05c1.785,1.785-2.834,9.447-5.669,6.613
		c-2.309-2.31-5.038-3.569-7.453-1.364C478.998,663.002,480.782,666.676,482.882,670.98"/>
	<path fill="#9FB328" d="M362.161,160.7c-7.138-2.415-2.939-10.288,1.47-8.923c6.929,2.205,16.271,4.409,16.271,14.381
		c0,8.398-6.299,13.437-14.907,13.437c-2.519,0-8.503-0.525-15.746-3.779c-0.524-0.21-0.84-0.945-0.524-1.47l2.414-5.773
		c0.315-0.63,0.945-0.84,1.47-0.63c2.729,1.155,7.663,2.939,11.757,2.939c3.255,0,6.089-1.05,6.299-4.304
		C370.56,163.535,366.675,162.275,362.161,160.7"/>
	<path fill="#9FB328" d="M90.068,658.488c-0.63,0-1.155-0.525-1.155-1.154v-6.194c0-0.63,0.525-1.154,1.155-1.154h16.166
		c0.63,0,1.155,0.524,1.155,1.154v16.166c0,0.735-0.21,1.365-0.84,1.89c-4.199,3.779-10.183-3.464-8.503-4.828v-5.879H90.068
		L90.068,658.488z"/>
	<path fill="#9FB328" d="M30.652,613.034c0.42,0.42,0.42,1.155,0,1.575l-4.409,4.408c-0.42,0.42-1.155,0.42-1.575,0l-11.442-11.441
		c-0.42-0.42-0.42-1.155,0-1.575l11.442-11.442c0.525-0.524,1.155-0.84,1.89-0.84c5.668,0.315,4.829,9.658,2.624,9.448l-4.094,4.094
		L30.652,613.034z"/>
	<path fill="#9FB328" d="M126.914,577.868c0,17.53-13.857,22.884-23.724,22.884c-9.658,0-23.62-5.354-23.62-22.884
		c0-6.929,8.713-3.569,8.713,0c0,11.757,11.022,13.437,14.802,13.437c3.779,0,15.326-1.68,15.326-13.437
		C118.411,575.243,126.914,571.045,126.914,577.868z"/>
	<path fill="#9FB328" d="M351.979,639.488c0,17.53-13.856,22.884-23.724,22.884c-9.658,0-23.62-5.354-23.62-22.884
		c0-6.929,8.713-3.569,8.713,0c0,11.757,11.021,13.437,14.801,13.437s15.326-1.68,15.326-13.437
		C343.476,636.863,351.979,632.664,351.979,639.488z"/>
	<path fill="#9FB328" d="M42.305,684.417c7.138,2.414,2.939,10.287-1.47,8.923c-6.928-2.205-16.271-4.409-16.271-14.382
		c0-8.397,6.298-13.437,14.906-13.437c2.52,0,8.503,0.524,15.746,3.779c0.525,0.21,0.84,0.944,0.525,1.47l-2.414,5.773
		c-0.315,0.63-0.945,0.84-1.47,0.63c-2.729-1.155-7.663-2.939-11.757-2.939c-3.254,0-6.088,1.05-6.298,4.304
		C34.012,681.582,37.791,682.842,42.305,684.417"/>
	<path fill="#9FB328" d="M410.555,641.272c7.138,2.414,2.939,10.287-1.47,8.923c-6.929-2.204-16.271-4.409-16.271-14.382
		c0-8.397,6.299-13.437,14.906-13.437c2.52,0,8.503,0.525,15.746,3.779c0.525,0.21,0.84,0.944,0.525,1.47l-2.414,5.773
		c-0.315,0.63-0.945,0.84-1.47,0.63c-2.729-1.155-7.663-2.939-11.758-2.939c-3.254,0-6.088,1.05-6.298,4.304
		C402.156,638.438,406.04,639.698,410.555,641.272"/>
	<path fill="#9FB328" d="M169.324,661.532c-3.359-6.823,5.249-9.447,7.348-5.248c3.359,6.508,8.398,14.696,1.364,21.729
		c-5.983,5.983-13.961,5.038-20.05-1.05c-1.785-1.785-5.668-6.403-8.503-13.856c-0.21-0.525,0.105-1.26,0.735-1.47l5.773-2.31
		c0.63-0.21,1.26,0,1.575,0.63c1.155,2.729,3.359,7.558,6.193,10.393c2.31,2.31,5.039,3.568,7.453,1.364
		C173.208,669.405,171.423,665.836,169.324,661.532"/>
	<path fill="#9FB328" d="M190.003,606.421c6.823-3.359,9.448,5.249,5.249,7.349c-6.508,3.358-14.696,8.397-21.729,1.364
		c-5.983-5.983-5.039-13.962,1.05-20.05c1.785-1.785,6.403-5.669,13.856-8.503c0.525-0.21,1.26,0.104,1.47,0.734l2.31,5.773
		c0.21,0.63,0,1.26-0.63,1.575c-2.729,1.154-7.558,3.359-10.393,6.193c-2.31,2.31-3.569,5.039-1.365,7.453
		C182.13,610.41,185.7,608.521,190.003,606.421"/>
	<path fill="#9FB328" d="M249.419,671.085c7.138,2.414,16.271,5.354,15.746,15.222c-0.42,7.453-7.138,13.227-16.796,13.227
		c-6.508,0-4.619-8.608-0.42-8.608c3.989,0,6.928-1.679,7.348-4.408c0.525-3.255-2.939-5.039-7.348-6.403
		c-6.928-2.205-16.271-4.409-16.271-14.382c0-8.398,6.298-13.437,14.906-13.437c2.52,0,4.724,8.713,0.63,8.713
		c-3.254,0-6.088,1.05-6.298,4.304C241.126,668.251,244.905,669.405,249.419,671.085"/>
	<path fill="#9FB328" d="M417.902,311.023c-6.823,3.359-15.326,7.768-21.834,0.42c-4.935-5.669-4.305-14.382,2.519-21.205
		c4.619-4.619,9.343,2.834,6.404,5.774c-2.835,2.834-3.675,6.088-2.1,8.293c1.994,2.729,5.668,1.574,9.763-0.63
		c6.508-3.359,14.696-8.398,21.729-1.365c5.983,5.983,5.038,13.961-1.05,20.05c-1.785,1.785-9.448-2.834-6.613-5.668
		c2.31-2.31,3.568-5.039,1.364-7.453C425.775,307.139,422.206,308.924,417.902,311.023"/>
	<path fill="#9FB328" d="M306.84,570.625c2.414-7.139,5.354-16.271,15.221-15.746c7.559,0.42,13.228,7.138,13.228,16.796
		c0,6.508-8.608,4.618-8.608,0.42c0-3.989-1.68-6.929-4.409-7.349c-3.254-0.524-5.038,2.939-6.403,7.349
		c-2.204,6.928-4.408,16.271-14.381,16.271c-8.398,0-13.437-6.299-13.437-14.906c0-2.52,8.713-4.724,8.713-0.63
		c0,3.254,1.05,6.089,4.304,6.299C304.005,579.022,305.265,575.139,306.84,570.625"/>
	<path fill="#9FB328" d="M39.47,525.275c2.415-7.138,5.354-16.271,15.221-15.746c7.453,0.42,13.227,7.139,13.227,16.796
		c0,6.509-8.608,4.619-8.608,0.42c0-3.988-1.68-6.928-4.409-7.348c-3.254-0.525-5.039,2.939-6.403,7.348
		c-2.205,6.929-4.409,16.271-14.381,16.271c-8.398,0-13.437-6.299-13.437-14.906c0-2.52,8.713-4.724,8.713-0.63
		c0,3.254,1.05,6.088,4.304,6.298C36.636,533.568,37.896,529.79,39.47,525.275"/>
	<path fill="#9FB328" d="M228.529,523.807c-7.138-2.415-16.271-5.354-15.746-15.222c0.42-7.453,7.138-13.227,16.796-13.227
		c6.508,0,4.619,8.607,0.42,8.607c-3.989,0-6.928,1.68-7.348,4.409c-0.525,3.254,2.939,5.039,7.348,6.403
		c6.928,2.204,16.271,4.409,16.271,14.382c0,8.397-6.298,13.437-14.906,13.437c-2.52,0-4.724-8.713-0.63-8.713
		c3.254,0,6.088-1.05,6.298-4.304C236.822,526.641,233.043,525.381,228.529,523.807"/>
	<path fill="#9FB328" d="M361.531,398.047c-0.104,0.63-0.734,1.05-1.26,0.945l-6.088-1.05c-0.63-0.105-1.05-0.735-0.945-1.26
		l2.624-15.957c0.105-0.63,0.735-1.05,1.26-0.945l15.956,2.625c0.735,0.105,1.365,0.525,1.785,1.05
		c3.044,4.724-5.039,9.553-6.193,7.663l-5.773-0.945L361.531,398.047z"/>
	<path fill="#9FB328" d="M352.084,533.148c-0.63-0.104-1.05-0.734-0.945-1.259l0.945-6.089c0.104-0.63,0.734-1.05,1.26-0.945
		l15.956,2.625c0.63,0.104,1.05,0.734,0.944,1.26l-2.624,15.956c-0.105,0.734-0.525,1.364-1.05,1.784
		c-4.724,3.045-9.553-5.038-7.663-6.193l0.944-5.773L352.084,533.148z"/>
	<path fill="#9FB328" d="M347.359,268.929c-0.104,0.63-0.734,1.05-1.259,0.945l-6.089-1.05c-0.63-0.105-1.05-0.735-0.945-1.26
		l2.625-15.956c0.104-0.63,0.734-1.05,1.26-0.945l15.956,2.625c0.734,0.105,1.364,0.525,1.784,1.05
		c3.045,4.724-5.038,9.552-6.193,7.663l-5.773-0.945L347.359,268.929z"/>
	<path fill="#9FB328" d="M576.624,524.017c0.104-0.63,0.734-1.05,1.26-0.945l6.088,1.05c0.63,0.105,1.05,0.734,0.945,1.26
		l-2.625,15.956c-0.104,0.63-0.734,1.05-1.26,0.944l-15.956-2.624c-0.734-0.104-1.364-0.524-1.784-1.05
		c-3.044-4.724,5.039-9.553,6.193-7.663l5.773,0.945L576.624,524.017z"/>
	<path fill="#9FB328" d="M494.744,236.807c-0.315-0.525-0.21-1.26,0.21-1.575l5.038-3.569c0.525-0.315,1.26-0.21,1.575,0.209
		l9.447,13.122c0.315,0.525,0.21,1.26-0.21,1.575l-13.122,9.447c-0.63,0.42-1.26,0.63-1.994,0.525
		c-5.563-1.155-3.149-10.287-1.05-9.762l4.724-3.464L494.744,236.807z"/>
	<path fill="#9FB328" d="M338.122,305.46c17.321,2.834,20.365,17.32,18.79,27.083c-1.574,9.448-9.027,22.465-26.453,19.63
		c-6.929-1.155-2.1-9.133,1.364-8.608c11.652,1.89,15.012-8.713,15.642-12.492c0.63-3.674,0.84-15.431-10.812-17.32
		C334.238,313.333,331.403,304.305,338.122,305.46z"/>
	<path fill="#9FB328" d="M581.138,576.608c17.32,2.834,20.365,17.32,18.79,27.083c-1.574,9.448-9.027,22.465-26.453,19.631
		c-6.929-1.155-2.1-9.133,1.364-8.608c11.652,1.89,15.012-8.713,15.642-12.492c0.63-3.674,0.84-15.431-10.812-17.32
		C577.254,584.586,574.419,575.453,581.138,576.608z"/>
	<path fill="#9FB328" d="M516.158,295.277c-2.834,17.321-17.32,20.365-27.083,18.79c-9.447-1.574-22.465-9.027-19.63-26.453
		c1.154-6.929,9.133-2.1,8.607,1.364c-1.89,11.652,8.713,15.012,12.492,15.642c3.674,0.63,15.431,0.84,17.32-10.812
		C508.285,291.288,517.313,288.559,516.158,295.277z"/>
	<path fill="#9FB328" d="M416.223,501.972c2.835-17.321,17.321-20.365,27.084-18.79c9.447,1.574,22.464,9.027,19.63,26.453
		c-1.154,6.928-9.133,2.1-8.608-1.364c1.89-11.652-8.712-15.012-12.491-15.642c-3.675-0.63-15.432-0.84-17.321,10.812
		C424.096,505.855,415.068,508.585,416.223,501.972z"/>
	<path fill="#9FB328" d="M536.629,175.082c2.834-17.321,17.32-20.365,27.083-18.791c9.447,1.575,22.465,9.028,19.63,26.454
		c-1.154,6.928-9.133,2.1-8.607-1.365c1.89-11.652-8.713-15.011-12.492-15.641c-3.674-0.629-15.432-0.839-17.32,10.812
		C544.502,178.966,535.474,181.8,536.629,175.082z"/>
	<path fill="#9FB328" d="M569.171,444.551c-10.288-14.276-2.1-26.664,5.878-32.438c7.769-5.563,22.255-9.447,32.542,4.829
		c4.095,5.669-4.934,7.979-7.033,5.039c-6.928-9.553-16.796-4.409-19.84-2.205c-3.044,2.205-11.442,10.288-4.619,19.841
		C577.568,441.717,573.055,450.01,569.171,444.551z"/>
	<path fill="#9FB328" d="M556.783,222.635c-6.718-3.569-1.26-10.707,2.939-8.607c6.509,3.254,15.432,7.033,13.752,16.9
		c-1.365,8.293-8.293,12.282-16.901,10.812c-2.519-0.42-8.293-1.89-15.011-6.298c-0.525-0.315-0.63-1.05-0.315-1.575l3.359-5.249
		c0.315-0.525,1.05-0.735,1.575-0.42c2.519,1.575,7.138,4.199,11.127,4.829c3.149,0.525,6.193,0,6.823-3.254
		C564.552,226.834,561.088,224.944,556.783,222.635"/>
	<path fill="#9FB328" d="M514.584,493.679c-3.569,6.718-10.707,1.26-8.608-2.939c3.255-6.509,7.034-15.432,16.901-13.752
		c8.293,1.365,12.282,8.293,10.812,16.901c-0.42,2.52-1.89,8.293-6.299,15.011c-0.314,0.525-1.05,0.63-1.574,0.315l-5.249-3.359
		c-0.524-0.314-0.734-1.05-0.42-1.574c1.574-2.52,4.199-7.139,4.829-11.128c0.524-3.148-0.105-6.193-3.255-6.823
		C518.783,485.91,516.894,489.479,514.584,493.679"/>
	<path fill="#9FB328" d="M427.351,366.555c3.568-6.718,10.707-1.26,8.607,2.939c-3.254,6.508-6.928,15.431-16.9,13.751
		c-8.293-1.365-12.282-8.293-10.812-16.901c0.42-2.52,1.89-8.293,6.298-15.011c0.315-0.525,1.05-0.63,1.575-0.315l5.249,3.359
		c0.524,0.314,0.734,1.049,0.42,1.574c-1.575,2.52-4.199,7.139-4.829,11.127c-0.525,3.149,0,6.193,3.254,6.823
		C423.256,374.428,425.041,370.859,427.351,366.555"/>
	<path fill="#9FB328" d="M603.077,478.877c3.569-6.718,10.707-1.26,8.608,2.939c-3.255,6.509-6.929,15.432-16.901,13.752
		c-8.293-1.365-12.282-8.293-10.812-16.901c0.42-2.52,1.89-8.293,6.299-15.011c0.314-0.525,1.05-0.63,1.574-0.315l5.249,3.359
		c0.524,0.315,0.734,1.05,0.42,1.574c-1.574,2.52-4.199,7.139-4.829,11.128c-0.524,3.149,0,6.193,3.255,6.823
		C598.878,486.646,600.768,483.076,603.077,478.877"/>
	<path fill="#9FB328" d="M169.533,434.893c3.569-6.718,10.708-1.26,8.608,2.939c-3.254,6.509-6.928,15.432-16.901,13.752
		c-8.293-1.365-12.282-8.293-10.812-16.901c0.42-2.519,1.89-8.293,6.298-15.011c0.315-0.525,1.05-0.63,1.575-0.315l5.249,3.359
		c0.525,0.315,0.735,1.05,0.42,1.575c-1.575,2.519-4.199,7.138-4.829,11.127c-0.525,3.149,0,6.193,3.254,6.823
		C165.334,442.661,167.224,439.092,169.533,434.893"/>
	<path fill="#9FB328" d="M469.235,132.462c3.568-6.718,10.707-1.26,8.607,2.939c-3.254,6.508-6.928,15.431-16.9,13.751
		c-8.293-1.365-12.282-8.293-10.812-16.901c0.42-2.519,1.89-8.293,6.298-15.011c0.315-0.525,1.05-0.63,1.575-0.315l5.249,3.359
		c0.524,0.315,0.734,1.05,0.419,1.575c-1.574,2.519-4.198,7.138-4.828,11.127c-0.525,3.149,0,6.194,3.254,6.824
		C465.036,140.23,466.926,136.661,469.235,132.462"/>
	<path fill="#9FB328" d="M504.506,360.256c-6.718-3.569-1.259-10.708,2.939-8.608c6.509,3.254,15.432,7.033,13.752,16.901
		c-1.364,8.293-8.293,12.282-16.9,10.812c-2.52-0.419-8.293-1.889-15.012-6.193c-0.525-0.315-0.63-1.05-0.315-1.574l3.359-5.249
		c0.315-0.525,1.05-0.735,1.575-0.42c2.52,1.575,7.138,4.199,11.127,4.829c3.149,0.525,6.193,0,6.823-3.254
		C512.274,364.455,508.705,362.566,504.506,360.256"/>
	<path fill="#9FB328" d="M581.978,119.655c-7.243,2.205-8.398-6.613-3.989-8.188c6.929-2.31,15.852-5.983,21.625,2.205
		c4.934,6.823,2.729,14.591-4.304,19.63c-1.995,1.47-7.244,4.514-15.012,6.193c-0.63,0.105-1.154-0.314-1.26-0.944l-1.364-6.089
		c-0.105-0.63,0.21-1.26,0.84-1.469c2.834-0.63,7.978-2.1,11.231-4.409c2.625-1.89,4.305-4.409,2.625-7.138
		C590.375,117.031,586.491,118.291,581.978,119.655"/>
	<path fill="#9FB328" d="M400.477,227.149c-2.204-7.243,6.613-8.398,8.188-3.989c2.31,6.929,5.983,15.851-2.205,21.625
		c-6.823,4.934-14.591,2.729-19.63-4.304c-1.47-1.994-4.514-7.243-6.193-15.011c-0.105-0.63,0.314-1.155,0.944-1.365l6.089-1.364
		c0.63-0.105,1.26,0.209,1.364,0.839c0.63,2.834,2.1,7.978,4.409,11.232c1.89,2.625,4.409,4.304,7.139,2.625
		C402.996,235.547,401.842,231.768,400.477,227.149"/>
	<path fill="#9FB328" d="M459.787,186.209c3.569-6.718,7.873-15.221,17.531-13.122c7.348,1.68,11.861,9.238,10.393,18.686
		c-1.05,6.403-9.238,3.149-8.608-0.945c0.63-3.989-0.524-7.138-3.149-7.978c-3.149-1.05-5.458,1.995-7.558,6.193
		c-3.255,6.509-7.033,15.432-16.901,13.752c-8.293-1.365-12.282-8.293-10.812-16.901c0.42-2.52,9.343-3.254,8.713,0.735
		c-0.524,3.149,0,6.193,3.255,6.823C455.693,193.977,457.478,190.408,459.787,186.209"/>
	<path fill="#9FB328" d="M569.065,357.107c-6.719-3.569-15.222-7.873-13.122-17.531c1.68-7.348,9.238-11.862,18.686-10.392
		c6.403,1.049,3.149,9.238-0.944,8.608c-3.989-0.63-7.139,0.524-7.979,3.149c-1.05,3.149,1.995,5.458,6.193,7.558
		c6.509,3.254,15.432,7.033,13.752,16.901c-1.364,8.293-8.293,12.282-16.9,10.812c-2.52-0.42-3.255-9.343,0.734-8.713
		c3.149,0.525,6.193,0,6.823-3.254C576.834,361.306,573.265,359.417,569.065,357.107"/>
	<path fill="#9FB328" d="M397.433,124.169c-6.719-3.569-15.222-7.873-13.122-17.53c1.68-7.349,9.238-11.862,18.686-10.393
		c6.403,1.05,3.149,9.238-0.944,8.608c-3.989-0.63-7.139,0.525-7.979,3.149c-1.05,3.149,1.995,5.459,6.193,7.559
		c6.509,3.254,15.432,7.033,13.752,16.9c-1.364,8.293-8.293,12.282-16.901,10.812c-2.519-0.42-3.254-9.343,0.735-8.713
		c3.149,0.525,6.193,0,6.823-3.254C405.201,128.263,401.632,126.374,397.433,124.169"/>
	<path fill="#9FB328" d="M350.509,443.815c-7.243,2.205-16.376,5.249-21.624-3.148c-3.989-6.404-1.89-14.907,5.878-20.575
		c5.249-3.779,8.818,4.304,5.459,6.718c-3.254,2.31-4.619,5.459-3.359,7.873c1.47,2.939,5.354,2.415,9.763,0.945
		c6.929-2.31,15.852-5.983,21.625,2.204c4.934,6.823,2.729,14.592-4.305,19.631c-1.994,1.469-8.817-4.305-5.563-6.719
		c2.625-1.89,4.305-4.409,2.625-7.139C358.907,441.191,355.128,442.451,350.509,443.815"/>
	<path fill="#9FB328" d="M316.812,213.083c-3.569,6.718-7.873,15.221-17.531,13.017c-7.348-1.68-11.862-9.238-10.393-18.686
		c1.05-6.403,9.238-3.149,8.608,0.945c-0.63,3.989,0.525,7.138,3.149,7.978c3.149,1.05,5.459-1.995,7.558-6.193
		c3.255-6.508,7.033-15.431,16.901-13.751c8.293,1.364,12.282,8.293,10.812,16.901c-0.42,2.519-9.343,3.254-8.713-0.735
		c0.524-3.149,0-6.193-3.255-6.823C320.906,205.314,319.122,208.883,316.812,213.083"/>
	<path fill="#9FB328" d="M514.374,557.817c-3.569,6.719-7.873,15.222-17.531,13.122c-7.348-1.68-11.861-9.237-10.392-18.686
		c1.049-6.403,9.237-3.148,8.607,0.945c-0.63,3.988,0.525,7.138,3.149,7.978c3.149,1.05,5.459-1.994,7.558-6.193
		c3.255-6.508,7.033-15.431,16.901-13.751c8.293,1.364,12.282,8.292,10.812,16.9c-0.42,2.52-9.343,3.254-8.713-0.734
		c0.524-3.149,0-6.194-3.255-6.824C518.468,550.05,516.684,553.619,514.374,557.817"/>
	<path fill="#9FB328" d="M220.026,360.991c0.315,0.525,0.21,1.26-0.21,1.575l-5.039,3.569c-0.525,0.315-1.26,0.21-1.575-0.21
		l-9.448-13.122c-0.315-0.525-0.21-1.26,0.21-1.575l13.122-9.448c0.63-0.42,1.26-0.63,1.994-0.525
		c5.564,1.155,3.149,10.288,1.05,9.763l-4.724,3.464L220.026,360.991z"/>
	<path fill="#9FB328" d="M29.288,374.533c0.105-0.63,0.735-1.05,1.26-0.945l6.089,0.945c0.629,0.105,1.049,0.735,0.944,1.26
		l-2.624,15.956c-0.105,0.63-0.735,1.05-1.26,0.945l-15.851-2.415c-0.735-0.105-1.365-0.525-1.785-1.05
		c-3.044-4.724,5.039-9.553,6.193-7.663l5.774,0.945L29.288,374.533z"/>
	<path fill="#9FB328" d="M74.217,176.026c0.315,0.525,0.21,1.26-0.21,1.575l-5.039,3.569c-0.525,0.315-1.26,0.21-1.575-0.21
		l-9.448-13.122c-0.315-0.525-0.21-1.26,0.21-1.575l13.122-9.447c0.63-0.42,1.26-0.63,1.995-0.42
		c5.563,1.154,3.149,10.287,1.05,9.762l-4.724,3.464L74.217,176.026z"/>
	<path fill="#9FB328" d="M110.538,487.59c0.315,0.525,0.21,1.26-0.21,1.575l-5.039,3.568c-0.525,0.315-1.26,0.21-1.575-0.21
		l-9.447-13.121c-0.315-0.525-0.21-1.26,0.21-1.575l13.122-9.447c0.63-0.42,1.26-0.63,1.995-0.525
		c5.563,1.155,3.149,10.288,1.05,9.763l-4.724,3.465L110.538,487.59z"/>
	<path fill="#9FB328" d="M398.902,694.284c0.314,0.525,0.21,1.26-0.21,1.575l-5.039,3.568c-0.524,0.315-1.26,0.211-1.574-0.21
		l-9.448-13.121c-0.314-0.525-0.21-1.26,0.21-1.575l13.122-9.447c0.63-0.42,1.26-0.63,1.994-0.525
		c5.564,1.155,3.149,10.288,1.05,9.763l-4.724,3.465L398.902,694.284z"/>
	<path fill="#9FB328" d="M57.631,103.804c-2.834,17.321-17.321,20.365-27.083,18.791c-9.448-1.575-22.464-9.028-19.63-26.454
		c1.155-6.928,9.133-2.1,8.608,1.365c-1.89,11.652,8.713,15.116,12.387,15.641c3.674,0.63,15.431,0.84,17.321-10.812
		C49.653,99.815,58.681,97.086,57.631,103.804z"/>
	<path fill="#9FB328" d="M12.387,422.716c17.32,2.835,20.365,17.321,18.79,27.083c-1.575,9.448-9.028,22.465-26.454,19.631
		c-6.928-1.155-2.099-9.133,1.365-8.608c11.652,1.89,15.011-8.713,15.641-12.491c0.63-3.675,0.84-15.432-10.812-17.321
		C8.503,430.589,5.668,421.562,12.387,422.716z"/>
	<path fill="#9FB328" d="M4.724,314.382c-10.287-14.276-2.099-26.663,5.879-32.437c7.768-5.563,22.254-9.447,32.542,4.829
		c4.094,5.668-4.934,7.978-7.033,5.039c-6.929-9.553-16.796-4.409-19.84-2.205c-3.044,2.205-11.442,10.288-4.619,19.84
		C13.122,311.443,8.713,319.841,4.724,314.382z"/>
	<path fill="#9FB328" d="M131.008,398.782c-10.288-14.277-2.205-26.664,5.878-32.438c7.768-5.563,22.255-9.448,32.542,4.829
		c4.094,5.668-4.934,7.978-7.034,5.039c-6.928-9.553-16.796-4.409-19.84-2.205c-3.044,2.205-11.442,10.288-4.619,19.84
		C139.406,395.948,134.892,404.346,131.008,398.782z"/>
	<path fill="#9FB328" d="M154.522,204.055c-10.287-14.276-2.099-26.664,5.879-32.437c7.768-5.564,22.254-9.448,32.542,4.829
		c4.094,5.668-4.934,7.978-7.033,5.039c-6.929-9.553-16.796-4.409-19.84-2.205s-11.442,10.288-4.619,19.84
		C162.92,201.115,158.406,209.513,154.522,204.055z"/>
	<path fill="#9FB328" d="M124.08,116.506c3.569-6.718,10.708-1.26,8.608,2.939c-3.254,6.508-6.928,15.431-16.901,13.751
		c-8.293-1.365-12.282-8.293-10.812-16.901c0.42-2.519,1.89-8.293,6.299-15.011c0.315-0.525,1.049-0.63,1.574-0.315l5.249,3.359
		c0.525,0.315,0.735,1.05,0.42,1.575c-1.575,2.519-4.199,7.138-4.829,11.127c-0.525,3.149,0,6.194,3.254,6.824
		C119.881,124.274,121.77,120.705,124.08,116.506"/>
	<path fill="#9FB328" d="M86.813,414.003c3.569-6.718,10.708-1.26,8.608,2.939c-3.254,6.509-6.928,15.432-16.901,13.752
		c-8.293-1.365-12.282-8.293-10.812-16.901c0.42-2.52,1.89-8.293,6.193-15.011c0.315-0.525,1.05-0.63,1.575-0.315l5.249,3.359
		c0.525,0.314,0.735,1.05,0.42,1.574c-1.575,2.52-4.199,7.139-4.829,11.128c-0.525,3.148,0,6.193,3.254,6.823
		C82.72,421.771,84.504,418.202,86.813,414.003"/>
	<path fill="#9FB328" d="M102.14,237.751c-7.243,2.204-8.398-6.614-3.989-8.188c6.928-2.31,15.851-5.984,21.625,2.204
		c4.934,6.823,2.729,14.592-4.304,19.63c-1.995,1.47-7.243,4.514-15.011,6.193c-0.63,0.105-1.155-0.315-1.365-0.945l-1.365-6.088
		c-0.105-0.63,0.21-1.26,0.84-1.47c2.834-0.63,7.978-2.099,11.232-4.409c2.624-1.89,4.304-4.409,2.624-7.138
		C110.643,235.232,106.759,236.387,102.14,237.751"/>
	<path fill="#9FB328" d="M211.208,241.11c-7.243,2.205-8.398-6.613-3.989-8.188c6.928-2.309,15.851-5.983,21.625,2.205
		c4.934,6.823,2.729,14.591-4.304,19.63c-1.995,1.469-7.243,4.514-15.011,6.193c-0.63,0.105-1.155-0.315-1.365-0.945l-1.365-6.088
		c-0.105-0.63,0.21-1.26,0.84-1.47c2.834-0.63,7.978-2.1,11.232-4.409c2.625-1.89,4.304-4.409,2.625-7.139
		C219.711,238.591,215.827,239.746,211.208,241.11"/>
	<path fill="#9FB328" d="M188.954,105.694c3.569-6.718,7.873-15.221,17.531-13.122c7.348,1.68,11.862,9.238,10.393,18.686
		c-1.05,6.403-9.238,3.149-8.608-0.945c0.63-3.989-0.525-7.138-3.149-7.978c-3.149-1.05-5.458,1.995-7.558,6.193
		c-3.254,6.508-7.033,15.431-16.901,13.752c-8.293-1.365-12.282-8.293-10.812-16.901c0.42-2.52,9.343-3.254,8.713,0.735
		c-0.525,3.149,0,6.193,3.254,6.823C184.755,113.462,186.644,109.893,188.954,105.694"/>
	<path fill="#9FB328" d="M28.343,221.271c-6.719-3.569-15.222-7.873-13.017-17.531c1.68-7.348,9.238-11.862,18.686-10.393
		c6.403,1.05,3.149,9.238-0.945,8.608c-3.989-0.63-7.138,0.525-7.978,3.149c-1.05,3.149,1.995,5.458,6.193,7.558
		c6.508,3.254,15.431,7.033,13.752,16.901c-1.365,8.293-8.293,12.282-16.901,10.812c-2.52-0.42-3.254-9.342,0.735-8.713
		c3.149,0.525,6.193,0,6.823-3.254C36.111,225.364,32.542,223.58,28.343,221.271"/>
	<path fill="#9FB328" d="M169.219,301.366c-6.719-3.569-15.222-7.873-13.122-17.531c1.68-7.348,9.238-11.862,18.686-10.393
		c6.403,1.05,3.149,9.238-0.945,8.608c-3.989-0.63-7.138,0.525-7.978,3.149c-1.05,3.149,1.995,5.458,6.193,7.558
		c6.508,3.254,15.431,7.033,13.752,16.901c-1.365,8.293-8.293,12.282-16.901,10.812c-2.52-0.42-3.254-9.343,0.734-8.713
		c3.149,0.525,6.194,0,6.824-3.254C176.987,305.46,173.417,303.675,169.219,301.366"/>
	<path fill="#9FB328" d="M97.836,328.239c-3.569,6.718-7.873,15.221-17.531,13.122c-7.348-1.68-11.862-9.238-10.392-18.686
		c1.049-6.403,9.237-3.149,8.607,0.945c-0.629,3.989,0.525,7.138,3.149,7.978c3.149,1.05,5.458-1.994,7.558-6.193
		c3.254-6.508,7.033-15.431,16.901-13.751c8.293,1.365,12.282,8.293,10.812,16.901c-0.42,2.519-9.343,3.254-8.713-0.735
		c0.525-3.149,0-6.193-3.254-6.823C102.035,320.366,100.146,323.935,97.836,328.239"/>
</g>
</svg>
