<?xml version="1.0" encoding="utf-8"?>
<!-- Generator: Adobe Illustrator 17.1.0, SVG Export Plug-In . SVG Version: 6.00 Build 0)  -->
<!DOCTYPE svg PUBLIC "-//W3C//DTD SVG 1.1//EN" "http://www.w3.org/Graphics/SVG/1.1/DTD/svg11.dtd">
<svg version="1.1" id="Layer_1" xmlns="http://www.w3.org/2000/svg" xmlns:xlink="http://www.w3.org/1999/xlink" x="0px" y="0px"
	 viewBox="0 0 583 578.6" enable-background="new 0 0 583 578.6" xml:space="preserve">
<rect fill="none" width="583" height="578.6"/>
<path fill="#FFFFFF" d="M409.8,327.3c-0.6,0-1.1-0.5-1.1-1.1v-5.9c0-0.6,0.5-1.1,1.1-1.1h15.4c0.6,0,1.1,0.5,1.1,1.1v15.4
	c0,0.7-0.2,1.3-0.8,1.8c-4,3.6-9.7-3.3-8.1-4.6v-5.6L409.8,327.3L409.8,327.3z"/>
<rect fill="none" width="583" height="578.6"/>
<path fill="#FFFFFF" d="M306.8,15.4c0.6,0,1.1,0.5,1.1,1.1v5.9c0,0.6-0.5,1.1-1.1,1.1l-15.4,0c-0.6,0-1.1-0.5-1.1-1.1V7
	c0-0.7,0.2-1.3,0.8-1.8c4-3.6,9.7,3.3,8.1,4.6v5.6L306.8,15.4z"/>
<rect fill="none" width="583" height="578.6"/>
<path fill="#FFFFFF" d="M498.3,300.8c0.4-0.4,1.1-0.4,1.5,0l4.2,4.2c0.4,0.4,0.4,1.1,0,1.5l-10.9,10.9c-0.4,0.4-1.1,0.4-1.5,0
	l-10.9-10.9c-0.5-0.5-0.8-1.1-0.8-1.8c0.3-5.4,9.2-4.6,9-2.5l3.9,3.9L498.3,300.8z"/>
<rect fill="none" width="583" height="578.6"/>
<path fill="#FFFFFF" d="M245.4,484.3c0.6,0,1.1,0.5,1.1,1.1v5.9c0,0.6-0.5,1.1-1.1,1.1H230c-0.6,0-1.1-0.5-1.1-1.1v-15.4
	c0-0.7,0.2-1.3,0.8-1.8c4-3.6,9.7,3.3,8.1,4.6v5.6L245.4,484.3L245.4,484.3z"/>
<rect fill="none" width="583" height="578.6"/>
<path fill="#FFFFFF" d="M491.6,22.6c-0.4,0.4-1.1,0.4-1.5,0l-4.2-4.2c-0.4-0.4-0.4-1.1,0-1.5L496.8,6c0.4-0.4,1.1-0.4,1.5,0
	l10.9,10.9c0.5,0.5,0.8,1.1,0.8,1.8c-0.3,5.4-9.2,4.6-9,2.5l-3.9-3.9L491.6,22.6z"/>
<rect fill="none" width="583" height="578.6"/>
<path fill="#FFFFFF" d="M210.5,332.1c-0.4,0.4-1.1,0.4-1.5,0l-4.2-4.2c-0.4-0.4-0.4-1.1,0-1.5l10.9-10.9c0.4-0.4,1.1-0.4,1.5,0
	l10.9,10.9c0.5,0.5,0.8,1.1,0.8,1.8c-0.3,5.4-9.2,4.6-9,2.5l-3.9-3.9L210.5,332.1z"/>
<rect fill="none" width="583" height="578.6"/>
<path fill="#FFFFFF" d="M484.5,504.1c-0.4,0.4-1.1,0.4-1.5,0l-4.2-4.2c-0.4-0.4-0.4-1.1,0-1.5l10.9-10.9c0.4-0.4,1.1-0.4,1.5,0
	l10.9,10.9c0.5,0.5,0.8,1.1,0.8,1.8c-0.3,5.4-9.2,4.6-9,2.5l-3.9-3.9L484.5,504.1z"/>
<rect fill="none" width="583" height="578.6"/>
<path fill="#FFFFFF" d="M578.8,170.2c0,16.7-13.2,21.8-22.6,21.8c-9.2,0-22.5-5.1-22.5-21.8c0-6.6,8.3-3.4,8.3,0
	c0,11.2,10.5,12.8,14.1,12.8s14.6-1.6,14.6-12.8C570.7,167.8,578.8,163.8,578.8,170.2"/>
<rect fill="none" width="583" height="578.6"/>
<path fill="#FFFFFF" d="M269.2,66.2c-11.8,11.8-24.7,6.1-31.4-0.5c-6.5-6.5-12.3-19.5-0.5-31.3c4.7-4.7,8.2,3.5,5.9,5.8
	c-7.9,7.9-1.6,16.5,0.9,19s11.4,9.2,19.4,1.3C265.2,58.8,273.8,61.7,269.2,66.2"/>
<rect fill="none" width="583" height="578.6"/>
<path fill="#FFFFFF" d="M288.3,180.7c0,16.7-13.2,21.8-22.6,21.8c-9.2,0-22.5-5.1-22.5-21.8c0-6.6,8.3-3.4,8.3,0
	c0,11.2,10.5,12.8,14.1,12.8c3.6,0,14.6-1.6,14.6-12.8C280.2,178.3,288.3,174.2,288.3,180.7"/>
<rect fill="none" width="583" height="578.6"/>
<path fill="#FFFFFF" d="M157.6,401c-3.2-6.5,5-9,7-5c3.2,6.2,8,14,1.3,20.7c-5.7,5.7-13.3,4.8-19.1-1c-1.7-1.7-5.4-6.1-8.1-13.2
	c-0.2-0.5,0.1-1.2,0.7-1.4l5.5-2.2c0.6-0.2,1.2,0,1.5,0.6c1.1,2.6,3.2,7.2,5.9,9.9c2.2,2.2,4.8,3.4,7.1,1.3
	C161.3,408.5,159.6,405.1,157.6,401"/>
<rect fill="none" width="583" height="578.6"/>
<path fill="#FFFFFF" d="M281.9,368.7c-3.2-6.5,5-9,7-5c3.2,6.2,8,14,1.3,20.7c-5.7,5.7-13.3,4.8-19.1-1c-1.7-1.7-5.4-6.1-8.1-13.2
	c-0.2-0.5,0.1-1.2,0.7-1.4l5.5-2.2c0.6-0.2,1.2,0,1.5,0.6c1.1,2.6,3.2,7.2,5.9,9.9c2.2,2.2,4.8,3.4,7.1,1.3
	C285.6,376.2,283.9,372.8,281.9,368.7"/>
<rect fill="none" width="583" height="578.6"/>
<path fill="#FFFFFF" d="M258.5,271.9c-3.2-6.5-7.4-14.6-0.4-20.8c5.4-4.7,13.7-4.1,20.2,2.4c4.4,4.4-2.7,8.9-5.5,6.1
	c-2.7-2.7-5.8-3.5-7.9-2c-2.6,1.9-1.5,5.4,0.6,9.3c3.2,6.2,8,14,1.3,20.7c-5.7,5.7-13.3,4.8-19.1-1c-1.7-1.7,2.7-9,5.4-6.3
	c2.2,2.2,4.8,3.4,7.1,1.3C262.3,279.4,260.5,276,258.5,271.9"/>
<rect fill="none" width="583" height="578.6"/>
<path fill="#FFFFFF" d="M553.4,557.8c2.3-6.8,5.1-15.5,14.5-15c7.1,0.4,12.6,6.8,12.6,16c0,6.2-8.2,4.4-8.2,0.4c0-3.8-1.6-6.6-4.2-7
	c-3.1-0.5-4.8,2.8-6.1,7c-2.1,6.6-4.2,15.5-13.7,15.5c-8,0-12.8-6-12.8-14.2c0-2.4,8.3-4.5,8.3-0.6c0,3.1,1,5.8,4.1,6
	C550.7,565.8,551.9,562.2,553.4,557.8"/>
<rect fill="none" width="583" height="578.6"/>
<path fill="#FFFFFF" d="M391.4,459c2.3-6.8,5.1-15.5,14.5-15c7.1,0.4,12.6,6.8,12.6,16c0,6.2-8.2,4.4-8.2,0.4c0-3.8-1.6-6.6-4.2-7
	c-3.1-0.5-4.8,2.8-6.1,7c-2.1,6.6-4.2,15.5-13.7,15.5c-8,0-12.8-6-12.8-14.2c0-2.4,8.3-4.5,8.3-0.6c0,3.1,1,5.8,4.1,6
	C388.7,467,389.9,463.3,391.4,459"/>
<rect fill="none" width="583" height="578.6"/>
<path fill="#FFFFFF" d="M460.1,551.3c3.2,6.5,7.4,14.6,0.4,20.8c-5.4,4.7-13.7,4.1-20.2-2.4c-4.4-4.4,2.7-8.9,5.5-6.1
	c2.7,2.7,5.8,3.5,7.9,2c2.6-1.9,1.5-5.4-0.6-9.3c-3.2-6.2-8-14-1.3-20.7c5.7-5.7,13.3-4.8,19.1,1c1.7,1.7-2.7,9-5.4,6.3
	c-2.2-2.2-4.8-3.4-7.1-1.3C456.3,543.7,458.1,547.1,460.1,551.3"/>
<rect fill="none" width="583" height="578.6"/>
<path fill="#FFFFFF" d="M345.1,65.2c-6.8-2.3-2.8-9.8,1.4-8.5c6.6,2.1,15.5,4.2,15.5,13.7c0,8-6,12.8-14.2,12.8
	c-2.4,0-8.1-0.5-15-3.6c-0.5-0.2-0.8-0.9-0.5-1.4l2.3-5.5c0.3-0.6,0.9-0.8,1.4-0.6c2.6,1.1,7.3,2.8,11.2,2.8c3.1,0,5.8-1,6-4.1
	C353,67.9,349.4,66.7,345.1,65.2"/>
<rect fill="none" width="583" height="578.6"/>
<path fill="#FFFFFF" d="M85.9,539.4c-0.6,0-1.1-0.5-1.1-1.1v-5.9c0-0.6,0.5-1.1,1.1-1.1h15.4c0.6,0,1.1,0.5,1.1,1.1v15.4
	c0,0.7-0.2,1.3-0.8,1.8c-4,3.6-9.7-3.3-8.1-4.6v-5.6L85.9,539.4L85.9,539.4z"/>
<rect fill="none" width="583" height="578.6"/>
<path fill="#FFFFFF" d="M29.3,496.1c0.4,0.4,0.4,1.1,0,1.5l-4.2,4.2c-0.4,0.4-1.1,0.4-1.5,0l-10.9-10.9c-0.4-0.4-0.4-1.1,0-1.5
	l10.9-10.9c0.5-0.5,1.1-0.8,1.8-0.8c5.4,0.3,4.6,9.2,2.5,9l-3.9,3.9L29.3,496.1z"/>
<rect fill="none" width="583" height="578.6"/>
<path fill="#FFFFFF" d="M121,462.6c0,16.7-13.2,21.8-22.6,21.8c-9.2,0-22.5-5.1-22.5-21.8c0-6.6,8.3-3.4,8.3,0
	c0,11.2,10.5,12.8,14.1,12.8c3.6,0,14.6-1.6,14.6-12.8C112.9,460.1,121,456.1,121,462.6"/>
<rect fill="none" width="583" height="578.6"/>
<path fill="#FFFFFF" d="M335.4,521.3c0,16.7-13.2,21.8-22.6,21.8c-9.2,0-22.5-5.1-22.5-21.8c0-6.6,8.3-3.4,8.3,0
	c0,11.2,10.5,12.8,14.1,12.8c3.6,0,14.6-1.6,14.6-12.8C327.3,518.8,335.4,514.8,335.4,521.3"/>
<rect fill="none" width="583" height="578.6"/>
<path fill="#FFFFFF" d="M40.4,564.1c6.8,2.3,2.8,9.8-1.4,8.5c-6.6-2.1-15.5-4.2-15.5-13.7c0-8,6-12.8,14.2-12.8
	c2.4,0,8.1,0.5,15,3.6c0.5,0.2,0.8,0.9,0.5,1.4l-2.3,5.5c-0.3,0.6-0.9,0.8-1.4,0.6c-2.6-1.1-7.3-2.8-11.2-2.8c-3.1,0-5.8,1-6,4.1
	C32.4,561.4,36.1,562.6,40.4,564.1"/>
<rect fill="none" width="583" height="578.6"/>
<path fill="#FFFFFF" d="M391.2,523c6.8,2.3,2.8,9.8-1.4,8.5c-6.6-2.1-15.5-4.2-15.5-13.7c0-8,6-12.8,14.2-12.8c2.4,0,8.1,0.5,15,3.6
	c0.5,0.2,0.8,0.9,0.5,1.4l-2.3,5.5c-0.3,0.6-0.9,0.8-1.4,0.6c-2.6-1.1-7.3-2.8-11.2-2.8c-3.1,0-5.8,1-6,4.1
	C383.2,520.3,386.8,521.5,391.2,523"/>
<rect fill="none" width="583" height="578.6"/>
<path fill="#FFFFFF" d="M161.4,542.3c-3.2-6.5,5-9,7-5c3.2,6.2,8,14,1.3,20.7c-5.7,5.7-13.3,4.8-19.1-1c-1.7-1.7-5.4-6.1-8.1-13.2
	c-0.2-0.5,0.1-1.2,0.7-1.4l5.5-2.2c0.6-0.2,1.2,0,1.5,0.6c1.1,2.6,3.2,7.2,5.9,9.9c2.2,2.2,4.8,3.4,7.1,1.3
	C165.1,549.8,163.4,546.4,161.4,542.3"/>
<rect fill="none" width="583" height="578.6"/>
<path fill="#FFFFFF" d="M181.1,489.8c6.5-3.2,9,5,5,7c-6.2,3.2-14,8-20.7,1.3c-5.7-5.7-4.8-13.3,1-19.1c1.7-1.7,6.1-5.4,13.2-8.1
	c0.5-0.2,1.2,0.1,1.4,0.7l2.2,5.5c0.2,0.6,0,1.2-0.6,1.5c-2.6,1.1-7.2,3.2-9.9,5.9c-2.2,2.2-3.4,4.8-1.3,7.1
	C173.5,493.5,177,491.8,181.1,489.8"/>
<rect fill="none" width="583" height="578.6"/>
<path fill="#FFFFFF" d="M237.7,551.3c6.8,2.3,15.5,5.1,15,14.5c-0.4,7.1-6.8,12.6-16,12.6c-6.2,0-4.4-8.2-0.4-8.2
	c3.8,0,6.6-1.6,7-4.2c0.5-3.1-2.8-4.8-7-6.1c-6.6-2.1-15.5-4.2-15.5-13.7c0-8,6-12.8,14.2-12.8c2.4,0,4.5,8.3,0.6,8.3
	c-3.1,0-5.8,1-6,4.1C229.7,548.7,233.4,549.8,237.7,551.3"/>
<rect fill="none" width="583" height="578.6"/>
<path fill="#FFFFFF" d="M398.1,208.4c-6.5,3.2-14.6,7.4-20.8,0.4c-4.7-5.4-4.1-13.7,2.4-20.2c4.4-4.4,8.9,2.7,6.1,5.5
	c-2.7,2.7-3.5,5.8-2,7.9c1.9,2.6,5.4,1.5,9.3-0.6c6.2-3.2,14-8,20.7-1.3c5.7,5.7,4.8,13.3-1,19.1c-1.7,1.7-9-2.7-6.3-5.4
	c2.2-2.2,3.4-4.8,1.3-7.1C405.7,204.7,402.2,206.4,398.1,208.4"/>
<rect fill="none" width="583" height="578.6"/>
<path fill="#FFFFFF" d="M292.4,455.7c2.3-6.8,5.1-15.5,14.5-15c7.1,0.4,12.6,6.8,12.6,16c0,6.2-8.2,4.4-8.2,0.4c0-3.8-1.6-6.6-4.2-7
	c-3.1-0.5-4.8,2.8-6.1,7c-2.1,6.6-4.2,15.5-13.7,15.5c-8,0-12.8-6-12.8-14.2c0-2.4,8.3-4.5,8.3-0.6c0,3.1,1,5.8,4.1,6
	C289.7,463.7,290.9,460,292.4,455.7"/>
<rect fill="none" width="583" height="578.6"/>
<path fill="#FFFFFF" d="M37.6,412.4c2.3-6.8,5.1-15.5,14.5-15c7.1,0.4,12.6,6.8,12.6,16c0,6.2-8.2,4.4-8.2,0.4c0-3.8-1.6-6.6-4.2-7
	c-3.1-0.5-4.8,2.8-6.1,7c-2.1,6.6-4.2,15.5-13.7,15.5c-8,0-12.8-6-12.8-14.2c0-2.4,8.3-4.5,8.3-0.6c0,3.1,1,5.8,4.1,6
	C34.9,420.4,36.1,416.8,37.6,412.4"/>
<rect fill="none" width="583" height="578.6"/>
<path fill="#FFFFFF" d="M217.7,411.1c-6.8-2.3-15.5-5.1-15-14.5c0.4-7.1,6.8-12.6,16-12.6c6.2,0,4.4,8.2,0.4,8.2
	c-3.8,0-6.6,1.6-7,4.2c-0.5,3.1,2.8,4.8,7,6.1c6.6,2.1,15.5,4.2,15.5,13.7c0,8-6,12.8-14.2,12.8c-2.4,0-4.5-8.3-0.6-8.3
	c3.1,0,5.8-1,6-4.1C225.7,413.8,222.1,412.6,217.7,411.1"/>
<rect fill="none" width="583" height="578.6"/>
<path fill="#FFFFFF" d="M344.5,291.3c-0.1,0.6-0.7,1-1.2,0.9l-5.8-1c-0.6-0.1-1-0.7-0.9-1.2l2.5-15.2c0.1-0.6,0.7-1,1.2-0.9
	l15.2,2.5c0.7,0.1,1.3,0.5,1.7,1c2.9,4.5-4.8,9.1-5.9,7.3l-5.5-0.9L344.5,291.3z"/>
<rect fill="none" width="583" height="578.6"/>
<path fill="#FFFFFF" d="M335.5,420c-0.6-0.1-1-0.7-0.9-1.2l0.9-5.8c0.1-0.6,0.7-1,1.2-0.9l15.2,2.5c0.6,0.1,1,0.7,0.9,1.2l-2.5,15.2
	c-0.1,0.7-0.5,1.3-1,1.7c-4.5,2.9-9.1-4.8-7.3-5.9l0.9-5.5L335.5,420z"/>
<rect fill="none" width="583" height="578.6"/>
<path fill="#FFFFFF" d="M331,168.3c-0.1,0.6-0.7,1-1.2,0.9l-5.8-0.9c-0.6-0.1-1-0.7-0.9-1.2l2.5-15.2c0.1-0.6,0.7-1,1.2-0.9
	l15.2,2.5c0.7,0.1,1.3,0.5,1.7,1c2.9,4.5-4.8,9.1-5.9,7.3l-5.5-0.9L331,168.3z"/>
<rect fill="none" width="583" height="578.6"/>
<path fill="#FFFFFF" d="M549.4,411.3c0.1-0.6,0.7-1,1.2-0.9l5.8,0.9c0.6,0.1,1,0.7,0.9,1.2l-2.5,15.2c-0.1,0.6-0.7,1-1.2,0.9
	l-15.2-2.5c-0.7-0.1-1.3-0.5-1.7-1c-2.9-4.5,4.8-9.1,5.9-7.3l5.5,0.9L549.4,411.3z"/>
<rect fill="none" width="583" height="578.6"/>
<path fill="#FFFFFF" d="M471.4,137.7c-0.3-0.5-0.2-1.2,0.2-1.5l4.8-3.4c0.5-0.3,1.2-0.2,1.5,0.2l9,12.5c0.3,0.5,0.2,1.2-0.2,1.5
	l-12.5,9c-0.6,0.4-1.2,0.6-1.9,0.4c-5.3-1.1-3-9.8-1-9.3l4.5-3.3L471.4,137.7z"/>
<rect fill="none" width="583" height="578.6"/>
<path fill="#FFFFFF" d="M322.1,203.1c16.5,2.7,19.4,16.5,17.9,25.8c-1.5,9-8.6,21.4-25.2,18.7c-6.6-1.1-2-8.7,1.3-8.2
	c11.1,1.8,14.3-8.3,14.9-11.9c0.6-3.5,0.8-14.7-10.3-16.5C318.4,210.6,315.8,202,322.1,203.1"/>
<rect fill="none" width="583" height="578.6"/>
<path fill="#FFFFFF" d="M553.7,461.4c16.5,2.7,19.4,16.5,17.9,25.8c-1.5,9-8.6,21.4-25.2,18.7c-6.6-1.1-2-8.7,1.3-8.2
	c11.1,1.8,14.3-8.3,14.9-11.9c0.6-3.5,0.8-14.7-10.3-16.5C549.9,469,547.3,460.3,553.7,461.4"/>
<rect fill="none" width="583" height="578.6"/>
<path fill="#FFFFFF" d="M491.8,193.4c-2.7,16.5-16.5,19.4-25.8,17.9c-9-1.5-21.4-8.6-18.7-25.2c1.1-6.6,8.7-2,8.2,1.3
	c-1.8,11.1,8.3,14.3,11.9,14.9c3.5,0.6,14.7,0.8,16.5-10.3C484.2,189.6,492.9,187,491.8,193.4"/>
<rect fill="none" width="583" height="578.6"/>
<path fill="#FFFFFF" d="M396.5,390.3c2.7-16.5,16.5-19.4,25.8-17.9c9,1.5,21.4,8.6,18.7,25.2c-1.1,6.6-8.7,2-8.2-1.3
	c1.8-11.1-8.3-14.3-11.9-14.9c-3.5-0.6-14.7-0.8-16.5,10.3C404.1,394,395.5,396.6,396.5,390.3"/>
<rect fill="none" width="583" height="578.6"/>
<path fill="#FFFFFF" d="M511.2,78.9c2.7-16.5,16.5-19.4,25.8-17.9c9,1.5,21.4,8.6,18.7,25.2c-1.1,6.6-8.7,2-8.2-1.3
	c1.8-11.1-8.3-14.3-11.9-14.9c-3.5-0.6-14.7-0.8-16.5,10.3C518.8,82.6,510.2,85.3,511.2,78.9"/>
<rect fill="none" width="583" height="578.6"/>
<path fill="#FFFFFF" d="M542.2,335.6c-9.8-13.6-2-25.4,5.6-30.9c7.4-5.3,21.2-9,31,4.6c3.9,5.4-4.7,7.6-6.7,4.8
	c-6.6-9.1-16-4.2-18.9-2.1c-2.9,2.1-10.9,9.8-4.4,18.9C550.2,332.9,546,340.8,542.2,335.6"/>
<rect fill="none" width="583" height="578.6"/>
<path fill="#FFFFFF" d="M530.5,124.2c-6.4-3.4-1.2-10.2,2.8-8.2c6.2,3.1,14.7,6.7,13.1,16.1c-1.3,7.9-7.9,11.7-16.1,10.3
	c-2.4-0.4-7.9-1.8-14.3-5.9c-0.5-0.3-0.6-1-0.3-1.5l3.2-5c0.3-0.5,1-0.7,1.5-0.4c2.4,1.5,6.8,4,10.6,4.6c3,0.5,5.9,0,6.5-3.1
	C537.9,128.1,534.5,126.4,530.5,124.2"/>
<rect fill="none" width="583" height="578.6"/>
<path fill="#FFFFFF" d="M490.3,382.4c-3.4,6.4-10.2,1.2-8.2-2.8c3.1-6.2,6.6-14.7,16.1-13.1c7.9,1.3,11.7,7.9,10.3,16.1
	c-0.4,2.4-1.8,7.9-6,14.3c-0.3,0.5-1,0.6-1.5,0.3l-5-3.2c-0.5-0.3-0.7-1-0.4-1.5c1.5-2.4,4-6.8,4.6-10.6c0.5-3-0.1-5.9-3.1-6.5
	C494.2,375,492.5,378.4,490.3,382.4"/>
<rect fill="none" width="583" height="578.6"/>
<path fill="#FFFFFF" d="M407.2,261.3c3.4-6.4,10.2-1.2,8.2,2.8c-3.1,6.2-6.6,14.7-16.1,13.1c-7.9-1.3-11.7-7.9-10.3-16.1
	c0.4-2.4,1.8-7.9,6-14.3c0.3-0.5,1-0.6,1.5-0.3l5,3.2c0.5,0.3,0.7,1,0.4,1.5c-1.5,2.4-4,6.8-4.6,10.6c-0.5,3,0,5.9,3.1,6.5
	C403.2,268.8,405,265.4,407.2,261.3"/>
<rect fill="none" width="583" height="578.6"/>
<path fill="#FFFFFF" d="M574.5,368.3c3.4-6.4,10.2-1.2,8.2,2.8c-3.1,6.2-6.6,14.7-16.1,13.1c-7.9-1.3-11.7-7.9-10.3-16.1
	c0.4-2.4,1.8-7.9,6-14.3c0.3-0.5,1-0.6,1.5-0.3l5,3.2c0.5,0.3,0.7,1,0.4,1.5c-1.5,2.4-4,6.8-4.6,10.6c-0.5,3,0,5.9,3.1,6.5
	C570.6,375.7,572.4,372.3,574.5,368.3"/>
<rect fill="none" width="583" height="578.6"/>
<path fill="#FFFFFF" d="M161.6,326.4c3.4-6.4,10.2-1.2,8.2,2.8c-3.1,6.2-6.6,14.7-16.1,13.1c-7.9-1.3-11.7-7.9-10.3-16.1
	c0.4-2.4,1.8-7.9,5.9-14.3c0.3-0.5,1-0.6,1.5-0.3l5,3.2c0.5,0.3,0.7,1,0.4,1.5c-1.5,2.4-4,6.8-4.6,10.6c-0.5,3,0,5.9,3.1,6.5
	C157.6,333.8,159.4,330.4,161.6,326.4"/>
<rect fill="none" width="583" height="578.6"/>
<path fill="#FFFFFF" d="M447,38.3c3.4-6.4,10.2-1.2,8.2,2.8c-3.1,6.2-6.6,14.7-16.1,13.1c-7.9-1.3-11.7-7.9-10.3-16.1
	c0.4-2.4,1.8-7.9,6-14.3c0.3-0.5,1-0.6,1.5-0.3l5,3.2c0.5,0.3,0.7,1,0.4,1.5c-1.5,2.4-4,6.8-4.6,10.6c-0.5,3,0,5.9,3.1,6.5
	C443.1,45.7,444.9,42.3,447,38.3"/>
<rect fill="none" width="583" height="578.6"/>
<path fill="#FFFFFF" d="M480.7,255.3c-6.4-3.4-1.2-10.2,2.8-8.2c6.2,3.1,14.7,6.7,13.1,16.1c-1.3,7.9-7.9,11.7-16.1,10.3
	c-2.4-0.4-7.9-1.8-14.3-5.9c-0.5-0.3-0.6-1-0.3-1.5l3.2-5c0.3-0.5,1-0.7,1.5-0.4c2.4,1.5,6.8,4,10.6,4.6c3,0.5,5.9,0,6.5-3.1
	C488.1,259.3,484.7,257.5,480.7,255.3"/>
<rect fill="none" width="583" height="578.6"/>
<path fill="#FFFFFF" d="M554.4,26.1c-6.9,2.1-8-6.3-3.8-7.8c6.6-2.2,15.1-5.7,20.6,2.1c4.7,6.5,2.6,13.9-4.1,18.7
	c-1.9,1.4-6.9,4.3-14.3,5.9c-0.6,0.1-1.1-0.3-1.2-0.9l-1.3-5.8c-0.1-0.6,0.2-1.2,0.8-1.4c2.7-0.6,7.6-2,10.7-4.2
	c2.5-1.8,4.1-4.2,2.5-6.8C562.5,23.6,558.8,24.8,554.4,26.1"/>
<rect fill="none" width="583" height="578.6"/>
<path fill="#FFFFFF" d="M381.5,128.5c-2.1-6.9,6.3-8,7.8-3.8c2.2,6.6,5.7,15.1-2.1,20.6c-6.5,4.7-13.9,2.6-18.7-4.1
	c-1.4-1.9-4.3-6.9-5.9-14.3c-0.1-0.6,0.3-1.1,0.9-1.3l5.8-1.3c0.6-0.1,1.2,0.2,1.4,0.8c0.6,2.7,2,7.6,4.2,10.7
	c1.8,2.5,4.2,4.1,6.8,2.5C384,136.5,382.8,132.9,381.5,128.5"/>
<rect fill="none" width="583" height="578.6"/>
<path fill="#FFFFFF" d="M438.1,89.5c3.4-6.4,7.5-14.5,16.7-12.5c7,1.6,11.3,8.8,9.9,17.8c-1,6.1-8.8,3-8.2-0.9
	c0.6-3.8-0.5-6.8-3-7.6c-3-1-5.2,1.9-7.2,5.9c-3.1,6.2-6.6,14.7-16.1,13.1c-7.9-1.3-11.7-7.9-10.3-16.1c0.4-2.4,8.9-3.1,8.3,0.7
	c-0.5,3,0,5.9,3.1,6.5C434.2,96.9,435.9,93.5,438.1,89.5"/>
<rect fill="none" width="583" height="578.6"/>
<path fill="#FFFFFF" d="M542.2,252.3c-6.4-3.4-14.5-7.5-12.5-16.7c1.6-7,8.8-11.3,17.8-9.9c6.1,1,3,8.8-0.9,8.2
	c-3.8-0.6-6.8,0.5-7.6,3c-1,3,1.9,5.2,5.9,7.2c6.2,3.1,14.7,6.7,13.1,16.1c-1.3,7.9-7.9,11.7-16.1,10.3c-2.4-0.4-3.1-8.9,0.7-8.3
	c3,0.5,5.9,0,6.5-3.1C549.6,256.3,546.2,254.5,542.2,252.3"/>
<rect fill="none" width="583" height="578.6"/>
<path fill="#FFFFFF" d="M378.7,30.4c-6.4-3.4-14.5-7.5-12.5-16.7c1.6-7,8.8-11.3,17.8-9.9c6.1,1,3,8.8-0.9,8.2
	c-3.8-0.6-6.8,0.5-7.6,3c-1,3,1.9,5.2,5.9,7.2c6.2,3.1,14.7,6.7,13.1,16.1c-1.3,7.9-7.9,11.7-16.1,10.3c-2.4-0.4-3.1-8.9,0.7-8.3
	c3,0.5,5.9,0,6.5-3.1C386.1,34.3,382.7,32.5,378.7,30.4"/>
<rect fill="none" width="583" height="578.6"/>
<path fill="#FFFFFF" d="M334,334.9c-6.9,2.1-15.6,5-20.6-3c-3.8-6.1-1.8-14.2,5.6-19.6c5-3.6,8.4,4.1,5.1,6.4
	c-3.1,2.2-4.4,5.2-3.2,7.5c1.4,2.8,5.1,2.3,9.3,0.9c6.6-2.2,15.1-5.7,20.6,2.1c4.7,6.5,2.6,13.9-4.1,18.7c-1.9,1.4-8.4-4.1-5.3-6.4
	c2.5-1.8,4.1-4.2,2.5-6.8C342,332.4,338.4,333.5,334,334.9"/>
<rect fill="none" width="583" height="578.6"/>
<path fill="#FFFFFF" d="M301.9,115.1c-3.4,6.4-7.5,14.5-16.7,12.4c-7-1.6-11.3-8.8-9.9-17.8c1-6.1,8.8-3,8.2,0.9
	c-0.6,3.8,0.5,6.8,3,7.6c3,1,5.2-1.9,7.2-5.9c3.1-6.2,6.6-14.7,16.1-13.1c7.9,1.3,11.7,7.9,10.3,16.1c-0.4,2.4-8.9,3.1-8.3-0.7
	c0.5-3,0-5.9-3.1-6.5C305.8,107.7,304,111,301.9,115.1"/>
<rect fill="none" width="583" height="578.6"/>
<path fill="#FFFFFF" d="M490,443.5c-3.4,6.4-7.5,14.5-16.7,12.5c-7-1.6-11.3-8.8-9.9-17.8c1-6.1,8.8-3,8.2,0.9
	c-0.6,3.8,0.5,6.8,3,7.6c3,1,5.2-1.9,7.2-5.9c3.1-6.2,6.6-14.7,16.1-13.1c7.9,1.3,11.7,7.9,10.3,16.1c-0.4,2.4-8.9,3.1-8.3-0.7
	c0.5-3,0-5.9-3.1-6.5C494,436.1,492.2,439.5,490,443.5"/>
<rect fill="none" width="583" height="578.6"/>
<path fill="#FFFFFF" d="M209.7,256c0.3,0.5,0.2,1.2-0.2,1.5l-4.8,3.4c-0.5,0.3-1.2,0.2-1.5-0.2l-9-12.5c-0.3-0.5-0.2-1.2,0.2-1.5
	l12.5-9c0.6-0.4,1.2-0.6,1.9-0.4c5.3,1.1,3,9.8,1,9.3l-4.5,3.3L209.7,256z"/>
<rect fill="none" width="583" height="578.6"/>
<path fill="#FFFFFF" d="M28,268.9c0.1-0.6,0.7-1,1.2-0.9L35,269c0.6,0.1,1,0.7,0.9,1.2l-2.5,15.2c-0.1,0.6-0.7,1-1.2,0.9L17,283.8
	c-0.7-0.1-1.3-0.5-1.7-1c-2.9-4.5,4.8-9.1,5.9-7.3l5.5,0.9L28,268.9z"/>
<rect fill="none" width="583" height="578.6"/>
<path fill="#FFFFFF" d="M70.8,79.8c0.3,0.5,0.2,1.2-0.2,1.5l-4.8,3.4c-0.5,0.3-1.2,0.2-1.5-0.2l-9-12.5c-0.3-0.5-0.2-1.2,0.2-1.5
	l12.5-9c0.6-0.4,1.2-0.6,1.9-0.4c5.3,1.1,3,9.8,1,9.3l-4.5,3.3L70.8,79.8z"/>
<rect fill="none" width="583" height="578.6"/>
<path fill="#FFFFFF" d="M105.3,376.5c0.3,0.5,0.2,1.2-0.2,1.5l-4.8,3.4c-0.5,0.3-1.2,0.2-1.5-0.2l-9-12.5c-0.3-0.5-0.2-1.2,0.2-1.5
	l12.5-9c0.6-0.4,1.2-0.6,1.9-0.5c5.3,1.1,3,9.8,1,9.3l-4.5,3.3L105.3,376.5z"/>
<rect fill="none" width="583" height="578.6"/>
<path fill="#FFFFFF" d="M380.1,573.5c0.3,0.5,0.2,1.2-0.2,1.5l-4.8,3.4c-0.5,0.3-1.2,0.2-1.5-0.2l-9-12.5c-0.3-0.5-0.2-1.2,0.2-1.5
	l12.5-9c0.6-0.4,1.2-0.6,1.9-0.5c5.3,1.1,3,9.8,1,9.3l-4.5,3.3L380.1,573.5z"/>
<rect fill="none" width="583" height="578.6"/>
<path fill="#FFFFFF" d="M55,11c-2.7,16.5-16.5,19.4-25.8,17.9c-9-1.5-21.4-8.6-18.7-25.2c1.1-6.6,8.7-2,8.2,1.3
	C16.9,16.1,27,19.3,30.5,19.9C34,20.5,45.2,20.7,47,9.7C47.4,7.2,56,4.6,55,11"/>
<rect fill="none" width="583" height="578.6"/>
<path fill="#FFFFFF" d="M11.9,314.8c16.5,2.7,19.4,16.5,17.9,25.8c-1.5,9-8.6,21.4-25.2,18.7c-6.6-1.1-2-8.7,1.3-8.2
	c11.1,1.8,14.3-8.3,14.9-11.9c0.6-3.5,0.8-14.7-10.3-16.5C8.1,322.3,5.5,313.7,11.9,314.8"/>
<rect fill="none" width="583" height="578.6"/>
<path fill="#FFFFFF" d="M4.6,211.5c-9.8-13.6-2-25.4,5.6-30.9c7.4-5.3,21.2-9,31,4.6c3.9,5.4-4.7,7.6-6.7,4.8
	c-6.6-9.1-16-4.2-18.9-2.1c-2.9,2.1-10.9,9.8-4.4,18.9C12.6,208.8,8.4,216.8,4.6,211.5"/>
<rect fill="none" width="583" height="578.6"/>
<path fill="#FFFFFF" d="M124.8,292c-9.8-13.6-2.1-25.4,5.6-30.9c7.4-5.3,21.2-9,31,4.6c3.9,5.4-4.7,7.6-6.7,4.8
	c-6.6-9.1-16-4.2-18.9-2.1c-2.9,2.1-10.9,9.8-4.4,18.9C132.8,289.3,128.6,297.3,124.8,292"/>
<rect fill="none" width="583" height="578.6"/>
<path fill="#FFFFFF" d="M147.2,106.5c-9.8-13.6-2.1-25.4,5.6-30.9c7.4-5.3,21.2-9,31,4.6c3.9,5.4-4.7,7.6-6.7,4.8
	c-6.6-9.1-16-4.2-18.9-2.1c-2.9,2.1-10.9,9.8-4.4,18.9C155.2,103.7,151,111.7,147.2,106.5"/>
<rect fill="none" width="583" height="578.6"/>
<path fill="#FFFFFF" d="M118.3,23.1c3.4-6.4,10.2-1.2,8.2,2.8c-3.1,6.2-6.6,14.7-16.1,13.1c-7.9-1.3-11.7-7.9-10.3-16.1
	c0.4-2.4,1.8-7.9,6-14.3c0.3-0.5,1-0.6,1.5-0.3l5,3.2c0.5,0.3,0.7,1,0.4,1.5c-1.5,2.4-4,6.8-4.6,10.6c-0.5,3,0,5.9,3.1,6.5
	C114.3,30.5,116.1,27.1,118.3,23.1"/>
<rect fill="none" width="583" height="578.6"/>
<path fill="#FFFFFF" d="M82.8,306.5c3.4-6.4,10.2-1.2,8.2,2.8c-3.1,6.2-6.6,14.7-16.1,13.1c-7.9-1.3-11.7-7.9-10.3-16.1
	c0.4-2.4,1.8-7.9,5.9-14.3c0.3-0.5,1-0.6,1.5-0.3l5,3.2c0.5,0.3,0.7,1,0.4,1.5c-1.5,2.4-4,6.8-4.6,10.6c-0.5,3,0,5.9,3.1,6.5
	C78.8,313.9,80.6,310.5,82.8,306.5"/>
<rect fill="none" width="583" height="578.6"/>
<path fill="#FFFFFF" d="M97.4,138.6c-6.9,2.1-8-6.3-3.8-7.8c6.6-2.2,15.1-5.7,20.6,2.1c4.7,6.5,2.6,13.9-4.1,18.7
	c-1.9,1.4-6.9,4.3-14.3,5.9c-0.6,0.1-1.1-0.3-1.3-0.9l-1.3-5.8c-0.1-0.6,0.2-1.2,0.8-1.4c2.7-0.6,7.6-2,10.7-4.2
	c2.5-1.8,4.1-4.2,2.5-6.8C105.4,136.2,101.8,137.3,97.4,138.6"/>
<rect fill="none" width="583" height="578.6"/>
<path fill="#FFFFFF" d="M201.3,141.8c-6.9,2.1-8-6.3-3.8-7.8c6.6-2.2,15.1-5.7,20.6,2.1c4.7,6.5,2.6,13.9-4.1,18.7
	c-1.9,1.4-6.9,4.3-14.3,5.9c-0.6,0.1-1.1-0.3-1.3-0.9l-1.3-5.8c-0.1-0.6,0.2-1.2,0.8-1.4c2.7-0.6,7.6-2,10.7-4.2
	c2.5-1.8,4.1-4.2,2.5-6.8C209.4,139.4,205.7,140.5,201.3,141.8"/>
<rect fill="none" width="583" height="578.6"/>
<path fill="#FFFFFF" d="M180.1,12.8c3.4-6.4,7.5-14.5,16.7-12.4c7,1.6,11.3,8.8,9.9,17.8c-1,6.1-8.8,3-8.2-0.9
	c0.6-3.8-0.6-6.8-3-7.6c-3-1-5.2,1.9-7.2,5.9c-3.1,6.2-6.7,14.7-16.1,13.1c-7.9-1.3-11.7-7.9-10.3-16.1c0.4-2.4,8.9-3.1,8.3,0.7
	c-0.5,3,0,5.9,3.1,6.5C176.1,20.2,177.9,16.8,180.1,12.8"/>
<rect fill="none" width="583" height="578.6"/>
<path fill="#FFFFFF" d="M27,122.9c-6.4-3.4-14.5-7.5-12.4-16.7c1.6-7,8.8-11.3,17.8-9.9c6.1,1,3,8.8-0.9,8.2c-3.8-0.6-6.8,0.6-7.6,3
	c-1,3,1.9,5.2,5.9,7.2c6.2,3.1,14.7,6.7,13.1,16.1c-1.3,7.9-7.9,11.7-16.1,10.3c-2.4-0.4-3.1-8.9,0.7-8.3c3,0.5,5.9,0,6.5-3.1
	C34.5,126.8,31.1,125.1,27,122.9"/>
<rect fill="none" width="583" height="578.6"/>
<path fill="#FFFFFF" d="M161.2,199.2c-6.4-3.4-14.5-7.5-12.4-16.7c1.6-7,8.8-11.3,17.8-9.9c6.1,1,3,8.8-0.9,8.2
	c-3.8-0.6-6.8,0.5-7.6,3c-1,3,1.9,5.2,5.9,7.2c6.2,3.1,14.7,6.7,13.1,16.1c-1.3,7.9-7.9,11.7-16.1,10.3c-2.4-0.4-3.1-8.9,0.7-8.3
	c3,0.5,5.9,0,6.5-3.1C168.7,203.1,165.3,201.4,161.2,199.2"/>
<rect fill="none" width="583" height="578.6"/>
<path fill="#FFFFFF" d="M93.3,224.8c-3.4,6.4-7.5,14.5-16.7,12.4c-7-1.6-11.3-8.8-9.9-17.8c1-6.1,8.8-3,8.2,0.9
	c-0.6,3.8,0.5,6.8,3,7.6c3,1,5.2-1.9,7.2-5.9c3.1-6.2,6.7-14.7,16.1-13.1c7.9,1.3,11.7,7.9,10.3,16.1c-0.4,2.4-8.9,3.1-8.3-0.7
	c0.5-3,0-5.9-3.1-6.5C97.3,217.3,95.5,220.7,93.3,224.8"/>
</svg>
