<?xml version="1.0" encoding="utf-8"?>
<!-- Generator: Adobe Illustrator 16.0.0, SVG Export Plug-In . SVG Version: 6.00 Build 0)  -->
<!DOCTYPE svg PUBLIC "-//W3C//DTD SVG 1.1//EN" "http://www.w3.org/Graphics/SVG/1.1/DTD/svg11.dtd">
<svg version="1.1" id="Layer_1" xmlns="http://www.w3.org/2000/svg" xmlns:xlink="http://www.w3.org/1999/xlink" x="0px" y="0px"
	 width="612px" height="792px" viewBox="0 0 612 792" enable-background="new 0 0 612 792" xml:space="preserve">
<path fill="#222222" d="M452.08,444.053c6.151-29.985,38.442-33.061,73.81-33.061c36.904,0,66.89-29.984,66.89-66.889
	s-29.985-66.89-66.89-66.89c-16.915,0-33.061,6.92-44.593,17.684c4.612-13.839,9.994-25.372,19.221-33.06l19.99-19.99H90.724
	l20.759,19.99c17.684,16.915,23.834,48.437,30.754,81.497c6.919,33.061,13.839,70.734,34.598,100.719H0l20.759,19.99
	c3.844,3.844,92.261,86.11,285.241,86.11c192.979,0,281.396-83.035,285.241-86.11L612,444.053H452.08L452.08,444.053z
	 M525.89,300.279c23.834,0,43.824,19.221,43.824,43.824c0,23.834-19.222,43.824-43.824,43.824c-16.915,0-47.669,0-69.965,13.839
	c6.15-19.221,9.995-38.442,13.839-56.895h13.07C482.065,320.269,502.056,300.279,525.89,300.279z M143.005,264.912h325.99
	c-11.533,20.759-16.915,46.899-22.297,74.578c-13.839,70.734-26.909,136.854-136.854,136.854H306h-1.538l0,0
	c-112.251,0-126.09-69.965-139.161-136.854C159.919,311.812,154.538,285.671,143.005,264.912z M306,527.088
	c-124.553,0-203.744-36.136-241.417-59.97h133.779c23.065,19.221,56.125,32.291,106.869,32.291h1.538h3.845
	c49.206,0,82.266-13.07,105.331-32.291h133.011C508.975,490.184,430.553,527.088,306,527.088z"/>
</svg>
