<?xml version="1.0" encoding="utf-8"?>
<!-- Generator: Adobe Illustrator 18.0.0, SVG Export Plug-In . SVG Version: 6.00 Build 0)  -->
<!DOCTYPE svg PUBLIC "-//W3C//DTD SVG 1.1//EN" "http://www.w3.org/Graphics/SVG/1.1/DTD/svg11.dtd">
<svg version="1.1" id="Layer_1" xmlns="http://www.w3.org/2000/svg" xmlns:xlink="http://www.w3.org/1999/xlink" x="0px" y="0px"
	 viewBox="0 0 200 200" enable-background="new 0 0 200 200" xml:space="preserve">
<g>
	<g>
		<path fill="#383838" d="M20.2,80.5c-0.1,0.3-0.4,0.5-0.7,0.5L16,80.3c-0.3-0.1-0.5-0.4-0.5-0.7l1.6-8.1c0.1-0.3,0.4-0.5,0.7-0.5
			l7.8,1.6c0.4,0.1,0.7,0.3,0.9,0.6c1.5,2.4,2.1,5.1,1.4,8.4c-1.7,8.3-8.7,9.6-13.4,8.7c-4.6-0.9-10.7-4.8-9.1-13.1
			c0.7-3.4,2.5-5.6,5-7.3c0.3-0.2,0.6-0.1,0.8,0.2l2.1,2.9c0.2,0.3,0.1,0.6-0.1,0.8c-1.4,1.1-2.8,2.9-3.1,4.4
			c-1,5.1,3.7,6.8,5.3,7.1c1.6,0.3,6.8,0.6,7.9-4.5c0.2-1.1,0.1-2.5-0.3-3.3l-2.2-0.4L20.2,80.5z"/>
	</g>
	<g>
		<path fill="#383838" d="M40.3,52.1c0.2,0.2,0.3,0.6,0.1,0.8L37.8,56c-0.2,0.2-0.6,0.3-0.8,0.1L20.7,42.5c-0.2-0.2-0.3-0.6-0.1-0.8
			l2.5-3.1c0.2-0.2,0.6-0.3,0.8-0.1l6.4,5.3l5.3-6.4l-6.4-5.3C29,32,29,31.6,29.2,31.4l2.5-3c0.2-0.2,0.6-0.3,0.8-0.1l16.3,13.5
			c0.2,0.2,0.3,0.6,0.1,0.8l-2.5,3c-0.2,0.2-0.6,0.3-0.8,0.1l-6.2-5.2L34,47L40.3,52.1z"/>
	</g>
	<g>
		<path fill="#383838" d="M80.8,12.7c1.7,4.5,1.6,11.7-6.3,14.7c-7.9,3-12.8-2.4-14.5-6.9c-1.7-4.4-1.6-11.7,6.3-14.7
			C74.3,2.8,79.2,8.3,80.8,12.7z M76,14.5c-0.6-1.6-3.1-6-7.9-4.2c-4.8,1.8-3.7,6.8-3.2,8.4c0.6,1.6,3.1,6.1,7.9,4.2
			C77.7,21.1,76.6,16.1,76,14.5z"/>
	</g>
	<g>
		<path fill="#383838" d="M119.7,17.2c-0.5,3.9-4.2,6.5-9.1,5.9c-3.1-0.4-5.5-1.4-8-3.2c-0.3-0.2-0.3-0.5-0.2-0.8l2.1-3
			c0.2-0.3,0.5-0.3,0.8-0.2c1.9,1.2,3.8,2.1,5.6,2.4c1.6,0.2,3.1-0.4,3.3-1.5c0.2-1.4-1.5-2.2-3.5-3.1c-3.1-1.4-6.9-3.2-6.4-7.7
			c0.5-4.1,3.9-6.2,8.1-5.7c1.4,0.2,4.3,0.7,7.8,2.9c0.3,0.2,0.4,0.5,0.2,0.8L118.7,7c-0.2,0.3-0.5,0.4-0.8,0.2
			c-1.3-0.7-3.8-2-5.6-2.2c-1.3-0.2-2.6,0.1-2.7,1.3c0,1.4,2.1,2.3,4.5,3.4C117,11.2,120.2,13.2,119.7,17.2z"/>
	</g>
	<g>
		<path fill="#383838" d="M148.6,17.7l-4.4-2.8c-0.3-0.2-0.3-0.5-0.2-0.8l1.9-3c0.2-0.3,0.5-0.3,0.8-0.2l13.3,8.4
			c0.3,0.2,0.3,0.5,0.2,0.8l-1.9,3c-0.2,0.3-0.5,0.3-0.8,0.2l-4.5-2.9l-9.1,14.4c-0.2,0.3-0.5,0.3-0.8,0.2l-3.4-2.1
			c-0.3-0.2-0.3-0.5-0.2-0.8L148.6,17.7z"/>
	</g>
	<g>
		<path fill="#383838" d="M168,53.5l4.1,6.3c0.2,0.3,0.1,0.6-0.2,0.8l-3,1.9c-0.3,0.2-0.6,0.1-0.8-0.2l-6.5-10.2
			c-0.2-0.3-0.1-0.6,0.2-0.8L179.5,40c0.3-0.2,0.6-0.1,0.8,0.2l2.2,3.4c0.2,0.3,0.1,0.6-0.2,0.8L168,53.5z"/>
	</g>
	<g>
		<path fill="#383838" d="M176.2,87.3c-0.3,0.1-0.6-0.2-0.7-0.5l-0.7-3.9c-0.1-0.3,0.2-0.6,0.5-0.7l9.2-1.6l10.6-9.3
			c0.2-0.2,0.5,0,0.5,0.2l0.8,4.4c0.1,0.3-0.1,0.7-0.3,0.9l-6.2,5.3l7.6,3c0.3,0.1,0.6,0.4,0.6,0.8l0.8,4.5c0,0.3-0.2,0.5-0.4,0.4
			l-13-5.2L176.2,87.3z"/>
	</g>
	<g>
		<path fill="#383838" d="M26.1,153.6l-6.4,5c-0.3,0.2-0.6,0.2-0.8-0.1l-2.4-3.1c-0.2-0.3-0.2-0.6,0.1-0.8l16.7-13.1
			c0.3-0.2,0.6-0.2,0.8,0.1l8.8,11.2c0.2,0.3,0.2,0.6-0.1,0.8l-2.8,2.2c-0.3,0.2-0.6,0.2-0.8-0.1l-6-7.7l-3.3,2.6l4.6,5.9
			c0.2,0.3,0.2,0.6-0.1,0.8l-2.8,2.2c-0.3,0.2-0.6,0.2-0.8-0.1L26.1,153.6z"/>
	</g>
	<g>
		<path fill="#383838" d="M57.3,180.2l-1.7,3.5l8.7,4.4c0.3,0.1,0.4,0.5,0.3,0.8l-1.6,3.2c-0.1,0.3-0.5,0.4-0.8,0.3l-12.8-6.4
			c-0.3-0.1-0.4-0.5-0.3-0.8l9.5-18.9c0.1-0.3,0.5-0.4,0.8-0.3l12.8,6.4c0.3,0.1,0.4,0.5,0.3,0.8l-1.6,3.2c-0.1,0.3-0.5,0.4-0.8,0.3
			l-8.7-4.4l-1.9,3.7l6.7,3.4c0.3,0.1,0.4,0.5,0.3,0.8l-1.6,3.2c-0.1,0.3-0.5,0.4-0.8,0.3L57.3,180.2z"/>
	</g>
	<g>
		<path fill="#383838" d="M104.4,191.5l3.5,7.9c0.1,0.2-0.1,0.5-0.3,0.5l-4.4-0.1c-0.4,0-0.7-0.2-0.8-0.5l-3.1-7l-2.3,0l-0.1,6.9
			c0,0.3-0.3,0.6-0.6,0.6l-3.9-0.1c-0.3,0-0.6-0.3-0.6-0.6l0.3-21.2c0-0.3,0.3-0.6,0.6-0.6l8,0.1c6.2,0.1,8,4.5,8,7.5
			C108.5,188.1,106.8,190.3,104.4,191.5z M103.5,184.8c0-0.9-0.5-2.7-2.8-2.7l-3.6-0.1l-0.1,5.3l3.8,0.1
			C102.9,187.5,103.5,185.7,103.5,184.8z"/>
	</g>
	<g>
		<path fill="#383838" d="M138.5,193c-0.3,0.1-0.6,0-0.8-0.3l-9.5-19.4c-0.1-0.2,0-0.5,0.2-0.6c0.3-0.1,0.6-0.2,0.9-0.1l15.9,4.8
			l-4.7-9.7c-0.1-0.3,0-0.6,0.3-0.8l3.6-1.7c0.3-0.1,0.6,0,0.8,0.3l9.5,19.3c0.1,0.2,0,0.5-0.2,0.6c-0.2,0.1-0.5,0.1-0.8,0.1
			l-16.1-5l4.9,10c0.1,0.3,0,0.6-0.3,0.8L138.5,193z"/>
	</g>
	<g>
		<path fill="#383838" d="M182.8,147.9c3.1,2.3,3.5,6.9,0.6,10.8c-1.9,2.5-4,4-6.7,5.4c-0.3,0.2-0.6,0-0.8-0.3l-1.6-3.4
			c-0.2-0.3,0-0.6,0.3-0.8c2-1.1,3.7-2.2,4.9-3.7c1-1.3,1.2-2.9,0.3-3.6c-1.1-0.8-2.6,0.2-4.4,1.5c-2.8,2-6.2,4.4-9.9,1.7
			c-3.3-2.5-3.5-6.5-0.9-9.9c0.8-1.1,2.8-3.4,6.4-5.3c0.3-0.1,0.6,0,0.8,0.2l1.8,3.1c0.2,0.3,0.1,0.6-0.2,0.8
			c-1.3,0.8-3.6,2.4-4.7,3.8c-0.8,1.1-1.2,2.3-0.2,3c1.2,0.7,3-0.7,5.2-2.2C176.2,147.2,179.5,145.4,182.8,147.9z"/>
	</g>
	<g>
		<path fill="#383838" d="M1.2,113.2c-0.1-0.1-0.1-0.3,0-0.5c1.4-1.4,2.8-2,4-2c2.1,0,3.8,1.1,3.8,3.4c0,0.7-0.2,1.5-0.7,2.3
			c-0.2,0.4-0.6,0.9-2.8,4h2.9c0.2,0,0.3,0.1,0.3,0.3v1.9c0,0.2-0.1,0.3-0.3,0.3H1.6c-0.2,0-0.3-0.1-0.3-0.3v-0.3
			c0-0.2,0.1-0.4,0.2-0.6c4-5.7,4.4-6.3,4.5-6.4c0.3-0.6,0.4-1,0.4-1.1c0-0.5-0.3-1-1.1-1c-0.6,0-1.4,0.4-2.3,1.3
			c-0.1,0.1-0.3,0.1-0.4,0L1.2,113.2z"/>
		<path fill="#383838" d="M24.2,116.9c0,2.5-1.1,6.3-4.7,6.3s-4.7-3.7-4.7-6.3c0-2.5,1.1-6.1,4.7-6.1S24.2,114.4,24.2,116.9z
			 M21.4,116.9c0-0.9-0.2-3.6-2-3.6s-2,2.7-2,3.6c0,0.9,0.3,3.8,2,3.8S21.4,117.8,21.4,116.9z"/>
	</g>
	<g>
		<path fill="#383838" d="M183.8,116.9c0,2.5-1.1,6.3-4.7,6.3c-3.6,0-4.7-3.7-4.7-6.3c0-2.5,1.1-6.1,4.7-6.1
			C182.7,110.8,183.8,114.4,183.8,116.9z M181.1,116.9c0-0.9-0.2-3.6-2-3.6c-1.7,0-2,2.7-2,3.6c0,0.9,0.3,3.8,2,3.8
			C180.8,120.7,181.1,117.8,181.1,116.9z"/>
		<path fill="#383838" d="M190.6,121.5c-0.1-0.1-0.1-0.3,0.1-0.4c1-0.6,1.9-1.5,2.5-2.2c-0.2,0-0.4,0.1-0.6,0.1
			c-3.2-0.2-3.9-2.5-3.9-4.1c0-1.3,0.8-4,4.2-4c3.4,0,4.2,2.9,4.2,4.2c0,4.1-2.7,6.8-5,8.2c-0.2,0.1-0.4,0.1-0.5-0.1L190.6,121.5z
			 M191.3,114.8c0,0.8,0.5,1.5,1.5,1.5c1,0,1.5-0.7,1.5-1.5c0-0.8-0.5-1.6-1.5-1.6C191.9,113.3,191.3,114.1,191.3,114.8z"/>
	</g>
	<g>
		<g>
			<path fill-rule="evenodd" clip-rule="evenodd" fill="#383838" d="M86.1,104.7c0,0-4,8.1-5.3,12.5c-1.9,5.9-6.4,21.5,4.6,18.8
				c8.8-2.2,19.9-17.1,22.1-21c1.1-2.1,6.2-12.4,8.7-12.9c2-0.4,8.9,1.3,8.9,4.3c0,1.6-1.6,2.6-2.9,3.8c-4.6,4.8-8.7,11.8-8.9,20
				c-0.2,8.5,4.6,9.4,4.2,10.8c-0.3,1-12.9-2.9-12.2-17.9c0,0-5.6,8.4-11.5,13c-19.1,14.7-32.4-5.8-18.1-34.3
				c-12-7.3-15.3-24.7,1-39.4c1.8-1.6,4.5-2,7.3-0.7c2.5,1.2,4.7,4.7,2.5,5.9c-7.7,4-21.6,20.1-9,30.7c0,0,23.1-38.6,47.8-39.6
				c3.4-0.1,8.8,1.4,9.2,6C135.3,77.3,113.8,104.9,86.1,104.7z M87.9,101.3c26.4,0.5,46.5-34.4,43.1-37.3
				C125.3,59.2,98,84.6,87.9,101.3z"/>
		</g>
	</g>
</g>
</svg>
