<?xml version="1.0" encoding="utf-8"?>
<!-- Generator: Adobe Illustrator 16.0.0, SVG Export Plug-In . SVG Version: 6.00 Build 0)  -->
<!DOCTYPE svg PUBLIC "-//W3C//DTD SVG 1.1//EN" "http://www.w3.org/Graphics/SVG/1.1/DTD/svg11.dtd">
<svg version="1.1" xmlns="http://www.w3.org/2000/svg" xmlns:xlink="http://www.w3.org/1999/xlink" x="0px" y="0px"
	 width="329.885px" height="329.885px" viewBox="0 0 329.885 329.885" enable-background="new 0 0 329.885 329.885"
	 xml:space="preserve">
<g id="Layer_1">
</g>
<g id="Layer_2">
	<g>
		<rect fill="#A9FFD2" width="329.885" height="329.885"/>
		<g>
			<defs>
				<rect id="SVGID_1_" width="329.885" height="329.885"/>
			</defs>
			<clipPath id="SVGID_2_">
				<use xlink:href="#SVGID_1_"  overflow="visible"/>
			</clipPath>
			<g clip-path="url(#SVGID_2_)">
				<path fill="#252525" d="M164.356,170.329h1.172c3.84,0,6.716-0.778,8.76-2.352c0.188,0.149,0.401,0.271,0.644,0.347
					c8.419,2.634,15.851,5.337,17.071,6.203c0.646,0.83,1.763,4.735,2.423,8.499c0.181,1.036,1.115,1.738,2.182,1.645
					c5.817-0.619,23.242-15.139,25.241-20.071c3.842-9.477-4.119-66.102-5.04-72.526c-0.132-0.921-0.881-1.63-1.808-1.709
					c-11.877-1.024-16.899-9.148-21.757-17.005c-2.935-4.748-5.707-9.231-9.844-11.513c-11.48-6.322-47.566,6.855-51.644,8.379
					c-0.569,0.212-1.011,0.672-1.2,1.249c-3.891,11.854-15.248,15.953-15.358,15.991c-0.713,0.246-1.228,0.872-1.329,1.62
					c-0.92,6.731-8.878,66.044-5.038,75.514c1.999,4.933,19.424,19.452,25.241,20.071c0.072,0.007,0.144,0.011,0.214,0.011
					c0.96,0,1.799-0.689,1.968-1.655c0.658-3.763,1.775-7.669,2.423-8.498c1.22-0.867,8.651-3.57,17.071-6.204
					c0.072-0.022,0.137-0.058,0.205-0.088C157.972,169.634,160.734,170.329,164.356,170.329z M135.783,171.761
					c-1.389,1.501-2.45,5.584-3.041,8.366c-5.846-2.67-18.905-13.826-20.204-17.029c-2.566-6.33,1.614-46.265,5.138-72.32
					c3.266-1.428,12.388-6.268,16.36-17.13c11.26-4.116,39.288-12.788,47.433-8.297c3.219,1.773,5.723,5.824,8.373,10.112
					c4.683,7.573,10.466,16.927,23.226,18.707c3.509,24.856,7.624,62.639,5.074,68.928c-1.299,3.203-14.358,14.359-20.204,17.029
					c-0.591-2.782-1.652-6.866-3.041-8.366c-1.44-1.557-10.441-4.632-18.043-7.026c0.846-1.855,1.153-4.142,0.909-6.936
					c-0.003-0.042-0.009-0.083-0.015-0.125l-5.163-34.185c-0.165-1.093-1.185-1.85-2.276-1.679
					c-1.092,0.165-1.844,1.184-1.679,2.276l5.153,34.121c0.239,2.843-0.202,4.834-1.349,6.085c-1.256,1.37-3.515,2.036-6.906,2.036
					h-1.172c-3.392,0-5.65-0.666-6.906-2.036c-1.146-1.251-1.588-3.242-1.349-6.085l5.149-34.093
					c0.165-1.093-0.587-2.111-1.679-2.276c-1.092-0.169-2.111,0.586-2.276,1.679l-5.159,34.156
					c-0.006,0.042-0.012,0.083-0.015,0.125c-0.253,2.903,0.085,5.262,1.008,7.155C145.686,167.313,137.18,170.251,135.783,171.761z"
					/>
				<path fill="#252525" d="M187.476,184.125c1.104,0,2-0.896,2-2s-0.896-2-2-2h-27.583c-1.104,0-2,0.896-2,2s0.896,2,2,2H187.476z"
					/>
				<path fill="#252525" d="M259.36,266.57l-56.696-30.439c-0.004-0.002-0.008-0.004-0.012-0.006l-0.021-0.012
					c-0.033-0.018-0.069-0.026-0.103-0.043c-0.082-0.037-0.163-0.076-0.248-0.103c-0.066-0.021-0.133-0.03-0.199-0.044
					c-0.059-0.012-0.116-0.027-0.176-0.034c-0.074-0.009-0.146-0.007-0.221-0.007v-19.749
					c13.688-11.382,24.258-25.867,29.176-32.606c3.145-4.31,2.558-20.563,0.823-37.942c6.229-1.766,8.515-11.317,8.515-20.315
					c0-6.435-1.204-10.437-3.903-12.975c-2.151-2.025-5.21-2.982-9.325-2.93c-0.918-5.961-1.674-10.478-2.021-12.52
					c4.465-13.858,4.761-24.773,0.864-32.438c-1.496-2.943-3.369-4.864-4.953-6.081l2.104-1.263c0.54-0.324,0.896-0.884,0.96-1.51
					c0.064-0.627-0.17-1.247-0.633-1.675c-2.602-2.402-8.945-5.451-12.284-6.968l1.171-2.082c0.519-0.922,0.229-2.088-0.659-2.661
					c-5.315-3.43-12.557-4.854-17.071-5.434l0.485-0.516c0.466-0.496,0.648-1.194,0.483-1.854s-0.653-1.19-1.298-1.409
					c-28.598-9.703-48.755-1.449-60.629,7.182c-10.834,7.876-16.789,17.288-18.532,20.321c-4.554,0.555-7.973,2.575-10.171,6.016
					c-6.11,9.56-0.26,27.102,0.937,30.426c-0.353,2.069-1.103,6.56-2.012,12.463c-4.052-0.032-7.079,0.928-9.213,2.933
					c-2.699,2.538-3.903,6.54-3.903,12.975c0,8.943,2.259,18.433,8.404,20.279c-1.736,17.393-2.327,33.666,0.82,37.979
					c4.924,6.748,15.518,21.264,29.232,32.652v19.454c-0.318,0-0.641,0.066-0.941,0.227l-57.523,30.678
					c-2.675,0.969-28.944,11.907-28.944,67.087c0,1.104,0.896,2,2,2h141.491h45.051h56.059c1.104,0,2-0.896,2-2
					C288.243,280.249,261.537,267.518,259.36,266.57z M128.54,240.165c2.477,2.304,9.744,8.391,20.602,11.795
					c4.25,1.332,9.339,2.316,15.102,2.316c10.614,0,23.513-3.365,37.621-14.035l9.25,4.967
					c-41.451,31.434-74.559,14.229-91.639-0.209L128.54,240.165z M233.555,115.209c1.804,1.695,2.644,4.893,2.644,10.061
					c0,5.83-1.353,14.145-4.948,16.155c-1.079-9.929-2.461-19.94-3.674-28.061C230.304,113.404,232.275,114.005,233.555,115.209z
					 M94.595,125.27c0-5.168,0.84-8.365,2.644-10.061c1.261-1.188,3.196-1.789,5.865-1.843c-1.21,8.102-2.589,18.087-3.666,27.992
					C95.922,139.244,94.595,131.042,94.595,125.27z M103.05,181.17c-2.424-3.32-1.787-18.656,0.094-36.682
					c0.062-0.194,0.105-0.397,0.105-0.612c0-0.067-0.014-0.132-0.02-0.198c1.656-15.646,4.223-33.195,6.526-46.631
					c0.061-0.354,0.024-0.717-0.104-1.052c-0.071-0.187-7.037-18.704-1.494-27.371c1.676-2.619,4.351-4.02,8.176-4.28
					c0.7-0.048,1.323-0.458,1.644-1.082c0.057-0.109,5.794-11.115,17.863-19.889c15.414-11.205,33.573-13.752,54.008-7.587
					l-1.121,1.192c-0.536,0.57-0.69,1.402-0.395,2.127c0.297,0.725,0.989,1.211,1.771,1.242c0.111,0.004,10.382,0.458,17.62,4.239
					l-1.283,2.281c-0.278,0.495-0.333,1.085-0.151,1.622c0.183,0.538,0.585,0.973,1.106,1.197c2.219,0.951,7.538,3.395,10.922,5.498
					l-2.413,1.448c-0.672,0.403-1.047,1.162-0.958,1.941s0.625,1.435,1.37,1.676c0.035,0.012,3.533,1.256,5.93,5.969
					c2.367,4.657,4.071,13.618-1.252,29.866c-0.008,0.024-0.01,0.05-0.017,0.074c-0.021,0.072-0.036,0.146-0.048,0.221
					c-0.01,0.059-0.02,0.117-0.023,0.177c-0.006,0.066-0.005,0.134-0.004,0.201c0.002,0.068,0.006,0.136,0.015,0.203
					c0.004,0.028,0.001,0.057,0.006,0.085c5.01,29.212,11.26,77.882,6.706,84.123c-8.44,11.566-34.119,46.755-62.29,46.778
					C137.169,227.925,111.49,192.736,103.05,181.17z M165.278,231.946c0.012,0,0.021,0.003,0.033,0.003
					c0.01,0,0.019-0.001,0.028-0.001s0.019,0.001,0.028,0.001c0.012,0,0.021-0.003,0.033-0.003
					c11.562-0.028,22.585-5.39,32.283-12.661v19.076c-15.766,11.332-31.623,14.649-47.182,9.833
					c-8.196-2.537-14.271-6.812-17.465-9.433c0.003-0.046,0.014-0.09,0.014-0.137v-19.297
					C142.736,226.578,153.739,231.918,165.278,231.946z M228.185,318.875h-41.051v-7h41.051V318.875z M187.134,331.625v-8.75h41.051
					v8.75H187.134z M232.185,331.625v-21.75c0-1.104-0.896-2-2-2h-45.051c-1.104,0-2,0.896-2,2v21.75H45.654
					c0.638-51.993,26.112-61.265,26.364-61.351c0.108-0.036,0.214-0.081,0.315-0.135l43.359-23.124
					c8.198,7.163,21.335,16.081,38.195,18.902c3.589,0.601,7.182,0.9,10.779,0.9c16.806,0,33.676-6.557,50.3-19.542l42.579,22.86
					c0.055,0.029,0.117,0.059,0.174,0.083c0.262,0.11,25.841,11.526,26.509,61.405H232.185z"/>
				<path fill="#252525" d="M135.348,113.812c-8.445,0-14.305,11.994-14.55,12.505c-0.406,0.845-0.169,1.857,0.568,2.437
					c0.736,0.579,1.778,0.568,2.504-0.025c0.031-0.025,1.871-1.5,4.702-2.698c-0.243,0.718-0.382,1.483-0.382,2.282
					c0,3.929,3.196,7.125,7.125,7.125s7.125-3.196,7.125-7.125c0-0.775-0.129-1.52-0.358-2.219c1.308,0.659,2.569,1.519,3.777,2.588
					c0.377,0.333,0.851,0.502,1.325,0.502c0.007,0,0.013,0,0.02,0c1.105,0,2-0.896,2-2c0-0.408-0.122-0.789-0.332-1.105
					C144.912,117.938,140.363,113.812,135.348,113.812z M135.348,117.812c1.979,0,4.001,1.237,5.988,3.634
					c-1.861-0.619-3.798-0.931-5.8-0.931c-2.516,0-4.842,0.497-6.854,1.182C130.603,119.567,132.938,117.812,135.348,117.812z
					 M135.315,131.438c-1.723,0-3.125-1.402-3.125-3.125s1.402-3.125,3.125-3.125s3.125,1.402,3.125,3.125
					S137.038,131.438,135.315,131.438z"/>
				<path fill="#252525" d="M194.348,113.812c-8.445,0-14.305,11.994-14.55,12.505c-0.406,0.845-0.169,1.857,0.568,2.437
					c0.736,0.579,1.779,0.568,2.504-0.025c0.031-0.025,1.871-1.5,4.702-2.698c-0.243,0.718-0.382,1.483-0.382,2.282
					c0,3.929,3.196,7.125,7.125,7.125s7.125-3.196,7.125-7.125c0-0.775-0.129-1.52-0.358-2.219c1.308,0.659,2.569,1.519,3.777,2.588
					c0.377,0.333,0.851,0.502,1.325,0.502c0.007,0,0.012,0,0.02,0c1.105,0,2-0.896,2-2c0-0.408-0.122-0.789-0.332-1.105
					C203.912,117.938,199.363,113.812,194.348,113.812z M194.348,117.812c1.979,0,4.001,1.237,5.988,3.634
					c-1.861-0.619-3.798-0.931-5.8-0.931c-2.516,0-4.842,0.497-6.854,1.182C189.603,119.567,191.938,117.812,194.348,117.812z
					 M194.315,131.438c-1.723,0-3.125-1.402-3.125-3.125s1.402-3.125,3.125-3.125s3.125,1.402,3.125,3.125
					S196.038,131.438,194.315,131.438z"/>
				<path fill="#252525" d="M179.814,114.226c0.324,0.196,0.682,0.29,1.035,0.29c0.676,0,1.336-0.343,1.712-0.963
					c0.815-1.345,3.717-5.285,6.262-5.734c8.485-1.496,20.517,4.427,20.637,4.487c0.987,0.492,2.188,0.09,2.682-0.898
					c0.492-0.988,0.091-2.188-0.897-2.682c-0.539-0.269-13.334-6.575-23.116-4.847c-4.765,0.842-8.568,6.91-8.986,7.6
					C178.568,112.423,178.87,113.653,179.814,114.226z"/>
				<path fill="#252525" d="M142.075,103.879c-9.779-1.728-22.577,4.578-23.116,4.847c-0.988,0.493-1.391,1.694-0.897,2.683
					c0.494,0.989,1.696,1.39,2.683,0.897c0.121-0.061,12.144-5.99,20.636-4.487c2.257,0.398,5.038,3.729,6.263,5.735
					c0.376,0.62,1.035,0.962,1.711,0.962c0.354,0,0.711-0.094,1.035-0.29c0.944-0.572,1.246-1.803,0.673-2.747
					C150.644,110.789,146.84,104.721,142.075,103.879z"/>
			</g>
		</g>
	</g>
</g>
</svg>
