<?xml version="1.0" encoding="utf-8"?>
<!-- Generator: Adobe Illustrator 16.0.0, SVG Export Plug-In . SVG Version: 6.00 Build 0)  -->
<!DOCTYPE svg PUBLIC "-//W3C//DTD SVG 1.1//EN" "http://www.w3.org/Graphics/SVG/1.1/DTD/svg11.dtd">
<svg version="1.1" xmlns="http://www.w3.org/2000/svg" xmlns:xlink="http://www.w3.org/1999/xlink" x="0px" y="0px"
	 width="329.885px" height="329.885px" viewBox="0 0 329.885 329.885" enable-background="new 0 0 329.885 329.885"
	 xml:space="preserve">
<g id="Layer_1">
</g>
<g id="Layer_2">
	<g>
		<path fill="#A9FFD2" d="M157.215,69.631c3.398-2.4,16.989-10.925,35.96-8.82c1.287,0.143,2.538,0.314,3.765,0.506
			c0.371-5.883-0.897-10.438-3.812-13.533c-4.234-4.497-10.631-4.639-13.192-4.488c-0.001,0-0.002,0-0.003,0.001
			c-0.002,0-0.004,0.001-0.006,0.001c-4.493,0.265-10.388,3.654-18.018,10.363c-0.83,0.73-2.093,0.648-2.822-0.182
			c-0.729-0.829-0.648-2.093,0.182-2.822c7.192-6.324,12.966-9.87,17.916-10.983c-1.063-2.724-2.545-4.37-4.436-4.868
			c-5.182-1.373-13.019,5.205-15.604,7.851c-0.376,0.385-0.891,0.603-1.428,0.603c-0.001,0-0.002,0-0.004,0
			c-0.536,0-1.05-0.215-1.427-0.598c-4.171-4.244-8.116-6.009-11.729-5.249c-4.884,1.028-8.681,6.601-10.618,10.402
			c9.021,1.612,15.259,10.079,15.546,10.476c0.648,0.895,0.449,2.146-0.445,2.794c-0.896,0.649-2.146,0.447-2.793-0.446
			c-0.065-0.088-6.725-9.088-15.251-9.088c-0.009,0-0.019,0-0.027,0h-0.002h-0.003c-0.001,0-0.001,0-0.003,0
			c-4.561,0.012-7.569,1.268-9.197,3.839c-3.106,4.907-0.616,13.967,1.301,18.87C135.483,65.397,152.926,68.639,157.215,69.631z"/>
		<path fill="#A9FFD2" d="M105.368,153.381c-0.416-7.738-0.29-30.599,14.816-38.242c29.615-14.982,35.479-34.681,35.535-34.878
			c0.258-0.913,1.105-1.517,2.069-1.454c0.946,0.069,1.716,0.791,1.839,1.731c0.121,0.843,3.409,20.955,40.356,26.761
			c27.322,4.294,32.702,37.213,33.659,46.108c1.215-0.098,2.777-0.073,4.402,0.337c2.383-5.316,11.056-27.383,3.503-52.367
			c-2.288-7.568-12.57-32.577-48.813-36.59c-19.941-2.209-33.29,8.139-33.849,8.58c-0.498,0.394-1.154,0.528-1.771,0.36
			c-0.19-0.052-19.361-5.136-34.098,4.021c-20.809,12.93-29.092,43.888-20.463,75.749
			C103.575,153.349,104.537,153.334,105.368,153.381z"/>
		<path fill="#A9FFD2" d="M103.976,182.328c-0.16,3.152-0.641,8.172-2.058,13.259c1.968-2.188,3.617-4.69,3.776-6.981
			c0.026-0.375,0.163-0.713,0.366-1c-0.124-1.341-0.202-2.737-0.229-4.19C105.329,183.145,104.695,182.782,103.976,182.328z"/>
		<path fill="#A9FFD2" d="M201.8,153.881c2.072,0,3.759-1.686,3.759-3.759s-1.687-3.759-3.759-3.759s-3.759,1.686-3.759,3.759
			S199.728,153.881,201.8,153.881z"/>
		<path fill="#A9FFD2" d="M109.696,272.18l-10.392,5.658c-1.224,1.204-12.032,12.843-17.603,52.047h73.812
			c-4.835-11.328-8.6-21.177-11.453-29.695C126.533,291.49,113.854,277.244,109.696,272.18z"/>
		<path fill="#A9FFD2" d="M138.605,146.363c-2.072,0-3.759,1.686-3.759,3.759s1.687,3.759,3.759,3.759s3.759-1.686,3.759-3.759
			S140.678,146.363,138.605,146.363z"/>
		<path fill="#A9FFD2" d="M233.248,183.406c-0.04,2.057-0.179,3.998-0.408,5.832c0.383,2.121,1.897,4.371,3.687,6.359
			c-1.365-4.895-1.859-9.715-2.038-12.885C234.021,182.986,233.603,183.219,233.248,183.406z"/>
		<path fill="#A9FFD2" d="M173.402,307.227c-0.422,0.01-0.845,0.014-1.265,0.014c-8.229,0-16-1.883-23.1-4.796
			c2.773,7.913,6.33,17.013,10.82,27.44h20.591c4.215-9.787,7.605-18.403,10.299-25.967
			C185.088,305.98,179.302,307.088,173.402,307.227z"/>
		<path fill="#A9FFD2" d="M229.841,271.707c-10.703,14.43-22.131,24.51-34.162,30.155c-2.777,8.126-6.363,17.428-10.885,28.022
			h73.91c-5.56-39.122-16.334-50.795-17.606-52.048L229.841,271.707z"/>
		<path fill="#A9FFD2" d="M212.7,262.371l-8.762-4.771c0.487,3.921,0.373,9.037-0.688,15.703
			C206.47,270.162,209.62,266.512,212.7,262.371z"/>
		<path fill="#A9FFD2" d="M171.529,287.991c0.093,0,0.183-0.001,0.276-0.001c9.252-0.068,18.168-3.564,26.656-10.413
			c2.389-11.44,2.116-18.308,0.992-22.419l-5.627-3.065c-0.794-0.266-1.369-1.007-1.369-1.889v-16.021
			c-6.709,4.361-13.41,7.336-22.897,7.336c-0.007,0-0.015-0.002-0.021-0.002s-0.015,0.002-0.021,0.002
			c-8.9,0-15.349-2.616-21.652-6.541v15.226c0,0.028-0.007,0.056-0.009,0.085c-0.003,0.073-0.011,0.146-0.021,0.219
			c-0.01,0.061-0.021,0.119-0.035,0.178c-0.016,0.064-0.036,0.128-0.059,0.191c-0.021,0.059-0.044,0.117-0.07,0.174
			c-0.028,0.061-0.061,0.117-0.095,0.175c-0.032,0.053-0.063,0.104-0.1,0.153c-0.04,0.055-0.083,0.105-0.129,0.156
			c-0.042,0.047-0.084,0.092-0.13,0.134c-0.047,0.044-0.098,0.084-0.149,0.123c-0.056,0.042-0.111,0.081-0.171,0.117
			c-0.026,0.017-0.048,0.036-0.075,0.052l-5.987,3.26c-1.084,4.023-1.355,10.658,0.849,21.576
			C149.661,282.684,160.032,287.991,171.529,287.991z"/>
		<path fill="#A9FFD2" d="M169.539,237.521c0.007,0,0.015-0.002,0.021-0.002c11.834,0,18.803-5.087,28.448-12.127
			c2.066-1.508,4.204-3.068,6.553-4.703l0.65-0.452c11.822-8.222,21.456-14.927,23.605-30.94c-0.017-0.139-0.051-0.275-0.061-0.416
			c-0.027-0.393,0.065-0.766,0.24-1.088c0.168-1.653,0.256-3.406,0.266-5.262c-0.162-0.887,0.291-1.803,1.152-2.185
			c0.134-0.06,13.622-6.218,11.564-16.806c-0.479-2.461-1.524-4.204-3.108-5.18c-2.764-1.705-6.455-0.734-6.492-0.725
			c-0.008,0.002-0.017,0.002-0.024,0.004c-0.058,0.016-0.118,0.021-0.178,0.031c-0.076,0.014-0.152,0.029-0.229,0.034
			c-0.006,0.001-0.011,0.002-0.017,0.003c-0.034,0.001-0.066-0.006-0.1-0.006c-0.098,0-0.194-0.002-0.29-0.017
			c-0.038-0.006-0.074-0.018-0.111-0.025c-0.09-0.019-0.178-0.038-0.263-0.068c-0.049-0.017-0.093-0.042-0.14-0.062
			c-0.069-0.031-0.139-0.061-0.204-0.099c-0.054-0.032-0.101-0.069-0.151-0.105c-0.053-0.038-0.106-0.073-0.155-0.116
			c-0.052-0.047-0.098-0.099-0.146-0.15c-0.039-0.041-0.08-0.081-0.115-0.127c-0.048-0.062-0.086-0.129-0.127-0.195
			c-0.026-0.045-0.056-0.086-0.079-0.132c-0.038-0.075-0.064-0.156-0.093-0.237c-0.014-0.039-0.034-0.075-0.046-0.116
			c-0.002-0.007-0.002-0.014-0.004-0.021c-0.018-0.066-0.024-0.137-0.036-0.205c-0.01-0.068-0.025-0.135-0.029-0.201
			c0-0.008-0.002-0.014-0.003-0.021c-0.019-0.4-2.229-40.115-30.477-44.555c-28.485-4.476-38.488-17.336-41.938-24.758
			c-3.721,7.301-13.207,20.971-35.434,32.217c-15.29,7.734-12.539,35.947-12.455,36.752c0,0.008,0.003,0.029,0.003,0.032
			c0.005,0.044-0.001,0.085,0.001,0.128c0.004,0.086,0.01,0.17,0.002,0.256c-0.006,0.076-0.023,0.148-0.039,0.223
			c-0.01,0.051-0.012,0.102-0.026,0.153c-0.001,0.005-0.005,0.01-0.006,0.015c-0.021,0.076-0.055,0.146-0.085,0.217
			c-0.021,0.052-0.038,0.105-0.063,0.154c-0.012,0.022-0.028,0.041-0.04,0.062c-0.317,0.558-0.879,0.927-1.507,0.996
			c-0.002,0.001-0.004,0.002-0.006,0.002c-0.074,0.008-0.148,0.012-0.222,0.012c-0.018,0-0.035-0.004-0.053-0.005
			c-0.066-0.002-0.132-0.01-0.198-0.019c-0.069-0.009-0.138-0.02-0.204-0.035c-0.025-0.006-0.051-0.006-0.076-0.014
			c-0.053-0.014-3.752-0.986-6.52,0.734c-1.572,0.979-2.611,2.717-3.088,5.168c-2.069,10.644,11.094,16.752,11.228,16.812
			c0.045,0.021,0.083,0.051,0.126,0.074c0.064,0.035,0.131,0.068,0.191,0.111c0.055,0.038,0.104,0.083,0.153,0.126
			c0.048,0.041,0.097,0.079,0.14,0.124c0.047,0.049,0.087,0.103,0.128,0.155c0.039,0.05,0.079,0.097,0.112,0.149
			c0.035,0.053,0.061,0.109,0.09,0.164c0.031,0.061,0.063,0.118,0.088,0.182c0.023,0.059,0.039,0.119,0.057,0.18
			c0.018,0.062,0.039,0.124,0.051,0.189c0.014,0.075,0.018,0.151,0.023,0.228c0.003,0.047,0.014,0.091,0.014,0.14
			c0,21.332,10.616,28.715,24.057,38.062l0.65,0.452c2.349,1.635,4.486,3.195,6.553,4.703c9.646,7.04,16.614,12.127,28.448,12.127
			C169.524,237.52,169.532,237.521,169.539,237.521z M232.227,171.374c1.366,0,2.474,1.108,2.474,2.474
			c0,1.367-1.107,2.475-2.474,2.475c-1.367,0-2.475-1.107-2.475-2.475C229.752,172.482,230.859,171.374,232.227,171.374z
			 M106.811,175.225c-1.367,0-2.475-1.107-2.475-2.475c0-1.365,1.107-2.474,2.475-2.474c1.366,0,2.474,1.108,2.474,2.474
			C109.284,174.117,108.177,175.225,106.811,175.225z M188.154,123.508c0.64-0.201,15.769-4.857,25.581,0.887
			c3.977,2.327,6.515,5.994,7.544,10.898c0.228,1.08-0.465,2.141-1.546,2.368c-0.139,0.028-0.277,0.043-0.413,0.043
			c-0.926,0-1.758-0.647-1.955-1.589c-0.8-3.807-2.647-6.512-5.65-8.269c-8.3-4.86-22.221-0.567-22.359-0.523
			c-1.055,0.333-2.177-0.253-2.509-1.308C186.516,124.962,187.102,123.84,188.154,123.508z M186.042,151.82
			c0.813-0.924,7.852-8.688,14.777-9.389c0.322-0.041,0.647-0.068,0.98-0.068c0.27,0,0.537,0.014,0.799,0.041
			c5.096,0.416,9.394,4.678,11.519,7.209l2.473-2.318c0.805-0.756,2.071-0.717,2.827,0.09c0.755,0.805,0.715,2.071-0.091,2.826
			l-4.079,3.827c-0.427,0.401-1.006,0.599-1.591,0.528c-0.583-0.064-1.107-0.382-1.435-0.867c-0.513-0.756-1.465-1.957-2.684-3.17
			c-0.214,4.088-3.598,7.352-7.738,7.352c-4.278,0-7.759-3.48-7.759-7.759c0-0.087,0.011-0.171,0.013-0.257
			c-2.197,1.672-4.071,3.535-5.01,4.6c-0.396,0.447-0.947,0.677-1.502,0.677c-0.47,0-0.94-0.165-1.321-0.499
			C185.393,153.912,185.312,152.649,186.042,151.82z M160.588,178.289c1.104,0,2,0.896,2,2c0,4.199,3.416,7.615,7.615,7.615
			s7.615-3.416,7.615-7.615c0-1.104,0.896-2,2-2s2,0.896,2,2c0,6.404-5.211,11.615-11.615,11.615s-11.615-5.211-11.615-11.615
			C158.588,179.185,159.483,178.289,160.588,178.289z M119.126,135.293c1.029-4.904,3.567-8.571,7.544-10.898
			c9.814-5.746,24.941-1.088,25.581-0.887c1.053,0.331,1.638,1.453,1.307,2.506c-0.33,1.053-1.449,1.642-2.506,1.311
			c-0.141-0.044-14.096-4.324-22.369,0.527c-2.998,1.758-4.844,4.46-5.643,8.264c-0.197,0.941-1.029,1.589-1.955,1.589
			c-0.136,0-0.274-0.015-0.413-0.043C119.591,137.434,118.898,136.373,119.126,135.293z M154.185,154.643
			c-0.381,0.334-0.852,0.499-1.321,0.499c-0.555,0-1.106-0.229-1.502-0.677c-0.938-1.064-2.813-2.928-5.011-4.6
			c0.004,0.086,0.014,0.17,0.014,0.257c0,4.278-3.48,7.759-7.759,7.759c-4.142,0-7.524-3.264-7.738-7.352
			c-1.22,1.214-2.171,2.416-2.685,3.172c-0.329,0.484-0.854,0.801-1.436,0.865c-0.578,0.066-1.163-0.128-1.589-0.528l-4.079-3.827
			c-0.806-0.755-0.846-2.021-0.091-2.826c0.756-0.807,2.022-0.846,2.827-0.09l2.473,2.318c2.125-2.531,6.423-6.793,11.518-7.209
			c0.264-0.027,0.529-0.041,0.8-0.041c0.333,0,0.659,0.027,0.98,0.068c6.926,0.701,13.964,8.465,14.777,9.389
			C155.093,152.649,155.013,153.912,154.185,154.643z M158.005,210.202c-0.938-0.581-1.229-1.813-0.648-2.753
			c0.582-0.939,1.813-1.23,2.754-0.648c2.562,1.585,5.358,2.644,8.313,3.146c3.058,0.521,6.153,0.421,9.202-0.298
			c3.048-0.718,5.862-2.011,8.367-3.843c2.421-1.771,4.451-3.967,6.034-6.528c1.586-2.563,2.645-5.36,3.147-8.315
			c0.186-1.09,1.218-1.822,2.307-1.637c1.09,0.186,1.822,1.219,1.637,2.308c-0.59,3.466-1.831,6.746-3.688,9.749
			c-1.855,3.001-4.236,5.576-7.075,7.652c-2.938,2.15-6.239,3.666-9.811,4.508c-2.072,0.488-4.163,0.732-6.254,0.732
			c-1.516,0-3.03-0.129-4.537-0.385C164.287,213.301,161.008,212.061,158.005,210.202z"/>
		<path fill="#A9FFD2" d="M137.022,273.088c-1.023-6.527-1.136-11.56-0.662-15.43l-9.525,5.188
			C128.621,264.976,132.163,268.928,137.022,273.088z"/>
		<path fill="#A9FFD2" d="M123.246,264.8l-9.972,5.431c4.117,4.928,14.673,16.48,29.028,24.522
			c-1.803-5.808-3.159-10.952-4.132-15.491C130.581,273.463,125.3,267.346,123.246,264.8z"/>
		<path fill="#A9FFD2" d="M0,0v329.885h77.662c6.11-43.74,18.632-54.751,19.18-55.214c0.103-0.087,0.214-0.162,0.331-0.226
			l40.37-21.986c0.432-1.191,0.935-2.209,1.492-3.059c1.593-2.43,3.465-3.473,4.83-3.924v-12.971c0-0.057,0.013-0.109,0.017-0.166
			c-1.686-1.174-3.395-2.42-5.171-3.717c-2.049-1.495-4.167-3.041-6.479-4.65l-0.648-0.451
			c-10.479-7.287-20.491-14.261-24.229-28.434c-3.148,4.861-8.438,8.607-9.245,9.162c-0.343,0.234-0.737,0.35-1.131,0.35
			c-0.486,0-0.97-0.177-1.35-0.523c-0.686-0.627-0.85-1.645-0.395-2.455c4.639-8.271,4.817-20.336,4.815-22.223
			c-4.023-3.541-8.029-9.102-6.566-16.621c0.7-3.604,2.36-6.234,4.936-7.822c0.111-0.068,0.225-0.123,0.338-0.186
			c-8.73-31.968-1.041-63.249,18.931-78.199c-1.69-4.096-5.92-16.023-1.308-23.316c2.198-3.477,5.986-5.359,11.23-5.646
			c1.504-3.357,6.246-12.453,14.122-14.11c4.569-0.963,9.269,0.714,13.98,4.987c3.28-2.998,11.229-9.35,18.05-7.549
			c3.471,0.912,5.99,3.723,7.521,8.328c5.955,0.01,11.266,2.072,14.755,5.776c3.792,4.025,5.425,9.743,4.871,17.006
			c32.44,6.755,42.173,30.585,44.467,38.175c8.055,26.643-1.067,49.498-3.7,55.229c2.17,1.615,3.596,4.069,4.229,7.328
			c1.551,7.979-3.159,13.748-7.508,17.243c0.049,3.132,0.535,13.978,4.81,21.601c0.455,0.811,0.291,1.828-0.395,2.455
			c-0.38,0.347-0.863,0.523-1.35,0.523c-0.394,0-0.788-0.115-1.131-0.35c-0.769-0.527-5.612-3.949-8.792-8.474
			c-3.876,13.714-13.736,20.577-24.045,27.745l-0.648,0.451c-2.312,1.609-4.431,3.155-6.479,4.65
			c-1.413,1.032-2.782,2.027-4.132,2.984c0.138,0.271,0.223,0.574,0.223,0.898v12.977c1.363,0.454,3.228,1.498,4.813,3.918
			c0.547,0.834,1.042,1.83,1.468,2.991l40.494,22.054c0.117,0.063,0.229,0.139,0.331,0.226c0.548,0.463,13.069,11.474,19.18,55.214
			h67.141V0H0z"/>
		<path fill="#A9FFD2" d="M171.522,291.991c-10.845,0-20.595-4.171-28.51-9.314c1.071,4.308,2.475,9.165,4.279,14.644
			c7.525,3.529,15.909,5.92,24.841,5.92c0.392,0,0.781-0.004,1.176-0.014c6.528-0.152,12.927-1.601,19.176-4.318
			c1.931-5.74,3.432-10.82,4.578-15.316c-8.044,5.508-16.479,8.338-25.248,8.398C171.718,291.99,171.619,291.991,171.522,291.991z"
			/>
		<path fill="#A9FFD2" d="M202.012,279.818c-1.06,4.845-2.548,10.365-4.546,16.635c10.047-5.536,19.686-14.444,28.83-26.678
			l-10.046-5.471C211.674,270.519,206.922,275.688,202.012,279.818z"/>
		<path fill="#252525" d="M139.586,142.432c-0.321-0.041-0.647-0.068-0.98-0.068c-0.271,0-0.536,0.014-0.8,0.041
			c-5.095,0.416-9.393,4.678-11.518,7.209l-2.473-2.318c-0.805-0.756-2.071-0.717-2.827,0.09c-0.755,0.805-0.715,2.071,0.091,2.826
			l4.079,3.827c0.426,0.4,1.011,0.595,1.589,0.528c0.582-0.064,1.106-0.381,1.436-0.865c0.514-0.756,1.465-1.958,2.685-3.172
			c0.214,4.088,3.597,7.352,7.738,7.352c4.278,0,7.759-3.48,7.759-7.759c0-0.087-0.01-0.171-0.014-0.257
			c2.197,1.672,4.072,3.535,5.011,4.6c0.396,0.447,0.947,0.677,1.502,0.677c0.47,0,0.94-0.165,1.321-0.499
			c0.828-0.73,0.908-1.993,0.179-2.822C153.55,150.896,146.512,143.133,139.586,142.432z M138.605,153.881
			c-2.072,0-3.759-1.686-3.759-3.759s1.687-3.759,3.759-3.759s3.759,1.686,3.759,3.759S140.678,153.881,138.605,153.881z"/>
		<path fill="#252525" d="M187.542,155.142c0.555,0,1.106-0.229,1.502-0.677c0.938-1.064,2.812-2.928,5.01-4.6
			c-0.002,0.086-0.013,0.17-0.013,0.257c0,4.278,3.48,7.759,7.759,7.759c4.141,0,7.524-3.264,7.738-7.352
			c1.219,1.213,2.171,2.414,2.684,3.17c0.327,0.485,0.852,0.803,1.435,0.867c0.585,0.07,1.164-0.127,1.591-0.528l4.079-3.827
			c0.806-0.755,0.846-2.021,0.091-2.826c-0.756-0.807-2.022-0.846-2.827-0.09l-2.473,2.318c-2.125-2.531-6.423-6.793-11.519-7.209
			c-0.262-0.027-0.529-0.041-0.799-0.041c-0.333,0-0.658,0.027-0.98,0.068c-6.926,0.701-13.964,8.465-14.777,9.389
			c-0.729,0.829-0.649,2.092,0.179,2.822C186.602,154.977,187.072,155.142,187.542,155.142z M201.8,146.363
			c2.072,0,3.759,1.686,3.759,3.759s-1.687,3.759-3.759,3.759s-3.759-1.686-3.759-3.759S199.728,146.363,201.8,146.363z"/>
		<path fill="#252525" d="M121.085,137.704c0.926,0,1.758-0.647,1.955-1.589c0.799-3.804,2.645-6.506,5.643-8.264
			c8.273-4.852,22.229-0.571,22.369-0.527c1.057,0.331,2.176-0.258,2.506-1.311c0.331-1.053-0.254-2.175-1.307-2.506
			c-0.64-0.201-15.767-4.859-25.581,0.887c-3.977,2.327-6.515,5.994-7.544,10.898c-0.228,1.08,0.465,2.141,1.546,2.368
			C120.811,137.689,120.949,137.704,121.085,137.704z"/>
		<path fill="#252525" d="M189.355,127.323c0.139-0.044,14.06-4.337,22.359,0.523c3.003,1.757,4.851,4.462,5.65,8.269
			c0.197,0.941,1.029,1.589,1.955,1.589c0.136,0,0.274-0.015,0.413-0.043c1.081-0.228,1.773-1.288,1.546-2.368
			c-1.029-4.904-3.567-8.571-7.544-10.898c-9.812-5.744-24.941-1.088-25.581-0.887c-1.053,0.332-1.639,1.454-1.308,2.508
			C187.179,127.07,188.301,127.656,189.355,127.323z"/>
		<path fill="#252525" d="M243.564,274.671c-0.103-0.087-0.214-0.162-0.331-0.226l-40.494-22.054
			c-0.426-1.161-0.921-2.157-1.468-2.991c-1.586-2.42-3.45-3.464-4.813-3.918v-12.977c0-0.324-0.085-0.627-0.223-0.898
			c1.35-0.957,2.719-1.952,4.132-2.984c2.049-1.495,4.167-3.041,6.479-4.65l0.648-0.451c10.309-7.168,20.169-14.031,24.045-27.745
			c3.18,4.524,8.023,7.946,8.792,8.474c0.343,0.234,0.737,0.35,1.131,0.35c0.486,0,0.97-0.177,1.35-0.523
			c0.686-0.627,0.85-1.645,0.395-2.455c-4.274-7.623-4.761-18.469-4.81-21.601c4.349-3.495,9.059-9.265,7.508-17.243
			c-0.633-3.259-2.059-5.713-4.229-7.328c2.633-5.73,11.755-28.586,3.7-55.229c-2.294-7.59-12.026-31.42-44.467-38.175
			c0.554-7.263-1.079-12.98-4.871-17.006c-3.489-3.704-8.8-5.767-14.755-5.776c-1.531-4.605-4.051-7.416-7.521-8.328
			c-6.82-1.801-14.77,4.551-18.05,7.549c-4.712-4.273-9.411-5.95-13.98-4.987c-7.876,1.657-12.618,10.753-14.122,14.11
			c-5.244,0.287-9.032,2.17-11.23,5.646c-4.612,7.293-0.383,19.221,1.308,23.316c-19.972,14.95-27.661,46.231-18.931,78.199
			c-0.113,0.062-0.227,0.117-0.338,0.186c-2.575,1.588-4.235,4.219-4.936,7.822c-1.463,7.52,2.543,13.08,6.566,16.621
			c0.002,1.887-0.177,13.951-4.815,22.223c-0.455,0.811-0.291,1.828,0.395,2.455c0.38,0.347,0.863,0.523,1.35,0.523
			c0.394,0,0.788-0.115,1.131-0.35c0.808-0.555,6.097-4.301,9.245-9.162c3.737,14.173,13.75,21.146,24.229,28.434l0.648,0.451
			c2.312,1.609,4.431,3.155,6.479,4.65c1.776,1.297,3.485,2.543,5.171,3.717c-0.004,0.057-0.017,0.109-0.017,0.166v12.971
			c-1.365,0.451-3.237,1.494-4.83,3.924c-0.558,0.85-1.061,1.867-1.492,3.059l-40.37,21.986c-0.117,0.063-0.229,0.139-0.331,0.226
			c-0.548,0.463-13.069,11.474-19.18,55.214h4.04c5.57-39.204,16.379-50.843,17.603-52.047l10.392-5.658
			c4.158,5.064,16.837,19.311,34.365,28.01c2.854,8.519,6.618,18.367,11.453,29.695h4.344c-4.49-10.428-8.047-19.527-10.82-27.44
			c7.1,2.913,14.87,4.796,23.1,4.796c0.42,0,0.843-0.004,1.265-0.014c5.899-0.139,11.686-1.246,17.346-3.309
			c-2.693,7.563-6.084,16.18-10.299,25.967h4.345c4.521-10.595,8.107-19.896,10.885-28.022
			c12.031-5.646,23.459-15.726,34.162-30.155l11.257,6.13c1.272,1.253,12.047,12.926,17.606,52.048h4.04
			C256.634,286.145,244.112,275.134,243.564,274.671z M203.938,257.6l8.762,4.771c-3.08,4.141-6.23,7.791-9.449,10.932
			C204.312,266.637,204.426,261.521,203.938,257.6z M232.84,189.238c0.229-1.834,0.368-3.775,0.408-5.832
			c0.354-0.188,0.773-0.42,1.24-0.693c0.179,3.17,0.673,7.99,2.038,12.885C234.737,193.609,233.223,191.359,232.84,189.238z
			 M119.763,55.388c1.628-2.571,4.637-3.827,9.197-3.839c0.002,0,0.002,0,0.003,0h0.003h0.002c0.009,0,0.019,0,0.027,0
			c8.526,0,15.186,9,15.251,9.088c0.646,0.894,1.897,1.096,2.793,0.446c0.895-0.648,1.094-1.899,0.445-2.794
			c-0.287-0.396-6.524-8.863-15.546-10.476c1.938-3.802,5.734-9.374,10.618-10.402c3.613-0.76,7.559,1.005,11.729,5.249
			c0.377,0.383,0.891,0.598,1.427,0.598c0.002,0,0.003,0,0.004,0c0.537,0,1.052-0.218,1.428-0.603
			c2.585-2.646,10.422-9.224,15.604-7.851c1.891,0.498,3.372,2.145,4.436,4.868c-4.95,1.113-10.724,4.659-17.916,10.983
			c-0.83,0.729-0.911,1.993-0.182,2.822c0.729,0.83,1.992,0.912,2.822,0.182c7.63-6.709,13.524-10.099,18.018-10.363
			c0.002,0,0.004-0.001,0.006-0.001c0.001-0.001,0.002-0.001,0.003-0.001c2.562-0.15,8.958-0.009,13.192,4.488
			c2.915,3.095,4.184,7.65,3.812,13.533c-1.227-0.191-2.478-0.363-3.765-0.506c-18.971-2.104-32.562,6.42-35.96,8.82
			c-4.289-0.992-21.731-4.233-36.151,4.627C119.146,69.354,116.656,60.295,119.763,55.388z M123.019,77.748
			c14.736-9.156,33.907-4.072,34.098-4.021c0.616,0.168,1.272,0.033,1.771-0.36c0.559-0.441,13.907-10.789,33.849-8.58
			c36.243,4.013,46.525,29.021,48.813,36.59c7.553,24.984-1.12,47.051-3.503,52.367c-1.625-0.41-3.188-0.435-4.402-0.337
			c-0.957-8.896-6.337-41.814-33.659-46.108c-36.947-5.806-40.235-25.918-40.356-26.761c-0.123-0.94-0.893-1.662-1.839-1.731
			c-0.964-0.062-1.812,0.541-2.069,1.454c-0.056,0.197-5.92,19.896-35.535,34.878c-15.106,7.644-15.232,30.504-14.816,38.242
			c-0.831-0.047-1.793-0.032-2.812,0.116C93.927,121.636,102.21,90.678,123.019,77.748z M105.694,188.605
			c-0.159,2.291-1.809,4.794-3.776,6.981c1.417-5.087,1.897-10.106,2.058-13.259c0.72,0.454,1.354,0.816,1.855,1.087
			c0.027,1.453,0.105,2.85,0.229,4.19C105.857,187.893,105.721,188.23,105.694,188.605z M141.069,225.393
			c-2.066-1.508-4.204-3.068-6.553-4.703l-0.65-0.452c-13.44-9.347-24.057-16.729-24.057-38.062c0-0.049-0.011-0.093-0.014-0.14
			c-0.006-0.076-0.01-0.152-0.023-0.228c-0.012-0.065-0.033-0.127-0.051-0.189c-0.018-0.061-0.033-0.121-0.057-0.18
			c-0.024-0.063-0.057-0.121-0.088-0.182c-0.029-0.055-0.055-0.111-0.09-0.164c-0.033-0.053-0.073-0.1-0.112-0.149
			c-0.041-0.053-0.081-0.106-0.128-0.155c-0.043-0.045-0.092-0.083-0.14-0.124c-0.05-0.043-0.099-0.088-0.153-0.126
			c-0.061-0.043-0.127-0.076-0.191-0.111c-0.043-0.023-0.081-0.053-0.126-0.074c-0.134-0.061-13.297-6.169-11.228-16.812
			c0.477-2.451,1.516-4.189,3.088-5.168c2.768-1.721,6.467-0.748,6.52-0.734c0.025,0.008,0.051,0.008,0.076,0.014
			c0.066,0.016,0.135,0.026,0.204,0.035c0.066,0.009,0.132,0.017,0.198,0.019c0.018,0.001,0.035,0.005,0.053,0.005
			c0.073,0,0.147-0.004,0.222-0.012c0.002,0,0.004-0.001,0.006-0.002c0.628-0.069,1.189-0.438,1.507-0.996
			c0.012-0.021,0.028-0.04,0.04-0.062c0.025-0.049,0.042-0.103,0.063-0.154c0.03-0.071,0.063-0.141,0.085-0.217
			c0.001-0.005,0.005-0.01,0.006-0.015c0.015-0.052,0.017-0.103,0.026-0.153c0.016-0.074,0.033-0.146,0.039-0.223
			c0.008-0.086,0.002-0.17-0.002-0.256c-0.002-0.043,0.004-0.084-0.001-0.128c0-0.003-0.003-0.024-0.003-0.032
			c-0.084-0.805-2.835-29.018,12.455-36.752c22.227-11.246,31.713-24.916,35.434-32.217c3.45,7.422,13.453,20.282,41.938,24.758
			c28.247,4.439,30.458,44.154,30.477,44.555c0.001,0.008,0.003,0.014,0.003,0.021c0.004,0.066,0.02,0.133,0.029,0.201
			c0.012,0.068,0.019,0.139,0.036,0.205c0.002,0.007,0.002,0.014,0.004,0.021c0.012,0.041,0.032,0.077,0.046,0.116
			c0.028,0.081,0.055,0.162,0.093,0.237c0.023,0.046,0.053,0.087,0.079,0.132c0.041,0.066,0.079,0.134,0.127,0.195
			c0.035,0.046,0.076,0.086,0.115,0.127c0.048,0.052,0.094,0.104,0.146,0.15c0.049,0.043,0.103,0.078,0.155,0.116
			c0.051,0.036,0.098,0.073,0.151,0.105c0.065,0.038,0.135,0.067,0.204,0.099c0.047,0.02,0.091,0.045,0.14,0.062
			c0.085,0.03,0.173,0.05,0.263,0.068c0.037,0.008,0.073,0.02,0.111,0.025c0.096,0.015,0.192,0.017,0.29,0.017
			c0.033,0,0.065,0.007,0.1,0.006c0.006-0.001,0.011-0.002,0.017-0.003c0.076-0.005,0.152-0.021,0.229-0.034
			c0.06-0.01,0.12-0.016,0.178-0.031c0.008-0.002,0.017-0.002,0.024-0.004c0.037-0.01,3.729-0.98,6.492,0.725
			c1.584,0.976,2.63,2.719,3.108,5.18c2.058,10.588-11.431,16.746-11.564,16.806c-0.861,0.382-1.314,1.298-1.152,2.185
			c-0.01,1.855-0.098,3.608-0.266,5.262c-0.175,0.322-0.268,0.695-0.24,1.088c0.01,0.141,0.044,0.277,0.061,0.416
			c-2.149,16.014-11.783,22.719-23.605,30.94l-0.65,0.452c-2.349,1.635-4.486,3.195-6.553,4.703
			c-9.646,7.04-16.614,12.127-28.448,12.127c-0.007,0-0.015,0.002-0.021,0.002s-0.015-0.002-0.021-0.002
			C157.684,237.52,150.715,232.433,141.069,225.393z M140.835,255.221l5.987-3.26c0.027-0.016,0.049-0.035,0.075-0.052
			c0.06-0.036,0.115-0.075,0.171-0.117c0.052-0.039,0.103-0.079,0.149-0.123c0.046-0.042,0.088-0.087,0.13-0.134
			c0.046-0.051,0.089-0.102,0.129-0.156c0.036-0.049,0.067-0.101,0.1-0.153c0.034-0.058,0.066-0.114,0.095-0.175
			c0.026-0.057,0.049-0.115,0.07-0.174c0.022-0.063,0.043-0.127,0.059-0.191c0.015-0.059,0.025-0.117,0.035-0.178
			c0.011-0.072,0.019-0.146,0.021-0.219c0.002-0.029,0.009-0.057,0.009-0.085v-15.226c6.304,3.925,12.752,6.541,21.652,6.541
			c0.007,0,0.015-0.002,0.021-0.002s0.015,0.002,0.021,0.002c9.487,0,16.188-2.975,22.897-7.336v16.021
			c0,0.882,0.575,1.623,1.369,1.889l5.627,3.065c1.124,4.111,1.396,10.979-0.992,22.419c-8.488,6.849-17.404,10.345-26.656,10.413
			c-0.094,0-0.184,0.001-0.276,0.001c-11.497,0-21.868-5.308-29.846-11.194C139.479,265.879,139.751,259.244,140.835,255.221z
			 M136.36,257.658c-0.474,3.87-0.361,8.902,0.662,15.43c-4.859-4.16-8.401-8.112-10.188-10.242L136.36,257.658z M113.274,270.23
			l9.972-5.431c2.054,2.546,7.335,8.663,14.925,14.462c0.973,4.539,2.329,9.684,4.132,15.491
			C127.947,286.711,117.392,275.158,113.274,270.23z M192.484,298.908c-6.249,2.718-12.647,4.166-19.176,4.318
			c-0.395,0.01-0.784,0.014-1.176,0.014c-8.932,0-17.315-2.391-24.841-5.92c-1.805-5.479-3.208-10.336-4.279-14.644
			c7.915,5.144,17.665,9.314,28.51,9.314c0.097,0,0.195-0.001,0.292-0.001c8.769-0.061,17.204-2.891,25.248-8.398
			C195.916,288.088,194.415,293.168,192.484,298.908z M197.466,296.453c1.998-6.27,3.486-11.79,4.546-16.635
			c4.91-4.131,9.662-9.3,14.238-15.514l10.046,5.471C217.151,282.009,207.513,290.917,197.466,296.453z"/>
		<path fill="#252525" d="M170.203,191.904c6.404,0,11.615-5.211,11.615-11.615c0-1.104-0.896-2-2-2s-2,0.896-2,2
			c0,4.199-3.416,7.615-7.615,7.615s-7.615-3.416-7.615-7.615c0-1.104-0.896-2-2-2s-2,0.896-2,2
			C158.588,186.693,163.799,191.904,170.203,191.904z"/>
		<path fill="#252525" d="M178.544,213.543c3.571-0.842,6.872-2.357,9.811-4.508c2.839-2.076,5.22-4.651,7.075-7.652
			c1.857-3.003,3.099-6.283,3.688-9.749c0.186-1.089-0.547-2.122-1.637-2.308c-1.089-0.186-2.121,0.547-2.307,1.637
			c-0.503,2.955-1.562,5.752-3.147,8.315c-1.583,2.562-3.613,4.758-6.034,6.528c-2.505,1.832-5.319,3.125-8.367,3.843
			c-3.049,0.719-6.145,0.818-9.202,0.298c-2.955-0.503-5.752-1.562-8.313-3.146c-0.94-0.582-2.172-0.291-2.754,0.648
			c-0.581,0.939-0.29,2.172,0.648,2.753c3.003,1.858,6.282,3.099,9.748,3.688c1.507,0.256,3.021,0.385,4.537,0.385
			C174.381,214.275,176.472,214.031,178.544,213.543z"/>
		<circle fill="#252525" cx="106.811" cy="172.75" r="2.474"/>
		<circle fill="#252525" cx="232.227" cy="173.848" r="2.474"/>
	</g>
</g>
</svg>
