<?xml version="1.0" encoding="utf-8"?>
<!-- Generator: Adobe Illustrator 16.0.0, SVG Export Plug-In . SVG Version: 6.00 Build 0)  -->
<!DOCTYPE svg PUBLIC "-//W3C//DTD SVG 1.1//EN" "http://www.w3.org/Graphics/SVG/1.1/DTD/svg11.dtd">
<svg version="1.1" xmlns="http://www.w3.org/2000/svg" xmlns:xlink="http://www.w3.org/1999/xlink" x="0px" y="0px"
	 width="329.885px" height="329.885px" viewBox="0 0 329.885 329.885" enable-background="new 0 0 329.885 329.885"
	 xml:space="preserve">
<g id="Layer_1">
</g>
<g id="Layer_2">
	<g>
		<path fill="#A9FFD2" d="M142.204,234.341v14.162c1.973,2.388,11.028,12.53,22.615,12.682c7.612,0.08,15.046-4.167,21.978-12.686
			V233.79c-7.981,3.542-16.015,5.729-22.94,5.729C157.304,239.519,149.758,237.552,142.204,234.341z"/>
		<path fill="#A9FFD2" d="M229.631,274.187c-0.068-0.029-0.144-0.064-0.208-0.101l-9.611-5.345l5.356,24.347
			c0.158,0.717-0.09,1.462-0.645,1.942c-0.558,0.48-1.331,0.617-2.016,0.357l-18.164-6.867l9.779,18.969
			c0.435,0.842,0.219,1.872-0.517,2.469l-24.526,19.927h64.505C252.286,284.238,229.864,274.284,229.631,274.187z"/>
		<path fill="#A9FFD2" d="M223.567,194.04c0.54-8.014,0.652-23.22,0.59-38.689h-7.894c-1.29,11.037-10.692,19.632-22.069,19.632
			c-11.643,0-21.216-9.001-22.145-20.409c-2.587-1.35-5.476-2.064-8.419-2.064c-2.761,0-5.486,0.629-7.949,1.823
			c-0.812,11.522-10.439,20.65-22.164,20.65c-11.378,0-20.78-8.595-22.07-19.632h-8.073c0.036,15.469,0.229,30.674,0.77,38.689
			c0.5,7.404,8.875,17.63,21.857,26.686c13.081,9.125,27.586,14.793,37.855,14.793c10.269,0,24.772-5.668,37.853-14.793
			C214.692,211.67,223.067,201.444,223.567,194.04z M151.48,180.679c0.596-0.93,1.832-1.202,2.763-0.606
			c2.096,1.341,4.097,0.943,4.178,0.925c1.014-0.209,2.033,0.373,2.341,1.353c0.078,0.22,0.927,2.394,3.971,2.394
			c3.045,0,3.894-2.174,3.98-2.422c0.176-0.502,0.55-0.93,1.03-1.159s1.04-0.274,1.538-0.097c0.066,0.021,2.09,0.664,3.667-0.783
			c0.815-0.746,2.081-0.69,2.826,0.123c0.746,0.814,0.691,2.08-0.123,2.826c-1.928,1.766-4.222,2.115-5.961,1.965
			c-1.01,1.522-3.08,3.547-6.958,3.547c-3.997,0-6.074-2.152-7.048-3.688c-0.022,0.001-0.045,0.001-0.068,0.001
			c-1.387,0-3.45-0.284-5.529-1.615C151.157,182.847,150.885,181.609,151.48,180.679z M191.163,194.294
			c-5.107,13.414-19.428,15.341-27.23,15.341c-2.91,0-4.912-0.269-5.193-0.308c-1.093-0.155-1.853-1.166-1.698-2.26
			c0.153-1.093,1.179-1.853,2.259-1.701c0.219,0.032,22.253,2.927,28.125-12.496c0.394-1.033,1.551-1.551,2.581-1.156
			C191.038,192.106,191.556,193.262,191.163,194.294z"/>
		<path fill="#A9FFD2" d="M224.138,151.351c-0.076-13.01-0.261-25.784-0.401-34.195c-55.041-15.084-110.72-2.377-120.206,0.01
			c-0.078,8.415-0.17,21.182-0.162,34.186h7.972c0.729-11.602,10.395-20.82,22.178-20.82c11.33,0,20.701,8.525,22.052,19.496
			c2.558-0.993,5.295-1.518,8.062-1.518c2.928,0,5.812,0.583,8.49,1.689c1.273-11.054,10.684-19.668,22.073-19.668
			c11.782,0,21.448,9.219,22.177,20.82H224.138z M151.111,133.247c-0.386,0.357-0.874,0.535-1.361,0.535
			c-0.535,0-1.069-0.215-1.463-0.637c-0.56-0.598-13.767-14.359-31.196-3.596c-0.939,0.582-2.172,0.289-2.752-0.65
			c-0.581-0.939-0.29-2.172,0.65-2.752c20.266-12.518,36.069,4.104,36.227,4.273C151.967,131.23,151.92,132.495,151.111,133.247z
			 M213.252,128.899c-0.58,0.939-1.813,1.231-2.752,0.65c-17.437-10.77-30.642,3.004-31.196,3.596
			c-0.395,0.421-0.928,0.634-1.463,0.634c-0.488,0-0.978-0.177-1.362-0.536c-0.807-0.752-0.854-2.014-0.104-2.822
			c0.157-0.17,15.962-16.789,36.227-4.273C213.542,126.728,213.833,127.96,213.252,128.899z"/>
		<path fill="#A9FFD2" d="M165.089,265.187c-0.116,0-0.231,0-0.348-0.002c-9.191-0.131-16.735-5.395-21.32-9.607l13.787,74.308
			h15.028l13.349-74.132C179.147,262.013,172.277,265.187,165.089,265.187z"/>
		<path fill="#A9FFD2" d="M198.402,285.726c-0.38-0.736-0.267-1.63,0.284-2.248c0.552-0.619,1.427-0.834,2.2-0.539l19.581,7.402
			l-5.322-24.195l-24.876-13.834l-13.969,77.573h6.437l27.086-22.007L198.402,285.726z"/>
		<path fill="#A9FFD2" d="M114.263,307.489l9.78-18.968l-18.163,6.866c-0.686,0.26-1.46,0.123-2.015-0.357
			c-0.556-0.48-0.804-1.226-0.646-1.942l5.271-23.958l-8.912,4.956c-0.07,0.039-0.143,0.073-0.217,0.104
			c-0.225,0.094-22.646,10.048-23.945,55.694h63.89l-24.526-19.927C114.044,309.361,113.828,308.331,114.263,307.489z"/>
		<circle fill="#A9FFD2" cx="130.231" cy="305.751" r="1.792"/>
		<path fill="#A9FFD2" d="M195.053,144.362c-2.072,0-3.759,1.687-3.759,3.76c0,2.072,1.687,3.758,3.759,3.758
			s3.759-1.686,3.759-3.758C198.812,146.049,197.125,144.362,195.053,144.362z"/>
		<path fill="#A9FFD2" d="M113.156,266.535l-5.237,23.806l19.581-7.402c0.772-0.295,1.647-0.08,2.2,0.539
			c0.551,0.618,0.664,1.512,0.284,2.248l-11.422,22.152l27.086,22.007h7.491l-14.395-77.581L113.156,266.535z M130.231,311.544
			c-3.193,0-5.792-2.598-5.792-5.792s2.599-5.793,5.792-5.793c3.194,0,5.793,2.599,5.793,5.793S133.426,311.544,130.231,311.544z"/>
		<path fill="#A9FFD2" d="M132.198,144.362c-2.072,0-3.759,1.687-3.759,3.76c0,2.072,1.687,3.758,3.759,3.758
			s3.759-1.686,3.759-3.758C135.957,146.049,134.271,144.362,132.198,144.362z"/>
		<path fill="#A9FFD2" d="M250.846,257.339c-3.883-5.724-7.898-11.643-7.716-22.307c0.192-11.242,3.531-17.475,6.759-23.501
			c3.115-5.815,6.058-11.309,6.005-21.38c-0.065-12.432-3.308-18.671-7.062-25.895c-4.58-8.816-9.772-18.808-9.341-41.924
			c0.28-15.014-5.229-28.713-15.93-39.615c-13.882-14.143-35.248-22.255-58.619-22.255s-44.737,8.112-58.619,22.255
			c-10.701,10.902-16.21,24.602-15.93,39.615c0.432,23.116-4.761,33.107-9.341,41.924c-3.754,7.224-6.996,13.463-7.062,25.895
			c-0.053,10.071,2.89,15.564,6.004,21.38c3.229,6.026,6.566,12.259,6.759,23.501c0.184,10.664-3.832,16.584-7.716,22.308
			c-4.022,5.93-7.822,11.53-7.822,22.693c0,7.284,3.295,13.793,5.61,17.476c7.273-20.478,19.373-26.307,20.901-26.971l40.477-22.511
			v-15.495c-19.14-9.24-37.213-25.803-38.051-38.223c-0.231-3.42-0.399-8.131-0.519-13.602c-5.428-2.74-13.538-9.688-11.546-19.932
			c0.7-3.604,2.36-6.234,4.936-7.821c2.136-1.317,4.492-1.626,6.345-1.599c-0.015-22.229,0.262-43.73,0.267-44.108
			c0.015-1.095,0.907-1.974,1.999-1.974c0.01,0,0.019,0,0.027,0c1.104,0.015,1.988,0.922,1.974,2.026
			c-0.001,0.116-0.028,2.229-0.065,5.735c12.18-2.954,66.285-14.425,120.094-0.049c-0.062-3.469-0.105-5.556-0.108-5.671
			c-0.022-1.104,0.854-2.019,1.958-2.042c1.103-0.035,2.019,0.854,2.042,1.958c0.008,0.378,0.452,21.913,0.581,44.161
			c1.94-0.135,4.701,0.038,7.172,1.562c2.575,1.587,4.235,4.218,4.936,7.821c2.075,10.672-6.815,17.769-12.212,20.256
			c-0.097,5.331-0.248,9.925-0.475,13.277c-0.819,12.141-18.107,28.234-36.761,37.582v16.136l40.477,22.511
			c1.55,0.674,13.98,6.657,21.214,27.857c2.295-3.449,6.182-10.45,6.182-18.362C258.669,268.87,254.869,263.269,250.846,257.339z"/>
		<path fill="#A9FFD2" d="M133.518,134.53c-10.05,0-18.227,8.177-18.227,18.227s8.177,18.226,18.227,18.226
			s18.226-8.176,18.226-18.226S143.567,134.53,133.518,134.53z M147.777,152.642c-0.381,0.335-0.852,0.5-1.321,0.5
			c-0.555,0-1.106-0.229-1.502-0.678c-0.938-1.064-2.812-2.927-5.01-4.6c0.003,0.086,0.013,0.17,0.013,0.258
			c0,4.277-3.48,7.758-7.759,7.758c-4.141,0-7.524-3.263-7.738-7.352c-1.22,1.215-2.172,2.416-2.685,3.172
			c-0.619,0.914-1.862,1.154-2.777,0.533c-0.913-0.618-1.154-1.859-0.536-2.773c0.24-0.355,5.715-8.321,12.753-9.027
			c0.322-0.041,0.649-0.07,0.983-0.07c0.333,0,0.659,0.028,0.98,0.069c6.926,0.7,13.964,8.464,14.777,9.389
			C148.686,150.649,148.605,151.911,147.777,152.642z"/>
		<path fill="#A9FFD2" d="M236.318,161.54c-0.479-2.461-1.524-4.203-3.108-5.18c-1.688-1.041-3.718-1.083-5.054-0.957
			c0.029,7.315,0.019,14.572-0.057,21.051C231.561,174.389,237.856,169.454,236.318,161.54z"/>
		<path fill="#A9FFD2" d="M0,0v329.885h71.399c0.298-11.037,1.77-20.105,3.882-27.53c-2.092-2.781-8.065-11.66-8.065-22.321
			c0-12.392,4.522-19.058,8.513-24.938c3.696-5.449,7.188-10.596,7.025-19.993c-0.175-10.276-3.143-15.816-6.284-21.682
			c-3.214-5.999-6.536-12.203-6.479-23.289c0.07-13.398,3.686-20.354,7.512-27.719c4.574-8.802,9.304-17.905,8.891-40.004
			c-0.3-16.112,5.604-30.806,17.075-42.492c14.629-14.905,37.035-23.453,61.474-23.453s46.845,8.548,61.474,23.453
			c11.471,11.687,17.375,26.38,17.075,42.491c-0.413,22.1,4.316,31.203,8.891,40.005c3.826,7.364,7.441,14.32,7.512,27.718
			c0.058,11.087-3.266,17.291-6.479,23.29c-3.142,5.865-6.109,11.405-6.285,21.681c-0.162,9.398,3.33,14.545,7.026,19.993
			c3.99,5.882,8.513,12.548,8.513,24.939c0,12.302-7.95,22.227-8.717,23.153c1.987,7.267,3.36,16.072,3.646,26.698h72.286V0H0z"/>
		<path fill="#A9FFD2" d="M92.015,161.54c-1.425,7.334,4.003,12.162,7.531,14.461c-0.104-6.377-0.153-13.484-0.171-20.646
			c-1.276-0.029-2.891,0.158-4.272,1.019C93.53,157.351,92.491,159.09,92.015,161.54z"/>
		<path fill="#A9FFD2" d="M194.194,134.53c-10.049,0-18.225,8.177-18.225,18.227s8.176,18.226,18.225,18.226
			c10.05,0,18.226-8.176,18.226-18.226S204.244,134.53,194.194,134.53z M208.251,152.237c-0.915,0.617-2.16,0.376-2.776-0.539
			c-0.514-0.756-1.465-1.957-2.684-3.17c-0.214,4.089-3.598,7.352-7.738,7.352c-4.278,0-7.759-3.48-7.759-7.758
			c0-0.088,0.011-0.172,0.013-0.258c-2.197,1.673-4.071,3.535-5.01,4.6c-0.396,0.448-0.947,0.678-1.502,0.678
			c-0.47,0-0.94-0.165-1.321-0.5c-0.828-0.73-0.908-1.992-0.179-2.821c0.813-0.925,7.852-8.688,14.777-9.389
			c0.322-0.041,0.647-0.069,0.98-0.069c0.334,0,0.661,0.029,0.984,0.07c7.037,0.706,12.512,8.672,12.752,9.027
			C209.407,150.376,209.166,151.618,208.251,152.237z"/>
		<path fill="#252525" d="M133.179,140.432c-0.321-0.041-0.647-0.069-0.98-0.069c-0.334,0-0.661,0.029-0.983,0.07
			c-7.038,0.706-12.513,8.672-12.753,9.027c-0.618,0.914-0.377,2.155,0.536,2.773c0.915,0.621,2.158,0.381,2.777-0.533
			c0.513-0.756,1.465-1.957,2.685-3.172c0.214,4.089,3.598,7.352,7.738,7.352c4.278,0,7.759-3.48,7.759-7.758
			c0-0.088-0.01-0.172-0.013-0.258c2.197,1.673,4.071,3.535,5.01,4.6c0.396,0.448,0.947,0.678,1.502,0.678
			c0.47,0,0.94-0.165,1.321-0.5c0.828-0.73,0.908-1.992,0.179-2.821C147.143,148.896,140.104,141.132,133.179,140.432z
			 M132.198,151.88c-2.072,0-3.759-1.686-3.759-3.758c0-2.073,1.687-3.76,3.759-3.76s3.759,1.687,3.759,3.76
			C135.957,150.194,134.271,151.88,132.198,151.88z"/>
		<path fill="#252525" d="M196.037,140.433c-0.323-0.041-0.65-0.07-0.984-0.07c-0.333,0-0.658,0.028-0.98,0.069
			c-6.926,0.7-13.964,8.464-14.777,9.389c-0.729,0.829-0.649,2.091,0.179,2.821c0.381,0.335,0.852,0.5,1.321,0.5
			c0.555,0,1.106-0.229,1.502-0.678c0.938-1.064,2.812-2.927,5.01-4.6c-0.002,0.086-0.013,0.17-0.013,0.258
			c0,4.277,3.48,7.758,7.759,7.758c4.141,0,7.524-3.263,7.738-7.352c1.219,1.213,2.17,2.414,2.684,3.17
			c0.616,0.915,1.861,1.156,2.776,0.539c0.915-0.619,1.156-1.861,0.538-2.777C208.549,149.104,203.074,141.139,196.037,140.433z
			 M195.053,151.88c-2.072,0-3.759-1.686-3.759-3.758c0-2.073,1.687-3.76,3.759-3.76s3.759,1.687,3.759,3.76
			C198.812,150.194,197.125,151.88,195.053,151.88z"/>
		<path fill="#252525" d="M157.685,185.056c0.974,1.535,3.051,3.688,7.048,3.688c3.878,0,5.948-2.024,6.958-3.547
			c1.739,0.15,4.033-0.199,5.961-1.965c0.814-0.746,0.869-2.012,0.123-2.826c-0.745-0.813-2.011-0.869-2.826-0.123
			c-1.577,1.447-3.601,0.805-3.667,0.783c-0.498-0.178-1.058-0.133-1.538,0.097s-0.854,0.657-1.03,1.159
			c-0.087,0.248-0.936,2.422-3.98,2.422c-3.044,0-3.893-2.174-3.971-2.394c-0.308-0.979-1.327-1.562-2.341-1.353
			c-0.081,0.019-2.082,0.416-4.178-0.925c-0.931-0.596-2.167-0.323-2.763,0.606c-0.596,0.931-0.323,2.168,0.606,2.763
			c2.079,1.331,4.143,1.615,5.529,1.615C157.64,185.057,157.662,185.057,157.685,185.056z"/>
		<path fill="#252525" d="M190.006,191.714c-1.03-0.395-2.188,0.123-2.581,1.156c-5.872,15.423-27.906,12.528-28.125,12.496
			c-1.08-0.151-2.105,0.608-2.259,1.701c-0.154,1.094,0.605,2.104,1.698,2.26c0.281,0.039,2.283,0.308,5.193,0.308
			c7.803,0,22.123-1.927,27.23-15.341C191.556,193.262,191.038,192.106,190.006,191.714z"/>
		<path fill="#252525" d="M212.602,126.147c-20.265-12.516-36.069,4.104-36.227,4.273c-0.75,0.809-0.703,2.07,0.104,2.822
			c0.385,0.359,0.874,0.536,1.362,0.536c0.535,0,1.068-0.213,1.463-0.634c0.555-0.592,13.76-14.365,31.196-3.596
			c0.938,0.581,2.172,0.289,2.752-0.65C213.833,127.96,213.542,126.728,212.602,126.147z"/>
		<path fill="#252525" d="M114.989,126.147c-0.94,0.58-1.231,1.812-0.65,2.752c0.58,0.939,1.812,1.232,2.752,0.65
			c17.43-10.764,30.637,2.998,31.196,3.596c0.394,0.422,0.928,0.637,1.463,0.637c0.487,0,0.976-0.178,1.361-0.535
			c0.809-0.752,0.855-2.017,0.104-2.826C151.059,130.252,135.255,113.63,114.989,126.147z"/>
		<path fill="#252525" d="M262.669,280.033c0-12.392-4.522-19.058-8.513-24.939c-3.696-5.448-7.188-10.595-7.026-19.993
			c0.176-10.275,3.144-15.815,6.285-21.681c3.213-5.999,6.536-12.203,6.479-23.29c-0.07-13.397-3.686-20.354-7.512-27.718
			c-4.574-8.802-9.304-17.905-8.891-40.005c0.3-16.111-5.604-30.805-17.075-42.491c-14.629-14.905-37.035-23.453-61.474-23.453
			s-46.845,8.548-61.474,23.453c-11.471,11.687-17.375,26.38-17.075,42.492c0.413,22.099-4.316,31.202-8.891,40.004
			c-3.826,7.364-7.441,14.32-7.512,27.719c-0.058,11.086,3.265,17.29,6.479,23.289c3.142,5.865,6.109,11.405,6.284,21.682
			c0.162,9.397-3.329,14.544-7.025,19.993c-3.99,5.881-8.513,12.547-8.513,24.938c0,10.661,5.974,19.54,8.065,22.321
			c-2.112,7.425-3.584,16.493-3.882,27.53h4.017c1.299-45.646,23.721-55.601,23.945-55.694c0.074-0.031,0.146-0.065,0.217-0.104
			l8.912-4.956l-5.271,23.958c-0.158,0.717,0.09,1.462,0.646,1.942c0.555,0.48,1.329,0.617,2.015,0.357l18.163-6.866l-9.78,18.968
			c-0.435,0.842-0.219,1.872,0.517,2.469l24.526,19.927h6.343l-27.086-22.007l11.422-22.152c0.38-0.736,0.267-1.63-0.284-2.248
			c-0.553-0.619-1.428-0.834-2.2-0.539l-19.581,7.402l5.237-23.806l25.589-14.231l14.395,77.581h4.068l-13.787-74.308
			c4.585,4.213,12.129,9.477,21.32,9.607c0.116,0.002,0.231,0.002,0.348,0.002c7.188,0,14.059-3.174,20.496-9.434l-13.349,74.132
			h4.064l13.969-77.573l24.876,13.834l5.322,24.195l-19.581-7.402c-0.773-0.295-1.648-0.08-2.2,0.539
			c-0.551,0.618-0.664,1.512-0.284,2.248l11.421,22.152l-27.086,22.007h6.343l24.526-19.927c0.735-0.597,0.951-1.627,0.517-2.469
			l-9.779-18.969l18.164,6.867c0.685,0.26,1.458,0.123,2.016-0.357c0.555-0.48,0.803-1.226,0.645-1.942l-5.356-24.347l9.611,5.345
			c0.064,0.036,0.14,0.071,0.208,0.101c0.233,0.098,22.655,10.052,23.954,55.698h4.014c-0.286-10.626-1.659-19.432-3.646-26.698
			C254.719,302.26,262.669,292.335,262.669,280.033z M186.797,248.499c-6.932,8.519-14.365,12.766-21.978,12.686
			c-11.587-0.151-20.643-10.294-22.615-12.682v-14.162c7.554,3.211,15.1,5.178,21.652,5.178c6.926,0,14.959-2.187,22.94-5.729
			V248.499z M163.856,235.519c-10.27,0-24.774-5.668-37.855-14.793c-12.982-9.056-21.357-19.281-21.857-26.686
			c-0.541-8.016-0.733-23.221-0.77-38.689h8.073c1.29,11.037,10.692,19.632,22.07,19.632c11.725,0,21.352-9.128,22.164-20.65
			c2.463-1.194,5.188-1.823,7.949-1.823c2.943,0,5.832,0.715,8.419,2.064c0.929,11.408,10.502,20.409,22.145,20.409
			c11.377,0,20.779-8.595,22.069-19.632h7.894c0.062,15.47-0.05,30.676-0.59,38.689c-0.5,7.404-8.875,17.63-21.858,26.686
			C188.629,229.851,174.125,235.519,163.856,235.519z M194.194,130.53c-11.39,0-20.8,8.614-22.073,19.668
			c-2.679-1.106-5.562-1.689-8.49-1.689c-2.767,0-5.504,0.524-8.062,1.518c-1.351-10.971-10.722-19.496-22.052-19.496
			c-11.783,0-21.449,9.219-22.178,20.82h-7.972c-0.008-13.004,0.084-25.771,0.162-34.186c9.486-2.387,65.165-15.094,120.206-0.01
			c0.141,8.411,0.325,21.186,0.401,34.195h-7.767C215.643,139.749,205.977,130.53,194.194,130.53z M212.42,152.757
			c0,10.05-8.176,18.226-18.226,18.226c-10.049,0-18.225-8.176-18.225-18.226s8.176-18.227,18.225-18.227
			C204.244,134.53,212.42,142.707,212.42,152.757z M151.743,152.757c0,10.05-8.176,18.226-18.226,18.226
			s-18.227-8.176-18.227-18.226s8.177-18.227,18.227-18.227S151.743,142.707,151.743,152.757z M231.273,270.538l-40.477-22.511
			v-16.136c18.653-9.348,35.941-25.441,36.761-37.582c0.227-3.353,0.378-7.946,0.475-13.277c5.396-2.487,14.287-9.584,12.212-20.256
			c-0.7-3.604-2.36-6.234-4.936-7.821c-2.471-1.523-5.231-1.696-7.172-1.562c-0.129-22.248-0.573-43.783-0.581-44.161
			c-0.023-1.104-0.939-1.993-2.042-1.958c-1.104,0.023-1.98,0.938-1.958,2.042c0.003,0.115,0.046,2.202,0.108,5.671
			c-53.809-14.376-107.914-2.905-120.094,0.049c0.037-3.507,0.064-5.619,0.065-5.735c0.015-1.104-0.869-2.012-1.974-2.026
			c-0.009,0-0.018,0-0.027,0c-1.092,0-1.984,0.879-1.999,1.974c-0.005,0.378-0.281,21.88-0.267,44.108
			c-1.853-0.027-4.209,0.281-6.345,1.599c-2.575,1.587-4.235,4.218-4.936,7.821c-1.992,10.243,6.118,17.191,11.546,19.932
			c0.119,5.471,0.287,10.182,0.519,13.602c0.838,12.42,18.911,28.982,38.051,38.223v15.495l-40.477,22.511
			c-1.528,0.664-13.628,6.493-20.901,26.971c-2.315-3.683-5.61-10.191-5.61-17.476c0-11.163,3.8-16.764,7.822-22.693
			c3.884-5.724,7.899-11.644,7.716-22.308c-0.192-11.242-3.53-17.475-6.759-23.501c-3.114-5.815-6.057-11.309-6.004-21.38
			c0.065-12.432,3.308-18.671,7.062-25.895c4.58-8.816,9.772-18.808,9.341-41.924c-0.28-15.014,5.229-28.713,15.93-39.615
			c13.882-14.143,35.248-22.255,58.619-22.255s44.737,8.112,58.619,22.255c10.701,10.902,16.21,24.602,15.93,39.615
			c-0.432,23.116,4.761,33.107,9.341,41.924c3.754,7.224,6.996,13.463,7.062,25.895c0.053,10.071-2.89,15.564-6.005,21.38
			c-3.228,6.026-6.566,12.259-6.759,23.501c-0.183,10.664,3.833,16.583,7.716,22.307c4.023,5.93,7.823,11.531,7.823,22.694
			c0,7.912-3.887,14.913-6.182,18.362C245.254,277.195,232.823,271.212,231.273,270.538z M228.156,155.403
			c1.336-0.126,3.365-0.084,5.054,0.957c1.584,0.977,2.63,2.719,3.108,5.18c1.538,7.914-4.758,12.849-8.219,14.914
			C228.175,169.976,228.186,162.719,228.156,155.403z M99.546,176.001c-3.528-2.299-8.956-7.127-7.531-14.461
			c0.477-2.45,1.516-4.189,3.088-5.167c1.382-0.86,2.996-1.048,4.272-1.019C99.393,162.517,99.442,169.624,99.546,176.001z"/>
		<path fill="#252525" d="M130.231,299.959c-3.193,0-5.792,2.599-5.792,5.793s2.599,5.792,5.792,5.792
			c3.194,0,5.793-2.598,5.793-5.792S133.426,299.959,130.231,299.959z M130.231,307.544c-0.988,0-1.792-0.804-1.792-1.792
			c0-0.989,0.804-1.793,1.792-1.793s1.793,0.804,1.793,1.793C132.024,306.74,131.22,307.544,130.231,307.544z"/>
	</g>
</g>
</svg>
