<?xml version="1.0" encoding="utf-8"?>
<!-- Generator: Adobe Illustrator 16.0.0, SVG Export Plug-In . SVG Version: 6.00 Build 0)  -->
<!DOCTYPE svg PUBLIC "-//W3C//DTD SVG 1.1//EN" "http://www.w3.org/Graphics/SVG/1.1/DTD/svg11.dtd">
<svg version="1.1" xmlns="http://www.w3.org/2000/svg" xmlns:xlink="http://www.w3.org/1999/xlink" x="0px" y="0px"
	 width="329.885px" height="329.885px" viewBox="0 0 329.885 329.885" enable-background="new 0 0 329.885 329.885"
	 xml:space="preserve">
<g id="Layer_1">
</g>
<g id="Layer_2">
	<rect fill="#A9FFD2" width="329.885" height="329.885"/>
	<g>
		<defs>
			<rect id="SVGID_1_" width="329.885" height="329.885"/>
		</defs>
		<clipPath id="SVGID_2_">
			<use xlink:href="#SVGID_1_"  overflow="visible"/>
		</clipPath>
		<g clip-path="url(#SVGID_2_)">
			<path fill="#252525" d="M162.582,117.777c0.196-1.087-0.525-2.127-1.612-2.323c-1.082-0.202-2.127,0.525-2.323,1.612
				l-8.158,45.156c-0.012,0.061-0.02,0.121-0.024,0.182c-0.283,3.243,0.472,5.868,2.242,7.8c2.301,2.511,6.224,3.73,11.991,3.73
				h1.173c5.769,0,9.69-1.221,11.991-3.73c1.771-1.933,2.526-4.557,2.243-7.8c-0.005-0.061-0.013-0.121-0.024-0.182l-8.164-45.185
				c-0.195-1.087-1.229-1.815-2.323-1.612c-1.087,0.196-1.809,1.236-1.612,2.323l8.146,45.091c0.166,2.064-0.231,3.59-1.214,4.661
				c-1.48,1.615-4.522,2.434-9.043,2.434h-1.173c-4.521,0-7.562-0.818-9.042-2.433c-0.982-1.071-1.38-2.598-1.214-4.662
				L162.582,117.777z"/>
			<path fill="#252525" d="M126.246,127.475c0.424,3.527,3.43,6.272,7.069,6.272c3.856,0,7-3.082,7.114-6.911
				c1.785,1.404,3.294,2.913,4.073,3.796c0.395,0.448,0.946,0.677,1.501,0.677c0.47,0,0.941-0.164,1.321-0.499
				c0.828-0.73,0.908-1.992,0.179-2.821s-7.043-7.793-13.292-8.429c-0.294-0.037-0.593-0.062-0.896-0.062
				c-0.306,0-0.604,0.025-0.899,0.063c-6.365,0.642-11.292,7.81-11.508,8.13c-0.618,0.915-0.377,2.158,0.538,2.776
				c0.915,0.621,2.159,0.377,2.776-0.538C124.624,129.334,125.337,128.424,126.246,127.475z M136.44,126.622
				c0,1.723-1.402,3.125-3.125,3.125s-3.125-1.402-3.125-3.125s1.402-3.125,3.125-3.125S136.44,124.899,136.44,126.622z"/>
			<path fill="#252525" d="M198.152,119.561c-0.295-0.038-0.594-0.063-0.899-0.063c-0.304,0-0.603,0.025-0.896,0.062
				c-6.249,0.636-12.562,7.6-13.292,8.429c-0.73,0.829-0.649,2.093,0.18,2.822c0.38,0.335,0.852,0.499,1.32,0.499
				c0.555,0,1.107-0.229,1.502-0.679c0.777-0.884,2.285-2.396,4.072-3.801c0.111,3.832,3.256,6.917,7.114,6.917
				c3.637,0,6.641-2.74,7.067-6.264c0.91,0.947,1.623,1.854,2.026,2.447c0.618,0.914,1.862,1.156,2.775,0.536
				c0.915-0.618,1.156-1.861,0.538-2.776C209.444,127.37,204.518,120.202,198.152,119.561z M197.253,129.747
				c-1.723,0-3.125-1.402-3.125-3.125s1.402-3.125,3.125-3.125s3.125,1.402,3.125,3.125S198.976,129.747,197.253,129.747z"/>
			<path fill="#252525" d="M171.146,104.698c-0.363,2.851,1.653,5.457,4.504,5.821c0,0,37.445,8.802,37.914,6.324
				c0.67-3.546-35.426-16.586-36.598-16.649C174.097,100.037,171.509,101.847,171.146,104.698z"/>
			<path fill="#252525" d="M158.886,110.498c-0.094-2.873-2.5-4.918-5.371-5.032c-1.173-0.046-39.166,8.921-38.832,12.514
				c0.232,2.511,39.17-2.11,39.17-2.11C156.725,115.775,158.979,113.37,158.886,110.498z"/>
			<path fill="#252525" d="M195.643,178.185c-1.104,0-2,0.896-2,2c0,5.882-5.146,6.238-6.167,6.25h-35.583c-1.104,0-2,0.896-2,2
				s0.896,2,2,2h35.583c3.517,0,10.167-2.143,10.167-10.25C197.643,179.08,196.747,178.185,195.643,178.185z"/>
			<path fill="#252525" d="M164.826,256.935c-3.446,0-6.25,2.804-6.25,6.25s2.804,6.25,6.25,6.25s6.25-2.804,6.25-6.25
				S168.272,256.935,164.826,256.935z M164.826,265.435c-1.24,0-2.25-1.01-2.25-2.25s1.01-2.25,2.25-2.25s2.25,1.01,2.25,2.25
				S166.066,265.435,164.826,265.435z"/>
			<path fill="#252525" d="M164.826,276.935c-3.446,0-6.25,2.804-6.25,6.25s2.804,6.25,6.25,6.25s6.25-2.804,6.25-6.25
				S168.272,276.935,164.826,276.935z M164.826,285.435c-1.24,0-2.25-1.01-2.25-2.25s1.01-2.25,2.25-2.25s2.25,1.01,2.25,2.25
				S166.066,285.435,164.826,285.435z"/>
			<path fill="#252525" d="M164.826,296.935c-3.446,0-6.25,2.804-6.25,6.25s2.804,6.25,6.25,6.25s6.25-2.804,6.25-6.25
				S168.272,296.935,164.826,296.935z M164.826,305.435c-1.24,0-2.25-1.01-2.25-2.25s1.01-2.25,2.25-2.25s2.25,1.01,2.25,2.25
				S166.066,305.435,164.826,305.435z"/>
			<path fill="#252525" d="M164.826,315.935c-3.446,0-6.25,2.804-6.25,6.25s2.804,6.25,6.25,6.25s6.25-2.804,6.25-6.25
				S168.272,315.935,164.826,315.935z M164.826,324.435c-1.24,0-2.25-1.01-2.25-2.25s1.01-2.25,2.25-2.25s2.25,1.01,2.25,2.25
				S166.066,324.435,164.826,324.435z"/>
			<path fill="#252525" d="M279.357,263.881c-0.058-0.027-0.116-0.052-0.176-0.074l-63.172-23.172l-9.325-12.369v-23.16
				c8.121-7.191,15.758-15.387,18.389-21.646c2.562-6.095,3.757-17.495,4.243-29.487c7.443-1.806,11.93-14.979,11.93-22.394
				c0-7.677-4.886-13.174-12.047-13.804c-0.035-0.937-0.069-1.793-0.103-2.562c3.364-34.418,2.498-48.896-3.303-55.294
				c-1.557-1.718-3.478-2.831-5.816-3.364l3.568-5.245c0.531-0.78,0.444-1.826-0.209-2.508
				c-12.268-12.815-29.275-21.308-47.89-23.911c-17.379-2.431-34.962,0.506-48.245,8.055c-11.571,6.577-14.708,19.023-15.485,23.549
				c-2.93,0.344-6.236,1.302-8.722,4.292c-5.389,6.484-5.782,20.785-1.502,54.648c0.004,0.033,0.016,0.063,0.021,0.097
				c-0.029,0.69-0.06,1.449-0.09,2.268c-7.042,0.721-11.83,6.181-11.83,13.779c0,7.341,4.399,20.326,11.711,22.334
				c0.485,12.015,1.681,23.442,4.246,29.548c2.643,6.288,10.338,14.53,18.5,21.744v23.366l-9.093,12.061l-64.245,23.173
				c-0.062,0.022-0.125,0.048-0.186,0.077c-0.771,0.369-18.886,9.771-18.886,73.054c0,1.104,0.896,2,2,2h262.601
				c1.104,0,2-0.896,2-2C298.243,273.652,280.128,264.25,279.357,263.881z M204.558,232.089l7.986,10.594
				c-5.843,17.321-21.164,26.048-26,28.431l-13.646-21.06C183.625,248.02,194.229,242.001,204.558,232.089z M237.246,131.578
				c0,6.111-3.565,15.737-7.785,18.079c0.277-10.213,0.104-20.442-0.123-27.838C234.188,122.455,237.246,126.138,237.246,131.578z
				 M106.071,63.344c1.566-1.885,3.815-2.78,7.521-2.996c0.989-0.058,1.787-0.831,1.876-1.817
				c0.014-0.151,1.502-15.168,13.711-22.106c23.564-13.394,64.396-11.719,90.139,13.99l-4.521,6.646
				c-0.417,0.612-0.461,1.405-0.114,2.061c0.347,0.654,1.026,1.064,1.768,1.064c2.856,0,4.884,0.77,6.382,2.421
				c4.455,4.913,5.325,17.9,2.902,45.566c-7.606-4.465-9.106-12.981-10.674-21.97c-1.844-10.57-3.933-22.551-17.337-27.236
				c-10.193-3.563-18.142-1.323-24.529,0.478c-2.996,0.845-5.583,1.574-7.881,1.574c-2.299,0-4.886-0.729-7.882-1.574
				c-6.386-1.8-14.332-4.041-24.529-0.478c-13.403,4.686-15.492,16.666-17.336,27.236c-1.583,9.082-3.089,17.689-10.905,22.114
				C101.551,81.452,101.997,68.245,106.071,63.344z M93.595,131.578c0-5.359,2.967-9.014,7.691-9.729
				c-0.226,7.359-0.398,17.52-0.127,27.674C97.037,146.975,93.595,137.583,93.595,131.578z M109.239,181.909
				c-5.943-14.141-3.963-61.457-3.572-69.591c10.304-5.152,12.1-15.454,13.839-25.429c1.814-10.407,3.529-20.237,14.716-24.148
				c9.001-3.146,15.974-1.183,22.124,0.552c3.145,0.887,6.114,1.725,8.966,1.725s5.822-0.838,8.968-1.725
				c6.149-1.733,13.117-3.698,22.123-0.552c11.188,3.911,12.901,13.741,14.716,24.148c1.739,9.975,3.536,20.276,13.84,25.429
				c0.391,8.133,2.371,55.447-3.572,69.591c-5.028,11.965-32.524,33.673-38.89,35.703c-3.493,1.115-9.766,1.721-17.165,1.646
				c-0.007,0-0.013,0-0.019,0h-0.001c-0.002,0-0.004,0-0.006,0c0,0,0,0-0.001,0c-0.002,0-0.006,0-0.006,0c-0.002,0-0.004,0-0.006,0
				c-7.413,0.075-13.672-0.531-17.165-1.646c-3.267-1.042-12.098-7.271-20.603-14.701c-0.111-0.122-0.232-0.233-0.371-0.325
				C119.223,195.614,111.649,187.645,109.239,181.909z M146.912,221.423c5.307,1.693,13.802,1.877,18.399,1.836
				c0.35,0.003,0.722,0.005,1.112,0.005c4.761,0,12.384-0.275,17.288-1.841c3.262-1.04,10.996-6.257,18.973-12.89v19.803
				c-13.264,13.054-26.855,19.259-40.457,18.432c-18.184-1.115-31.039-14.687-33.964-18.056c-0.026-0.241-0.1-0.476-0.212-0.693
				v-19.393C135.989,215.215,143.666,220.388,146.912,221.423z M126.175,232.398c4.071,4.472,15.168,15.057,30.962,17.785
				l-13.546,20.905c-4.729-2.433-19.372-11.159-25.17-28.405L126.175,232.398z M35.648,334.935
				c0.353-56.625,15.588-66.828,16.561-67.418l62.744-22.632c7.746,21.663,27.715,30.249,28.586,30.614
				c0.251,0.105,0.513,0.155,0.771,0.155c0.661,0,1.301-0.329,1.68-0.912l15.563-24.018c0.131,0.009,0.259,0.025,0.39,0.033
				c0.907,0.056,1.812,0.084,2.719,0.084c1.287,0,2.572-0.076,3.856-0.19l15.61,24.091c0.378,0.583,1.018,0.912,1.68,0.912
				c0.25,0,0.503-0.047,0.746-0.145c0.905-0.365,21.653-8.944,29.452-30.615l61.668,22.62c0.96,0.581,16.211,10.923,16.562,67.42
				H35.648z"/>
			<path fill="#252525" d="M146.328,98.254c0.107,0,0.217-0.018,0.324-0.054c18.925-6.5,36.998-0.074,37.178-0.007
				c0.517,0.187,1.092-0.078,1.282-0.597c0.188-0.52-0.078-1.093-0.597-1.282c-0.763-0.278-18.897-6.739-38.512-0.007
				c-0.522,0.18-0.801,0.749-0.622,1.271C145.524,97.993,145.913,98.254,146.328,98.254z"/>
			<path fill="#252525" d="M146.238,90.227c4.524,1.554,9.015,0.663,12.975-0.122c2.177-0.432,4.231-0.839,6.15-0.849
				c1.929,0.01,3.983,0.417,6.16,0.849c2.368,0.47,4.926,0.977,7.566,0.977c1.775,0,3.59-0.229,5.408-0.854
				c0.521-0.179,0.8-0.748,0.621-1.271c-0.18-0.521-0.744-0.8-1.271-0.62c-4.011,1.377-8.039,0.579-11.936-0.193
				c-2.272-0.45-4.419-0.876-6.549-0.887c-2.12,0.011-4.267,0.437-6.539,0.887c-3.896,0.772-7.923,1.571-11.936,0.193
				c-0.528-0.18-1.092,0.099-1.271,0.62C145.438,89.479,145.717,90.048,146.238,90.227z"/>
			<path fill="#252525" d="M157.368,207.31c-0.553,0-1,0.447-1,1v2.125c0,0.553,0.447,1,1,1s1-0.447,1-1v-2.125
				C158.368,207.757,157.921,207.31,157.368,207.31z"/>
			<path fill="#252525" d="M173.368,207.31c-0.553,0-1,0.447-1,1v2.125c0,0.553,0.447,1,1,1s1-0.447,1-1v-2.125
				C174.368,207.757,173.921,207.31,173.368,207.31z"/>
			<path fill="#252525" d="M165.368,201.247c-0.553,0-1,0.447-1,1v2.125c0,0.553,0.447,1,1,1s1-0.447,1-1v-2.125
				C166.368,201.694,165.921,201.247,165.368,201.247z"/>
			<path fill="#252525" d="M148.334,202.278c-0.553,0-1,0.447-1,1v2.125c0,0.553,0.447,1,1,1s1-0.447,1-1v-2.125
				C149.334,202.726,148.887,202.278,148.334,202.278z"/>
			<path fill="#252525" d="M182.401,202.341c-0.553,0-1,0.447-1,1v2.125c0,0.553,0.447,1,1,1s1-0.447,1-1v-2.125
				C183.401,202.788,182.954,202.341,182.401,202.341z"/>
			<path fill="#252525" d="M164.629,179.2v2.125c0,0.553,0.447,1,1,1s1-0.447,1-1V179.2c0-0.553-0.447-1-1-1
				S164.629,178.647,164.629,179.2z"/>
			<path fill="#252525" d="M173.296,177.106v2.125c0,0.553,0.447,1,1,1s1-0.447,1-1v-2.125c0-0.553-0.447-1-1-1
				S173.296,176.554,173.296,177.106z"/>
			<path fill="#252525" d="M155.962,177.106v2.125c0,0.553,0.447,1,1,1s1-0.447,1-1v-2.125c0-0.553-0.447-1-1-1
				S155.962,176.554,155.962,177.106z"/>
			<path fill="#252525" d="M148.855,177.844c-0.553,0-1,0.447-1,1v2.125c0,0.553,0.447,1,1,1s1-0.447,1-1v-2.125
				C149.855,178.291,149.408,177.844,148.855,177.844z"/>
			<path fill="#252525" d="M183.401,180.969v-2.125c0-0.553-0.447-1-1-1s-1,0.447-1,1v2.125c0,0.553,0.447,1,1,1
				S183.401,181.521,183.401,180.969z"/>
		</g>
	</g>
</g>
</svg>
