<?xml version="1.0" encoding="utf-8"?>
<!-- Generator: Adobe Illustrator 17.1.0, SVG Export Plug-In . SVG Version: 6.00 Build 0)  -->
<!DOCTYPE svg PUBLIC "-//W3C//DTD SVG 1.1//EN" "http://www.w3.org/Graphics/SVG/1.1/DTD/svg11.dtd">
<svg version="1.1" id="Layer_1" xmlns="http://www.w3.org/2000/svg" xmlns:xlink="http://www.w3.org/1999/xlink" x="0px" y="0px"
	 viewBox="1.5 27.8 612 765.5" enable-background="new 1.5 27.8 612 765.5" xml:space="preserve">
<g>
	<path fill="#222222" d="M188.7,448.4l-5.7,8c-4.2,5.7-39.7,55.8-39.7,78.6c0,25.1,20.4,45.4,45.4,45.4s45.4-20.4,45.4-45.4
		c0-22.7-35.5-72.8-39.7-78.6L188.7,448.4z M188.7,566.2c-17.1,0-31.2-14.1-31.2-31.2c0-11.8,17.5-41.6,31.2-62
		c13.7,20.4,31.2,50.2,31.2,62C219.9,552.4,206.3,566.2,188.7,566.2z"/>
	<path fill="#222222" d="M188.7,661.3l-5.7,8c-4.2,5.7-39.7,55.8-39.7,78.6c0,25.1,20.4,45.4,45.4,45.4s45.4-20.4,45.4-45.4
		c0-22.7-35.5-72.8-39.7-78.6L188.7,661.3z M188.7,779.1c-17.1,0-31.2-14.1-31.2-31.2c0-11.8,17.5-41.6,31.2-62
		c13.7,20.4,31.2,50.2,31.2,62C219.9,765.3,206.3,779.1,188.7,779.1z"/>
	<path fill="#222222" d="M604.1,232.2L429.5,57.6c-19.4-19.4-44.9-29.8-71.9-29.8c-27.4,0-53,10.4-71.9,29.8L80,263.5l35.5,35.5
		l-45.8,45.8c-7.5-6.1-16.6-9.4-26.5-9.4c-11.3,0-21.8,4.2-29.3,12.3c-7.5,8-12.3,18.5-12.3,29.3c0,11.3,4.2,21.8,12.3,29.3
		c8.5,8.5,19.4,12.7,31.2,12.3c-0.5,11.3,3.8,22.7,12.3,31.2c8,8,18.5,12.3,29.3,12.3c11.3,0,21.8-4.2,29.3-12.3
		c15.1-15.1,16.1-39.7,2.8-56.3l45.8-45.8l35.5,35.5L334,249.4L474,389.5c5.7,5.7,13.7,9,21.8,9c8,0,16.1-3.3,21.8-9
		c10.4-10.4,11.8-26.5,4.2-38.3c6.1-0.9,11.3-4.2,16.1-8.5c6.6-6.6,9.4-15.7,9-24.6c9,0.9,18-2.4,24.6-9s9.4-15.7,9-24.6
		c9,0.9,18-2.4,24.6-9C616.4,263.9,616.4,244,604.1,232.2z M97.9,394l6.6,5.7c0.5,0.5,0.9,0.9,1.4,0.9c10.8,10.8,10.8,28.4,0,38.8
		c-5.2,5.2-12.3,8-19.4,8c-7.5,0-14.1-2.8-19.4-8c-7.1-7.1-9.9-18-6.6-27.9l4.2-12.7L52.1,403c-9.4,2.8-20.8,0.5-27.9-6.6
		c-5.2-5.2-8-12.3-8-19.4c0-7.1,2.8-14.1,8-19.4c4.2-5.7,11.3-8.5,18.5-8.5c7.5,0,14.1,2.8,19.4,8c0.5,0.5,0.9,0.9,0.9,1.4l5.7,6.6
		l56.3-56.3l28.9,28.9L97.9,394z M594.1,265.8c-6.1,6.1-17.1,6.1-23.7,0L552,247.3l-9.9,9.9l18.5,18.5c6.6,6.6,6.6,17.1,0,23.7
		c-6.1,6.1-17.1,6.1-23.2,0l-18.5-18.5l-9.9,9.9l18.5,18.5l0,0c6.6,6.6,6.6,17.1,0,23.2c-6.1,6.1-17.1,6.1-23.2,0l0,0L485.8,314
		l-9.9,9.9l18.5,18.5l0,0l0,0l3.3,3.3l9.9,9.9c6.6,6.6,6.6,17.1,0,23.7c-6.1,6.1-17.1,6.1-23.7,0l-150.4-150L199.6,363.3l-25.6-25.6
		l0,0l-48.8-49.2L99.7,263L295.7,67.6C312.2,51.1,334,42,357.7,42c23.7,0,45.4,9,62,25.6l174.6,174.6
		C600.8,248.7,600.8,259.2,594.1,265.8z"/>
	
		<rect x="200.5" y="289.9" transform="matrix(0.7071 0.7071 -0.7071 0.7071 280.842 -55.6713)" fill="#222222" width="14.1" height="42.5"/>
	
		<rect x="207.3" y="229.7" transform="matrix(0.7071 0.7071 -0.7071 0.7071 240.2447 -78.115)" fill="#222222" width="14.1" height="42.5"/>
	
		<rect x="157.2" y="226.3" transform="matrix(0.7071 0.7071 -0.7071 0.7071 223.1611 -43.6247)" fill="#222222" width="14.1" height="42.5"/>
	
		<rect x="261" y="229.7" transform="matrix(0.7071 0.7071 -0.7071 0.7071 255.9499 -116.0201)" fill="#222222" width="14.1" height="42.5"/>
	
		<rect x="267.4" y="169.8" transform="matrix(0.7071 0.7071 -0.7071 0.7071 215.4883 -138.105)" fill="#222222" width="14.1" height="42.5"/>
	
		<rect x="217.3" y="166.3" transform="matrix(0.7071 0.7071 -0.7071 0.7071 198.3663 -103.6731)" fill="#222222" width="14.1" height="42.5"/>
</g>
</svg>
