<?xml version="1.0" encoding="utf-8"?>
<!-- Generator: Adobe Illustrator 18.0.0, SVG Export Plug-In . SVG Version: 6.00 Build 0)  -->
<!DOCTYPE svg PUBLIC "-//W3C//DTD SVG 1.1//EN" "http://www.w3.org/Graphics/SVG/1.1/DTD/svg11.dtd">
<svg version="1.1" id="Layer_1" xmlns="http://www.w3.org/2000/svg" xmlns:xlink="http://www.w3.org/1999/xlink" x="0px" y="0px"
	 viewBox="0 0 248.9 125.4" enable-background="new 0 0 248.9 125.4" xml:space="preserve">
<g>
	<g>
		<path fill="#383838" d="M36.2,50.8c-0.3,0-0.6-0.3-0.6-0.6v-3.4c0-0.3,0.3-0.6,0.6-0.6h8.9c0.3,0,0.6,0.3,0.6,0.6v8.8
			c0,0.4-0.1,0.8-0.4,1c-2.3,2.1-5.1,3.3-8.8,3.3c-9.6,0-12.5-7.6-12.5-13c0-5.3,2.9-12.9,12.5-12.9c3.8,0,6.6,1.4,8.9,3.7
			c0.3,0.3,0.3,0.6,0,0.9L43,41.1c-0.2,0.2-0.6,0.2-0.8,0c-1.5-1.3-3.8-2.3-5.8-2.3c-6.4,0-7.3,6-7.3,8.1c0,2.1,0.9,8.4,7.3,8.4
			c1.4,0,3.2-0.5,4.1-1.3v-3.2H36.2z"/>
		<path fill="#383838" d="M62.8,59c0,0.3-0.3,0.6-0.6,0.6h-3.9c-0.3,0-0.6-0.3-0.6-0.6V35c0-0.3,0.3-0.6,0.6-0.6h3.9
			c0.3,0,0.6,0.3,0.6,0.6v9.8h10.5V35c0-0.3,0.3-0.6,0.6-0.6h3.9c0.3,0,0.6,0.3,0.6,0.6v24c0,0.3-0.3,0.6-0.6,0.6h-3.9
			c-0.3,0-0.6-0.3-0.6-0.6v-9.5H62.8V59z"/>
		<path fill="#383838" d="M115.2,47c0,5.4-2.9,13-12.5,13c-9.6,0-12.5-7.6-12.5-13c0-5.3,2.9-13,12.5-13
			C112.3,34,115.2,41.7,115.2,47z M110,47c0-2.1-0.9-8.2-7.3-8.2c-6.4,0-7.3,6.2-7.3,8.2c0,2.1,0.9,8.3,7.3,8.3
			C109.1,55.3,110,49,110,47z"/>
		<path fill="#383838" d="M135.5,44.3c3.9,1.3,8.9,2.9,8.6,8.3c-0.3,4.1-3.9,7.2-9.2,7.2c-3.6,0-6.3-0.8-9.2-2.3
			c-0.3-0.1-0.4-0.5-0.3-0.8l1.7-3.1c0.1-0.3,0.5-0.4,0.8-0.3c2.2,1,4.5,1.8,6.7,1.8c2.2,0,3.8-0.9,4-2.4c0.3-1.8-1.6-2.8-4-3.5
			c-3.8-1.2-8.9-2.4-8.9-7.9c0-4.6,3.4-7.3,8.2-7.3c1.4,0,4.6,0.3,8.6,2.1c0.3,0.1,0.4,0.5,0.3,0.8l-1.3,3.1
			c-0.1,0.3-0.5,0.5-0.8,0.4c-1.5-0.6-4.2-1.6-6.4-1.6c-1.8,0-3.3,0.6-3.4,2.3C130.9,42.8,133,43.5,135.5,44.3z"/>
		<path fill="#383838" d="M160.1,39.1h-6.2c-0.3,0-0.6-0.3-0.6-0.6V35c0-0.3,0.3-0.6,0.6-0.6h17.6c0.3,0,0.6,0.3,0.6,0.6v3.5
			c0,0.3-0.3,0.6-0.6,0.6h-6.3V59c0,0.3-0.3,0.6-0.6,0.6h-3.9c-0.3,0-0.6-0.3-0.6-0.6V39.1z"/>
		<path fill="#383838" d="M188.5,54.9h8.8c0.3,0,0.6,0.3,0.6,0.6V59c0,0.3-0.3,0.6-0.6,0.6H184c-0.3,0-0.6-0.3-0.6-0.6V35
			c0-0.3,0.3-0.6,0.6-0.6h3.9c0.3,0,0.6,0.3,0.6,0.6V54.9z"/>
		<path fill="#383838" d="M216.7,59c0,0.3-0.3,0.6-0.6,0.6h-3.9c-0.3,0-0.6-0.3-0.6-0.6V48.4l-8.2-13.5c-0.1-0.3,0-0.5,0.3-0.5h4.4
			c0.4,0,0.7,0.2,0.9,0.5l5.1,8.8l5.1-8.8c0.2-0.3,0.5-0.5,0.9-0.5h4.4c0.3,0,0.4,0.3,0.3,0.5l-8.2,13.4V59z"/>
		<path fill="#383838" d="M59.4,84.5V94c0,0.3-0.3,0.6-0.6,0.6H55c-0.3,0-0.6-0.3-0.6-0.6V70c0-0.3,0.3-0.6,0.6-0.6h15.9
			c0.3,0,0.6,0.3,0.6,0.6v3.5c0,0.3-0.3,0.6-0.6,0.6H59.4v5.8h8.8c0.3,0,0.6,0.3,0.6,0.6v3.5c0,0.3-0.3,0.6-0.6,0.6H59.4z"/>
		<path fill="#383838" d="M88.4,84.5v5.4h11.4c0.3,0,0.6,0.3,0.6,0.6V94c0,0.3-0.3,0.6-0.6,0.6H84c-0.3,0-0.6-0.3-0.6-0.6V70
			c0-0.3,0.3-0.6,0.6-0.6h15.9c0.3,0,0.6,0.3,0.6,0.6v3.5c0,0.3-0.3,0.6-0.6,0.6H88.4v5.8h8.8c0.3,0,0.6,0.3,0.6,0.6v3.5
			c0,0.3-0.3,0.6-0.6,0.6H88.4z"/>
		<path fill="#383838" d="M117.4,94c0,0.3-0.3,0.6-0.6,0.6H113c-0.3,0-0.6-0.3-0.6-0.6V70c0-0.3,0.3-0.6,0.6-0.6h8.9
			c6.9,0,9,4.8,9,8.2c0,3.6-2.1,6.3-5,7.5l4.2,9c0.1,0.3-0.1,0.5-0.4,0.5h-4.3c-0.4,0-0.7-0.2-0.9-0.5l-3.9-8.2h-3.4V94z
			 M125.8,77.6c0-1.2-0.6-3.5-3.7-3.5h-4.7v7.1h4.8C125.1,81.1,125.8,78.7,125.8,77.6z"/>
		<path fill="#383838" d="M143.4,94.6c-0.3,0-0.6-0.3-0.6-0.6V69.6c0-0.3,0.2-0.5,0.5-0.5c0.3,0,0.6,0.1,0.9,0.4l14.3,14.2V70
			c0-0.3,0.3-0.6,0.6-0.6h3.9c0.3,0,0.6,0.3,0.6,0.6v24.4c0,0.3-0.2,0.4-0.4,0.4c-0.3,0-0.5-0.1-0.8-0.3L147.9,80v14
			c0,0.3-0.3,0.6-0.6,0.6H143.4z"/>
		<path fill="#383838" d="M185.6,79.3c3.9,1.3,8.9,2.9,8.6,8.3c-0.3,4.1-3.9,7.2-9.2,7.2c-3.6,0-6.3-0.8-9.2-2.3
			c-0.3-0.1-0.4-0.5-0.3-0.8l1.7-3.1c0.1-0.3,0.5-0.4,0.8-0.3c2.2,1,4.5,1.8,6.7,1.8c2.2,0,3.8-0.9,4-2.4c0.3-1.8-1.6-2.8-4-3.5
			c-3.8-1.2-8.9-2.4-8.9-7.9c0-4.6,3.4-7.3,8.2-7.3c1.4,0,4.6,0.3,8.6,2.1c0.3,0.1,0.4,0.5,0.3,0.8l-1.3,3.1
			c-0.1,0.3-0.5,0.5-0.8,0.4c-1.5-0.6-4.2-1.6-6.4-1.6c-1.8,0-3.3,0.6-3.4,2.3C181,77.8,183.1,78.5,185.6,79.3z"/>
		<path fill="#383838" d="M208.4,88.8c1.7,0,3,1.3,3,3c0,1.7-1.3,3-3,3c-1.6,0-3-1.3-3-3C205.4,90.1,206.8,88.8,208.4,88.8z"/>
	</g>
	<g>
		<path fill="#383838" d="M81.8,6.9v2.4h5.1c0.1,0,0.3,0.1,0.3,0.3v1.5c0,0.1-0.1,0.3-0.3,0.3h-7.1c-0.1,0-0.3-0.1-0.3-0.3V0.4
			c0-0.1,0.1-0.3,0.3-0.3h7.1c0.1,0,0.3,0.1,0.3,0.3V2c0,0.1-0.1,0.3-0.3,0.3h-5.1v2.6h3.9c0.1,0,0.3,0.1,0.3,0.3v1.5
			c0,0.1-0.1,0.3-0.3,0.3H81.8z"/>
		<path fill="#383838" d="M96.4,4.6c1.7,0.6,4,1.3,3.8,3.7c-0.1,1.8-1.7,3.2-4.1,3.2c-1.6,0-2.8-0.4-4.1-1c-0.1-0.1-0.2-0.2-0.1-0.4
			l0.7-1.4c0.1-0.1,0.2-0.2,0.4-0.1c1,0.5,2,0.8,3,0.8c1,0,1.7-0.4,1.8-1.1c0.1-0.8-0.7-1.2-1.8-1.6c-1.7-0.5-4-1.1-4-3.5
			c0-2,1.5-3.3,3.6-3.3c0.6,0,2.1,0.1,3.8,0.9c0.1,0.1,0.2,0.2,0.1,0.4L99,2.7c-0.1,0.1-0.2,0.2-0.4,0.2c-0.7-0.3-1.9-0.7-2.8-0.7
			c-0.8,0-1.5,0.3-1.5,1C94.3,3.9,95.3,4.2,96.4,4.6z"/>
		<path fill="#383838" d="M107.3,2.3h-2.8c-0.1,0-0.3-0.1-0.3-0.3V0.4c0-0.1,0.1-0.3,0.3-0.3h7.8c0.1,0,0.3,0.1,0.3,0.3V2
			c0,0.1-0.1,0.3-0.3,0.3h-2.8v8.9c0,0.1-0.1,0.3-0.3,0.3h-1.7c-0.1,0-0.3-0.1-0.3-0.3V2.3z"/>
		<path fill="#383838" d="M124.4,2.5c-0.1-0.1-0.1-0.3,0-0.4c1.1-1.2,2.4-1.7,3.4-1.7c1.9,0,3.4,1,3.4,3.1c0,0.9-0.6,2-1.3,3
			l-2.1,2.8h2.8c0.1,0,0.3,0.1,0.3,0.3v1.5c0,0.1-0.1,0.3-0.3,0.3h-5.9c-0.1,0-0.3-0.1-0.3-0.3v-0.4c0-0.2,0-0.4,0.2-0.5l3.7-5
			c0.7-1,0.8-1.6,0.8-1.8c0-0.5-0.3-1.1-1.2-1.1c-0.6,0-1.4,0.4-2.2,1.1c-0.1,0.1-0.3,0.1-0.4,0L124.4,2.5z"/>
		<path fill="#383838" d="M144.3,6c0,2.3-1,5.5-4.2,5.5c-3.2,0-4.2-3.2-4.2-5.5c0-2.2,1-5.5,4.2-5.5C143.3,0.4,144.3,3.7,144.3,6z
			 M142.1,6c0-0.9-0.3-3.6-2-3.6c-1.8,0-2,2.7-2,3.6c0,0.9,0.3,3.6,2,3.6C141.9,9.5,142.1,6.8,142.1,6z"/>
		<path fill="#383838" d="M157.4,6c0,2.3-1,5.5-4.2,5.5c-3.2,0-4.2-3.2-4.2-5.5c0-2.2,1-5.5,4.2-5.5C156.4,0.4,157.4,3.7,157.4,6z
			 M155.2,6c0-0.9-0.3-3.6-2-3.6c-1.8,0-2,2.7-2,3.6c0,0.9,0.3,3.6,2,3.6C154.9,9.5,155.2,6.8,155.2,6z"/>
		<path fill="#383838" d="M163.7,10.2c-0.1-0.1,0-0.3,0.1-0.4c1-0.6,1.9-1.4,2.6-2.4c-0.2,0.1-0.5,0.2-1.1,0.2
			c-2.8-0.1-3.4-2.2-3.4-3.6c0-1.1,0.7-3.6,3.7-3.6c3,0,3.7,2.6,3.7,3.7c0,3.8-2.4,6-4.5,7.3c-0.1,0.1-0.3,0-0.4-0.1L163.7,10.2z
			 M164,4c0,0.8,0.5,1.6,1.6,1.6c1.1,0,1.6-0.8,1.6-1.6c0-0.8-0.5-1.6-1.6-1.6C164.5,2.4,164,3.2,164,4z"/>
	</g>
	<g>
		<path fill="#383838" d="M94.8,121.9c0,1.5-0.9,3.3-4,3.3h-4c-0.1,0-0.3-0.1-0.3-0.3v-10.7c0-0.1,0.1-0.3,0.3-0.3h4
			c3.1,0,4,1.9,4,3.3c0,0.8-0.6,1.9-1.4,2.2C94.2,120,94.8,120.9,94.8,121.9z M92.5,117.4c0-0.3-0.2-1.3-1.5-1.3h-2.2v2.6H91
			C92.3,118.7,92.5,117.8,92.5,117.4z M92.5,121.9c0-0.4-0.2-1.2-1.5-1.2h-2.2v2.4h2.2C92.3,123.2,92.5,122.2,92.5,121.9z"/>
		<path fill="#383838" d="M100.3,125.3c-0.1,0-0.3-0.1-0.3-0.3v-10.7c0-0.1,0.1-0.3,0.3-0.3h1.7c0.1,0,0.3,0.1,0.3,0.3v4.2l3.9-4.3
			c0.1-0.1,0.3-0.2,0.4-0.2h2.1c0.1,0,0.2,0.1,0.1,0.2l-4.8,5.2l5.2,5.6c0.1,0.1,0,0.2-0.1,0.2H107c-0.2,0-0.3-0.1-0.5-0.2l-4.2-4.5
			v4.4c0,0.1-0.1,0.3-0.3,0.3H100.3z"/>
		<path fill="#383838" d="M122.6,125c0,0.2-0.2,0.3-0.4,0.3h-1.4c-0.1,0-0.2-0.1-0.2-0.3l3.6-10.7c0-0.1,0.2-0.3,0.4-0.3h1.3
			c0.1,0,0.2,0.1,0.2,0.3L122.6,125z"/>
		<path fill="#383838" d="M138.8,125.3c-0.1,0-0.3-0.1-0.3-0.3v-10.8c0-0.1,0.1-0.2,0.2-0.2c0.1,0,0.3,0,0.4,0.2l6.4,6.3v-6.1
			c0-0.1,0.1-0.3,0.3-0.3h1.7c0.1,0,0.3,0.1,0.3,0.3v10.8c0,0.1-0.1,0.2-0.2,0.2c-0.1,0-0.2,0-0.3-0.1l-6.4-6.5v6.2
			c0,0.1-0.1,0.3-0.3,0.3H138.8z"/>
		<path fill="#383838" d="M158.6,125c0,0.1-0.1,0.3-0.3,0.3h-1.7c-0.1,0-0.3-0.1-0.3-0.3v-4.7l-3.7-6c-0.1-0.1,0-0.2,0.1-0.2h2
			c0.2,0,0.3,0.1,0.4,0.2l2.3,3.9l2.3-3.9c0.1-0.1,0.2-0.2,0.4-0.2h2c0.1,0,0.2,0.1,0.1,0.2l-3.7,6V125z"/>
	</g>
	<g>
		<g>
			<polygon fill="#383838" points="34.9,117.9 0,117.9 0,7.9 34.9,7.9 34.9,11.9 4,11.9 4,113.9 34.9,113.9 			"/>
		</g>
		<g>
			<polygon fill="#383838" points="248.9,117.9 213.9,117.9 213.9,113.9 244.9,113.9 244.9,11.9 213.9,11.9 213.9,7.9 248.9,7.9 			
				"/>
		</g>
	</g>
</g>
</svg>
