<?xml version="1.0" encoding="utf-8"?>
<!-- Generator: Adobe Illustrator 16.0.0, SVG Export Plug-In . SVG Version: 6.00 Build 0)  -->
<!DOCTYPE svg PUBLIC "-//W3C//DTD SVG 1.1//EN" "http://www.w3.org/Graphics/SVG/1.1/DTD/svg11.dtd">
<svg version="1.1" id="Layer_1" xmlns="http://www.w3.org/2000/svg" xmlns:xlink="http://www.w3.org/1999/xlink" x="0px" y="0px"
	 width="393.872px" height="1786.557px" viewBox="218.246 -993.819 393.872 1786.557"
	 enable-background="new 218.246 -993.819 393.872 1786.557" xml:space="preserve">
<path fill="#222222" d="M529.026-712.958v-116.334h-89.744v-164.528H306.328v162.867h-88.082v116.334v154.557v1095.2
	l156.221,257.599l154.56-257.599V-558.397h33.234v418.804h49.857v-418.804v-129.63v-24.928L529.026-712.958L529.026-712.958z
	 M357.846-943.962h33.239v113.01h-33.239V-943.962z M268.104-779.434h39.884h132.956h39.884v66.476H268.104V-779.434
	L268.104-779.434z M339.564,641.503l-53.182-88.08H459.22l-53.181,88.08H339.564z M479.166,503.565H268.102V-558.397h212.724
	V503.565H479.166z M268.104-608.255v-54.843h295.819v54.843H268.104z"/>
</svg>
