<?xml version="1.0" encoding="utf-8"?>
<!-- Generator: Adobe Illustrator 16.0.0, SVG Export Plug-In . SVG Version: 6.00 Build 0)  -->
<!DOCTYPE svg PUBLIC "-//W3C//DTD SVG 1.1//EN" "http://www.w3.org/Graphics/SVG/1.1/DTD/svg11.dtd">
<svg version="1.1" id="Layer_1" xmlns="http://www.w3.org/2000/svg" xmlns:xlink="http://www.w3.org/1999/xlink" x="0px" y="0px"
	 width="612.508px" height="731.31px" viewBox="-0.266 30.533 612.508 731.31"
	 enable-background="new -0.266 30.533 612.508 731.31" xml:space="preserve">
<g>
	<g>
		<g>
			<path fill="#383838" d="M182.713,438.574c0,0-35.478,71.843-47.009,110.869c-16.852,52.33-56.765,190.695,40.8,166.748
				c78.052-19.513,176.504-151.67,196.017-186.261c9.757-18.626,54.991-109.982,77.165-114.418
				c17.739-3.548,78.939,11.531,78.939,38.14c0,14.191-14.191,23.061-25.722,33.704c-40.8,42.574-77.165,104.661-78.939,177.392
				c-1.773,75.391,40.801,83.374,37.253,95.791c-2.661,8.869-114.418-25.722-108.209-158.766c0,0-49.67,74.505-102,115.305
				C80.713,846.574-36.365,664.748,89.583,412.853c-106.435-64.748-135.704-219.079,8.87-349.461
				c16.852-15.078,39.913-17.739,64.748-6.208c22.174,10.644,41.687,41.687,22.174,52.331
				c-68.296,35.478-191.583,178.278-79.826,272.295c0,0,204.887-342.365,424.853-351.235c30.156-0.887,78.052,12.417,81.6,53.218
				C619.982,195.548,429.287,440.348,182.713,438.574z M199.565,408.417C433.722,412.853,612,103.304,580.956,77.583
				C531.287,35.009,289.148,260.296,199.565,408.417z"/>
		</g>
	</g>
</g>
</svg>
