<?xml version="1.0" encoding="utf-8"?>
<!-- Generator: Adobe Illustrator 16.0.0, SVG Export Plug-In . SVG Version: 6.00 Build 0)  -->
<!DOCTYPE svg PUBLIC "-//W3C//DTD SVG 1.1//EN" "http://www.w3.org/Graphics/SVG/1.1/DTD/svg11.dtd">
<svg version="1.1" id="Layer_1" xmlns="http://www.w3.org/2000/svg" xmlns:xlink="http://www.w3.org/1999/xlink" x="0px" y="0px"
	 width="609.007px" height="502.247px" viewBox="1.274 144.312 609.007 502.247"
	 enable-background="new 1.274 144.312 609.007 502.247" xml:space="preserve">
<path fill="#222222" d="M596.528,144.582c-6.018,0-145.266-6.017-195.979,38.68c-7.735,6.876-14.611,14.612-19.77,22.348
	c-25.787-18.05-57.59-24.927-88.534-23.208c-28.365-16.332-60.168-22.349-91.112-17.191c-31.803,6.017-60.168,22.348-80.798,47.275
	c-31.803,8.596-57.59,26.646-76.5,53.292c-18.05,25.786-26.646,56.73-24.067,89.393C4.298,382.677-2.579,415.34,3.438,447.144
	c5.158,30.943,21.489,59.31,46.416,80.799c8.595,30.942,26.646,57.59,53.292,76.5c23.208,16.331,50.713,24.066,79.079,24.066
	c3.438,0,7.736,0,11.174-0.859c21.489,12.033,44.697,18.909,68.764,18.909c7.736,0,15.472-0.858,23.208-1.719
	c31.803-6.017,60.168-22.349,80.798-47.274c31.803-8.597,57.59-27.507,76.5-53.292c18.05-25.786,26.646-56.73,24.067-89.395
	c14.611-25.786,20.629-54.15,17.189-83.376c21.489-0.86,41.259-9.455,59.311-24.927c50.713-43.837,65.324-182.225,66.186-188.241
	l0.859-13.753H596.528z M367.888,227.098c36.102,25.787,53.292,71.343,46.416,117.759c-7.735-17.191-18.051-34.382-30.943-48.995
	l-11.175-12.034l-33.521,48.135c-7.736-9.455-16.332-18.05-26.646-25.787c-10.313-6.876-21.488-12.893-32.663-16.331l33.523-48.135
	l-14.613-6.017c-18.91-7.736-37.82-11.174-56.73-12.893C282.792,201.312,331.786,201.312,367.888,227.098z M441.809,327.666
	c7.736,12.034,13.753,25.787,15.474,40.399c6.876,41.259-9.455,81.657-42.979,110.022c11.174-26.646,15.473-55.011,12.033-83.376
	C436.651,372.362,440.949,349.154,441.809,327.666z M214.888,553.729l21.489-30.084c2.579,0,5.157,0,6.876,0
	c38.68,0,75.641-18.91,97.988-50.715c24.928-35.24,27.506-79.079,11.175-116.039l21.488-30.944
	c36.102,50.713,37.819,118.618,0.858,170.19C338.663,548.57,275.056,570.919,214.888,553.729z M112.601,312.194
	c36.101-52.433,100.567-73.921,160.736-57.59l-21.489,30.084c-2.579,0-5.157,0-7.736,0c-38.68,0-75.64,18.91-97.989,50.713
	c-18.05,25.786-24.927,57.59-19.77,89.393c1.719,9.455,4.298,18.91,8.595,27.506l-21.488,30.084
	C76.5,431.671,75.641,364.626,112.601,312.194z M333.506,429.093l-35.242-2.579l-52.433-115.179c18.05,0,36.101,6.017,51.573,17.191
	C330.067,350.874,343.82,392.132,333.506,429.093z M151.281,420.497c-4.297-24.927,0.86-49.854,15.472-69.624
	c12.893-18.05,30.944-30.944,52.433-36.101l12.034,27.506l-72.202,103.146C155.579,436.829,153,429.093,151.281,420.497z
	 M243.253,368.064l24.927,55.871l-61.028-4.298L243.253,368.064z M190.82,443.705l131.511,10.313
	c-0.859,1.721-1.719,2.579-2.578,4.299c-17.191,24.927-46.416,39.539-76.5,39.539c-18.91,0-37.82-6.018-53.292-17.19
	c-6.017-4.298-11.174-8.596-15.472-13.753L190.82,443.705z M205.433,190.997c14.612-2.579,29.225-1.719,42.978,0.86
	c-20.629,7.736-40.399,19.77-57.59,36.96c-27.506,6.876-53.292,20.629-73.921,40.399
	C131.511,227.958,164.174,197.874,205.433,190.997z M64.466,280.391c8.596-12.034,18.91-21.489,30.944-29.225
	c-6.017,12.893-10.314,27.505-12.034,42.118c-12.893,7.736-24.927,16.332-35.242,25.787
	C50.713,305.317,56.73,292.424,64.466,280.391z M29.225,442.846c-7.736-41.259,9.455-82.517,42.978-110.882
	c-10.314,25.787-14.612,54.152-12.034,81.658c-10.314,22.348-15.472,46.415-16.332,69.623
	C36.96,471.211,30.944,457.458,29.225,442.846z M118.618,583.812c-37.82-26.646-54.152-73.922-45.556-122.057
	c7.736,18.051,18.05,35.241,31.803,50.713l11.174,12.034l33.522-48.135c7.736,9.455,16.331,18.051,26.646,24.927
	c10.314,6.877,21.489,12.895,33.522,16.332l-33.522,48.135l14.612,6.018c18.91,7.734,39.539,12.033,59.309,12.894
	C206.292,608.738,156.438,609.599,118.618,583.812z M281.073,619.913c-14.613,2.578-29.225,1.719-42.978-0.859
	c21.489-8.596,42.118-21.488,59.309-38.68c26.646-6.877,51.573-19.771,72.203-38.681
	C354.994,582.093,322.331,612.177,281.073,619.913z M421.18,529.66c-8.596,12.033-18.91,21.488-30.942,29.225
	c6.017-12.894,10.313-27.506,12.032-42.118c12.895-7.734,24.928-16.331,35.242-25.786
	C434.933,504.733,429.775,518.486,421.18,529.66z M526.045,327.666c-14.612,12.034-30.084,18.91-47.275,18.91
	c-5.156-17.191-14.611-33.522-25.785-47.275l90.253-78.219l-17.191-19.77l-90.253,78.219c-6.876-21.489-18.051-42.118-33.521-57.59
	c4.298-6.876,9.454-13.752,16.332-19.77c31.803-27.505,119.478-32.663,164.174-32.663
	C575.898,214.205,557.849,299.301,526.045,327.666z"/>
</svg>
